<svg xmlns="http://www.w3.org/2000/svg" xmlns:xlink="http://www.w3.org/1999/xlink" width="103.292" height="89.733" viewBox="0 0 103.292 89.733">
  <defs>
    <clipPath id="clip-path">
      <rect id="Rectangle_54" data-name="Rectangle 54" width="41.691" height="96.904" fill="#c6861e"/>
    </clipPath>
  </defs>
  <g id="Groupe_577" data-name="Groupe 577" transform="matrix(0.574, -0.819, 0.819, 0.574, -1288.217, 782.239)">
    <g id="Groupe_52" data-name="Groupe 52" transform="translate(1351.689 626.16)" clip-path="url(#clip-path)">
      <path id="Tracé_574" data-name="Tracé 574" d="M6.408,9.868c13.085-6.209,24-6.242,28.724,1.453,3.906,6.374,3.053,17.9-2.35,31.574A142.682,142.682,0,0,1,4.832,85.8l1.076-13.64c.125-1.486-.7-2.84-1.829-2.972-1.124-.165-2.149.925-2.25,2.411L0,94.45l17.344,2.444c1.124.132,2.127-.958,2.252-2.444a2.625,2.625,0,0,0-1.827-2.972L7.407,90.025A148.023,148.023,0,0,0,36.436,45.405c6.281-15.919,6.954-29.229,1.9-37.485C35.258,3.263,30.906.489,26.252.159a33.812,33.812,0,0,0-16.09,2.378C7.732,3.527,5.33,4.65,2.955,5.872Z" transform="translate(-0.002 -0.001)" fill="#c6861e"/>
    </g>
  </g>
</svg>
