<svg xmlns="http://www.w3.org/2000/svg" width="119.917" height="69.115" viewBox="0 0 119.917 69.115">
  <g id="Layer_1" data-name="Layer 1" transform="translate(-961.3 -872.886)">
    <path id="Tracé_10636" data-name="Tracé 10636" d="M1040.608,941.246c-2.623-1.692-4.434-2.944-6.262-4.124-2.674-1.692-4.23-4.366-5.644-7.046-1.852-3.589-2.648-7.614-3.6-11.481-.847-3.291-1.786-6.523-1.439-9.992a9.583,9.583,0,0,0-.687-2.81,25.843,25.843,0,0,1,13.115-14.248,12.986,12.986,0,0,0,3.265-2.327,10.089,10.089,0,0,1,5.924-2.615c.668-.086,1.531.288,2.014,0,3.689-2.277,7.429-1.067,11.27-.618a16.073,16.073,0,0,1,9.832,4.78c1.092,1.075,2.31,2.031,3.385,3.122a13.806,13.806,0,0,1,3.63,6.033c.965,3.385,2.657,6.566,3.841,9.909.728,2.072,1.007,4.3,1.633,6.405a8.007,8.007,0,0,1-1.692,7.615c-2.64,3.385-5.382,6.6-9.139,8.792-3.224,1.9-6.388,3.908-9.705,5.635C1053.824,941.67,1046.945,942.956,1040.608,941.246Zm12.608-51.436c-3.038.6-3.038.592-4.019,1.692-4.434,4.916-9.087,9.68-11,16.3-.33,1.133-.965,2.182-1.388,3.3a8.625,8.625,0,0,0-.651,2.445c-.433,7.264.315,14.31,3.983,20.774a12.317,12.317,0,0,0,1.54,1.794c4.125-1.582,5.822-4.806,7.116-8.4.753-2.073,1.794-4.054,2.437-6.16q1.861-6.091,3.385-12.288a15.227,15.227,0,0,0-.271-9.011c-.6-1.692-.414-3.715-.592-5.586-.183-1.479-.347-2.993-.542-4.862Z" fill="#fff"/>
    <path id="Tracé_10637" data-name="Tracé 10637" d="M961.3,891.934a16.835,16.835,0,0,1,7.15-9.045c3.385-2.32,6.71-4.722,10.154-6.955a16.37,16.37,0,0,1,12.108-2.809c.669.118,1.413.5,2.006.338,4.662-1.337,8.173,1.692,11.939,3.326,2.047.846,3.781,2.945,5.156,4.839,2.377,3.309,4.4,6.879,6.49,10.382a13.84,13.84,0,0,1,1.011,2.876c.774,2.411,1.523,4.831,2.378,7.555a75.443,75.443,0,0,0-3.918,6.668c-2.062,4.391-5.609,7.175-9.629,9.544-3.5,2.072-7.046,4.027-11.372,3.715a4.6,4.6,0,0,0-2.961.592c-1.591,1.295-3.308.846-4.848.508a49.525,49.525,0,0,1-7.294-1.692,14.4,14.4,0,0,1-5.077-3.131c-1.447-1.362-2.724-3.029-4.281-4.3a11.726,11.726,0,0,1-3.249-4.494c-1.93-4.572-4.071-8.986-4.773-13.953A32.4,32.4,0,0,0,961.3,891.934Zm29.818-11.429L989.7,876.84a5.23,5.23,0,0,0-1.692.093c-5.771,2.725-9.612,7.615-12.539,12.963-2.4,4.382-4.231,9.307-1.938,14.554.194.439,0,1.04.127,1.514.847,3.08,1.2,6.38,3.74,8.724,4.357.626,5.077-4.18,7.835-5,.991-2.109,1.85-3.759,2.537-5.476,1.76-4.392,3.639-8.673,2.97-13.7-.392-2.945.179-6.016.382-10.01Z" fill="#fff"/>
  </g>
</svg>
