<svg xmlns="http://www.w3.org/2000/svg" width="164.29" height="145.483" viewBox="0 0 164.29 145.483">
  <g id="Groupe_579" data-name="Groupe 579" transform="translate(-794.71 -783)">
    <g id="Groupe_578" data-name="Groupe 578" transform="matrix(0.883, -0.469, 0.469, 0.883, 794.71, 847.444)">
      <path id="Tracé_10760" data-name="Tracé 10760" d="M84.985.9a43.828,43.828,0,0,0-29.125,20,61.014,61.014,0,0,0-5.6,13.22c-1.954-.761-4.18-1.414-6.253-.8-3.647,1.088-6.24,3.654-10.023,4.51a25.127,25.127,0,0,1-8.378.655c-2.689-.254-5.737.069-7.714,1.936-5.522,5.213-7.393,13.638-10.62,20.012a39.506,39.506,0,0,1-5.647,7.677c-.973,1.148-2.309,3.61-1.2,5.068A13.938,13.938,0,0,0,4.61,76.331c3.109,1.846,4.838,3.745,7.312,6.22,4.561,4.562,12.739,8.179,19.545,8.945,13.841,1.559,29.9-3.316,38.628-13.118a56.165,56.165,0,0,0,29.772,3.138c17.542-2.907,32.28-14.306,36.268-29.9C143.054,24.559,117.337-5.623,84.985.9ZM34.505,89.285c-7.277-.039-16.921-4.11-21.321-9.3-2.474-2.92-4.8-4.365-8.205-6.39C.715,71.062,7.99,64.861,9.655,61.685c2.822-5.381,4.7-11.162,7.655-16.467,3.442-6.173,10.268-3.32,16.25-4.732,5.563-1.313,10.123-6.041,15.929-3.957q-.182.577-.364,1.153a.726.726,0,0,0-.528-.19,12.417,12.417,0,0,0-5.748,1.483.184.184,0,0,0,.157.331A35.889,35.889,0,0,1,48.6,38.9a1.247,1.247,0,0,0,.151-.028c-1.926,6.038-4.028,11.981-7.878,16.973A12.909,12.909,0,0,1,37.1,57.595c-3.334.838-6.5-.565-9.385-1.865-.044-.02-.1.022-.071.063a7.8,7.8,0,0,0,.854,1.036,9.864,9.864,0,0,0,3.984,2.546,26.05,26.05,0,0,1-4.5,1.129,50.025,50.025,0,0,1-7.465-.178c-.118-.005-.223.135-.145.226,1.289,1.52,3.978,1.857,6.1,1.922-1.563.432-3.06,1.2-4.6,1.649a40.038,40.038,0,0,1-6.97,1.548c-.241.024-.238.3,0,.331a19.154,19.154,0,0,0,5.557-.214c-4.625,2.518-9.514,5.418-14.858,5.725-.153.009-.288.2-.14.3,2.24,1.588,5.805.593,8.909-.749.75-.26,1.468-.6,2.04-.85,1.588-.684,3.125-1.451,4.657-2.226a67.666,67.666,0,0,1,7.778-2.576,23.136,23.136,0,0,1,6.911-.62,40.653,40.653,0,0,0,4.375,1.565,3.994,3.994,0,0,0,3.039-.075,4.058,4.058,0,0,0,1.6-1.664c6.714,3.743,13.1,7.946,20.032,11.4a36.517,36.517,0,0,1-11.275,6.9C48.641,84.74,43.5,86.748,38.2,87.312c-.242.026-.256.359,0,.346,10.728-.5,20.805-3.929,28.354-10.792.328.152.653.31.983.456C59.772,85.827,46.539,89.349,34.505,89.285Zm95.156-29.046c-4.538,7.709-12.555,13.148-21.449,16.435-13.846,5.118-28.231,3.664-41.29-2.413C57.851,70.04,49.9,64.191,40.957,59.767c7.531-7.972,9.269-18.881,12.965-28.521C58.564,19.132,66.59,9.494,80.329,4.749a40.384,40.384,0,0,1,45.33,13.12C135.222,30.04,137.5,46.928,129.661,60.239Z" transform="translate(0 0)" fill="#fff"/>
      <path id="Tracé_10761" data-name="Tracé 10761" d="M.053.209A.11.11,0,0,0,.053.4a1.561,1.561,0,0,0,1,.149A.28.28,0,0,0,1.245.351C1.444-.236.273.057.053.209Z" transform="translate(35.668 87.685)" fill="#fff"/>
      <path id="Tracé_10762" data-name="Tracé 10762" d="M12.537,5.927A33.028,33.028,0,0,1,.21.035.126.126,0,0,0,.032.213c1.7,2.2,4.222,3.483,6.726,4.574,1.652.72,3.9,1.826,5.779,1.434A.154.154,0,0,0,12.537,5.927Z" transform="translate(12.848 81.561)" fill="#fff"/>
      <path id="Tracé_10763" data-name="Tracé 10763" d="M5.207.482A.322.322,0,0,0,4.931,0C3.215.083,1.723,1.3.078,1.707a.11.11,0,0,0,0,.21C1.818,2.518,4.161,2.171,5.207.482Z" transform="translate(31.915 40.764)" fill="#fff"/>
      <path id="Tracé_10764" data-name="Tracé 10764" d="M.257,5.444A9.107,9.107,0,0,1,2.585,2.527C3.553,1.69,4.728,1.136,5.711.32A.188.188,0,0,0,5.579,0,6.5,6.5,0,0,0,0,5.337C-.025,5.483.185,5.6.257,5.444Z" transform="translate(25.258 67.381)" fill="#fff"/>
      <path id="Tracé_10765" data-name="Tracé 10765" d="M2.622.046C1.088,1.6.643,3.476.293,5.561,0,7.32-.3,9.321.612,10.938a.257.257,0,0,0,.475-.129A25.922,25.922,0,0,1,2.851.224C2.912.079,2.748-.081,2.622.046Z" transform="translate(33.596 72.163)" fill="#fff"/>
      <path id="Tracé_10766" data-name="Tracé 10766" d="M1.983,7.544a.175.175,0,0,0,.334,0C2.988,5.183,1.1,2.256.292.1A.15.15,0,0,0,0,.185,24.419,24.419,0,0,0,.933,3.622C1.371,4.9,1.482,6.307,1.983,7.544Z" transform="translate(45.178 72.228)" fill="#fff"/>
      <path id="Tracé_10767" data-name="Tracé 10767" d="M.379,2.5C1.4,2.441.327.485.221.08A.113.113,0,0,0,0,.11C-.007.6.082,1.076.123,1.565.138,1.753.008,2.519.379,2.5Z" transform="translate(48.653 78.487)" fill="#fff"/>
      <path id="Tracé_10768" data-name="Tracé 10768" d="M.008.182C.381,1.4.791,2.6,1.218,3.8s.439,2.433.747,3.653a.216.216,0,0,0,.391.051C3.5,5.153,1.091,2.2.3.1.229-.074-.05-.006.008.182Z" transform="translate(34.141 45.959)" fill="#fff"/>
      <path id="Tracé_10769" data-name="Tracé 10769" d="M.1.587a2.065,2.065,0,0,0,1.763.56.158.158,0,0,0,.094-.23,1.372,1.372,0,0,0-.6-.434C1.069.346.8.2.519.045A.347.347,0,0,0,.1.587Z" transform="translate(13.402 59.027)" fill="#fff"/>
      <path id="Tracé_10770" data-name="Tracé 10770" d="M.356,1.719C.43,1.509,1.34-.013.6,0-.1.013-.048,1.268.073,1.719A.148.148,0,0,0,.356,1.719Z" transform="translate(18.723 75.969)" fill="#fff"/>
      <path id="Tracé_10771" data-name="Tracé 10771" d="M.248,3.577c1.2-.935,1.667-2.275,3.387-2.322A9.094,9.094,0,0,0,7.79.45c.131-.062.06-.258-.071-.26C5.962.16,3.88-.253,2.172.243.918.607.377,2.359.009,3.438-.043,3.588.147,3.656.248,3.577Z" transform="translate(15.002 42.798)" fill="#fff"/>
      <path id="Tracé_10772" data-name="Tracé 10772" d="M.315,1.7C.649,1.244,1.443.748,1.1.091A.18.18,0,0,0,.849.026,3.189,3.189,0,0,0,.01,1.572C-.056,1.763.211,1.841.315,1.7Z" transform="translate(13.38 47.805)" fill="#fff"/>
      <path id="Tracé_10773" data-name="Tracé 10773" d="M1.178,2.645c.284.607.361,1.774,1.011,2.1a.171.171,0,0,0,.2-.026c.575-.5.122-1.452-.136-2.019A10.17,10.17,0,0,0,.343.061C.188-.11-.088.111.027.3.468,1.045.813,1.865,1.178,2.645Z" transform="translate(55.892 75.169)" fill="#fff"/>
      <path id="Tracé_10774" data-name="Tracé 10774" d="M.378.086a.12.12,0,0,0-.229,0,6.21,6.21,0,0,0,1.1,4.826c.082.113.317.094.3-.081A13.136,13.136,0,0,0,.983,2.571C.744,1.751.628.9.378.086Z" transform="translate(32.535 45.494)" fill="#fff"/>
      <path id="Tracé_10775" data-name="Tracé 10775" d="M.67,2A10.533,10.533,0,0,1,.881.2.161.161,0,0,0,.588.074,3.634,3.634,0,0,0,.28,3.433.151.151,0,0,0,.554,3.4,5.321,5.321,0,0,0,.67,2Z" transform="translate(37.409 69.563)" fill="#fff"/>
      <path id="Tracé_10776" data-name="Tracé 10776" d="M3.1,3.738a8.028,8.028,0,0,1-1.23-1.174C1.209,1.8.817.867.226.058A.123.123,0,0,0,0,.152,6.667,6.667,0,0,0,1.3,3.007c.471.649,1.387,1.768,2.285,1.667A.187.187,0,0,0,3.742,4.4,1.726,1.726,0,0,0,3.1,3.738Z" transform="translate(17.02 51.017)" fill="#fff"/>
      <path id="Tracé_10777" data-name="Tracé 10777" d="M24.119.006a.274.274,0,0,0-.269.312c.03,8.172-.3,16.137-4.237,23.517a33.028,33.028,0,0,1-7.77,9.45C8.318,36.3,4.164,38.238.085,40.36a.132.132,0,0,0-.067.192.168.168,0,0,0,.193.106c8.144-1.405,16.053-7.23,20.745-13.922A29.744,29.744,0,0,0,24.491.231.311.311,0,0,0,24.119.006Z" transform="translate(106.604 34.306)" fill="#fff"/>
      <path id="Tracé_10778" data-name="Tracé 10778" d="M1.964,4.737c.509-.471.1-1.622-.038-2.2A3.449,3.449,0,0,0,.394.029.265.265,0,0,0,0,.256C.008.758,1.337,5.319,1.964,4.737Z" transform="translate(128.559 24.583)" fill="#fff"/>
      <path id="Tracé_10779" data-name="Tracé 10779" d="M12.811.005c-3.152.727-5.6,2.846-7.8,5.129A22.056,22.056,0,0,0,2.31,8.595C1.3,10.18.907,12.018.015,13.653c-.068.124.107.274.2.157,1.894-2.319,3.288-4.912,5.3-7.165C7.714,4.192,10.465,2.4,13.026.375,13.212.228,13.008-.04,12.811.005Z" transform="translate(60.516 8.966)" fill="#fff"/>
      <path id="Tracé_10780" data-name="Tracé 10780" d="M2.194.131a3.5,3.5,0,0,0-2.163,1.3c-.1.138.065.294.2.265A19.044,19.044,0,0,1,3.041,1.1c.367-.022,1.5.16,1.3-.565C4.124-.239,2.732.022,2.194.131Z" transform="translate(75.42 6.749)" fill="#fff"/>
      <path id="Tracé_10781" data-name="Tracé 10781" d="M1.5.047A2.948,2.948,0,0,0,.119.117a.168.168,0,0,0,0,.321c.35.127,2.2.844,2.2-.006C2.315.067,1.74.068,1.5.047Z" transform="translate(80.361 5.961)" fill="#fff"/>
    </g>
    <ellipse id="Ellipse_2" data-name="Ellipse 2" cx="40.5" cy="35" rx="40.5" ry="35" transform="translate(856.71 799)" fill="#fff"/>
    <ellipse id="Ellipse_3" data-name="Ellipse 3" cx="9.5" cy="13.5" rx="9.5" ry="13.5" transform="translate(859.71 855)" fill="#fff"/>
    <ellipse id="Ellipse_4" data-name="Ellipse 4" cx="16" cy="11.5" rx="16" ry="11.5" transform="translate(887.71 855)" fill="#fff"/>
    <rect id="Rectangle_2269" data-name="Rectangle 2269" width="31" height="16" transform="translate(877.71 863)" fill="#fff"/>
    <rect id="Rectangle_2270" data-name="Rectangle 2270" width="31" height="5" transform="translate(873.71 876)" fill="#fff"/>
    <rect id="Rectangle_2271" data-name="Rectangle 2271" width="31" height="4" transform="translate(867.71 878)" fill="#fff"/>
    <rect id="Rectangle_2272" data-name="Rectangle 2272" width="9.844" height="32.217" transform="matrix(0.996, -0.087, 0.087, 0.996, 855.078, 835.391)" fill="#fff"/>
    <rect id="Rectangle_2273" data-name="Rectangle 2273" width="5.37" height="30.427" transform="matrix(0.848, 0.53, -0.53, 0.848, 929.624, 845.639)" fill="#fff"/>
    <path id="Tracé_10782" data-name="Tracé 10782" d="M0,0,4.374,4.587l.1,25.84H0Z" transform="matrix(0.819, 0.574, -0.574, 0.819, 935.322, 844.632)" fill="#fff"/>
    <rect id="Rectangle_2274" data-name="Rectangle 2274" width="2.685" height="8.054" transform="matrix(0.985, 0.174, -0.174, 0.985, 936.192, 840.103)" fill="#fff"/>
    <rect id="Rectangle_2275" data-name="Rectangle 2275" width="7" height="8" transform="translate(858.71 873)" fill="#fff"/>
    <path id="Tracé_10783" data-name="Tracé 10783" d="M-273.19,814.775s22.008,10.572,15.641,34.576" transform="translate(1192.554 -4.719)" fill="none" stroke="#f5f5f5" stroke-linecap="round" stroke-width="2"/>
  </g>
</svg>
