<svg xmlns="http://www.w3.org/2000/svg" width="115.004" height="103.337" viewBox="0 0 115.004 103.337">
  <g id="Layer_1" data-name="Layer 1" transform="translate(-382.996 -884.663)">
    <path id="Tracé_10632" data-name="Tracé 10632" d="M438.136,930.557c1.116-.632,2.232-1.264,3.356-1.881-.165-.29.348-1,.68-.472l-.063.129c1.918-1.056,3.845-2.1,5.8-3.071-.52-.136-.7-.98.2-1.452.185.349.163.779.532,1.062.883-.429,1.766-.864,2.663-1.263a36.781,36.781,0,0,0,7.256-4.123,8.084,8.084,0,0,0-2.667-7.133c-2.357-2.271-5.444-2.468-8.3-1.851-3.5,2.9-6.663,5.73-10.07,8.247a53.674,53.674,0,0,0-7.774,7.023,9.913,9.913,0,0,0-.705.96l-.127,3.642,2.7,2.538A19.126,19.126,0,0,0,438.136,930.557Zm14.3-19.31a2.113,2.113,0,0,0,2.842,2.178C453.771,916.323,448.954,912.35,452.439,911.247Zm-7.312,14.223c-.255.641-.706.609-.887.129A.685.685,0,0,1,445.127,925.47Zm-1.3-9.463c-.544.929.15,1.137.811,1.211C443.37,919.212,441.356,915.286,443.825,916.007Zm-1.016,5.042c-.128.725-.665.239-.878.7-.481-.412.422-1.2.879-.7Zm-.942-2.66.453.214-.22.452-.445-.213Z" fill="#fff"/>
    <path id="Tracé_10633" data-name="Tracé 10633" d="M433.209,937.753l-.639,1.356c1.6-.543.488,1.563-.387,2.525a2.739,2.739,0,0,0,1.36,1.4c1.171.1,2.14.155,2.993.163a2.182,2.182,0,0,1-1-.469c.237-.567.483-1.1.868-1.238.3.228.483,1.417.913.98.189.422.058.653-.215.722a14.577,14.577,0,0,0,5.582-1.3c-.22-.387.347-.345.439-.174,1.569-.63,3.157-1.209,4.706-1.9a76.119,76.119,0,0,0,13.846-7.322h0c.161-.417.5-.347.655-.794a.5.5,0,0,1,.191.175c.412-.311.824-.627,1.226-.963a8.366,8.366,0,0,0-2.333-7.3c-3.73-.539-3.745-.554-5.995.592-5.541,2.834-11.112,5.716-16.681,8.512q-1,.5-1.97,1.047c-.023.65.168,1.384.851,1.114-.366,1.9-1.813.739-2.021-.406a13.1,13.1,0,0,0-3.413,3.112,4.714,4.714,0,0,1,1.008.167Zm30.154-9.965-6.963,3.039.674.315q-.225.977-1,.359a6.141,6.141,0,0,0,.323-.675Zm-6.352.572c0-.037-.215-.066-.23-.11-.6-1.7,1.342,1.25.23.109Zm-3.061,4.072c-.183-1.014.5.907,0,0Zm-4.734,3.553c-.608-.976.9.033,0,0Zm-2.5,2.415" fill="#fff"/>
    <path id="Tracé_10634" data-name="Tracé 10634" d="M497.46,953.672c-.278-.162-.192-.332-.058-.417l-.9-1.374c-4.4-.993-8.805-2.27-13.3-2.9l-.871-.1a1.757,1.757,0,0,1-2.784-.279c-3.325-.248-6.723-.294-10.267-.491a16.623,16.623,0,0,1-2.4,1.3c-3.133,1.138-6.246,2.342-9.4,3.384a.8.8,0,0,1-.032.9,2.919,2.919,0,0,1-.824-.6c-.863.277-1.726.538-2.6.784a53.048,53.048,0,0,1-9.115,1.373,9.029,9.029,0,0,1-3.406-.608l-.26-.082a1.092,1.092,0,0,1-.289.136.519.519,0,0,1-.137-.274c-1.393-.472-2.772-1.024-4.1-1.516l-2.552-6.549a7.744,7.744,0,0,1-5.566-6.242c.383-1.635,1.577-3.366.606-5.434l-2.146-2.428.235-6.733c.992-.8,2.655-1.5,3.158-2.682,1.216-2.876,3.565-4.1,6.147-5.219a5.347,5.347,0,0,0,3.261-4.809c-5.393.279-8.929,5.019-14.38,4.967l-.995-1.8c1.311-4.119,2.635-8.164,3.887-12.264a13.067,13.067,0,0,0,.483-6.923c-.133-.58-.285-1.155-.458-1.715h0a27.937,27.937,0,0,0-6.047-10.4c-2.193.156-2.814.369-3.442.827a3.727,3.727,0,0,0-1.314,3.142c-.3,4.219-.621,8.437-2.15,12.434-1.2,3.16-2.554,6.257-3.8,9.4-.856,2.158-1.293,4.623-2.541,6.549-1.844,2.853-2.333,6.023-2.771,9.145-.962,6.633-1.749,13.277-3.53,19.352-6.556,6.211-13.841,10.923-19.8,17.2.2,1.553-.005,3.231.656,4.4a46.827,46.827,0,0,0,18.294,19.135,8.587,8.587,0,0,0,6.808,1.6c.415-.379.977-.841,1.506-1.348,3.375-3.266,6.728-6.548,10.124-9.784a7.2,7.2,0,0,1,2.432-1.759,126.485,126.485,0,0,1,13.026-4,43.41,43.41,0,0,0,9.449-3.521l.1-.135.124,0c2.04-.971,4.073-1.973,6.172-2.839,2.04-2.015,4.721-2.98,7.215-4.193a9.879,9.879,0,0,1,4.2-1.145c1.59.005,3.169-.086,4.745-.1,5.414-.058,10.833.321,16.248.329,1.159.04,2.321-.036,3.473-.1.146-.212.312-.361.63-.087l0,.059q2.771-.156,5.538-.477a5.636,5.636,0,0,0,4.27-4.65l-.412-.627ZM384.57,966.283c-.768-.166-.708-.616-1.246-.868.556-1.082.925-2.659,2.078-2.05C384.825,964.62,386.35,965.63,384.57,966.283Zm2-.147c-.649-.368.669-.84,0,0ZM405.316,954.6c.477.119-.159,1.187-.545.564.107-.363.382-.288.545-.566Zm-.266-2.339.166.889c-.339.1-.462.8-1,.352.1-.646.44-.765.995-.352ZM390.469,965.5c.23-.722.82-.49,1.464-.138a.817.817,0,0,1-1.464.138Zm6.741,7.9a.73.73,0,0,1,.129.887C396.8,974.165,397.058,973.759,397.21,973.4Zm1.811,1.412c-.492-.309-.225-.847.2-1.007C399.717,974.114,399.457,974.653,399.021,974.812Zm2.576-16.475c.71.567.459,1.475,1.265,1.985C401.277,963.286,398.873,959.03,401.6,958.337Zm.988,15.936c.507.507-.153,1.454,1.145,1.653-.961,1.418-2.8-1-1.146-1.63Zm1.026,1.32c.641-.6-.393-1.472,1.087-1.7.235.169-.01.284-.11.23-.18.774.462.578,1.017.765a1.879,1.879,0,0,1-2,.725Zm2.481-21.475,2.181,31.443,1.427-40.754c-.626-.212-.6-.663-.248-1.22.594.3.839,1.028.249,1.219Zm1.412-24.466.425-.9c.725.127.239.664.7.877-.254.37-.639.327-1.124.019Zm1.334,50.632c.876.6.18,1.042-.3,1.791-.226.809.7.754,1.238.868-2.07,2.276-3.338-1.088-.942-2.66Zm1.135-4.709.213-.444.453.213-.213.445ZM413.13,982.9c-.219-.628.246-.575.535-1.127,1.013.209.264,1.794-.536,1.124Zm.437-50.893a1.923,1.923,0,0,1,1.185-1.368c-.127.725.1,2.331,1.266,1.984C415.983,934.245,414.044,933.018,413.567,932.009ZM415,976.059l-.452-.214.213-.452.452.213Zm1.714-65.757c-3.3-.845-3.866-5.015-.656-5.011-1.028,2.058.564,2.829,1.857,3.644C417.666,909.809,417.128,909.9,416.713,910.3Zm-.108,39.721c-.507-1.076,1.046-.431,0,0Zm1.029-10.286c.108-.39.4-.286.544-.564.411.131.4.664.675.315.509.645-.7.785-1.22.249Zm2.086-7.294c-1.024-.766-1.311.537-2.353-.287C417.915,931.716,420.244,931.039,419.72,932.443Zm1.994-36.081c.516.748.214,1.8,1.052,2.437-1.307,1.267-2.845-1.435-1.082-2.438Zm2.086,9.556c-.347-1.6,1.585-.309,0,0Zm.41,3.786.674.323a.6.6,0,0,1-.7.495.592.592,0,0,1-.3-.143,7.1,7.1,0,0,1,.294-.675Zm-.331,22.768-.452-.213c.072-.15.142-.3.22-.452l.444.219Zm-.327-11.485c.252-.534.71-.478.868-1.246.707.645.678,1.482.83,2.334a1.558,1.558,0,0,1-1.741-1.089Zm1.025,12.371c-.621-.752,1.073-.357,0,0Zm.165,24.1c.514.126.527.433.794.654-.515.354-1.354.135-.86-.657Zm.808-1.8c.186-.351.3-.915.654-.793C427.09,954.989,426.132,956.527,425.55,955.653Zm1.054,14.035c-.623-.329.041-1.166.655-.794-.143.549-.453.538-.67.793Zm-1.329-3.694c.317-.718.89-.647,1.312-1.026-.294,1.127.87.76,1.252,1.422-.645,1.32-2.079.54-2.548-.359Zm4.505-3.657,2.3-13.552c-.524,1.616-1.389-.778,0,0Zm1.5,7.893.439-.852c.775.159.139.822.913.98-.266.5-.8.213-1.339-.09Zm4.837,2.023c-.006-1.057.609-.934,1.22-.241-.2.656-.649.628-1.2.283Zm3.527-2.188a.6.6,0,0,1,1-.352c-.133.7-.462.8-.984.388Zm7.239-.7-.437-.2.213-.452.447.22Zm3.989,2.751c.213-.08-.142.047,0,0Zm1.756-1.4c-.623-.329.04-1.165.654-.794-.165.537-.453.546-.67.816Zm3.855,2.935-.1-5.015c.174-.381.35-.717.535-1.126.419.43.443,1.73-.551,1.148Zm2.949,2.5-.453-.213.22-.452.445.213Zm1.154-3.606c-.243-.161.018-.5.1-.784.39.108.285.4.564.545-.183.256-.531-.019-.681.275Zm1.605,1.865c-.171-.13-.255-.009-.33.12-.485-.119.159-1.188.545-.572Z" fill="#fff"/>
    <path id="Tracé_10635" data-name="Tracé 10635" d="M467.46,935.115c-.764.973-2.211.652-3.184-.112-.532.179-1.057.372-1.574.566a.326.326,0,0,1-.369.14c-6.654,2.524-12.859,5.99-19.444,8.465a.466.466,0,0,0,.163.152c-.176.211-.523-.061-.665.232a.231.231,0,0,1-.1-.112q-1.108.41-2.216.776a3.411,3.411,0,0,0-2.662,3.75l1.175,1.048a1.372,1.372,0,0,0,.23-.765c.273.148.154.589.031,1.015a7.846,7.846,0,0,1,.7.7,5.21,5.21,0,0,0,4.442,1.476c3.219-.259,6.429-.708,9.633-1.172a12.622,12.622,0,0,0,2.906-.934c2.021-.841,4-1.764,6.015-2.627,4.6-1.984,5.384-2.328,6.773-5.943a1.291,1.291,0,0,1-1.519-.557,1.175,1.175,0,0,0,.545-.572,1.749,1.749,0,0,0,1.1.768c.241-.67.511-1.44.813-2.357C468.968,938.086,468.619,936.184,467.46,935.115Zm-26.274,16.647-.452-.214c.078-.15.149-.3.22-.452l.452.22Zm.549-6.37c.575.237.53.689.913.987C442.189,947.1,440.926,946.2,441.735,945.392Zm3.148,6.747c-.544-.3.3-.8.425-.9C445.851,951.538,445.01,952.027,444.883,952.139Zm9.755-3.1c.164-.724.616-.709.867-1.239.42.416-.7,1.369.361,1.552C455.444,949.55,454.769,949.463,454.638,949.043Zm3.555-6.317-.674-.323c.1-.223.213-.452.323-.674.088.347.792.466.351,1Zm4.146-4.662c-.616-.75,1.069-.349,0,0Zm.063,8.595c1.218,1.042-.46-.387,0,0Z" fill="#fff"/>
  </g>
</svg>
