<svg xmlns="http://www.w3.org/2000/svg" width="26.472" height="26.472" viewBox="0 0 26.472 26.472">
  <path id="instagram_4_" data-name="instagram (4)" d="M22.3,6.58h0a1.588,1.588,0,1,0,1.588,1.588A1.588,1.588,0,0,0,22.3,6.58Zm6.088,3.2a10.046,10.046,0,0,0-.609-3.216,6.539,6.539,0,0,0-1.535-2.343A6.221,6.221,0,0,0,23.905,2.7a9.662,9.662,0,0,0-3.216-.622C19.286,2,18.836,2,15.236,2s-4.05,0-5.453.079A9.662,9.662,0,0,0,6.566,2.7,6.327,6.327,0,0,0,4.224,4.224,6.221,6.221,0,0,0,2.7,6.566a9.662,9.662,0,0,0-.622,3.216C2,11.186,2,11.636,2,15.236s0,4.05.079,5.453A9.662,9.662,0,0,0,2.7,23.906a6.221,6.221,0,0,0,1.522,2.343A6.327,6.327,0,0,0,6.566,27.77a9.662,9.662,0,0,0,3.216.622c1.4.079,1.853.079,5.453.079s4.05,0,5.453-.079a9.662,9.662,0,0,0,3.216-.622,6.221,6.221,0,0,0,2.343-1.522,6.419,6.419,0,0,0,1.535-2.343,10.046,10.046,0,0,0,.609-3.216c0-1.4.079-1.853.079-5.453S28.472,11.186,28.392,9.783ZM26.01,20.53a7.425,7.425,0,0,1-.45,2.462,4.05,4.05,0,0,1-.993,1.522,4.222,4.222,0,0,1-1.522.993,7.425,7.425,0,0,1-2.462.45c-1.324.066-1.813.079-5.294.079s-3.971,0-5.294-.079a7.584,7.584,0,0,1-2.568-.4,4.328,4.328,0,0,1-1.456-.993,3.971,3.971,0,0,1-.979-1.522,7.333,7.333,0,0,1-.529-2.515c0-1.324-.079-1.813-.079-5.294s0-3.971.079-5.294a7.333,7.333,0,0,1,.463-2.515A3.971,3.971,0,0,1,5.971,5.971,4.156,4.156,0,0,1,7.427,4.912a7.584,7.584,0,0,1,2.515-.45c1.324,0,1.813-.079,5.294-.079s3.971,0,5.294.079a7.425,7.425,0,0,1,2.462.45,4.05,4.05,0,0,1,1.575,1.059,4.05,4.05,0,0,1,.993,1.456,7.426,7.426,0,0,1,.45,2.515c.066,1.324.079,1.813.079,5.294S26.076,19.207,26.01,20.53ZM15.236,8.446a6.777,6.777,0,1,0,4.814,1.98,6.79,6.79,0,0,0-4.814-1.98Zm0,11.2a4.408,4.408,0,1,1,4.408-4.408,4.408,4.408,0,0,1-4.408,4.408Z" transform="translate(-2 -2)" fill="#efeedb"/>
</svg>
