<svg id="Groupe_410" data-name="Groupe 410" xmlns="http://www.w3.org/2000/svg" xmlns:xlink="http://www.w3.org/1999/xlink" width="166" height="129.142" viewBox="0 0 166 129.142">
  <defs>
    <clipPath id="clip-path">
      <rect id="Rectangle_2251" data-name="Rectangle 2251" width="166" height="129.142" fill="none"/>
    </clipPath>
  </defs>
  <g id="Groupe_409" data-name="Groupe 409" clip-path="url(#clip-path)">
    <g id="Groupe_202" data-name="Groupe 202" transform="translate(0.011 0)">
      <path id="Tracé_7897" data-name="Tracé 7897" d="M222.791,69.615a3.911,3.911,0,0,1,2.768,5.759,8.118,8.118,0,0,1-2.115,2.444c-1.288,1.056-2.643,2.021-4.019,2.956-.257.174-.455.3-.268.706a12.027,12.027,0,0,1,.516,7.923c-.147.632-.1,1,.582,1.231a4.727,4.727,0,0,1,1.78,1.118,1.668,1.668,0,0,1,.332,2.257,7.18,7.18,0,0,1-2.05,2.2,3.769,3.769,0,0,0-1.553,3.625,31.753,31.753,0,0,1-.007,5.216,3.529,3.529,0,0,0,1.412,3.311,9.443,9.443,0,0,1,1.931,1.911,1.89,1.89,0,0,1-.5,3.036,10.3,10.3,0,0,1-2.412,1.241,3.342,3.342,0,0,0-2.175,2.506,47.989,47.989,0,0,1-1.564,5.208,3.327,3.327,0,0,0,.457,3.287,9.406,9.406,0,0,1,1.424,2.568,1.7,1.7,0,0,1-1.149,2.4,9.7,9.7,0,0,1-2.887.543,3.294,3.294,0,0,0-2.739,1.748,49.075,49.075,0,0,1-2.842,4.372,3.356,3.356,0,0,0-.467,3.356,10.55,10.55,0,0,1,.658,2.633,1.614,1.614,0,0,1-1.15,1.972,1.575,1.575,0,0,1-.18.036c-.7.04-1.41-.069-2.113-.008-.423-.057-.853-.087-1.263-.18a3.082,3.082,0,0,0-2.931.818q-2.038,1.922-4.222,3.68a3.136,3.136,0,0,0-1.178,2.808,10.915,10.915,0,0,1-.083,2.719c-.269,1.457-1.048,1.986-2.486,1.636a9.516,9.516,0,0,1-2.376-.963,3.362,3.362,0,0,0-3.455-.015,48.175,48.175,0,0,1-4.792,2.233,3.3,3.3,0,0,0-2.109,2.477,9.693,9.693,0,0,1-.963,2.775,1.728,1.728,0,0,1-2.605.795,9.09,9.09,0,0,1-2.286-1.728,3.376,3.376,0,0,0-3.262-.945,54.454,54.454,0,0,1-5.687.84,3.233,3.233,0,0,0-2.58,1.625,13.53,13.53,0,0,1-1.523,2.16c-1.216,1.327-2.3,1.343-3.534.048a11.853,11.853,0,0,1-1.536-2.152,3.265,3.265,0,0,0-2.622-1.682,57.04,57.04,0,0,1-5.762-.853,3.293,3.293,0,0,0-3.126.912,9.963,9.963,0,0,1-2.209,1.708,1.8,1.8,0,0,1-2.817-.868,11.043,11.043,0,0,1-.905-2.72,3.214,3.214,0,0,0-2.025-2.369c-1.705-.7-3.37-1.476-5-2.33a3.175,3.175,0,0,0-3.108-.01,11.258,11.258,0,0,1-2.582,1.056A1.775,1.775,0,0,1,122.951,155a11.062,11.062,0,0,1-.08-2.72,3.177,3.177,0,0,0-1.241-2.857c-1.4-1.121-2.757-2.289-4.052-3.53a3.2,3.2,0,0,0-3.122-.9c-.388.09-.8.112-1.194.164-.7-.014-1.408.026-2.113.007a1.231,1.231,0,0,1-1.2-1.052c.014-.5.012-1.006,0-1.508a7.421,7.421,0,0,1,.55-2.109,3.363,3.363,0,0,0-.459-3.3,49.389,49.389,0,0,1-2.844-4.37,3.323,3.323,0,0,0-2.8-1.788,10.073,10.073,0,0,1-2.677-.471,1.784,1.784,0,0,1-1.263-2.651,9.927,9.927,0,0,1,1.359-2.352,3.365,3.365,0,0,0,.457-3.356,48.579,48.579,0,0,1-1.563-5.212,3.311,3.311,0,0,0-2.137-2.45,9.9,9.9,0,0,1-2.6-1.374,1.834,1.834,0,0,1-.86-1.812,1.439,1.439,0,0,0-.145-.731,55.644,55.644,0,0,1-2.8-11.046,48.273,48.273,0,0,1-.359-5.361c-.015-.528-.17-.626-.651-.535q-1.932.367-3.877.668a1.774,1.774,0,0,0-.963.538,62.3,62.3,0,0,0-5.535,6.41,52.711,52.711,0,0,1-6.436,6.821,21.752,21.752,0,0,1-6.479,3.844,5.284,5.284,0,0,1-4.985-.557,4.052,4.052,0,0,1-1.482-5.367,7.432,7.432,0,0,1,1.52-2.061A110.318,110.318,0,0,0,70.79,95.4c.155-.188.38-.334.433-.668-.815-.054-1.616-.109-2.416-.159a22.336,22.336,0,0,1-6.1-1.023,3.91,3.91,0,0,1-2.445-4.959c.04-.116.084-.232.135-.344a4.09,4.09,0,0,1,2.782-2.137,79.681,79.681,0,0,1,8.7-1.947c2.955-.521,5.9-1.118,8.849-1.652.424-.075.583-.355.791-.627A101.663,101.663,0,0,0,90.882,66.62c1.58-3.071,3.079-6.182,4.653-9.256a5.746,5.746,0,0,1,10.842,1.35,25.611,25.611,0,0,1,.229,4.229,80.663,80.663,0,0,1-.55,10.154,2.9,2.9,0,0,0,1.034-1.077c.938-1.585,1.935-3.133,3.012-4.627a3.209,3.209,0,0,0,.433-3.089,12.35,12.35,0,0,1-.7-2.779,1.627,1.627,0,0,1,1.475-2.04,3.787,3.787,0,0,0,1.506-.008,6.986,6.986,0,0,1,1.715.24,3.184,3.184,0,0,0,2.938-.818q2.04-1.926,4.221-3.682a3.123,3.123,0,0,0,1.186-2.806,10.981,10.981,0,0,1,.091-2.792,1.739,1.739,0,0,1,2.388-1.582,10.465,10.465,0,0,1,2.589,1.035,3.278,3.278,0,0,0,3.252-.011c1.6-.851,3.252-1.6,4.93-2.3a3.218,3.218,0,0,0,2.026-2.365,11.215,11.215,0,0,1,.9-2.72,1.812,1.812,0,0,1,2.294-1.143,1.841,1.841,0,0,1,.522.276,10.308,10.308,0,0,1,2.211,1.7,3.3,3.3,0,0,0,3.121.914,48.374,48.374,0,0,1,5.614-.822,3.427,3.427,0,0,0,2.857-1.84,9.3,9.3,0,0,1,1.722-2.3,1.9,1.9,0,0,1,2.68-.268,1.846,1.846,0,0,1,.26.26,9.025,9.025,0,0,1,1.722,2.289,3.419,3.419,0,0,0,2.851,1.845,50.567,50.567,0,0,1,5.687.831,3.261,3.261,0,0,0,3.05-.911,10.954,10.954,0,0,1,2.142-1.672,1.846,1.846,0,0,1,2.6.267,1.883,1.883,0,0,1,.329.614,21.446,21.446,0,0,1,1.068,3.3c.275-.046.268-.292.348-.445a37.315,37.315,0,0,1,2.222-3.866,5.556,5.556,0,0,1,10.283,2.842c.037.956.006,1.913.006,2.941a4.849,4.849,0,0,1,4.16.475,4.145,4.145,0,0,1,1.885,2.181,13.054,13.054,0,0,1,.159,3.48,7.162,7.162,0,0,1-1.395,3.052c-.234.354-.2.513.111.777.919.782,1.811,1.6,2.7,2.415a3.2,3.2,0,0,0,3,.808,11.561,11.561,0,0,1,2.166-.292c.86-.018,1.739-.043,2.273.836.141.231.369.082.55.137.6-.017,1.208.064,1.813.006a11.438,11.438,0,0,1,3.642.889,4.264,4.264,0,0,1,2.42,3.343,16.854,16.854,0,0,0,1.541,5.421c.221.428.368.6.875.351a6.71,6.71,0,0,1,2.427-.767c.605,0,1.209,0,1.815,0" transform="translate(-60.055 -37.775)" fill="#18191a"/>
      <path id="Tracé_7898" data-name="Tracé 7898" d="M160.555,49.494c-.376-.145-.247-.56-.184-.7a3.587,3.587,0,0,0-.058-2.233c-.033-.2-.1-.388.084-.549a4.142,4.142,0,0,1,.31,2.421c-.14.267-.007.572-.122.843-.01.072-.021.142-.03.214" transform="translate(-21.764 -34.628)" fill="#161717"/>
      <path id="Tracé_7899" data-name="Tracé 7899" d="M97.027,115.536a3.522,3.522,0,0,1,2.113-.007,4.03,4.03,0,0,1-2.113.007" transform="translate(-45.929 -8.128)" fill="#101112"/>
      <path id="Tracé_7900" data-name="Tracé 7900" d="M164.544,115.528a3.544,3.544,0,0,1,2.113.01,4.073,4.073,0,0,1-2.113-.01" transform="translate(-20.132 -8.127)" fill="#101112"/>
      <path id="Tracé_7901" data-name="Tracé 7901" d="M178.3,60.853a2.475,2.475,0,0,1-1.813,0,2.866,2.866,0,0,1,1.813,0" transform="translate(-15.568 -29.014)" fill="#111112"/>
      <path id="Tracé_7902" data-name="Tracé 7902" d="M169.095,54.167a2.506,2.506,0,0,1-1.812-.006,3.308,3.308,0,0,1,1.812.006" transform="translate(-19.085 -31.562)" fill="#101111"/>
      <path id="Tracé_7903" data-name="Tracé 7903" d="M96.194,113.637a1.852,1.852,0,0,1,0,1.509,2.229,2.229,0,0,1,0-1.509" transform="translate(-46.297 -8.79)" fill="#101112"/>
      <path id="Tracé_7904" data-name="Tracé 7904" d="M98.646,53.495a1.828,1.828,0,0,1-1.508.008,3.6,3.6,0,0,1,1.508-.008" transform="translate(-45.887 -31.798)" fill="#101112"/>
      <path id="Tracé_7905" data-name="Tracé 7905" d="M160.506,48.611c.014-.285-.12-.592.122-.843a1.318,1.318,0,0,1-.122.843" transform="translate(-21.684 -33.958)" fill="#18191a"/>
      <path id="Tracé_7906" data-name="Tracé 7906" d="M131.951,93.018a21.709,21.709,0,0,1-5.848,3.769c-2.157.86-4.325,1.153-6.453-.1-.341-.2-.456-.055-.612.245a23.794,23.794,0,0,1-1.748,3.071,1.077,1.077,0,0,0-.3.475,18.8,18.8,0,0,1-5.567,6.206.912.912,0,0,0-.5.292h0c-.206.1-.463.093-.621.292l-.048.022H110.2c-.267.1-.572.073-.807.263a5.161,5.161,0,0,1-4.547-1.128.994.994,0,0,0-.609-.478l-.292-.333c-.12-.152-.149-.375-.357-.459a7.186,7.186,0,0,1-1.419-4.034,24.765,24.765,0,0,1-.01-2.622,11.355,11.355,0,0,0,.26-1.885,6.014,6.014,0,0,1,.451-2.1c.221-.149-.01-.424.16-.583.218-1.262.764-2.428,1.1-3.761-.52.254-.611.694-.791,1.046a47.429,47.429,0,0,0-2.739,7.657c-.388,1.251-.607,2.6-1.614,3.574-.187.073-.39.123-.487.326a2.038,2.038,0,0,1-2.8-.69,1.866,1.866,0,0,1-.145-.287,6.165,6.165,0,0,1-.715-2.662c-.158-.51-.014-1.068-.278-1.563l-.025-.257a9.826,9.826,0,0,1-.137-2.554,2.2,2.2,0,0,1,.129-.977,37.066,37.066,0,0,1,1.6-7.437c.246-.138.105-.423.229-.608a17.438,17.438,0,0,1,1.761-4.384,3.178,3.178,0,0,1,4.4-.919c.04.026.08.054.119.082.339.21.641.486.959.724.209.075.216.3.341.442.145.433.337.47.687.152a4.864,4.864,0,0,1,5.973-.821,6.276,6.276,0,0,1,3.132,6.5,32.408,32.408,0,0,1-2.681,7.105,25.31,25.31,0,0,0-2.039,5.581c-.026.145-.035.292-.062.556a10.131,10.131,0,0,0,1.689-1.7c2.04-2.243,3.574-4.857,5.412-7.249.171-.105.2-.305.315-.453.428-.471.225-1.049.265-1.585.025-.325.037-.652.055-.979.26-.492.122-1.053.275-1.565a9.73,9.73,0,0,1,3.161-5.837l.5-.448c.1-.195.3-.234.477-.318a12.912,12.912,0,0,1,6.37-1.8,11.422,11.422,0,0,1,4.254.882A4.194,4.194,0,0,1,133,80.62c.195.1.234.3.318.478.18.464.238,1.1.578,1.342.3.214.908-.026,1.382-.029a2.451,2.451,0,0,1,2.576,2.079c.155.687.286,1.379.423,2.072.069.344.156.517.521.2,1.031-.886,2.084-1.748,3.137-2.605a.973.973,0,0,0,.268-.68,18.63,18.63,0,0,1,2.039-6.052,10.128,10.128,0,0,1,7.1-5.255,4.526,4.526,0,0,1,4.714,3.53,9.176,9.176,0,0,1-2.651,7.935A23.14,23.14,0,0,0,149.931,88c-.087.152-.166.308-.25.462a1.34,1.34,0,0,0-.008,1.5c.341.4.887.019,1.336-.084a4.49,4.49,0,0,0,.5-.174c.195-.115.475-.082.605-.322l.444-.292c.163-.088.355-.134.467-.3a29.6,29.6,0,0,0,4.857-5.342.613.613,0,0,1,.043-.061c1.47-1.237,1.628-2.948,1.762-4.7a78.294,78.294,0,0,1,1.328-9.032,120.19,120.19,0,0,1,2.919-11.716,76.981,76.981,0,0,1,5.161-13.369,1.246,1.246,0,0,0,.275-.5,14.5,14.5,0,0,1,1.92-3.222,3.435,3.435,0,0,1,6.008,1.146,2.147,2.147,0,0,1,.2.873c-.008,1.458,0,2.915,0,4.372a.479.479,0,0,1-.088.352l.005-.007c-.177.388.032.824-.124,1.216a59.091,59.091,0,0,1-7.709,22.645,8.691,8.691,0,0,0-.941,2.843,96.718,96.718,0,0,0-1.57,13.047,36.152,36.152,0,0,0,.256,5.643,68.871,68.871,0,0,0,6.306-9.335,1.428,1.428,0,0,0,.292-.475l1.519-2.551a1.311,1.311,0,0,0,.292-.485,28.971,28.971,0,0,1,2.144-3.278,1.882,1.882,0,0,1,2.391-.712,2.056,2.056,0,0,1,1,2.39,31.013,31.013,0,0,1-1.914,4.508c-1.681,3.571-3.352,7.151-5.148,10.664a17.994,17.994,0,0,1-4.3,5.763,6.132,6.132,0,0,1-7.187.247c-.117-.17-.314-.216-.48-.312a4.091,4.091,0,0,1-1.65-2.1c-.171-.29-.052-.679-.3-.943a4.581,4.581,0,0,1-.311-1.464c-.174-.3.1-.7-.218-.963l-.485-3.491c-.835.886-1.587,1.748-2.406,2.539a12.2,12.2,0,0,1-5.111,3.23,7.693,7.693,0,0,1-3.88.164c-.363-.292-.844-.112-1.231-.308a5.226,5.226,0,0,1-3.03-2.233,1.339,1.339,0,0,0-.3-.5,4.6,4.6,0,0,1-.659-1.512c-.156-.605-.351-.433-.666-.1a9.4,9.4,0,0,0-2.995,6.215c-.105,2.376-.67,4.728-.988,7.1-.433,3.219-.911,6.429-1.658,9.59-1.284,5.418-3.012,10.652-6.463,15.143a14.2,14.2,0,0,1-3.625,3.49,4.91,4.91,0,0,1-5.043.075,1.355,1.355,0,0,0-.5-.29,7.489,7.489,0,0,1-3.459-5.725,2.74,2.74,0,0,1-.068-.786c0-.039.117-.195-.079-.144a11.333,11.333,0,0,1,.014-3.821,45.543,45.543,0,0,1,5.291-14.985,1.016,1.016,0,0,0,.286-.5,47.972,47.972,0,0,1,4.222-6.776c.2-.1.242-.3.329-.477,1.146-1.712,2.466-3.289,3.739-4.906q.736-.933,1.477-1.863c0-.339.3-.487.538-.875a3.309,3.309,0,0,1-1.063.851" transform="translate(-46.944 -37.11)" fill="#b16a1c"/>
      <path id="Tracé_7907" data-name="Tracé 7907" d="M93.431,90.607a46.411,46.411,0,0,0,1.581,10.6A53.6,53.6,0,0,0,138.079,140.7a37.8,37.8,0,0,0,7.147.648,19.773,19.773,0,0,1,3.48,0,42.764,42.764,0,0,0,9.152-1.053,53.191,53.191,0,0,0,33.354-22.372c.184-.388.565-.462.923-.572a6.237,6.237,0,0,0,3.621-2.518,4.652,4.652,0,0,0,.616-1.36c.062-.24.086-.5.354-.627.341.079.438.281.3.6a47.9,47.9,0,0,1-7.04,10.69,55.482,55.482,0,0,1-35.274,19.522,56.373,56.373,0,0,1-62.767-43.226c-.163-.713-.292-1.433-.449-2.148a3.522,3.522,0,0,1,.076-1.914,18.892,18.892,0,0,0,.438-4.656c.256-4.055.17-8.124.5-12.176.054-.68.112-1.36.18-2.04.119-1.2.123-1.2,1.469-1.52a33.416,33.416,0,0,0-.726,8.884,29.327,29.327,0,0,1-.032,3.288,10.931,10.931,0,0,1,.03,2.46" transform="translate(-48.078 -23.181)" fill="#ded9c1"/>
      <path id="Tracé_7908" data-name="Tracé 7908" d="M95.257,101.319a20.749,20.749,0,0,1-.911-3.593c-.141-.4-.021-.873-.281-1.248a9.17,9.17,0,0,1-.332-2.066,6.277,6.277,0,0,1-.058-1.348v-.227c-.021.077-.023.162-.093.217a46.614,46.614,0,0,1-.272-5.957c.01-1.01.006-1.049-1-.893-2.164.34-4.323.726-6.485,1.088a2.726,2.726,0,0,0-1.4.853A54.688,54.688,0,0,0,79.3,93.972a44.2,44.2,0,0,1-8.472,8.677c-.264.189-.551.346-.826.517a1.084,1.084,0,0,0-.486.3,12.917,12.917,0,0,1-3.245,1.523,3.059,3.059,0,0,1-3.439-1.025,1.464,1.464,0,0,0-.272-.52,2.865,2.865,0,0,1,1.012-2.782A148.284,148.284,0,0,0,74.24,88.766c.1-.117.2-.227.292-.35s.3-.252.221-.444-.31-.1-.473-.127c-.941-.141-1.9-.068-2.837-.292.2-.149.433-.053.629-.082.122,0-.022-.129.018-.036a10.461,10.461,0,0,1-2.171-.032L68.9,87.371a16.551,16.551,0,0,0-2.366-.217,1.2,1.2,0,0,0-.7-.22,6.179,6.179,0,0,1-2.616-.539,1.973,1.973,0,0,0-.673-.065,1.765,1.765,0,0,1-.9-1.982c.153-.767.755-1.046,1.442-1.267a97.717,97.717,0,0,1,10.84-2.363c2.444-.495,4.887-.987,7.355-1.346.43-.062.63-.375.862-.672a87.006,87.006,0,0,0,6.488-9.723c.076-.13.173-.246.26-.368a.925.925,0,0,0,.292-.5c2.72-4.89,5.154-9.926,7.659-14.926a9.2,9.2,0,0,1,.568-.88c.046-.211.3-.195.388-.365,1.787-1.133,3.595-1.317,5.314.632.187.105.231.3.314.475l.358,1.039c.119.4-.065.82.111,1.211l.014.292a59.655,59.655,0,0,1,.007,6.048c-.3,4.547-.873,9.072-1.1,13.627-.036.721.2.9.875.919a4.09,4.09,0,0,1,3.855,2.33,3.023,3.023,0,0,1-1.082,4.038,11.063,11.063,0,0,1-3.528,1.49c-.513.133-.644.388-.713.887-.61,4.378-.6,8.79-.777,13.192-.091,2.233-.069,4.486-.38,6.711a2.264,2.264,0,0,1-4.45.619,12.7,12.7,0,0,1-.442-1.354c-.166-.292-.022-.69-.322-.934a1.475,1.475,0,0,1-.285-.885c-.156-.3-.046-.68-.3-.954" transform="translate(-59.468 -32.689)" fill="#b26a1c"/>
      <path id="Tracé_7909" data-name="Tracé 7909" d="M148.27,43.724a56.931,56.931,0,0,1,16.075,3.052c.528.181.7.362.415.886-.337.609-.3,1.62-.873,1.833-.5.184-1.263-.355-1.907-.56A53.626,53.626,0,0,0,97.4,77.123c-.341.715-.915,1.249-1.284,1.992a6.024,6.024,0,0,0-1.679-1.36c-.487-.242-.146-.513-.046-.738A54.5,54.5,0,0,1,101.92,64.73a55.965,55.965,0,0,1,32-19.79,2.023,2.023,0,0,0,.281-.108,20.032,20.032,0,0,1,3.7-.781,4.273,4.273,0,0,1,1.176-.144,2.973,2.973,0,0,0,.857-.062,1.764,1.764,0,0,1,.6-.088,4.371,4.371,0,0,0,1.09-.068,3.711,3.711,0,0,0,.865-.072c.3-.025.6-.011.9-.014a1.932,1.932,0,0,1,.388.032,31.49,31.49,0,0,0,4.1.01.555.555,0,0,1,.388.08" transform="translate(-47.016 -35.549)" fill="#ded9c3"/>
      <path id="Tracé_7910" data-name="Tracé 7910" d="M163.638,79.714a21.017,21.017,0,0,1,3.141-4.5c.452-.542.563-.882-.041-1.386a17.677,17.677,0,0,1-1.549-1.652c-.141-.124-.156-.354-.352-.435a7.313,7.313,0,0,1-1.787-3.909,13.789,13.789,0,0,1,0-3.571,8.826,8.826,0,0,1,1.244-3.509,10.527,10.527,0,0,1,4.479-4.8c.227-.066.478-.072.65-.272a8.212,8.212,0,0,1,4.753.8,1.862,1.862,0,0,1,1.027,1.5,18.734,18.734,0,0,0,2.028,6.677,4.189,4.189,0,0,1,.42,2.185c1.226-.535,2.308-1.184,3.5-1.594.453-.155.9-.322,1.368-.433a2.186,2.186,0,0,1,2.332.88A1.774,1.774,0,0,1,184.6,68a21.055,21.055,0,0,1-4.492,3.741l-2.137,1.553c-.326.236-.457.47-.206.879,1.723,2.8,1.66,5.791.854,8.838a19.859,19.859,0,0,1-4.088,8,8.39,8.39,0,0,1-8.062,3.135,2.492,2.492,0,0,1-1.295-.564c-.1-.2-.307-.241-.478-.337a6.838,6.838,0,0,1-2.861-4.8,13.884,13.884,0,0,1,0-4.047,12.537,12.537,0,0,1,1.53-4.175,1.1,1.1,0,0,0,.276-.5" transform="translate(-21.223 -30.961)" fill="#b16a1c"/>
      <path id="Tracé_7911" data-name="Tracé 7911" d="M177.849,107.211c-.275.554-.343,1.184-.656,1.73a6.346,6.346,0,0,1-4.073,2.956,2.069,2.069,0,0,0-.821.346c-.314-.133-.639.011-.956-.036a6.23,6.23,0,0,1-1.262.083,1.949,1.949,0,0,0-1.027-.182H162.7a3.723,3.723,0,0,1-.9-.051.646.646,0,0,1-.239-.137,4.942,4.942,0,0,1-.117-2.442c.026-.21.131-.383.388-.369a.334.334,0,0,1,.195.173,6.352,6.352,0,0,1,.087,1.65c.012.35.1.6.5.593,3.317-.084,6.653.3,9.943-.43.223-.05.431-.138.652-.184a4.966,4.966,0,0,0,3.667-3.821.487.487,0,0,1,.223-.373c.032-.054.177.127.137-.059a3.112,3.112,0,0,1,.029-1.6c0-.015.029-.044-.007-.061a.215.215,0,0,1-.079.12c-.267-.037-.281-.26-.318-.451a4.618,4.618,0,0,0-2.435-3.184c-.756-.439-.807-.637-.135-1.115,2.33-1.657,2.092-5.73.148-7.169a1.027,1.027,0,0,1-.2-.224.573.573,0,0,0-.495-.311,7.185,7.185,0,0,1-1.681-.7c-.578-.318-1.2-.1-1.8-.155h-7.173c-.959,0-.98.019-.976.972a3.085,3.085,0,0,0,.075,1.119c.328.328.744.182,1.125.216s.8-.1,1.106.267a1.492,1.492,0,0,1,.112.739q.006,6.468,0,12.936a1.976,1.976,0,0,1-.072.673,1.79,1.79,0,0,1-1.794.246c-.42-.278.036-.3.141-.419h.728c.409-.152.249-.5.25-.777.008-3.868.015-7.74-.008-11.609,0-.4.261-.846-.1-1.226l-.174-.14c-.68-.272-1.4.05-2.081-.169l-.269.006c-.64.193-1.317-.084-1.954.152-.388.188-.292.54-.3.858,0,3.205.017,6.4-.011,9.605a7.219,7.219,0,0,1-2.525,5.9,5.738,5.738,0,0,1-3.216,1.359,16.169,16.169,0,0,1-4.182,0l-.051.008-.048-.018c-.605-.232-1.226-.419-1.845-.6a5.907,5.907,0,0,1-3.284-3.973,5.666,5.666,0,0,1-.348-1.917,3.5,3.5,0,0,1-.2-1.406c-.006-3.137.017-6.275-.012-9.412-.05-.361-.31-.409-.608-.413-.453-.007-.907.022-1.36-.021a.621.621,0,0,1-.214-.116.541.541,0,0,1-.021-.133,16.323,16.323,0,0,1,0-3.266c.129-.354.441-.292.7-.292,2.514-.007,5.029,0,7.545-.01.6,0,.882.252.873.854-.01.728,0,1.457,0,2.188,0,.256-.011.51-.282.65-.593.206-1.231-.091-1.822.158a1,1,0,0,0-.046.127h0c-.355.047-.252.33-.249.529.043,3.246-.105,6.493.079,9.737a8.821,8.821,0,0,0,.5,2.271c.069.195.164.413-.086.522s-.335-.123-.44-.292a5.769,5.769,0,0,0-.583-.966,2.736,2.736,0,0,1-.347-1.457c.033-3.353,0-6.7.017-10.059,0-1.135.115-1.24,1.262-1.27a1.167,1.167,0,0,0,1.082-1.78.516.516,0,0,0-.549-.31q-3.1-.031-6.2,0c-.412,0-.582.224-.589.616,0,.177-.01.354-.007.529.014.868.069.923.962.944.228.006.453.007.68.023a.737.737,0,0,1,.76.715c0,.021,0,.041,0,.062.019.276.021.554.021.831,0,3.025.022,6.051-.008,9.076a10.905,10.905,0,0,0,.753,3.982,2.464,2.464,0,0,0,.354.655,4.725,4.725,0,0,0,2.475,2.007,9.165,9.165,0,0,0,6.425.021,5.431,5.431,0,0,0,3.573-4.576c.077-.242.1-.5.167-.741a4.441,4.441,0,0,0,.051-1.057V95.244c0-1.149.124-1.262,1.236-1.3.362-.014.844.151,1.042-.245a2.328,2.328,0,0,0,.047-1.555c-.064-.279-.34-.279-.561-.281q-3.029-.033-6.056,0c-.4,0-.605.194-.583.611.011.176.008.352.015.529.035.894.066.925.961.951,1.194.036,1.309.14,1.312,1.309q.01,4.884,0,9.769a5.544,5.544,0,0,1-.68,2.763.665.665,0,0,1-.478.292c-.427-.043-.426-.3-.308-.616.043-.452.409-.825.326-1.31a.115.115,0,0,1-.035-.122c.012-.04.026-.061.037-.061a.608.608,0,0,0,.174-.106,1.343,1.343,0,0,1-.086-.527c.023-3.281-.08-6.562.057-9.84.022-.522-.138-.73-.68-.716a2.13,2.13,0,0,1-1.328-.141.515.515,0,0,1-.267-.5v-2.6a.575.575,0,0,1,.305-.55,1.411,1.411,0,0,1,.882-.133h16.726a1.26,1.26,0,0,1,.874.145l.267.014c.493.187,1.078-.051,1.53.332.323.134.643.271.972.4,3.526,1.429,3.8,6.1,2.137,8.237-.137.175-.247.373-.369.561a.348.348,0,0,0-.007.491,11.1,11.1,0,0,1,1.815,1.953,4.538,4.538,0,0,1,.507,4.233" transform="translate(-29.165 -17.502)" fill="#b16a1c"/>
      <path id="Tracé_7912" data-name="Tracé 7912" d="M167.775,110.518a8.291,8.291,0,0,0-.507-4.233,52.775,52.775,0,0,0,4.11-17.522,5.149,5.149,0,0,0-.012-.525,1.038,1.038,0,0,1,.034-.86,10.946,10.946,0,0,0,.075-2.33.931.931,0,0,1,.427-.885,10.346,10.346,0,0,0,1.165-.962c.347-.319.659-.679.987-1.021l.213.043c0,1.194.007,2.39,0,3.582a56.1,56.1,0,0,1-5.935,24.837,3.812,3.812,0,0,1-.286.426.958.958,0,0,0-.267-.549" transform="translate(-19.091 -20.809)" fill="#ded9c1"/>
      <path id="Tracé_7913" data-name="Tracé 7913" d="M128.838,94.606l-.123-.13a18.108,18.108,0,0,1,0-3.262c.127-.352.44-.292.7-.292,3.173.011,6.345,0,9.517.065a8.587,8.587,0,0,1,3.15.7,5.352,5.352,0,0,1,3.385,4.689c.278,2.439-.073,4.669-1.909,6.465a4.086,4.086,0,0,1-2.073,1.165c-.363-.022-.847.406-1.037-.275.087-.4.445-.442.742-.558a5.143,5.143,0,0,0,3.368-4.913,8.864,8.864,0,0,0-.292-2.995,4.225,4.225,0,0,0-2.239-2.531,10.746,10.746,0,0,0-4.416-.918c-2.4-.077-4.794-.025-7.187-.015-.308,0-.738-.1-.811.348a2.142,2.142,0,0,0,.119,1.613c.177.258.564.151.861.158,1.288.026,1.383.111,1.385,1.382q.006,6.244,0,12.488a2.857,2.857,0,0,1-.08.9c-.111.307-.431.322-.652.474a.5.5,0,0,1-.2.048c-.267-.086-.535-.254-.8,0a.423.423,0,0,1-.292,0,3.8,3.8,0,0,1-.485-.35c-.061-.173.076-.24.174-.33a.21.21,0,0,1,.148,0,.771.771,0,0,0,.761,0c.431,0,.558-.272.558-.637q0-6.265.008-12.535c0-.417-.193-.5-.553-.506a2.892,2.892,0,0,1-1.263-.087c.521-.2,1.068-.01,1.6-.109.1-.022-.014-.178.01-.08,0,.018,0,.032-.021.035a6.679,6.679,0,0,1-2.045,0" transform="translate(-33.85 -17.47)" fill="#af681c"/>
      <path id="Tracé_7914" data-name="Tracé 7914" d="M159.564,51.992a36.2,36.2,0,0,1-2.649,3.179,1.58,1.58,0,0,1-1.826.511,1.448,1.448,0,0,1-.934-1.638,24.075,24.075,0,0,1,1.487-6.28,1.1,1.1,0,0,0,.283-.5c1.068-1.884,2.488-2.351,4.005-1.3a2.527,2.527,0,0,1,1.095,2.414,7,7,0,0,1-1.154,3.144c-.1.163-.135.359-.308.47" transform="translate(-24.112 -34.857)" fill="#b16a1c"/>
      <path id="Tracé_7915" data-name="Tracé 7915" d="M163.685,62.48c-1.189-1.4-2.37-2.731-3.632-3.99s-2.6-2.453-4.036-3.661A5,5,0,0,0,158,53.342c.195-.232.329-.218.549-.03a60.147,60.147,0,0,1,6.282,6.21.479.479,0,0,1,.05.655c-.4.724-.768,1.468-1.2,2.3" transform="translate(-23.39 -31.894)" fill="#ded9c1"/>
      <path id="Tracé_7916" data-name="Tracé 7916" d="M138.909,100.2c.155.572.64.193.945.329-1.472.727-3.078.574-4.641.7a4.891,4.891,0,0,1-.753,0c-.416-.032-.583.129-.572.561.024.9.019,1.809,0,2.713-.007.388.142.507.529.527,2.088.106,2.088.117,2.068,2.213,0,.176-.019.351-.029.525-.648-.4-.26-1.079-.415-1.614-.048-.162.113-.444-.265-.352a1.225,1.225,0,0,1-.231.048,2.362,2.362,0,0,1-.261.018c-.529,0-1.057.008-1.585-.007a.7.7,0,0,1-.761-.63.654.654,0,0,1,0-.116q-.068-2.034,0-4.066a.718.718,0,0,1,.673-.762q.044,0,.087,0c.527-.033,1.055-.023,1.581-.017a12.728,12.728,0,0,0,2.623-.185,1.067,1.067,0,0,1,1.006.111" transform="translate(-32.222 -13.997)" fill="#ae6a1c"/>
      <path id="Tracé_7917" data-name="Tracé 7917" d="M137.505,104.3c.032-.112.036-.3.195-.231a.424.424,0,0,1,.2.5,3.159,3.159,0,0,0,.189,1.827c.021.336.129.694-.246.925a2.037,2.037,0,0,1-1.016.211h-6.993a2.515,2.515,0,0,1-1.021-.2l-.106-.123a15.146,15.146,0,0,1,.019-3.215.749.749,0,0,1,.9-.318l-.152.308a.6.6,0,0,1-.059.317,1.581,1.581,0,0,1-.111.187,6.338,6.338,0,0,0-.079,1.711.38.38,0,0,0,.31.438.441.441,0,0,0,.086,0c2.28.023,4.564,0,6.839.008a1.155,1.155,0,0,0,.655-.111c.292-.323.14-.717.176-1.081.039-.388-.091-.809.2-1.154" transform="translate(-33.853 -12.617)" fill="#b36b1b"/>
      <path id="Tracé_7918" data-name="Tracé 7918" d="M167.793,91.03c-2.748-.008-5.494-.024-8.24-.025q-5.123,0-10.243.011c.062-.38.363-.281.6-.282q8.838-.006,17.681,0c.195,0,.545-.084.206.3" transform="translate(-25.953 -17.545)" fill="#2f1e0f"/>
      <path id="Tracé_7919" data-name="Tracé 7919" d="M152.252,103.051c.022.236.007.5.351.518a.358.358,0,0,1,.03.341,3.555,3.555,0,0,1-2.829,1.457,1.965,1.965,0,0,1-.842,0,3.667,3.667,0,0,1-2.9-1.476c-.322-.449-.742-.9-.451-1.547.448.12.323.627.589.875.073.069.036.292.2.236s.1-.258.131-.4c1.1,1.9,4.522,1.928,5.718-.008" transform="translate(-27.405 -13.105)" fill="#ae6a1c"/>
      <path id="Tracé_7920" data-name="Tracé 7920" d="M157.187,107.018c-.223-.223-.14-.46-.141-.674q0-5.944,0-11.889a2.927,2.927,0,0,1,.028-.292c.022-.177-.376-.025-.209-.184s.434-.069.47.249c.007.1.01.2.007.3V106.5c0,.164.058.352-.155.525" transform="translate(-23.082 -16.33)" fill="#151921"/>
      <path id="Tracé_7921" data-name="Tracé 7921" d="M154.34,105.086a75.208,75.208,0,0,1,0-10.992Z" transform="translate(-24.108 -16.257)" fill="#141a22"/>
      <path id="Tracé_7922" data-name="Tracé 7922" d="M146.324,104.707c-.169-.019-.253-.075-.253-.283,0-1.1-.041-2.207-.047-3.311-.011-2.441-.01-4.88-.014-7.321h0c.292.036.755-.079.361.5-.108.159-.046.441-.047.666v9.753" transform="translate(-27.213 -16.373)" fill="#161920"/>
      <path id="Tracé_7923" data-name="Tracé 7923" d="M150.725,104.729a.107.107,0,0,1-.014.111c-.376-.05-.305-.34-.305-.583V94.819c0-.239-.073-.532.3-.583.2.207.149.47.149.716q.006,4.524,0,9.046a1.247,1.247,0,0,1-.133.73" transform="translate(-25.536 -16.203)" fill="#151b1f"/>
      <path id="Tracé_7924" data-name="Tracé 7924" d="M142.6,104.411c-.463-.1-.292-.473-.292-.739-.01-3.281,0-6.562,0-9.843.321-.159.4.048.433.3a5.475,5.475,0,0,1,.018.753v8.591c0,.315.1.658-.148.94" transform="translate(-28.64 -16.38)" fill="#13191f"/>
      <path id="Tracé_7925" data-name="Tracé 7925" d="M129.551,43.941l-.538.037c-.265.116-.561-.008-.825.109l-4.966.8-.305-.033c1.327-.868,11.234-1.714,15.125-1.289-.261.182-.546.047-.8.112a21.373,21.373,0,0,1-4.662.058,3.981,3.981,0,0,0-1.056.058l-.833.033c-.368.142-.767-.026-1.135.117" transform="translate(-36.037 -35.607)" fill="#171716"/>
      <path id="Tracé_7926" data-name="Tracé 7926" d="M157.436,93.806a.291.291,0,0,1,.332.245.28.28,0,0,1-.018.151,16.249,16.249,0,0,0-.12,3.682c0,3.067-.1,6.136.061,9.2.021.4-.188.322-.4.334a1.477,1.477,0,0,0,.144-.95q.006-6.333,0-12.664" transform="translate(-22.904 -16.369)" fill="#b16b1c"/>
      <path id="Tracé_7927" data-name="Tracé 7927" d="M149.28,93.6c.692.076,1.578-.31,2.032.174.416.444.122,1.3.124,1.979.012,3.053,0,6.106,0,9.159a.637.637,0,0,1-.058.187l-.105-.162a5.715,5.715,0,0,1-.054-1.425c-.008-2.994-.018-5.987.008-8.982.006-.561-.135-.766-.712-.717a2.479,2.479,0,0,1-1.19-.064l-.044-.151" transform="translate(-25.964 -16.475)" fill="#9c722c"/>
      <path id="Tracé_7928" data-name="Tracé 7928" d="M143.094,104.483c0-3.288.006-6.575-.007-9.863,0-.253.193-.643-.292-.72-.439,0-.875-.008-1.317-.018-.216,0-.463.033-.485-.292.029,0,.057-.008.086-.01a8.575,8.575,0,0,0,1.652.077c.225.019.539-.12.592.278q.006,5.087,0,10.174a1.484,1.484,0,0,1-.058.669.3.3,0,0,1-.167-.292" transform="translate(-29.13 -16.453)" fill="#251b0e"/>
      <path id="Tracé_7929" data-name="Tracé 7929" d="M149.319,93.684c.176.014.351.036.528.04,1.464.046,1.468.044,1.462,1.547q-.019,4.8-.044,9.6a.881.881,0,0,0-.118.065l-.019-10.49c.051-.424-.088-.644-.564-.614-.41.028-.828-.012-1.241-.026-.011,0-.03-.035-.03-.053a.2.2,0,0,1,.026-.069" transform="translate(-25.959 -16.414)" fill="#1d160d"/>
      <path id="Tracé_7930" data-name="Tracé 7930" d="M142.632,104.71q.006-5.446.011-10.892c.036-.075.072-.075.106,0v11.072l-.123-.18" transform="translate(-28.506 -16.384)" fill="#715d3e"/>
      <path id="Tracé_7931" data-name="Tracé 7931" d="M164.459,106.384l1.253.019a1.943,1.943,0,0,1-.941.153,2.818,2.818,0,0,1-.963.141H156.7a1.128,1.128,0,0,1-.728-.138.556.556,0,0,1-.312-.308.158.158,0,0,1,.015-.194.231.231,0,0,1,.3.044h0a1.294,1.294,0,0,0,.875.144c2.245.006,4.489,0,6.734.006a1.349,1.349,0,0,1,.873.137" transform="translate(-23.537 -11.7)" fill="#a47328"/>
      <path id="Tracé_7932" data-name="Tracé 7932" d="M92.9,88.151a33.282,33.282,0,0,1,0-5.749c.214.207.133.474.133.717q.01,2.158,0,4.315c0,.243.083.511-.134.717" transform="translate(-47.552 -20.725)" fill="#131210"/>
      <path id="Tracé_7933" data-name="Tracé 7933" d="M128.768,106.3l9.026-.008-.166.158a1.015,1.015,0,0,1-.648.138h-7.364a1.056,1.056,0,0,1-.651-.131Z" transform="translate(-33.801 -11.595)" fill="#a57428"/>
      <path id="Tracé_7934" data-name="Tracé 7934" d="M155.882,106.413h8.8l-.312.141a4.481,4.481,0,0,1-1.418.068c-2.11.011-4.221.007-6.331,0a1.208,1.208,0,0,1-.734-.082c0-.043-.006-.084-.006-.127" transform="translate(-23.442 -11.55)" fill="#694017"/>
      <path id="Tracé_7935" data-name="Tracé 7935" d="M137.552,106.529c-.166.223-.408.158-.625.158q-3.69.006-7.382,0c-.217,0-.459.065-.626-.155a8.947,8.947,0,0,1,1.942-.062c1.983-.014,3.965-.008,5.946,0a1.591,1.591,0,0,1,.742.062" transform="translate(-33.743 -11.539)" fill="#121415"/>
      <path id="Tracé_7936" data-name="Tracé 7936" d="M137.556,106.541h-8.631c-.007-.043-.011-.084-.014-.127l8.668,0c-.007.043-.012.087-.019.131" transform="translate(-33.747 -11.551)" fill="#694117"/>
      <path id="Tracé_7937" data-name="Tracé 7937" d="M155.883,106.5l8.483.012c-.173.21-.413.148-.63.148q-3.616.006-7.23,0c-.217,0-.46.065-.623-.16" transform="translate(-23.441 -11.516)" fill="#121416"/>
      <path id="Tracé_7938" data-name="Tracé 7938" d="M157.185,103.67c.025.1-.4.263.015.3.486.042.985.008,1.477.008a.254.254,0,0,1,.029.348.641.641,0,0,1-.229.12,4.513,4.513,0,0,1-2.186-.146l-.025-.021c-.135-.187-.38-.1-.543-.221l-.068-.075c.412-.582,1.009-.265,1.531-.311" transform="translate(-23.528 -12.615)" fill="#b16b1c"/>
      <path id="Tracé_7939" data-name="Tracé 7939" d="M161.875,76.438v4.045a7.025,7.025,0,0,1,0-4.045" transform="translate(-21.265 -23.003)" fill="#a47023"/>
      <path id="Tracé_7940" data-name="Tracé 7940" d="M146.755,106.519h4.182a7.923,7.923,0,0,1-4.182,0" transform="translate(-26.929 -11.51)" fill="#9e7029"/>
      <path id="Tracé_7941" data-name="Tracé 7941" d="M92.216,60.393q0-3.023-.007-6.048a.474.474,0,0,1,.141.41V59.98a.481.481,0,0,1-.135.413" transform="translate(-47.77 -31.445)" fill="#1e1d1d"/>
      <path id="Tracé_7942" data-name="Tracé 7942" d="M154.477,46.9c.012-1.245.017-2.493.04-3.739a10.448,10.448,0,0,0-.148-1.856.569.569,0,0,1,.276.569q-.006,2.318,0,4.636a.412.412,0,0,1-.164.388" transform="translate(-24.02 -36.427)" fill="#211e1b"/>
      <path id="Tracé_7943" data-name="Tracé 7943" d="M129.839,43.612h4.781a.394.394,0,0,1,.05.106l-.334.062q-2.106.1-4.213,0l-.333-.062c-.035-.059-.015-.1.05-.111" transform="translate(-33.417 -35.547)" fill="#696557"/>
      <path id="Tracé_7944" data-name="Tracé 7944" d="M162.739,61.869V65.44a6.4,6.4,0,0,1,0-3.571" transform="translate(-20.919 -28.57)" fill="#9c712b"/>
      <path id="Tracé_7945" data-name="Tracé 7945" d="M121.565,78.6l1.334-1.342a1.933,1.933,0,0,1-.81,1.368l-.524-.025" transform="translate(-36.553 -22.692)" fill="#211a11"/>
      <path id="Tracé_7946" data-name="Tracé 7946" d="M170.315,86.7c-.012.286-.023.574-.035.86-.34-1.2-.019-2.419-.169-3.625h.2Z" transform="translate(-18.005 -20.137)" fill="#121211"/>
      <path id="Tracé_7947" data-name="Tracé 7947" d="M133.826,123.316a23.22,23.22,0,0,1-3.48,0,8.99,8.99,0,0,1,3.48,0" transform="translate(-33.198 -5.157)" fill="#13120f"/>
      <path id="Tracé_7948" data-name="Tracé 7948" d="M94.469,82.207a6.754,6.754,0,0,1-.012-3.313,2.279,2.279,0,0,1,.065.814,23.541,23.541,0,0,1-.054,2.5" transform="translate(-46.988 -22.065)" fill="#281b0e"/>
      <path id="Tracé_7949" data-name="Tracé 7949" d="M145.347,106.076a2.672,2.672,0,0,1,1.845.6,3.548,3.548,0,0,1-1.845-.6" transform="translate(-27.467 -11.681)" fill="#9c6a1d"/>
      <path id="Tracé_7950" data-name="Tracé 7950" d="M128.762,103.887l-.019,3.213a6.72,6.72,0,0,1,.019-3.213" transform="translate(-33.882 -12.516)" fill="#886a3d"/>
      <path id="Tracé_7951" data-name="Tracé 7951" d="M141.026,91.13V94.4a6.7,6.7,0,0,1,0-3.266" transform="translate(-29.195 -17.39)" fill="#957138"/>
      <path id="Tracé_7952" data-name="Tracé 7952" d="M128.741,91.133v3.262a7.3,7.3,0,0,1,0-3.262" transform="translate(-33.882 -17.389)" fill="#876a3d"/>
      <path id="Tracé_7953" data-name="Tracé 7953" d="M155.629,107.044a5.8,5.8,0,0,1,.01-3.153,6.141,6.141,0,0,1-.01,3.153" transform="translate(-23.62 -12.514)" fill="#23190e"/>
      <path id="Tracé_7954" data-name="Tracé 7954" d="M155.57,107.048q0-1.578.008-3.153l.106-.011.058-.006a8.808,8.808,0,0,1-.032,3.028c-.008.054-.018.108-.028.162l-.113-.021" transform="translate(-23.561 -12.519)" fill="#6e5d3d"/>
      <path id="Tracé_7955" data-name="Tracé 7955" d="M100.272,80.825c0,.6,0,1.205.008,1.806.008.4-.144.174-.27.079a4.8,4.8,0,0,1,.26-1.885" transform="translate(-44.793 -21.327)" fill="#a67120"/>
      <path id="Tracé_7956" data-name="Tracé 7956" d="M94.411,82.012v-2.55c.028-.073.064-.077.109-.015V82.07c-.037-.019-.076-.039-.117-.055" transform="translate(-46.932 -21.87)" fill="#80653b"/>
      <path id="Tracé_7957" data-name="Tracé 7957" d="M67.614,77.366h2.607a2.509,2.509,0,0,1-1.082.149,3.975,3.975,0,0,1-1.524-.149" transform="translate(-57.167 -22.649)" fill="#9c6e2c"/>
      <path id="Tracé_7958" data-name="Tracé 7958" d="M94.514,81.516c.609.43.166,1.045.279,1.563a3.252,3.252,0,0,1-.279-1.563" transform="translate(-46.892 -21.063)" fill="#9a661d"/>
      <path id="Tracé_7959" data-name="Tracé 7959" d="M110.795,74.039c-.113.517.33,1.133-.276,1.563a3.06,3.06,0,0,1,.276-1.563" transform="translate(-40.779 -23.92)" fill="#9c671d"/>
      <path id="Tracé_7960" data-name="Tracé 7960" d="M128.782,93.586h2.159v.158h-1.7a.445.445,0,0,1-.46-.153" transform="translate(-33.797 -16.451)" fill="#9f6f29"/>
      <path id="Tracé_7961" data-name="Tracé 7961" d="M155.763,93.581q1.041,0,2.083.008c.015,0,.047.033.044.044a.69.69,0,0,1-.044.116c-.7-.053-1.415.211-2.084-.169" transform="translate(-23.487 -16.453)" fill="#9b712c"/>
      <path id="Tracé_7962" data-name="Tracé 7962" d="M154.209,93.742c-.182-.059-.337-.147,0-.156.651-.019,1.3,0,1.95,0a3.961,3.961,0,0,1-1.954.153" transform="translate(-24.157 -16.455)" fill="#9f7129"/>
      <path id="Tracé_7963" data-name="Tracé 7963" d="M164.4,91.289a5.325,5.325,0,0,1-1.529-.33c.362,0,.726,0,1.088-.01.241,0,.441.037.441.34" transform="translate(-20.77 -17.459)" fill="#2f1e0f"/>
      <path id="Tracé_7964" data-name="Tracé 7964" d="M146.1,93.744c-.181-.059-.341-.146,0-.159.605-.021,1.212,0,1.817,0-.582.354-1.211.134-1.82.156" transform="translate(-27.256 -16.455)" fill="#9f712a"/>
      <path id="Tracé_7965" data-name="Tracé 7965" d="M84.746,81.651c.041-.211-.059-.446.151-.724v2.081a2.954,2.954,0,0,1-.151-1.36" transform="translate(-50.63 -21.288)" fill="#906c39"/>
      <path id="Tracé_7966" data-name="Tracé 7966" d="M132.2,80.435c.408.113.948-.3,1.231.31a1.95,1.95,0,0,1-1.231-.31" transform="translate(-32.49 -21.489)" fill="#9c6a1e"/>
      <path id="Tracé_7967" data-name="Tracé 7967" d="M85.089,83.927c.565.31.194.831.281,1.248a2.521,2.521,0,0,1-.281-1.248" transform="translate(-50.491 -20.142)" fill="#945f1c"/>
      <path id="Tracé_7968" data-name="Tracé 7968" d="M110.835,102.5l.046-.485.1.011v1.4a1.553,1.553,0,0,1-.147-.929" transform="translate(-40.662 -13.232)" fill="#936e38"/>
      <path id="Tracé_7969" data-name="Tracé 7969" d="M85.951,87.433c.549.177.228.626.3.954a1.367,1.367,0,0,1-.3-.954" transform="translate(-50.162 -18.802)" fill="#91621d"/>
      <path id="Tracé_7970" data-name="Tracé 7970" d="M142.072,80.638c.54.176.222.622.3.944a1.25,1.25,0,0,1-.3-.944" transform="translate(-28.721 -21.399)" fill="#99601c"/>
      <path id="Tracé_7971" data-name="Tracé 7971" d="M86.373,88.763c.592.144.245.612.322.934a1.486,1.486,0,0,1-.322-.934" transform="translate(-50 -18.294)" fill="#9f641c"/>
      <path id="Tracé_7972" data-name="Tracé 7972" d="M101.511,87.6c.5-.214.509.195.611.48a1.276,1.276,0,0,1-.611-.48" transform="translate(-44.216 -18.763)" fill="#93671f"/>
      <path id="Tracé_7973" data-name="Tracé 7973" d="M141.688,78.927c.075-.021.149-.314.207-.062a4.629,4.629,0,0,1,.011,1.025,2.425,2.425,0,0,1-.217-.962" transform="translate(-28.865 -22.115)" fill="#97712d"/>
      <path id="Tracé_7974" data-name="Tracé 7974" d="M105.243,88.824c.141-.471.517-.232.8-.264a1.058,1.058,0,0,1-.8.264" transform="translate(-42.79 -18.384)" fill="#92631d"/>
      <path id="Tracé_7975" data-name="Tracé 7975" d="M156.357,94.2c.173-.258.383-.151.556-.182a.436.436,0,0,1-.036.138c-.13.218-.3.187-.52.046" transform="translate(-23.26 -16.287)" fill="#151921"/>
      <path id="Tracé_7976" data-name="Tracé 7976" d="M92.237,54.466a2.6,2.6,0,0,1-.111-1.212c.235.388.072.809.111,1.212" transform="translate(-47.812 -31.861)" fill="#1e1d1d"/>
      <path id="Tracé_7977" data-name="Tracé 7977" d="M154.367,46.563a2.478,2.478,0,0,1,.124-1.216c-.036.4.144.833-.124,1.216" transform="translate(-24.031 -34.883)" fill="#211e1b"/>
      <path id="Tracé_7978" data-name="Tracé 7978" d="M146.419,102.244c-.258-.171-.151-.381-.181-.556a.512.512,0,0,1,.137.036c.22.131.187.3.046.52" transform="translate(-27.126 -13.356)" fill="#161920"/>
      <path id="Tracé_7979" data-name="Tracé 7979" d="M167.461,55.663c-.08.417-.4.265-.65.271a.872.872,0,0,1,.65-.271" transform="translate(-19.266 -30.941)" fill="#8b5c1c"/>
      <path id="Tracé_7980" data-name="Tracé 7980" d="M105.9,88.62c.062-.4.37-.285.621-.292a.844.844,0,0,1-.621.292" transform="translate(-42.539 -18.465)" fill="#92631d"/>
      <path id="Tracé_7981" data-name="Tracé 7981" d="M136.316,75.587c-.032.424-.352.308-.6.323a1.045,1.045,0,0,1,.6-.323" transform="translate(-31.148 -23.328)" fill="#8c5f1d"/>
      <path id="Tracé_7982" data-name="Tracé 7982" d="M94.526,79.688l-.111.015L94.4,78.94l.119-.166v.914" transform="translate(-46.932 -22.111)" fill="#5f4d3a"/>
      <path id="Tracé_7983" data-name="Tracé 7983" d="M100.684,78.882v.669c0,.086-.047.129-.119.058-.03-.03-.028-.1-.04-.141a.8.8,0,0,1,.159-.583" transform="translate(-44.595 -22.069)" fill="#9f6f26"/>
      <path id="Tracé_7984" data-name="Tracé 7984" d="M143.481,82.846c.239-.021.463-.017.478.31a.62.62,0,0,1-.478-.31" transform="translate(-28.18 -20.558)" fill="#8a631e"/>
      <path id="Tracé_7985" data-name="Tracé 7985" d="M129.791,78.444c.315.037.332.256.3.5a.638.638,0,0,1-.3-.5" transform="translate(-33.41 -22.237)" fill="#886222"/>
      <path id="Tracé_7986" data-name="Tracé 7986" d="M110.371,77.026c.015.235,0,.445-.315.453a.582.582,0,0,1,.315-.453" transform="translate(-40.951 -22.779)" fill="#88561d"/>
      <path id="Tracé_7987" data-name="Tracé 7987" d="M163.862,82.846c.257-.028.478,0,.478.336a.7.7,0,0,1-.478-.336" transform="translate(-20.393 -20.558)" fill="#94681e"/>
      <path id="Tracé_7988" data-name="Tracé 7988" d="M118.259,83.144c.03.254.012.477-.33.477a.753.753,0,0,1,.33-.477" transform="translate(-37.943 -20.441)" fill="#98651d"/>
      <path id="Tracé_7989" data-name="Tracé 7989" d="M136.937,75.154c-.011.323-.229.329-.469.3a.642.642,0,0,1,.469-.3" transform="translate(-30.859 -23.494)" fill="#8b5c1c"/>
      <path id="Tracé_7990" data-name="Tracé 7990" d="M166.031,98.344c-.5-.171-.209-.33.007-.492Z" transform="translate(-19.67 -14.821)" fill="#37210e"/>
      <path id="Tracé_7991" data-name="Tracé 7991" d="M163.176,73.05c.033.236.051.464-.278.5a.658.658,0,0,1,.278-.5" transform="translate(-20.761 -24.298)" fill="#8e5e1c"/>
      <path id="Tracé_7992" data-name="Tracé 7992" d="M95.877,72.954c-.04.218.16.525-.231.609a1.234,1.234,0,0,1,.231-.609" transform="translate(-46.457 -24.334)" fill="#956d33"/>
      <path id="Tracé_7993" data-name="Tracé 7993" d="M152.01,71.1c.021.232.015.448-.292.475a.6.6,0,0,1,.292-.475" transform="translate(-25.033 -25.044)" fill="#805b1d"/>
      <path id="Tracé_7994" data-name="Tracé 7994" d="M101.391,70.142a.711.711,0,0,1-.341-.441c.334-.023.351.2.341.441" transform="translate(-44.392 -25.578)" fill="#39230f"/>
      <path id="Tracé_7995" data-name="Tracé 7995" d="M110.739,83.755c-.025-.239-.023-.46.3-.474a.653.653,0,0,1-.3.474" transform="translate(-40.694 -20.389)" fill="#8c601d"/>
      <path id="Tracé_7996" data-name="Tracé 7996" d="M122.636,69.734a.774.774,0,0,1-.316-.478c.348,0,.343.231.316.478" transform="translate(-36.265 -25.747)" fill="#2f1f0e"/>
      <path id="Tracé_7997" data-name="Tracé 7997" d="M113.841,69.264a.735.735,0,0,1-.475.318c0-.35.227-.347.475-.318" transform="translate(-39.686 -25.749)" fill="#2b1f0f"/>
      <path id="Tracé_7998" data-name="Tracé 7998" d="M153.323,68.9c.028.238.022.456-.292.486a.634.634,0,0,1,.292-.486" transform="translate(-24.531 -25.883)" fill="#845b1f"/>
      <path id="Tracé_7999" data-name="Tracé 7999" d="M97.361,85.374c0-.355.231-.361.485-.326a.71.71,0,0,1-.485.326" transform="translate(-45.801 -19.719)" fill="#9e6b1d"/>
      <path id="Tracé_8000" data-name="Tracé 8000" d="M130.229,103.657a.5.5,0,0,1-.708.055.411.411,0,0,1-.054-.055h.762" transform="translate(-33.534 -12.603)" fill="#b36b1b"/>
      <path id="Tracé_8001" data-name="Tracé 8001" d="M163.966,67.281c.311-.011.35.193.352.434a.6.6,0,0,1-.352-.434" transform="translate(-20.353 -26.502)" fill="#7a5b20"/>
      <path id="Tracé_8002" data-name="Tracé 8002" d="M101.043,87.007c.326-.008.373.2.357.46a.7.7,0,0,1-.357-.46" transform="translate(-44.395 -18.965)" fill="#906420"/>
      <path id="Tracé_8003" data-name="Tracé 8003" d="M106.346,88.411c.021-.347.258-.323.5-.292a.68.68,0,0,1-.5.292" transform="translate(-42.368 -18.546)" fill="#96651d"/>
      <path id="Tracé_8004" data-name="Tracé 8004" d="M114.953,88.391c.032.24.047.471-.286.5a.7.7,0,0,1,.286-.5" transform="translate(-39.189 -18.436)" fill="#90621d"/>
      <path id="Tracé_8005" data-name="Tracé 8005" d="M81.635,63.4c.035.246.046.478-.292.5a.718.718,0,0,1,.292-.5" transform="translate(-51.922 -27.984)" fill="#93681e"/>
      <path id="Tracé_8006" data-name="Tracé 8006" d="M91.947,52.634a.755.755,0,0,1-.314-.475c.346,0,.341.229.314.475" transform="translate(-47.99 -32.28)" fill="#371d0e"/>
      <path id="Tracé_8007" data-name="Tracé 8007" d="M87.9,51.7a.53.53,0,0,1-.388.365c-.042-.3.155-.354.388-.365" transform="translate(-49.568 -32.454)" fill="#34240f"/>
      <path id="Tracé_8008" data-name="Tracé 8008" d="M158.061,50.3a.641.641,0,0,1,.308-.471c.021.238.022.463-.308.471" transform="translate(-22.609 -33.169)" fill="#322210"/>
      <path id="Tracé_8009" data-name="Tracé 8009" d="M113.438,107.18c.24-.026.467-.03.5.292a.651.651,0,0,1-.5-.292" transform="translate(-39.659 -11.261)" fill="#826325"/>
      <path id="Tracé_8010" data-name="Tracé 8010" d="M155.506,46.751c.033.239.041.464-.283.5a.634.634,0,0,1,.283-.5" transform="translate(-23.693 -34.346)" fill="#8f621d"/>
      <path id="Tracé_8011" data-name="Tracé 8011" d="M148.71,42.807c.03.234.041.456-.276.5a.634.634,0,0,1,.276-.5" transform="translate(-26.287 -35.853)" fill="#865f1d"/>
      <path id="Tracé_8012" data-name="Tracé 8012" d="M135.646,108.444l-.632,3.606c-.153.4-.017.867-.285,1.24q-.466,1.943-.934,3.889c-.159.3-.035.68-.3.945-.457,1.212-.905,2.428-1.375,3.636a32.339,32.339,0,0,1-2.855,5.592c-.109.153-.14.361-.321.464-.944,1.171-2.01,2.224-3.057,3.3-1.471,1.515-4.139,1.108-5.423-.018a7.451,7.451,0,0,1-2.372-5.133,14.562,14.562,0,0,1,.281-5.107,8.555,8.555,0,0,0,.283-1.236,33.776,33.776,0,0,1,1.634-5.31,61.042,61.042,0,0,1,6.228-11.945c1.068-1.606,2.243-3.126,3.365-4.687.12-.141.14-.355.323-.451a55.52,55.52,0,0,0,3.7-4.547,4.654,4.654,0,0,0,.239-4.085c-.166-.5-.451-.178-.663.046a48.706,48.706,0,0,1-3.656,3.571c-.209.177-.445.322-.668.485-.18.077-.381.12-.475.323a11.374,11.374,0,0,1-5.535,2.649,4.247,4.247,0,0,1-4.648-2.1,48,48,0,0,1-2.879,5.473,21.067,21.067,0,0,1-5.093,5.951c-2.749,2.016-5.615.477-6.7-1.852-.144-.24-.07-.565-.3-.771a13.264,13.264,0,0,1-.153-5.962,53.93,53.93,0,0,1,2.414-8.107,1.426,1.426,0,0,0-.14-1.36.612.612,0,0,0-.865-.021l-.03.03c-2.461,1.193-3.328,3.552-4.214,5.861a35.321,35.321,0,0,0-1.553,5c-.189.281-.058.663-.292.93q-.315.833-.629,1.667c-.177.474-.456.9-1,.855s-.766-.489-.8-1.012a1.461,1.461,0,0,1-.116-.836c.032-.175-.138,0-.167-.08-.008-.1-.017-.185-.028-.276-.194-.5.022-1.068-.283-1.538l-.021-.276a14.183,14.183,0,0,1,0-4A20.105,20.105,0,0,1,96.609,88a48.59,48.59,0,0,1,1.936-5.6,1.988,1.988,0,0,1,3.437-.64c.105.109.218.209.328.314a1.359,1.359,0,0,1,.292.485.231.231,0,0,0,.025.113,1.085,1.085,0,0,1,.012,1.227c-.072.355-.352.641-.341,1.023-.025.2-.377.516.18.506.869-.93,1.618-1.969,2.58-2.815a3.734,3.734,0,0,1,5.73.33c.1.112.195.228.292.343.166.119.207.319.314.478L112,85.4a1.243,1.243,0,0,1,.011,1.225c-.043.51-.357.961-.322,1.487-.181.292-.047.673-.3.937-1.263,3.063-2.817,6-3.885,9.144a2.356,2.356,0,0,0-.062.521c-.18.394-.036.862-.282,1.241-.011.088-.021.177-.032.267-.072.127-.048.278-.1.409a8.783,8.783,0,0,0,0,1.595l.1.193a.555.555,0,0,0,.625.26c.184-.181.451-.169.662-.283a10.415,10.415,0,0,0,2.759-2.631c2.365-2.575,4.127-5.6,6.239-8.37a1.568,1.568,0,0,0,.193-1.085,11.491,11.491,0,0,1,1.614-6.552,7.725,7.725,0,0,1,4.235-3.186c.706-.253,1.447-.41,2.173-.614a5.07,5.07,0,0,1,2.725.007v.007c.292.166.672-.068.929.223l.561.082c.547.189,1.193.185,1.535.777.178.448.741.828.485,1.341-.292.589-.951.435-1.494.466a11.991,11.991,0,0,0-3.863.55,6.675,6.675,0,0,0-3.577,3.765,7.933,7.933,0,0,0-.627,3.982c.036.406.033.873.452,1.048s.763-.108,1.095-.354a38.528,38.528,0,0,0,4.5-4.423,13.036,13.036,0,0,1,5.039-3.683,3.094,3.094,0,0,1,2.206-.134c.2.086.223.305.332.459.428,1.5.652,3.041.985,4.564.051.235.047.583.292.665.263.09.388-.25.567-.406.817-.733,1.621-1.48,2.427-2.221.073-.207.307-.21.438-.344.7-.561,1.375-1.144,2.092-1.675a1.463,1.463,0,0,0,.485-1.048c.278-.478.113-1.041.292-1.537l.025-.276c.213-.276.12-.643.274-.937a11.577,11.577,0,0,1,3.349-5.689c.108-.1.209-.213.311-.318.091-.195.307-.213.453-.328l1.663-.893c.253-.279.645-.142.936-.311a3.234,3.234,0,0,1,3.414,1.457,1.16,1.16,0,0,1,.209.616,9.207,9.207,0,0,1,.119,2.464.726.726,0,0,1-.08.263,7.215,7.215,0,0,1-2.065,3.991,37.99,37.99,0,0,0-3.8,4.718,4.325,4.325,0,0,0-.531,3.1c.14.955,1.165,1.457,2.38,1.207a3.88,3.88,0,0,0,.629-.24c.231-.292.64-.1.9-.33a6.091,6.091,0,0,0,1.523-.894c.113-.162.316-.195.459-.311a19.082,19.082,0,0,0,3.69-3.83c.937-1.074,1.759-2.249,2.655-3.358a1.962,1.962,0,0,0,.462-1.229,63.888,63.888,0,0,1,.825-7.342c.206-1.316.4-2.633.708-3.929.263-.379.151-.84.278-1.251a7.94,7.94,0,0,1,.334-1.779c.209-.283.135-.643.264-.947a34.992,34.992,0,0,1,1.068-4.459q.873-3.307,1.974-6.548a58.547,58.547,0,0,1,5.708-12.8,2.974,2.974,0,0,1,1.571-1.318.751.751,0,0,1,.905.018h.006c.193.119.47.082.6.318a2.783,2.783,0,0,1,.925,2.344c-.051,1.125-.025,2.253-.033,3.381-.2.388.181.907-.254,1.252-.438-.719-.029-1.505-.178-2.137a13.947,13.947,0,0,1-.046,1.442c-.022.21-.022.4-.292.434-.337-.111-.271-.4-.281-.648a.4.4,0,0,1,.006-.07.107.107,0,0,0-.05.017,5.085,5.085,0,0,0-.227.735c-.558,1.408-1.049,2.843-1.555,4.273a2.366,2.366,0,0,0-.265.861c-.7,2.052-1.18,4.17-1.845,6.233a3.4,3.4,0,0,0-.252,1.009c-.379,1.53-.88,3.024-1.263,4.551a5.594,5.594,0,0,0-.315.938,3.18,3.18,0,0,1-.242.538c-.041.09.022.14,0,.039s.111,0,.026-.059.115-.129.037-.07a11.156,11.156,0,0,0,.485-1.052,74.612,74.612,0,0,0,3.139-8.8c.5-1.708.98-3.428,1.382-5.165.068-.292.05-.68.525-.668.188.272.238.629.6.8.29.144.242.44.126.7a46.1,46.1,0,0,1-2.413,8.95,73.725,73.725,0,0,1-4.121,9.037,1.108,1.108,0,0,1-.292.493,6.687,6.687,0,0,0-1.171,3.06c-.156.686-.235,1.388-.348,2.081-.088.12-.057.274-.112.4a5.571,5.571,0,0,1-.158.839l-.035,1c-.188.556-.014,1.171-.276,1.715l-.037.264a.089.089,0,0,1-.091.087H165.8c-.062.383,0,.767-.026,1.151a.626.626,0,0,1-.1.292l-.064.905c-.087.129-.061.292-.116.424-.051.456-.007.914-.028,1.37a.665.665,0,0,1-.1.33L165.3,85.7a2.694,2.694,0,0,0-.12.478c-.019,1.494-.03,2.987.007,4.479a.776.776,0,0,0,.111.228l.022-.018c.323.68.028,1.45.292,2.137a1.1,1.1,0,0,0,.715,1.2,1.416,1.416,0,0,0,1.594-.561,52.67,52.67,0,0,0,4.915-7.007c1.747-2.836,3.342-5.765,5.216-8.522.155-.228.311-.453.485-.669.185-.231.365-.536.731-.278a.639.639,0,0,1,.178.875c-.485,1.1-.925,2.214-1.439,3.3-1.791,3.768-3.581,7.536-5.421,11.282a19.423,19.423,0,0,1-3.115,4.586c-1.36,1.479-2.974,2.321-5.05,1.531-.211-.218-.527-.159-.768-.292h0c-.171-.169-.431-.162-.616-.3a3.434,3.434,0,0,1-1.83-2.452,20.812,20.812,0,0,1-.737-4.826c.223-.229.151-.52.153-.788.007-1.081,0-2.16,0-3.24,0,.948.007,1.9-.007,2.844,0,.263.1.561-.171.771a25.146,25.146,0,0,1-.278-4.725c-.829,1.154-1.542,2.224-2.33,3.23a17.9,17.9,0,0,1-5.213,4.805,6.777,6.777,0,0,1-7.031.115,1.883,1.883,0,0,1-.281-.245c-.08-.2-.3-.217-.438-.347l-.151-.153c-.127-.134-.152-.344-.325-.445a4.2,4.2,0,0,1-.908-2.233c-.174-.455-.015-.972-.281-1.412l-.221-1.418c-.4.029-.466.39-.626.6-1.252,1.614-2.72,3.05-3.9,4.727a3.42,3.42,0,0,0-.721,1.535c-.193.388-.03.862-.29,1.236l-1.241,8.746c-.033.055-.065.111-.1.169-.073.292-.008.587-.053.879a.891.891,0,0,1-.08.182c-.023.4-.046.789-.069,1.183-.162.51-.018,1.068-.271,1.564" transform="translate(-46.514 -36.764)" fill="#0f352a"/>
      <path id="Tracé_8013" data-name="Tracé 8013" d="M115.922,77.932c.187-3.205,2.319-5.989,5.653-5.661-2.019,1.766-3.62,3.87-5.653,5.661" transform="translate(-38.71 -24.605)" fill="#19191a"/>
      <path id="Tracé_8014" data-name="Tracé 8014" d="M153.016,46.288c.514-.265.221-.762.3-1.143.1-.474-.05-.984.084-1.465l.252-.008v2.962c.243.343.039.688.01,1.032a17.588,17.588,0,0,1-.48,2.875c-.032-.207.086-.55-.21-.563-.757-.032-.491-.59-.565-.977a1.043,1.043,0,0,1-.058-1.046,10.614,10.614,0,0,0,.222-1.075,1.531,1.531,0,0,1,.232-.546.167.167,0,0,1,.209-.046" transform="translate(-24.834 -35.523)" fill="#0f362d"/>
      <path id="Tracé_8015" data-name="Tracé 8015" d="M142.493,77.905V73.256c.41.05.322.274.323.42q.013,2.032,0,4.065c0,.239.071.531-.3.576-.008-.137-.015-.275-.022-.412" transform="translate(-28.558 -24.219)" fill="#0d352f"/>
      <path id="Tracé_8016" data-name="Tracé 8016" d="M95.666,78.644v4a7.118,7.118,0,0,1,0-4" transform="translate(-46.559 -22.16)" fill="#11352a"/>
      <path id="Tracé_8017" data-name="Tracé 8017" d="M120.023,69.12l-2.725-.007a.317.317,0,0,1,.333-.3h2.047a.3.3,0,0,1,.343.258.269.269,0,0,1,0,.047" transform="translate(-38.184 -25.918)" fill="#89651e"/>
      <path id="Tracé_8018" data-name="Tracé 8018" d="M145.935,73.5l.13-.322v5.184c-.04-.008-.08-.014-.12-.021a29.357,29.357,0,0,1-.007-4.843" transform="translate(-27.278 -24.248)" fill="#546541"/>
      <path id="Tracé_8019" data-name="Tracé 8019" d="M146.322,79.059a4.293,4.293,0,0,1-.292-2.137c.37.05.292.339.3.575.006.521,0,1.042,0,1.563" transform="translate(-27.217 -22.818)" fill="#996a1e"/>
      <path id="Tracé_8020" data-name="Tracé 8020" d="M121.88,70.042l-1.535-.778c.68-.065,1.284,0,1.535.778" transform="translate(-37.02 -25.751)" fill="#966d1e"/>
      <path id="Tracé_8021" data-name="Tracé 8021" d="M153.273,47.193q0-.516-.01-1.032c.274-.379,0-.875.264-1.251a4.057,4.057,0,0,1-.254,2.282" transform="translate(-24.442 -35.05)" fill="#77551c"/>
      <path id="Tracé_8022" data-name="Tracé 8022" d="M95.606,81.785c.1-.008.275-.388.292.041.019.5,0,1-.008,1.5a2.951,2.951,0,0,1-.283-1.538" transform="translate(-46.476 -21.023)" fill="#11352a"/>
      <path id="Tracé_8023" data-name="Tracé 8023" d="M146.469,69.069a3.553,3.553,0,0,1,.278-1.714c-.088.572.307,1.222-.278,1.714" transform="translate(-27.043 -26.474)" fill="#9c6a1d"/>
      <path id="Tracé_8024" data-name="Tracé 8024" d="M137.919,68.365q0-1.323.008-2.647a.847.847,0,0,1,.1.057,7.254,7.254,0,0,1,.1,1.887c-.07.234.17.561-.211.7" transform="translate(-30.306 -27.099)" fill="#253014"/>
      <path id="Tracé_8025" data-name="Tracé 8025" d="M124.55,90.07a3.163,3.163,0,0,1,.271-1.563c-.1.52.325,1.131-.271,1.563" transform="translate(-35.417 -18.392)" fill="#946b1e"/>
      <path id="Tracé_8026" data-name="Tracé 8026" d="M146.063,72.674l-.043-.256c.21-.5-.065-1.048.155-1.545l.133-.323V72.2c0,.193.054.423-.241.47" transform="translate(-27.21 -25.253)" fill="#69703d"/>
      <path id="Tracé_8027" data-name="Tracé 8027" d="M130.314,70.548c-.133.506.333,1.125-.292,1.538a2.9,2.9,0,0,1,.292-1.538" transform="translate(-33.326 -25.254)" fill="#1b311c"/>
      <path id="Tracé_8028" data-name="Tracé 8028" d="M107.447,74.193q-.006-.614-.011-1.225a.7.7,0,0,1,.011,1.225" transform="translate(-41.952 -24.329)" fill="#a96e1d"/>
      <path id="Tracé_8029" data-name="Tracé 8029" d="M130.024,75.6c.582.375.189.94.281,1.412a2.414,2.414,0,0,1-.281-1.412" transform="translate(-33.327 -23.323)" fill="#1c3119"/>
      <path id="Tracé_8030" data-name="Tracé 8030" d="M103.847,84.032l.129-.34q0,1.1-.006,2.192l-.122-.05a4.4,4.4,0,0,1,0-1.8" transform="translate(-43.358 -20.232)" fill="#6e743e"/>
      <path id="Tracé_8031" data-name="Tracé 8031" d="M100.662,72.222c.153-.41-.05-.817-.012-1.227a.721.721,0,0,1,.012,1.227" transform="translate(-44.547 -25.083)" fill="#72601f"/>
      <path id="Tracé_8032" data-name="Tracé 8032" d="M103.942,83.842a1.878,1.878,0,0,1,.281-1.241c-.09.415.292.937-.281,1.241" transform="translate(-43.292 -20.649)" fill="#9b6a1d"/>
      <path id="Tracé_8033" data-name="Tracé 8033" d="M138.037,67.706q-.021-.97-.041-1.947c.384.616.1,1.288.16,1.931-.029.076-.069.082-.119.017" transform="translate(-30.275 -27.084)" fill="#516741"/>
      <path id="Tracé_8034" data-name="Tracé 8034" d="M125.858,80.774a1.832,1.832,0,0,1,.292-1.236c-.1.41.3.94-.292,1.236" transform="translate(-34.918 -21.819)" fill="#9c6b1e"/>
      <path id="Tracé_8035" data-name="Tracé 8035" d="M123.885,93.488a2.392,2.392,0,0,1,.285-1.24c-.086.415.292.937-.285,1.24" transform="translate(-35.668 -16.963)" fill="#90691e"/>
      <path id="Tracé_8036" data-name="Tracé 8036" d="M102.183,74.2c.292-.533.59-.528.9-.012Z" transform="translate(-43.959 -24.01)" fill="#1f3017"/>
      <path id="Tracé_8037" data-name="Tracé 8037" d="M143.893,60.674c-.083.419.3.94-.276,1.251a2.332,2.332,0,0,1,.276-1.251" transform="translate(-28.13 -29.026)" fill="#213619"/>
      <path id="Tracé_8038" data-name="Tracé 8038" d="M95.833,83.1c.1.021.2-.351.274-.036a4.376,4.376,0,0,1,.008.951,1.163,1.163,0,0,1-.282-.915" transform="translate(-46.389 -20.521)" fill="#11352a"/>
      <path id="Tracé_8039" data-name="Tracé 8039" d="M112.333,97.728c.017.438.1.889-.283,1.236a1.891,1.891,0,0,1,.283-1.236" transform="translate(-40.194 -14.869)" fill="#313c18"/>
      <path id="Tracé_8040" data-name="Tracé 8040" d="M100.672,73.129c-.091.138-.235.38-.365.235-.242-.267-.029-.528.185-.741.04.176-.01.388.18.506" transform="translate(-44.717 -24.461)" fill="#7c5f1e"/>
      <path id="Tracé_8041" data-name="Tracé 8041" d="M130.524,69.67c-.068.321.236.748-.274.938a1.15,1.15,0,0,1,.274-.938" transform="translate(-33.24 -25.589)" fill="#313b18"/>
      <path id="Tracé_8042" data-name="Tracé 8042" d="M144.325,58.7c-.054.325.246.749-.264.947a1.2,1.2,0,0,1,.264-.947" transform="translate(-27.963 -29.78)" fill="#313a18"/>
      <path id="Tracé_8043" data-name="Tracé 8043" d="M122.99,96.9a1.337,1.337,0,0,1,.3-.945c-.062.328.267.777-.3.945" transform="translate(-36.01 -15.545)" fill="#98681e"/>
      <path id="Tracé_8044" data-name="Tracé 8044" d="M136.4,76.7a1.1,1.1,0,0,1-.894.33c.124-.582.593-.231.894-.33" transform="translate(-31.228 -22.909)" fill="#92691e"/>
      <path id="Tracé_8045" data-name="Tracé 8045" d="M135.561,64.227a1.322,1.322,0,0,1-.936.311c.149-.592.615-.234.936-.311" transform="translate(-31.563 -27.683)" fill="#90671e"/>
      <path id="Tracé_8046" data-name="Tracé 8046" d="M107,75.867a1.294,1.294,0,0,1,.3-.937c-.07.322.246.767-.3.937" transform="translate(-42.122 -23.579)" fill="#8f651e"/>
      <path id="Tracé_8047" data-name="Tracé 8047" d="M97.8,82.878a1.224,1.224,0,0,1,.29-.93c-.068.319.229.755-.29.93" transform="translate(-45.637 -20.898)" fill="#7e641f"/>
      <path id="Tracé_8048" data-name="Tracé 8048" d="M120.2,69.268c-.308-.08-.651-.019-.929-.224a4.389,4.389,0,0,1,1,.012c.227.053-.048.133-.07.211" transform="translate(-37.431 -25.837)" fill="#7b7334"/>
      <path id="Tracé_8049" data-name="Tracé 8049" d="M124.805,87.99a.233.233,0,0,1-.048-.108c.2-.337-.058-.744.16-1.079a.7.7,0,0,0,.117-.043c-.061.412.236.891-.229,1.229" transform="translate(-35.334 -19.059)" fill="#646d3b"/>
      <path id="Tracé_8050" data-name="Tracé 8050" d="M101.3,85.247c.474.109.257.492.3.77a.9.9,0,0,1-.3-.77" transform="translate(-44.299 -19.638)" fill="#393915"/>
      <path id="Tracé_8051" data-name="Tracé 8051" d="M144.808,82.41c.279.037.654-.174.768.292a.875.875,0,0,1-.768-.292" transform="translate(-27.673 -20.728)" fill="#343a16"/>
      <path id="Tracé_8052" data-name="Tracé 8052" d="M105.025,85.267a.587.587,0,0,1-.662.285c.082-.419.4-.278.662-.285" transform="translate(-43.126 -19.637)" fill="#966a1e"/>
      <path id="Tracé_8053" data-name="Tracé 8053" d="M146.806,66.043l.141-.31c-.018.315.129.655-.148.929a.667.667,0,0,1,.007-.619" transform="translate(-26.94 -27.093)" fill="#57673c"/>
      <path id="Tracé_8054" data-name="Tracé 8054" d="M146.829,65.957l-.007.619c-.041.1-.082.207-.123.312,0-.316-.131-.651.13-.932" transform="translate(-26.963 -27.008)" fill="#2b3314"/>
      <path id="Tracé_8055" data-name="Tracé 8055" d="M138.068,67.173a.85.85,0,0,0,.119-.017c-.05.254.206.6-.223.739a.191.191,0,0,1-.047-.083c.169-.185.113-.424.151-.641" transform="translate(-30.306 -26.55)" fill="#7c7737"/>
      <path id="Tracé_8056" data-name="Tracé 8056" d="M146.375,68.829a.961.961,0,0,0,.12-.043q0,.462.008.925a.114.114,0,0,1-.16.011.1.1,0,0,1-.035-.052c.011-.282-.09-.571.066-.84" transform="translate(-27.108 -25.927)" fill="#626b3e"/>
      <path id="Tracé_8057" data-name="Tracé 8057" d="M146.38,69.453a.6.6,0,0,0,.141,0c-.023.225.156.527-.235.609l-.043-.256c.082-.105.046-.254.137-.354" transform="translate(-27.124 -25.672)" fill="#917729"/>
      <path id="Tracé_8058" data-name="Tracé 8058" d="M144.364,82.19a.507.507,0,0,1,.616.3.62.62,0,0,1-.616-.3" transform="translate(-27.842 -20.814)" fill="#2b3516"/>
      <path id="Tracé_8059" data-name="Tracé 8059" d="M120.7,81.53a.568.568,0,0,1-.325.451c-.015-.239.007-.451.325-.451" transform="translate(-37.01 -21.058)" fill="#84621e"/>
      <path id="Tracé_8060" data-name="Tracé 8060" d="M130.88,78.237c.3,0,.334.21.325.444a.5.5,0,0,1-.325-.444" transform="translate(-32.994 -22.316)" fill="#363715"/>
      <path id="Tracé_8061" data-name="Tracé 8061" d="M119.505,78.577c-.006-.35.218-.359.475-.323a.628.628,0,0,1-.475.323" transform="translate(-37.341 -22.315)" fill="#203017"/>
      <path id="Tracé_8062" data-name="Tracé 8062" d="M137.71,75.825a.525.525,0,0,1-.459.311c.014-.308.228-.322.459-.311" transform="translate(-30.56 -23.239)" fill="#776320"/>
      <path id="Tracé_8063" data-name="Tracé 8063" d="M128.274,73.632a.57.57,0,0,1-.438.344c-.019-.325.195-.355.438-.344" transform="translate(-34.158 -24.076)" fill="#85651f"/>
      <path id="Tracé_8064" data-name="Tracé 8064" d="M124.84,72.128a.734.734,0,0,1-.332-.459c.336-.011.357.207.332.459" transform="translate(-35.429 -24.826)" fill="#716822"/>
      <path id="Tracé_8065" data-name="Tracé 8065" d="M107.083,71.917a.65.65,0,0,1-.314-.478c.321.017.333.236.314.478" transform="translate(-42.207 -24.913)" fill="#6e6729"/>
      <path id="Tracé_8066" data-name="Tracé 8066" d="M100.711,71.047a.642.642,0,0,1-.292-.485c.326.024.323.247.292.485" transform="translate(-44.633 -25.248)" fill="#766425"/>
      <path id="Tracé_8067" data-name="Tracé 8067" d="M119.7,103.783a.6.6,0,0,1,.321-.463c.021.243,0,.459-.321.463" transform="translate(-37.268 -12.732)" fill="#85671f"/>
      <path id="Tracé_8068" data-name="Tracé 8068" d="M133.547,65.088a.584.584,0,0,1-.453.328c-.006-.326.21-.347.453-.328" transform="translate(-32.149 -27.342)" fill="#87631e"/>
      <path id="Tracé_8069" data-name="Tracé 8069" d="M147.984,62.148a.6.6,0,0,1,.292-.492c.035.243.036.466-.292.492" transform="translate(-26.459 -28.651)" fill="#886b1f"/>
      <path id="Tracé_8070" data-name="Tracé 8070" d="M131.224,78.67c.245-.008.453.026.438.346a.548.548,0,0,1-.438-.346" transform="translate(-32.863 -22.151)" fill="#303213"/>
      <path id="Tracé_8071" data-name="Tracé 8071" d="M106.053,80.036a4.373,4.373,0,0,1-2.708,1.82c-.286.17-.666.048-.927.3a.879.879,0,0,1-.275.123c-1.715.112-1.723,1.41-1.826,2.631-.169,2-.326,4.011-.493,6.016a1.584,1.584,0,0,1-.112.352c-.388-.76-.026-1.578-.185-2.257.1,1.679-.137,3.468.144,5.244q0,1.207,0,2.413c-.148.193.053.485-.166.663a.193.193,0,0,1-.195-.083.635.635,0,0,1-.065-.195c.105,1.53.014,3.059.018,4.587a.355.355,0,0,0,.106.193,7.988,7.988,0,0,1-.245,2.832c-.126.314-.271.533-.594.6a.761.761,0,0,1-.817-.419,2.068,2.068,0,0,1-.46-1.171c-.169-.292-.022-.68-.321-.925a21.667,21.667,0,0,1-1.2-3.929c-.149-.3-.064-.661-.267-.941-.039-.608-.409-1.155-.333-1.786-.176-.5-.01-1.061-.29-1.538a10.062,10.062,0,0,1-.316-3.318c.2-.1.159-.292.163-.462.026-1.929-.065-3.86.057-5.787-.1,1.8-.04,3.593-.062,5.394,0,.292.1.61-.159.857a22.139,22.139,0,0,1-.18-5.557c.149-1.518.187-1.54-1.278-1.437-2.16.149-4.273.654-6.41.985-.282.216-.637.112-.943.22a3.336,3.336,0,0,0-2.688,1.273A65.232,65.232,0,0,0,76.952,93.7a35.9,35.9,0,0,1-8.158,7.921,20.262,20.262,0,0,1-3.289,1.625,1.82,1.82,0,0,1-1.77-.329.57.57,0,0,1-.159-.791l.011-.017a4.265,4.265,0,0,1,.85-1.139,152.215,152.215,0,0,0,11.723-13.2c.409-.5.831-.991,1.319-1.571-.937-.187-1.788-.029-2.622-.129a12.7,12.7,0,0,0-2.253-.2c-.267-.039-.545.054-.8-.064a50.45,50.45,0,0,1-8.45-.918c-.3-.076-.663-.134-.668-.493,0-.337.366-.34.623-.419A70.254,70.254,0,0,1,71,82.212c1.182-.218,2.362-.448,3.544-.672a10.1,10.1,0,0,1,1.231-.278l.282-.029c.441-.193.934-.119,1.381-.279,1.36-.213,2.719-.4,4.063-.65a2.185,2.185,0,0,0,1.207-.954c.618-.777,1.213-1.57,1.819-2.356.173-.1.207-.3.315-.452L86.03,74.87a.8.8,0,0,0,.312-.485l1.226-1.934a1.15,1.15,0,0,0,.29-.473l2.746-4.67a1.3,1.3,0,0,0,.282-.487c2.363-4.391,4.517-8.888,6.769-13.336a2.277,2.277,0,0,1,2.486-1.327,1.975,1.975,0,0,1,1.67,1.511c-.341.842-.039,1.721-.18,2.573.151-.817-.178-1.668.2-2.468a3.278,3.278,0,0,1,.24,1.469c.015,1.888.017,3.777.022,5.667-.145.2.047.485-.162.674a.2.2,0,0,1-.195-.079,2.494,2.494,0,0,1-.086-.875,26.874,26.874,0,0,1,.012,3.37.715.715,0,0,0,.122.572c.055,1.414-.413,2.79-.292,4.21-.083.732-.13,1.471-.14,2.207a1.291,1.291,0,0,1-.14.86l-.032.281a.154.154,0,0,1-.133.1c0,.738.006,1.475,0,2.21a.915.915,0,0,1-.086.457c-.022.419-.012.843-.069,1.256-.1.713.148,1.027.883.869.7.184,1.457-.1,2.137.261a2.832,2.832,0,0,1,2.137,1.837.775.775,0,0,1-.006.922" transform="translate(-59.052 -32.293)" fill="#0f352a"/>
      <path id="Tracé_8072" data-name="Tracé 8072" d="M89.523,84.34a2.363,2.363,0,0,1-.278-1.068c-.007-1.725,0-3.451.111-5.179a17.341,17.341,0,0,1,.209,3.266l-.041,2.985" transform="translate(-48.903 -22.371)" fill="#0d352e"/>
      <path id="Tracé_8073" data-name="Tracé 8073" d="M89.31,89.665c-.268-.037-.292-.232-.286-.446q0-2.488.007-4.976c0-.1.007-.2.206-.246a3.411,3.411,0,0,1,.1,1.135,10.055,10.055,0,0,1,.019,3.649l-.041.885" transform="translate(-48.987 -20.115)" fill="#0a3531"/>
      <path id="Tracé_8074" data-name="Tracé 8074" d="M91.054,62.475c-.216-.036-.278-.18-.276-.379.007-1.4.008-2.81.019-4.214,0-.054.068-.108.163-.249a7.265,7.265,0,0,1,.126,1.823,4.11,4.11,0,0,1,.019,2.29c-.017.243-.033.485-.051.728" transform="translate(-48.317 -30.188)" fill="#0c352f"/>
      <path id="Tracé_8075" data-name="Tracé 8075" d="M91.1,53.351v3.437c-.408-.036-.319-.26-.321-.408q-.014-1.277,0-2.554c0-.239-.069-.528.3-.582a.093.093,0,0,1,.022.1" transform="translate(-48.317 -31.865)" fill="#0c352f"/>
      <path id="Tracé_8076" data-name="Tracé 8076" d="M90.567,67.249a11.164,11.164,0,0,1,.281-3.067l.014,2.551c0,.228.019.466-.292.516" transform="translate(-48.402 -27.686)" fill="#9d6b1e"/>
      <path id="Tracé_8077" data-name="Tracé 8077" d="M89.389,84.994c.029-.216-.043-.449.123-.637V88.2c0,.148.014.307-.163.384a20.571,20.571,0,0,1,.039-3.585" transform="translate(-48.886 -19.978)" fill="#666f40"/>
      <path id="Tracé_8078" data-name="Tracé 8078" d="M69.278,76.493c.97,0,1.942,0,2.919-.01.274,0,.406.022.14.274h-.163a1.593,1.593,0,0,0-.739-.024,8.329,8.329,0,0,1-2.156-.238" transform="translate(-56.531 -22.986)" fill="#272811"/>
      <path id="Tracé_8079" data-name="Tracé 8079" d="M89.4,84.821q-.021,1.793-.039,3.585a.388.388,0,0,1-.1.059l-.018-3.65h.156" transform="translate(-48.9 -19.803)" fill="#303414"/>
      <path id="Tracé_8080" data-name="Tracé 8080" d="M91.144,59.137c.032-.22-.036-.457.122-.652V61.3c0,.019-.018.058-.023.057a.786.786,0,0,1-.116-.025,6.5,6.5,0,0,1,.015-2.2" transform="translate(-48.217 -29.863)" fill="#73743d"/>
      <path id="Tracé_8081" data-name="Tracé 8081" d="M93.113,70.4a15.016,15.016,0,0,1-2.137-.261c.542,0,1.084-.014,1.625-.011.213,0,.467-.053.516.272" transform="translate(-48.241 -25.415)" fill="#827434"/>
      <path id="Tracé_8082" data-name="Tracé 8082" d="M85.959,82.838c.63.412.162,1.032.29,1.54a3.066,3.066,0,0,1-.29-1.54" transform="translate(-50.161 -20.558)" fill="#1a311b"/>
      <path id="Tracé_8083" data-name="Tracé 8083" d="M91.159,58.96l-.017,2.2a.486.486,0,0,1-.122.083L91,58.953l.158.007" transform="translate(-48.231 -29.684)" fill="#343614"/>
      <path id="Tracé_8084" data-name="Tracé 8084" d="M90.4,68.942c-.018-.141-.036-.281-.055-.42.131-.243.032-.513.087-.764a.143.143,0,0,1,.188-.048v1.845l-.218-.616" transform="translate(-48.482 -26.345)" fill="#897932"/>
      <path id="Tracé_8085" data-name="Tracé 8085" d="M73.742,72.99a2.125,2.125,0,0,1-1.381.279c.4-.4.9-.292,1.381-.279" transform="translate(-55.353 -24.329)" fill="#6e591e"/>
      <path id="Tracé_8086" data-name="Tracé 8086" d="M94.063,72.575c0-.307,0-.615.006-.922.463.311.47.618-.006.922" transform="translate(-47.061 -24.832)" fill="#9f6b1d"/>
      <path id="Tracé_8087" data-name="Tracé 8087" d="M72.5,73.22a1.858,1.858,0,0,1-1.231.278A1.354,1.354,0,0,1,72.5,73.22" transform="translate(-55.772 -24.251)" fill="#6e591e"/>
      <path id="Tracé_8088" data-name="Tracé 8088" d="M79.354,76.307a1.9,1.9,0,0,1,.944-.22c.021.08.305.162.079.214a4.292,4.292,0,0,1-1.023.006" transform="translate(-52.681 -23.138)" fill="#8a7428"/>
      <path id="Tracé_8089" data-name="Tracé 8089" d="M86.413,85.241c.5.194.206.619.267.94a1.172,1.172,0,0,1-.267-.94" transform="translate(-49.99 -19.64)" fill="#3b3d17"/>
      <path id="Tracé_8090" data-name="Tracé 8090" d="M90.6,68.127h-.126a2.857,2.857,0,0,1,0-1.487A.6.6,0,0,0,90.6,66.6v1.527" transform="translate(-48.468 -26.763)" fill="#5e6a43"/>
      <path id="Tracé_8091" data-name="Tracé 8091" d="M91.434,73.942c.164-.546.611-.221.926-.3a1.179,1.179,0,0,1-.926.3" transform="translate(-48.066 -24.081)" fill="#2e3a17"/>
      <path id="Tracé_8092" data-name="Tracé 8092" d="M87.468,88.765c.607.134.229.611.321.925a1.282,1.282,0,0,1-.321-.925" transform="translate(-49.582 -18.293)" fill="#1c341b"/>
      <path id="Tracé_8093" data-name="Tracé 8093" d="M70.838,76.693a.627.627,0,0,1,.739.022l-.739-.022" transform="translate(-55.935 -22.948)" fill="#0f352a"/>
      <path id="Tracé_8094" data-name="Tracé 8094" d="M78.8,69.789c.015.234,0,.446-.314.451a.523.523,0,0,1,.314-.451" transform="translate(-53.012 -25.544)" fill="#323a17"/>
      <path id="Tracé_8095" data-name="Tracé 8095" d="M79.887,68.233c.035.252.033.477-.312.485a.653.653,0,0,1,.312-.485" transform="translate(-52.597 -26.138)" fill="#253216"/>
      <path id="Tracé_8096" data-name="Tracé 8096" d="M80.982,66.491c.026.236.022.453-.292.474a.571.571,0,0,1,.292-.474" transform="translate(-52.171 -26.804)" fill="#313615"/>
      <path id="Tracé_8097" data-name="Tracé 8097" d="M83.17,62.763c.029.232.032.449-.282.485a.534.534,0,0,1,.282-.485" transform="translate(-51.331 -28.228)" fill="#333816"/>
      <path id="Tracé_8098" data-name="Tracé 8098" d="M130.026,43.736h4.213a15.359,15.359,0,0,1-4.213,0" transform="translate(-33.321 -35.498)" fill="#efe9d8"/>
      <path id="Tracé_8099" data-name="Tracé 8099" d="M127.716,43.845c.357-.257.756-.087,1.136-.116a2.8,2.8,0,0,1-1.136.116" transform="translate(-34.203 -35.512)" fill="#18191a"/>
      <path id="Tracé_8100" data-name="Tracé 8100" d="M130.081,43.618a.417.417,0,0,0-.05.111l-.89.008c.292-.242.625-.1.94-.117" transform="translate(-33.659 -35.552)" fill="#18191a"/>
      <path id="Tracé_8101" data-name="Tracé 8101" d="M126.731,43.949c.25-.221.546-.1.824-.111a1.662,1.662,0,0,1-.824.111" transform="translate(-34.58 -35.468)" fill="#18191a"/>
      <path id="Tracé_8102" data-name="Tracé 8102" d="M171.311,91.34a13.065,13.065,0,0,1-2.573,1.02c-3.092.865-5.147-1.722-5.748-3.8-.927-3.226.117-6.087,1.661-8.851a29.669,29.669,0,0,1,3.77-5.05c.37-.42.423-.7,0-1.126-.932-.947-1.8-1.949-2.7-2.929-.112-.155-.137-.373-.343-.455a6.969,6.969,0,0,1-1.4-5.738,11.925,11.925,0,0,1,3.669-6.649,3.4,3.4,0,0,1,3.833-.918c.267.278.68-.028.952.239.889.187,1.042.419,1.2,1.834.193.341.12.748.257,1.1a13.266,13.266,0,0,0,1.292,4.051c.105.228.235.445.328.68.228.571.7,1.247.134,1.736-.528.457-1.182.014-1.736-.282-.115-.162-.315-.194-.46-.308a3.383,3.383,0,0,1-1.068-1.343,1.459,1.459,0,0,0-.29-.485c-.557-1.059-1.124-2.115-1.665-3.18-.2-.4-.388-.466-.811-.239-1.809.972-3.175,4.613-.744,6.616.308.253.623.5.934.749a3.071,3.071,0,0,1,.764.648,12.947,12.947,0,0,0,1.882,1.6.972.972,0,0,0,1.237-.044,47.512,47.512,0,0,1,8.4-4.336.891.891,0,0,1,.923-.035l.239.059c.254.17.2.376.066.589a10.351,10.351,0,0,1-2.137,2.1c-.1.176-.311.195-.448.322-1.694,1.234-3.386,2.474-5.089,3.7-.377.271-.267.517-.071.824a10.739,10.739,0,0,1,1.793,4.4,26.819,26.819,0,0,1-.133,3.159c-.17.4-.028.873-.283,1.252a26.932,26.932,0,0,1-2.439,5.579c-.1.159-.142.352-.3.471a14.914,14.914,0,0,1-2.428,2.7c-.1.195-.308.216-.459.328" transform="translate(-20.859 -30.582)" fill="#0f352a"/>
      <path id="Tracé_8103" data-name="Tracé 8103" d="M169.705,64.123a5.053,5.053,0,0,0,2.927,2.215,5.317,5.317,0,0,1-1.139.826c-.207.163-.369.026-.529-.115-1.042-.911-2.076-1.833-3.135-2.725-.8-.67-.7-2.314-.153-3.165.292-.446.4-.048.475.147a13.284,13.284,0,0,0,1.238,2.323,1.073,1.073,0,0,1,.316.493" transform="translate(-19.099 -28.918)" fill="#18191a"/>
      <path id="Tracé_8104" data-name="Tracé 8104" d="M172.986,75.517a2.072,2.072,0,0,1,.285-1.252c-.087.419.3.947-.285,1.252" transform="translate(-16.91 -23.834)" fill="#976a1e"/>
      <path id="Tracé_8105" data-name="Tracé 8105" d="M177.626,63.385l-.923.035c.292-.456.6-.445.923-.035" transform="translate(-15.486 -28.108)" fill="#8e691f"/>
      <path id="Tracé_8106" data-name="Tracé 8106" d="M170.852,59.386a1.734,1.734,0,0,1-.256-1.107c.5.272.209.728.258,1.1" transform="translate(-17.823 -29.941)" fill="#8c661e"/>
      <path id="Tracé_8107" data-name="Tracé 8107" d="M168.584,65.512a1.53,1.53,0,0,1-.764-.647.732.732,0,0,1,.764.647" transform="translate(-18.88 -27.425)" fill="#7d6b24"/>
      <path id="Tracé_8108" data-name="Tracé 8108" d="M170.029,57.03a5.621,5.621,0,0,1-.965.008c-.344-.053,0-.162.012-.247a.229.229,0,0,1,.116-.036c.238.181.561-.046.792.169.015.035.03.07.044.106" transform="translate(-18.463 -30.524)" fill="#272e12"/>
      <path id="Tracé_8109" data-name="Tracé 8109" d="M177.612,63.933c-.022-.195-.044-.391-.068-.59.184-.007.329.035.346.257a.278.278,0,0,1-.217.328.315.315,0,0,1-.062.006" transform="translate(-15.165 -28.007)" fill="#9d6b1e"/>
      <path id="Tracé_8110" data-name="Tracé 8110" d="M167.138,62.809a1.583,1.583,0,0,1,0-.961,1.6,1.6,0,0,1,0,.961" transform="translate(-19.17 -28.578)" fill="#b06f1c"/>
      <path id="Tracé_8111" data-name="Tracé 8111" d="M171,79.679a.573.573,0,0,1,.3-.473c.025.238.014.451-.3.473" transform="translate(-17.665 -21.946)" fill="#7e631f"/>
      <path id="Tracé_8112" data-name="Tracé 8112" d="M168.914,81.829a.6.6,0,0,1,.459-.328c0,.329-.214.347-.459.328" transform="translate(-18.462 -21.069)" fill="#87661f"/>
      <path id="Tracé_8113" data-name="Tracé 8113" d="M164.619,66.408c.336-.015.361.2.343.455a.609.609,0,0,1-.343-.455" transform="translate(-20.103 -26.836)" fill="#2a2f13"/>
      <path id="Tracé_8114" data-name="Tracé 8114" d="M175.72,65.607a.54.54,0,0,1,.448-.321c-.006.308-.211.334-.448.321" transform="translate(-15.862 -27.264)" fill="#79631f"/>
      <path id="Tracé_8115" data-name="Tracé 8115" d="M170.458,63.33c.231-.012.441.006.46.31a.5.5,0,0,1-.46-.31" transform="translate(-17.872 -28.013)" fill="#363714"/>
      <path id="Tracé_8116" data-name="Tracé 8116" d="M169.113,63.384a.727.727,0,0,1-.315-.493c.334.018.344.243.315.493" transform="translate(-18.507 -28.179)" fill="#916321"/>
      <path id="Tracé_8117" data-name="Tracé 8117" d="M169.472,62.009c.312.032.317.249.292.487a.558.558,0,0,1-.292-.487" transform="translate(-18.249 -28.516)" fill="#353614"/>
      <path id="Tracé_8118" data-name="Tracé 8118" d="M169.91,56.93c-.268-.04-.558.032-.791-.17.268.029.582-.131.791.17" transform="translate(-18.384 -30.528)" fill="#666939"/>
      <path id="Tracé_8119" data-name="Tracé 8119" d="M147.186,106.535a3.29,3.29,0,0,0,2.854,2.746.637.637,0,0,1,.492.133c-.105.072-.211.122-.292.057.463.064.972-.007,1.512.037-.141-.039-.267,0-.352-.1a4.242,4.242,0,0,0,2.731-1.367c.171-.109.214-.305.307-.466a8.759,8.759,0,0,0,.634-3.534q-.039-4.687,0-9.377c0-.557-.144-.739-.717-.735-1.515.017-1.515-.011-1.6-1.558-.051-.98-.051-.98.938-.98,2.04,0,4.084.019,6.125-.014.575-.01.723.171.72.73-.008,1.817.012,1.845-1.723,1.822-.611-.007-.762.187-.757.778.026,3.4.017,6.805.007,10.209a1.575,1.575,0,0,1-.134,1.024,1.555,1.555,0,0,1-.073-.814q-.008-5.172,0-10.346a5.06,5.06,0,0,0-.03-.709c-.058-.1-.195.033-.1-.011.035-.018.044.008.066.025.13.1.061.229.061.34q.006,5.89,0,11.781a.724.724,0,0,1-.061.366,5.293,5.293,0,0,1-3.593,4.684,8.818,8.818,0,0,1-7.5-.437,3.629,3.629,0,0,1-1.665-1.678,1.1,1.1,0,0,0-.292-.485,7,7,0,0,1-.883-3.466c-.041-3.452-.035-6.906-.008-10.359.006-.666-.13-.929-.86-.907-1.6.05-1.562.008-1.614-1.627-.023-.727.182-.941.916-.923,2.09.048,4.184.037,6.276,0,.575-.01.724.169.72.728-.012,1.8.01,1.82-1.754,1.824-.536,0-.686.176-.68.7.024,3.479.019,6.957.022,10.436a3.8,3.8,0,0,0,.3,1.468" transform="translate(-28.982 -17.296)" fill="#4b1e21"/>
      <path id="Tracé_8120" data-name="Tracé 8120" d="M168.489,92.572a5.1,5.1,0,0,1,1.531,5.79,4.248,4.248,0,0,1-1.617,2.032c-.25.18-.457.312-.043.5a5.064,5.064,0,0,1,3.01,3.957,3.4,3.4,0,0,1,0,1.607,6.6,6.6,0,0,1-.807,2.144,4.971,4.971,0,0,1-2.959,2.137,26.11,26.11,0,0,1-6.634.608,36.014,36.014,0,0,0-4.16.061c-.375.041-.583-.1-.583-.495,0-.1.007.025,0-.076-.131-1.714-.131-1.715,1.621-1.77a.935.935,0,0,0,.648-.148h0a1.132,1.132,0,0,0,.145-.8c0-4.467-.01-8.935.018-13.4,0-.64-.195-.936-.822-.981-.2-.015-.4-.039-.6-.048-.914-.036-1.006-.129-1.014-1-.012-1.186-.012-1.187,1.148-1.187h8.176c.282.015.583-.057.829.158l1.629.61a1.179,1.179,0,0,1,.481.31" transform="translate(-23.329 -17.249)" fill="#4b1e21"/>
      <path id="Tracé_8121" data-name="Tracé 8121" d="M165.673,91.683c-2.826,0-5.653.035-8.476-.007-.735-.011-.82.292-.8.891.018.571-.035,1.079.8.958a3.188,3.188,0,0,1,1.11.055c.486.105.529.511.529.941-.008,3.129,0,6.258,0,9.386q0,2.2-.007,4.391c0,.25.129.589-.29.665-.008-.1-.015-.2-.024-.3l.007-14.537a7.307,7.307,0,0,0-1.61-.084c-.263-.025-.543.093-.786-.09-.008-.629.015-1.262-.032-1.888-.04-.545.176-.68.691-.68,2.6.025,5.191.014,7.785.015.332.243.836-.195,1.108.285" transform="translate(-23.362 -17.294)" fill="#522115"/>
      <path id="Tracé_8122" data-name="Tracé 8122" d="M158.534,104.1c-.275.582-.8.185-1.19.292-.292.082-.771-.18-.875.207a3.665,3.665,0,0,0,.015,1.782c.04.162.25.116.4.1a25.725,25.725,0,0,1,5.769.023c.4.051.657-.29.987-.271a23.992,23.992,0,0,0,3.991-.318,9.643,9.643,0,0,1-4.043.721c-2.265.08-4.536.011-6.8.033-.509,0-.741-.122-.7-.672.047-.627.026-1.263.035-1.889l2.406-.014" transform="translate(-23.365 -12.435)" fill="#522115"/>
      <path id="Tracé_8123" data-name="Tracé 8123" d="M164.366,106.368q-3.914.006-7.828.008c-.249,0-.582.124-.661-.292,2.608,0,5.215-.007,7.823,0,.249,0,.583-.13.666.292" transform="translate(-23.444 -11.683)" fill="#b26a1c"/>
      <path id="Tracé_8124" data-name="Tracé 8124" d="M153.261,105.855V93.261h.142v11.961a.791.791,0,0,1-.142.633" transform="translate(-24.443 -16.576)" fill="#481b15"/>
      <path id="Tracé_8125" data-name="Tracé 8125" d="M155.672,106.907l.032-3.028c.223.032.527-.086.556.3-.593.37-.292.992-.343,1.477a8.762,8.762,0,0,0,.041,1.263l-.285-.011" transform="translate(-23.522 -12.519)" fill="#b26a1c"/>
      <path id="Tracé_8126" data-name="Tracé 8126" d="M163.33,91.678c-.321-.282-.786,0-1.107-.285.449,0,.9,0,1.348-.008.234,0,.462,0,.5.312l-.738-.019" transform="translate(-21.019 -17.292)" fill="#a9651c"/>
      <path id="Tracé_8127" data-name="Tracé 8127" d="M167.167,102.848V101.24l.026-.292.122-.006V103c0,.01-.054.029-.057.026-.032-.055-.061-.112-.09-.17" transform="translate(-19.13 -13.64)" fill="#a96729"/>
      <path id="Tracé_8128" data-name="Tracé 8128" d="M143.353,93.888h-.106c-.435-.249-.909-.072-1.36-.12-.285-.032-.594.068-.831-.182.582,0,1.157-.011,1.736,0,.231,0,.538-.09.565.307" transform="translate(-29.106 -16.455)" fill="#9f7029"/>
      <path id="Tracé_8129" data-name="Tracé 8129" d="M156.112,93.238c.8.109,1.62-.188,2.4.176-.8-.1-1.62.194-2.4-.176" transform="translate(-23.354 -16.589)" fill="#ac681e"/>
      <path id="Tracé_8130" data-name="Tracé 8130" d="M150.918,103.1c.017.234.021.459-.307.464.014-.1.029-.193.043-.285l.264-.18" transform="translate(-25.456 -12.816)" fill="#5f2b11"/>
      <path id="Tracé_8131" data-name="Tracé 8131" d="M143.82,103.882c.333.019.316.25.292.486a.586.586,0,0,1-.292-.486" transform="translate(-28.05 -12.517)" fill="#5c230f"/>
      <path id="Tracé_8132" data-name="Tracé 8132" d="M165.218,92.364a.658.658,0,0,1-.481-.308c.241-.021.47-.029.481.308" transform="translate(-20.058 -17.039)" fill="#a15d1c"/>
      <path id="Tracé_8133" data-name="Tracé 8133" d="M140.393,103.491a24.845,24.845,0,0,1-5.262.3c-.352-.006-.5.124-.493.486q.017,2.117,0,4.233c0,.38.184.466.516.464.629,0,1.263.022,1.887.036-.485.381-1.046.047-1.512.177a1.416,1.416,0,0,0,.176,0c1.578,0,1.77.239,1.5,1.828-.05.292-.151.4-.487.412-2.285.066-4.565,0-6.852.028a.786.786,0,0,1-.777-.359,4.923,4.923,0,0,1,.019-1.794,8.675,8.675,0,0,1,2.131-.116c.1.007-.018-.158.015-.064a10.954,10.954,0,0,1-2,.05.123.123,0,0,1-.09-.146.134.134,0,0,1,.029-.055v.006a.405.405,0,0,1,.574-.036l.023.022h.3a.606.606,0,0,1,.764,0,.366.366,0,0,0,.145,0c.148-.206.457-.091.6-.305.006-4.7.006-9.39.029-14.082,0-.52-.195-.627-.669-.633-1.845-.026-1.828-.04-1.8-1.9.007-.495.156-.651.651-.647,2.622.024,5.252-.033,7.876.041a11.344,11.344,0,0,1,3.907.737,4.349,4.349,0,0,1,2.891,3.4c.532,2.948.1,5.514-2.308,7.149-.55.375-1.215.46-1.783.777" transform="translate(-33.705 -17.289)" fill="#4b1e21"/>
      <path id="Tracé_8134" data-name="Tracé 8134" d="M130.558,104.2h-.764c.256-.572.51-.321.764,0" transform="translate(-33.409 -12.528)" fill="#a7641c"/>
      <path id="Tracé_8135" data-name="Tracé 8135" d="M129.749,104.187l-.6.014a.3.3,0,0,1,.14-.321c.223,0,.442,0,.458.305" transform="translate(-33.657 -12.518)" fill="#a7641c"/>
      <path id="Tracé_8136" data-name="Tracé 8136" d="M131.052,103.88c-.014.47-.361.282-.6.305.05-.4.362-.278.6-.305" transform="translate(-33.158 -12.518)" fill="#a7641c"/>
      <path id="Tracé_8137" data-name="Tracé 8137" d="M158.849,46.818a.339.339,0,0,0,.271.3,1.1,1.1,0,0,1,.057,1.2,6.548,6.548,0,0,1-.641,1.631,1.153,1.153,0,0,1-.3.485,15.091,15.091,0,0,1-3,3.383c.362-2.475.477-5.014,2.123-7.12.633-.486.735-.48,1.491.127" transform="translate(-23.689 -34.501)" fill="#0f352a"/>
      <path id="Tracé_8138" data-name="Tracé 8138" d="M158.263,46.873c-.487-.189-.956-.517-1.491-.127.514-.767,1.043-.721,1.491.127" transform="translate(-23.102 -34.556)" fill="#9d6e1e"/>
      <path id="Tracé_8139" data-name="Tracé 8139" d="M158.1,48.1c-.018-.4-.037-.8-.055-1.2.464.329.485.749.055,1.2" transform="translate(-22.614 -34.289)" fill="#9e6e1e"/>
      <path id="Tracé_8140" data-name="Tracé 8140" d="M157.407,49.432a.593.593,0,0,1,.3-.485c.032.242.026.462-.3.485" transform="translate(-22.859 -33.507)" fill="#89691f"/>
      <path id="Tracé_8141" data-name="Tracé 8141" d="M129.167,106.2a1.277,1.277,0,0,0,.746.312c2.242-.066,4.483.087,6.727-.08.394-.029.4-.153.4-.424v-.076c-.025-1.9.228-1.5-1.477-1.542a5.01,5.01,0,0,1-.748-.047c.72-.239,1.487.057,2.2-.2a.308.308,0,0,1,.141-.025,7.309,7.309,0,0,1,.051,2.391c-.228.234-.521.138-.786.14-2.413.008-4.826.007-7.238.008a.307.307,0,0,1-.046-.43l.026-.028" transform="translate(-33.685 -12.426)" fill="#4a1c0d"/>
      <path id="Tracé_8142" data-name="Tracé 8142" d="M134.976,106.519q-.025-1.2-.051-2.391l.176-.017a8.838,8.838,0,0,1-.124,2.406" transform="translate(-31.449 -12.43)" fill="#8a5033"/>
      <path id="Tracé_8143" data-name="Tracé 8143" d="M129.233,106.21l.019.456a2.51,2.51,0,0,1-.006-2.558.867.867,0,0,0,.01.134c.039.043.048.082.029.117s-.035.05-.051.05v1.8" transform="translate(-33.751 -12.431)" fill="#a7641c"/>
      <path id="Tracé_8144" data-name="Tracé 8144" d="M149,104.427l.44.019v.083h-1.764c.1-.195.3-.054.456-.1h.874" transform="translate(-26.577 -12.311)" fill="#4d1e0c"/>
      <path id="Tracé_8145" data-name="Tracé 8145" d="M124.9,84.669a14.984,14.984,0,0,0-.343,1.934c-.146.3-.062.662-.264.944-.716,2.817-1.48,5.62-2.363,8.389-.89,2.788-1.708,5.6-2.774,8.326a20.92,20.92,0,0,1-3.69,6.561.316.316,0,0,1-.285.176c-.52.01-.368-.528-.608-.746a11.148,11.148,0,0,1-.285-5.134c.256-.485.119-1.046.274-1.553a20.221,20.221,0,0,1,1.381-4.971,63.738,63.738,0,0,1,7.6-13.492c.366-.533.7-1.089,1.046-1.635.169-.267.388-.4.435.03a1.918,1.918,0,0,1-.124,1.172" transform="translate(-39.4 -20.414)" fill="#b16a1c"/>
      <path id="Tracé_8146" data-name="Tracé 8146" d="M154.149,46.066c.062.766-.419,1.447-.343,2.214a14.029,14.029,0,0,0-.838,2.942,78.413,78.413,0,0,1-4.051,11.929c-.511.058-.29-.268-.261-.5.236-1.386.734-2.7,1.081-4.063.05-.194.108-.388.162-.582.232-.271.153-.634.281-.934.546-2.133,1.121-4.255,1.831-6.341.21-.22.164-.532.282-.786a42.8,42.8,0,0,1,1.548-4.37c.529-.108.334.24.305.485" transform="translate(-26.23 -34.803)" fill="#b4691b"/>
      <path id="Tracé_8147" data-name="Tracé 8147" d="M135.837,68.994a6.77,6.77,0,0,1-1.477,1.665c-.875-.04-.359-.607-.37-.972a1.138,1.138,0,0,1,.305-.862.98.98,0,0,0,.3-.495,6.575,6.575,0,0,1,1.542-1.606c.105-.174.31-.2.457-.315.153.012.345-.1.424.141-.093.257-.185.514-.268.777a2.529,2.529,0,0,1-.6,1.207c-.176.106-.217.3-.308.464" transform="translate(-31.86 -26.841)" fill="#b06a1c"/>
      <path id="Tracé_8148" data-name="Tracé 8148" d="M145.954,73.416l.007,4.843c-.2-.14-.158-.352-.158-.546V73.966c0-.195-.043-.408.152-.551" transform="translate(-27.294 -24.158)" fill="#1f2c14"/>
      <path id="Tracé_8149" data-name="Tracé 8149" d="M152.806,48.477a7.342,7.342,0,0,1-.317,2.412c-.326-1.01.261-1.664.317-2.412" transform="translate(-24.775 -33.687)" fill="#0f362d"/>
      <path id="Tracé_8150" data-name="Tracé 8150" d="M122.006,84.721c.008-.363.011-.728.026-1.09.019-.451-.193-.17-.336-.111-.017-.247,0-.477.339-.449.242.019.27.218.246.388-.054.426.2.925-.275,1.262" transform="translate(-36.505 -20.47)" fill="#353c17"/>
      <path id="Tracé_8151" data-name="Tracé 8151" d="M134.039,68.776c.131.322-.239.833.37.97a1.123,1.123,0,0,1-.64.666,2.171,2.171,0,0,1,.27-1.641" transform="translate(-31.912 -25.932)" fill="#a76b1d"/>
      <path id="Tracé_8152" data-name="Tracé 8152" d="M148.737,57.927c.044.189-.037.444.263.5-.182.31-.217.7-.532.94a.439.439,0,0,1-.029-.5,1.426,1.426,0,0,1,.3-.933" transform="translate(-26.311 -30.076)" fill="#9d6b1e"/>
      <path id="Tracé_8153" data-name="Tracé 8153" d="M114.521,97.939c-.109.514.326,1.124-.274,1.553a2.817,2.817,0,0,1,.274-1.553" transform="translate(-39.356 -14.788)" fill="#9e6b1d"/>
      <path id="Tracé_8154" data-name="Tracé 8154" d="M152.7,46.307c-.048-.195.024-.467-.307-.486-.017-.339.256-.576.311-.89.4.247.142.6.14.908a.659.659,0,0,1-.144.466" transform="translate(-24.777 -35.042)" fill="#8f6d1f"/>
      <path id="Tracé_8155" data-name="Tracé 8155" d="M114.454,102.779c.433-.015.18.672.641.626.041.162-.1.21-.181.292a.846.846,0,0,1-.46-.922" transform="translate(-39.276 -12.94)" fill="#8a651e"/>
      <path id="Tracé_8156" data-name="Tracé 8156" d="M103.872,83.938v1.8a2.317,2.317,0,0,1,0-1.8" transform="translate(-43.383 -20.138)" fill="#373916"/>
      <path id="Tracé_8157" data-name="Tracé 8157" d="M152.753,45.932c-.082-.3.112-.637-.14-.908,0-.126-.006-.283.127-.323.21-.062.153.131.155.229,0,.323-.014.647-.022.972a.966.966,0,0,1-.12.032" transform="translate(-24.691 -35.134)" fill="#6f5d1f"/>
      <path id="Tracé_8158" data-name="Tracé 8158" d="M146.181,70.784a3.925,3.925,0,0,1-.155,1.545c.062-.514-.169-1.059.155-1.545" transform="translate(-27.216 -25.164)" fill="#283214"/>
      <path id="Tracé_8159" data-name="Tracé 8159" d="M121.484,86.61a1.177,1.177,0,0,1,.264-.945c-.054.325.242.748-.264.945" transform="translate(-36.59 -19.478)" fill="#313b18"/>
      <path id="Tracé_8160" data-name="Tracé 8160" d="M146.38,69.738l-.137.355V68.751c0-.014.029-.029.044-.043l.105.149-.012.88" transform="translate(-27.124 -25.957)" fill="#1d2d15"/>
      <path id="Tracé_8161" data-name="Tracé 8161" d="M148.493,58.6c.01.169.018.336.028.5a.56.56,0,0,1-.281.46,1.342,1.342,0,0,1,.253-.965" transform="translate(-26.365 -29.818)" fill="#6d672e"/>
      <path id="Tracé_8162" data-name="Tracé 8162" d="M149.817,53.892c-.064.321.223.745-.281.934a1.435,1.435,0,0,1,.281-.934" transform="translate(-25.867 -31.618)" fill="#77611f"/>
      <path id="Tracé_8163" data-name="Tracé 8163" d="M151.349,48.736c-.03.285.184.658-.282.786a.958.958,0,0,1,.282-.786" transform="translate(-25.284 -33.588)" fill="#7b601f"/>
      <path id="Tracé_8164" data-name="Tracé 8164" d="M124.923,86.792c-.046.361.079.748-.16,1.078.046-.361-.142-.756.16-1.078" transform="translate(-35.338 -19.047)" fill="#2a3113"/>
      <path id="Tracé_8165" data-name="Tracé 8165" d="M135.948,67.28a.874.874,0,0,1,.268-.777.893.893,0,0,1-.268.777" transform="translate(-31.062 -26.799)" fill="#69551d"/>
      <path id="Tracé_8166" data-name="Tracé 8166" d="M114.783,103.541l.181-.292.25-.057c.028.328-.193.354-.431.352" transform="translate(-39.145 -12.781)" fill="#283416"/>
      <path id="Tracé_8167" data-name="Tracé 8167" d="M135.289,68.4c-.025-.241-.015-.456.308-.466a.554.554,0,0,1-.308.466" transform="translate(-31.313 -26.251)" fill="#88661f"/>
      <path id="Tracé_8168" data-name="Tracé 8168" d="M134.467,67.792c.037.247.035.47-.3.5a.6.6,0,0,1,.3-.5" transform="translate(-31.737 -26.307)" fill="#8f6a1f"/>
      <path id="Tracé_8169" data-name="Tracé 8169" d="M135.959,66.4a.532.532,0,0,1-.457.315c0-.321.221-.333.457-.315" transform="translate(-31.228 -26.839)" fill="#2b3516"/>
      <path id="Tracé_8170" data-name="Tracé 8170" d="M82.7,72.256a30.976,30.976,0,0,1,2.1-2.876c.187-.1.223-.3.323-.463l2.865-4.005.13.033a22.608,22.608,0,0,0-.218,2.264,44.616,44.616,0,0,1-.365,4.969,1.626,1.626,0,0,1-.264.851,27.657,27.657,0,0,1-3.562.737c-.478.059-.889.372-1.379.31-.256-.033-.68.1-.524-.439l-.012-.011c.163-.113.195-.31.307-.459l.3-.449c.163-.112.2-.308.305-.462" transform="translate(-51.758 -27.407)" fill="#b06a1c"/>
      <path id="Tracé_8171" data-name="Tracé 8171" d="M85.727,82.336q.006-2.946.017-5.895a1.862,1.862,0,0,1,.073-.665c.054-.137.195-.363.379-.307.234.07.091.267.062.435a11.225,11.225,0,0,0-.206,1.623c-.028,1.535-.012,3.074-.008,4.609,0,.256.018.495-.315.195h0" transform="translate(-50.246 -23.377)" fill="#0e362e"/>
      <path id="Tracé_8172" data-name="Tracé 8172" d="M81.871,71.407c.272.534.741.33,1.095.21a12.559,12.559,0,0,1,2.421-.5c.654-.087,1.254-.511,1.95-.316-.176.549-.687.307-1.026.388-1.382.321-2.784.564-4.177.82-.173.03-.437.141-.527-.106-.073-.2.113-.359.265-.492" transform="translate(-51.826 -25.177)" fill="#a26c1d"/>
      <path id="Tracé_8173" data-name="Tracé 8173" d="M90.941,56.175a2.5,2.5,0,0,1-.01,1.6,2.181,2.181,0,0,1,.01-1.6" transform="translate(-48.315 -30.745)" fill="#0c352f"/>
      <path id="Tracé_8174" data-name="Tracé 8174" d="M90.5,66.675V68.16c-.057.27.037.565-.148.81V66.558c0-.014.033-.028.05-.041l.1.158" transform="translate(-48.48 -26.794)" fill="#192a16"/>
      <path id="Tracé_8175" data-name="Tracé 8175" d="M82.091,70.885c.012.229,0,.442-.305.459a.537.537,0,0,1,.305-.459" transform="translate(-51.752 -25.125)" fill="#77611f"/>
      <path id="Tracé_8176" data-name="Tracé 8176" d="M82.526,70.226c.019.234.006.446-.305.462a.55.55,0,0,1,.305-.462" transform="translate(-51.586 -25.377)" fill="#746120"/>
      <path id="Tracé_8177" data-name="Tracé 8177" d="M84.284,67.81c.023.247,0,.46-.323.464a.6.6,0,0,1,.323-.464" transform="translate(-50.921 -26.3)" fill="#856b20"/>
      <path id="Tracé_8178" data-name="Tracé 8178" d="M171,73.645a14.838,14.838,0,0,1-4.629,8.385c-.17.16-.372.439-.63.347-.328-.115-.2-.475-.224-.732-.156-1.833.656-3.414,1.374-5a27.864,27.864,0,0,1,3.047-4.964c.129-.174.189-.457.46-.453.359.007.24.388.388.568a1.4,1.4,0,0,1,.214.636,1.3,1.3,0,0,1,0,1.219" transform="translate(-19.766 -24.995)" fill="#b06a1c"/>
      <path id="Tracé_8179" data-name="Tracé 8179" d="M169.483,73.313V72.094a.707.707,0,0,1,0,1.219" transform="translate(-18.245 -24.663)" fill="#1a311d"/>
      <path id="Tracé_8180" data-name="Tracé 8180" d="M145.156,103.705v-10.2h.075v10.23Z" transform="translate(-27.54 -16.482)" fill="#491b16"/>
      <path id="Tracé_8181" data-name="Tracé 8181" d="M165.827,95.4a6.2,6.2,0,0,1-.137,1.862,3.02,3.02,0,0,1-2.189,1.754c-.431.221-.918-.041-1.353.149-2.1-.062-2.1-.062-2.1-2.2,0-1.236.014-2.47.022-3.705A25.313,25.313,0,0,1,162.8,93.2c.292.1.626.012.893.213a2.814,2.814,0,0,1,2.117,1.824c.05.032.068.066.058.106s-.026.059-.04.059" transform="translate(-21.85 -16.604)" fill="#b06a1c"/>
      <path id="Tracé_8182" data-name="Tracé 8182" d="M166.513,102.817a3.185,3.185,0,0,1-.911,1.917,1.416,1.416,0,0,1-.715.388,7.948,7.948,0,0,1-3.462.434c-.187-.008-.473.037-.475-.218,0-.239.282-.267.47-.264.632.011,1.237-.194,1.866-.181a2.067,2.067,0,0,0,1.334-.416,3.058,3.058,0,0,0,.958-2.276,3.3,3.3,0,0,0-.556-1.526c-.069-.181-.229-.322-.246-.529.083-.361.314-.31.565-.2.817.422.944,1.243,1.173,2.005a1.079,1.079,0,0,1,0,.864" transform="translate(-21.505 -14.052)" fill="#ab671c"/>
      <path id="Tracé_8183" data-name="Tracé 8183" d="M165.191,104.714c-.314.609-.92.569-1.461.634-.762.091-1.53.135-2.292.261,1.092-.069,2.206.29,3.278-.214a1.406,1.406,0,0,1,.521-.026,4.863,4.863,0,0,1-2.157.6.237.237,0,0,1-.308.01c-.68,0-1.36-.03-2.032,0-.507.025-.713-.116-.7-.665.033-2.008.021-4.014.025-6.022a.243.243,0,0,1,.344.011l.012.014a2.19,2.19,0,0,1,.153,1.178c.012,1.406,0,2.817.011,4.219,0,.236-.124.626.388.492a26.07,26.07,0,0,0,3.936-.551.359.359,0,0,1,.292.055" transform="translate(-21.854 -14.295)" fill="#ad6a1c"/>
      <path id="Tracé_8184" data-name="Tracé 8184" d="M165.533,100.222c-.209.023-.462-.022-.485.3a.366.366,0,0,1-.214.127,16.852,16.852,0,0,0-4.2-.5c-.448-.46,0-.669.261-.933a6.019,6.019,0,0,1,2.336.112.282.282,0,0,0,.127,0c.438.185.98-.05,1.371.333.243.221.615.257.8.557" transform="translate(-21.698 -14.325)" fill="#ad6a1c"/>
      <path id="Tracé_8185" data-name="Tracé 8185" d="M163.382,99.364l-2.428.008a.454.454,0,0,1-.6,0l-.292-.008c.012-.217.135-.305.344-.3h2.622a.319.319,0,0,1,.357.279v.022" transform="translate(-21.846 -14.361)" fill="#532310"/>
      <path id="Tracé_8186" data-name="Tracé 8186" d="M162.913,93.3l-2.851-.011a8.6,8.6,0,0,1,3.613.033.978.978,0,0,1-.762-.022" transform="translate(-21.844 -16.634)" fill="#4c210c"/>
      <path id="Tracé_8187" data-name="Tracé 8187" d="M162.719,104.119l.308-.01c-.028.218-.166.292-.369.292-.828,0-1.652,0-2.485-.048.836-.239,1.719.083,2.546-.229" transform="translate(-21.802 -12.431)" fill="#4c1d0f"/>
      <path id="Tracé_8188" data-name="Tracé 8188" d="M163.926,99.622a5.1,5.1,0,0,1-1.371-.332c.448.145,1.052-.351,1.371.332" transform="translate(-20.892 -14.287)" fill="#532310"/>
      <path id="Tracé_8189" data-name="Tracé 8189" d="M164.975,102.321v-.864l.022-.292h.073v1.469c-.148-.062-.065-.206-.1-.308" transform="translate(-19.968 -13.555)" fill="#4e1f0c"/>
      <path id="Tracé_8190" data-name="Tracé 8190" d="M164.233,94.837l-.018-.166c.6.368.185.9.314,1.537-.305-.549,0-1.013-.3-1.372" transform="translate(-20.258 -16.037)" fill="#4a1e0c"/>
      <path id="Tracé_8191" data-name="Tracé 8191" d="M161.566,97.556c.431-.229.9-.091,1.354-.149-.419.344-.905.082-1.354.149" transform="translate(-21.27 -14.991)" fill="#51200c"/>
      <path id="Tracé_8192" data-name="Tracé 8192" d="M162.125,93.247l.76.021a.521.521,0,0,0,.01.123c-.264-.012-.549.1-.77-.144" transform="translate(-21.056 -16.581)" fill="#7a4319"/>
      <path id="Tracé_8193" data-name="Tracé 8193" d="M135.281,93.241a7.473,7.473,0,0,1,2.689.316,2.875,2.875,0,0,1,2.083,2.836,6.314,6.314,0,0,1-.185,2.1,2.779,2.779,0,0,1-1.942,1.852,14.636,14.636,0,0,1-4.428.337c-.282,0-.413-.122-.412-.406V93.689c0-.326.142-.452.455-.448.529.008,1.06,0,1.739,0" transform="translate(-32.151 -16.589)" fill="#af691c"/>
      <path id="Tracé_8194" data-name="Tracé 8194" d="M129.142,104.372c.007-.055.015-.112.021-.167h2.225v.167Z" transform="translate(-33.658 -12.394)" fill="#4d1b0e"/>
      <path id="Tracé_8195" data-name="Tracé 8195" d="M121.494,88.892a46.39,46.39,0,0,1-1.4,4.926c-.738,2.374-1.522,4.734-2.286,7.1-.075.227-.08.485-.278.655a28.3,28.3,0,0,1-2.285,4.641,5.594,5.594,0,0,1-.062-2.045c.533-5.8,3.067-10.826,6.106-15.651.305,0,.253.187.2.375" transform="translate(-39.016 -18.387)" fill="#17191a"/>
      <path id="Tracé_8196" data-name="Tracé 8196" d="M119.787,89.063a.473.473,0,0,0-.2-.375.943.943,0,0,1,.492-.618l-.292.992" transform="translate(-37.31 -18.559)" fill="#2d1e0f"/>
      <path id="Tracé_8197" data-name="Tracé 8197" d="M116.865,98.146a.977.977,0,0,1,.278-.655c0,.256.138.574-.278.655" transform="translate(-38.349 -14.959)" fill="#865b1c"/>
      <path id="Tracé_8198" data-name="Tracé 8198" d="M85.244,70.494a.468.468,0,0,0-.1.035c-.825.257-.992.171-.947-.486a16.708,16.708,0,0,1,1.216-1.747v.99c-.2.383.075.832-.167,1.208" transform="translate(-50.834 -26.115)" fill="#201d18"/>
      <path id="Tracé_8199" data-name="Tracé 8199" d="M84.346,69.559c.012.752.6.388.947.485-.315.3-.616.388-1.5.41a1.473,1.473,0,0,1,.556-.9" transform="translate(-50.986 -25.632)" fill="#271c10"/>
      <path id="Tracé_8200" data-name="Tracé 8200" d="M84.954,70.22a2.967,2.967,0,0,1,.167-1.208c-.064.4.188.846-.167,1.208" transform="translate(-50.545 -25.841)" fill="#906f35"/>
      <path id="Tracé_8201" data-name="Tracé 8201" d="M167.28,76.244l.784-1.555a4.144,4.144,0,0,1-.6,1.632l-.187-.082" transform="translate(-19.087 -23.672)" fill="#6f4318"/>
      <path id="Tracé_8202" data-name="Tracé 8202" d="M163.18,93.843c1.538.618,2.062,1.494,1.688,2.771a2.006,2.006,0,0,1-1.591,1.437,8.4,8.4,0,0,1-2.247.166c-.253-.01-.453-.055-.452-.365,0-1.28,0-2.561.017-3.841,0-.1.131-.2.2-.3a.286.286,0,0,1,.232-.026c.564.029,1.131,0,1.694.017a.64.64,0,0,1,.46.145" transform="translate(-21.647 -16.42)" fill="#181a1a"/>
      <path id="Tracé_8203" data-name="Tracé 8203" d="M160.861,93.746l-.039.017-.039-.011-.176-.093a5.619,5.619,0,0,1,2.514.09c.029.01.032.088.047.137l-.478-.055a15.236,15.236,0,0,1-1.828-.086" transform="translate(-21.636 -16.462)" fill="#a37226"/>
      <path id="Tracé_8204" data-name="Tracé 8204" d="M160.607,99.831a8.854,8.854,0,0,1,4.272.485c.162.106.38.133.47.337a2.732,2.732,0,0,1-.3,3.853l-.008.007a11.442,11.442,0,0,1-4.226.626c-.325,0-.352-.264-.357-.473-.03-1.523-.064-3.047.017-4.572a.49.49,0,0,1,.131-.265" transform="translate(-21.704 -14.095)" fill="#17191a"/>
      <path id="Tracé_8205" data-name="Tracé 8205" d="M164.115,100.505a.886.886,0,0,1-.469-.337l.178-.025a.308.308,0,0,1,.3.319.224.224,0,0,1,0,.043" transform="translate(-20.475 -13.946)" fill="#895e22"/>
      <path id="Tracé_8206" data-name="Tracé 8206" d="M160.67,100.01c.007,1.513.011,3.027.026,4.54,0,.265-.091.565.181.77-.1.189-.223.365-.464.258-.206-.09-.142-.3-.142-.471q0-2.913,0-5.823h.6c.163.307-.368.419-.2.726" transform="translate(-21.768 -14.274)" fill="#ab671c"/>
      <path id="Tracé_8207" data-name="Tracé 8207" d="M138.958,97.948c-.115.961-.82,1.348-1.62,1.559a12.341,12.341,0,0,1-3.3.247c-.337,0-.424-.178-.423-.475q.006-2.525,0-5.05c0-.31.106-.495.427-.473a11.468,11.468,0,0,1,3.654.357,1.822,1.822,0,0,1,1.262,1.36,4.9,4.9,0,0,1,0,2.473" transform="translate(-31.948 -16.395)" fill="#18191a"/>
      <path id="Tracé_8208" data-name="Tracé 8208" d="M137.482,97.467V94.994l.116.169a5.082,5.082,0,0,1,.008,2.112l-.122.195" transform="translate(-30.472 -15.913)" fill="#21190e"/>
      <path id="Tracé_8209" data-name="Tracé 8209" d="M137.572,97.228q0-1.057-.008-2.113a2.89,2.89,0,0,1,.008,2.113" transform="translate(-30.441 -15.867)" fill="#5b4e3a"/>
      <path id="Tracé_8210" data-name="Tracé 8210" d="M160.791,93.7a7.175,7.175,0,0,1,1.828.086,6.193,6.193,0,0,1-1.828-.086" transform="translate(-21.566 -16.417)" fill="#b06a1c"/>
      <path id="Tracé_8211" data-name="Tracé 8211" d="M163.048,100.032a1.98,1.98,0,0,1-1.354.195c-.522-.019-.709.149-.694.686.033,1.252.01,2.506.01,3.762-.388,0-.3-.234-.29-.377a39.25,39.25,0,0,1,.075-3.991c.022-.187-.057-.275.222-.325.691-.123,1.352.129,2.039.054" transform="translate(-21.601 -14.021)" fill="#151922"/>
    </g>
  </g>
</svg>
