<svg xmlns="http://www.w3.org/2000/svg" width="51.301" height="46.097" viewBox="0 0 51.301 46.097">
  <g id="Layer_1" data-name="Layer 1" transform="translate(-382.996 -884.663)">
    <path id="Tracé_10632" data-name="Tracé 10632" d="M433.033,919.281c.5-.282,1-.564,1.5-.839-.074-.129.155-.447.3-.211l-.028.058c.856-.471,1.715-.935,2.589-1.37-.232-.061-.31-.437.088-.648.083.156.073.348.237.474.394-.191.788-.385,1.188-.563a16.406,16.406,0,0,0,3.237-1.839,3.606,3.606,0,0,0-1.19-3.182,3.914,3.914,0,0,0-3.7-.826c-1.562,1.3-2.972,2.556-4.492,3.679a23.943,23.943,0,0,0-3.468,3.133,4.412,4.412,0,0,0-.314.428l-.057,1.625,1.2,1.132A8.531,8.531,0,0,0,433.033,919.281Zm6.38-8.614a.943.943,0,0,0,1.268.972C440.007,912.932,437.858,911.159,439.413,910.667Zm-3.262,6.345c-.114.286-.315.272-.4.058A.305.305,0,0,1,436.151,917.012Zm-.581-4.221c-.243.414.067.507.362.54C435.368,914.22,434.469,912.469,435.57,912.791Zm-.453,2.249c-.057.323-.3.107-.392.312-.215-.184.188-.537.392-.312Zm-.42-1.187.2.1-.1.2-.2-.1Z" transform="translate(-25.44 -14.146)" fill="#fff"/>
    <path id="Tracé_10633" data-name="Tracé 10633" d="M432.641,929.727l-.285.6c.715-.242.218.7-.173,1.126a1.222,1.222,0,0,0,.607.626c.522.044.955.069,1.335.073a.973.973,0,0,1-.445-.209c.106-.253.215-.49.387-.552.136.1.215.632.407.437.084.188.026.291-.1.322a6.5,6.5,0,0,0,2.49-.58c-.1-.173.155-.154.2-.078.7-.281,1.408-.539,2.1-.846a33.955,33.955,0,0,0,6.176-3.266h0c.072-.186.223-.155.292-.354a.225.225,0,0,1,.085.078c.184-.139.368-.28.547-.43a3.732,3.732,0,0,0-1.041-3.258c-1.664-.24-1.671-.247-2.674.264-2.472,1.264-4.957,2.55-7.441,3.8q-.447.223-.879.467c-.01.29.075.617.38.5-.163.847-.809.33-.9-.181a5.844,5.844,0,0,0-1.522,1.388,2.1,2.1,0,0,1,.45.075Zm13.451-4.445-3.106,1.356.3.141q-.1.436-.445.16a2.741,2.741,0,0,0,.144-.3Zm-2.833.255c0-.017-.1-.029-.1-.049-.269-.758.6.558.1.049Zm-1.365,1.816c-.082-.452.224.4,0,0Zm-2.112,1.585c-.271-.435.4.015,0,0Zm-1.115,1.077" transform="translate(-27.246 -21.382)" fill="#fff"/>
    <path id="Tracé_10634" data-name="Tracé 10634" d="M434.056,915.447c-.124-.072-.086-.148-.026-.186l-.4-.613c-1.963-.443-3.928-1.013-5.932-1.294l-.389-.046a.784.784,0,0,1-1.242-.125c-1.483-.111-3-.131-4.58-.219a7.412,7.412,0,0,1-1.072.58c-1.4.508-2.786,1.045-4.195,1.51a.355.355,0,0,1-.014.4,1.3,1.3,0,0,1-.368-.27c-.385.124-.77.24-1.161.35a23.667,23.667,0,0,1-4.066.612,4.027,4.027,0,0,1-1.519-.271l-.116-.037a.49.49,0,0,1-.129.061.231.231,0,0,1-.061-.122c-.621-.211-1.237-.457-1.831-.676l-1.138-2.921a3.454,3.454,0,0,1-2.483-2.784c.171-.729.7-1.5.27-2.424l-.957-1.083.1-3c.443-.359,1.184-.667,1.409-1.2a4.527,4.527,0,0,1,2.742-2.328,2.385,2.385,0,0,0,1.455-2.145c-2.406.125-3.983,2.239-6.415,2.216l-.444-.8c.585-1.837,1.175-3.642,1.734-5.471a5.829,5.829,0,0,0,.215-3.088c-.059-.259-.127-.515-.2-.765h0a12.461,12.461,0,0,0-2.7-4.641c-.978.07-1.255.165-1.535.369a1.662,1.662,0,0,0-.586,1.4,19.079,19.079,0,0,1-.959,5.547c-.538,1.41-1.139,2.791-1.7,4.194a16.362,16.362,0,0,1-1.134,2.921,9.655,9.655,0,0,0-1.236,4.079,63.583,63.583,0,0,1-1.575,8.633c-2.924,2.771-6.174,4.873-8.831,7.672a5.764,5.764,0,0,0,.293,1.962,20.889,20.889,0,0,0,8.161,8.536,3.83,3.83,0,0,0,3.037.715c.185-.169.436-.375.672-.6,1.506-1.457,3-2.921,4.516-4.364a3.211,3.211,0,0,1,1.085-.785,56.41,56.41,0,0,1,5.811-1.783,19.365,19.365,0,0,0,4.215-1.571l.044-.06.055,0c.91-.433,1.817-.88,2.753-1.266a11.312,11.312,0,0,1,3.218-1.87,4.408,4.408,0,0,1,1.872-.511c.709,0,1.414-.038,2.117-.046,2.415-.026,4.832.143,7.248.147.517.018,1.035-.016,1.549-.042.065-.095.139-.161.281-.039v.026q1.236-.07,2.47-.213a2.514,2.514,0,0,0,1.9-2.074l-.184-.28ZM383.7,921.072c-.343-.074-.316-.275-.556-.387.248-.483.413-1.186.927-.914C383.812,920.33,384.492,920.781,383.7,921.072Zm.894-.066c-.29-.164.3-.375,0,0Zm8.36-5.144c.213.053-.071.53-.243.252.048-.162.17-.128.243-.252Zm-.119-1.043.074.4c-.151.043-.206.357-.445.157.045-.288.2-.341.444-.157Zm-6.578,5.506c.1-.322.366-.219.653-.062a.364.364,0,0,1-.653.062Zm3.007,3.525a.326.326,0,0,1,.058.4C389.154,924.588,389.269,924.407,389.337,924.247Zm.808.63c-.219-.138-.1-.378.091-.449C390.455,924.565,390.339,924.806,390.144,924.877Zm1.149-7.349c.317.253.2.658.564.885C391.151,919.735,390.078,917.837,391.294,917.528Zm.441,7.109c.226.226-.068.649.511.737-.429.633-1.247-.447-.511-.727Zm.458.589c.286-.269-.175-.657.485-.757.1.075,0,.127-.049.1-.08.345.206.258.454.341a.838.838,0,0,1-.89.323Zm1.107-9.58.973,14.026.637-18.18c-.279-.095-.266-.3-.111-.544.265.133.374.459.111.544Zm.63-10.914.19-.4c.323.057.107.3.312.391-.113.165-.285.146-.5.009Zm.6,22.586c.391.268.08.465-.132.8-.1.361.314.336.552.387-.923,1.015-1.489-.485-.42-1.187Zm.506-2.1.1-.2.2.095-.1.2Zm-.2,7.422c-.1-.28.11-.256.239-.5.452.093.118.8-.239.5Zm.195-22.7a.858.858,0,0,1,.529-.61c-.057.323.045,1.04.565.885C397.711,906.781,396.846,906.233,396.633,905.783Zm.639,19.65-.2-.1.1-.2.2.1Zm.765-29.333c-1.47-.377-1.725-2.237-.293-2.235-.459.918.252,1.262.828,1.626C398.462,895.88,398.222,895.92,398.036,896.1Zm-.048,17.719c-.226-.48.467-.192,0,0Zm.459-4.588c.048-.174.177-.128.243-.252.183.058.178.3.3.141.227.288-.312.35-.544.111Zm.931-3.254c-.457-.342-.585.24-1.05-.128C398.573,905.652,399.612,905.35,399.378,905.977Zm.889-16.1c.23.334.1.8.469,1.087-.583.565-1.269-.64-.483-1.088Zm.931,4.263c-.155-.711.707-.138,0,0Zm.183,1.689.3.144a.27.27,0,0,1-.311.221.265.265,0,0,1-.134-.064,3.169,3.169,0,0,1,.131-.3Zm-.148,10.156-.2-.1c.032-.067.063-.135.1-.2l.2.1Zm-.146-5.123c.112-.238.317-.213.387-.556.315.288.3.661.37,1.041a.7.7,0,0,1-.777-.486Zm.457,5.518c-.277-.335.479-.159,0,0Zm.074,10.75c.229.056.235.193.354.292-.23.158-.6.06-.384-.293Zm.36-.8c.083-.157.135-.408.292-.354C402.665,916.034,402.238,916.72,401.978,916.33Zm.47,6.261c-.278-.147.018-.52.292-.354-.064.245-.2.24-.3.354Zm-.593-1.648c.141-.32.4-.289.585-.458-.131.5.388.339.558.634-.288.589-.927.241-1.137-.16Zm2.01-1.631,1.026-6.045c-.234.721-.62-.347,0,0Zm.667,3.521.2-.38c.346.071.062.367.407.437-.119.224-.355.095-.6-.04Zm2.158.9c0-.472.272-.417.544-.108-.088.293-.289.28-.537.126Zm1.573-.976a.269.269,0,0,1,.445-.157c-.059.313-.206.357-.439.173Zm3.229-.313-.195-.088.1-.2.2.1Zm1.779,1.227c.1-.036-.063.021,0,0Zm.783-.623c-.278-.147.018-.52.292-.354-.074.24-.2.244-.3.364Zm1.72,1.309-.046-2.237c.078-.17.156-.32.239-.5.187.192.2.772-.246.512Zm1.316,1.117-.2-.1.1-.2.2.1Zm.515-1.609c-.108-.072.008-.224.045-.35.174.048.127.177.252.243-.082.114-.237-.008-.3.123Zm.716.832c-.076-.058-.114,0-.147.054-.216-.053.071-.53.243-.255Z" transform="translate(0 0)" fill="#fff"/>
    <path id="Tracé_10635" data-name="Tracé 10635" d="M450.8,935.053c-.341.434-.986.291-1.42-.05-.237.08-.471.166-.7.252a.146.146,0,0,1-.165.062c-2.968,1.126-5.736,2.672-8.674,3.776a.208.208,0,0,0,.073.068c-.079.094-.233-.027-.3.1a.1.1,0,0,1-.046-.05q-.494.183-.988.346a1.522,1.522,0,0,0-1.187,1.673l.524.467a.612.612,0,0,0,.1-.341c.122.066.069.263.014.453a3.5,3.5,0,0,1,.315.31,2.324,2.324,0,0,0,1.981.658c1.436-.116,2.868-.316,4.3-.523a5.629,5.629,0,0,0,1.3-.417c.9-.375,1.784-.787,2.683-1.172,2.052-.885,2.4-1.038,3.021-2.651a.576.576,0,0,1-.678-.249.524.524,0,0,0,.243-.255.78.78,0,0,0,.489.343c.108-.3.228-.642.363-1.051C451.47,936.378,451.315,935.53,450.8,935.053Zm-11.72,7.426-.2-.1c.035-.067.066-.134.1-.2l.2.1Zm.245-2.842c.257.106.236.307.407.44C439.525,940.4,438.961,940,439.322,939.637Zm1.4,3.01c-.243-.135.133-.356.19-.4C441.158,942.379,440.783,942.6,440.726,942.647Zm4.352-1.381c.073-.323.275-.316.387-.553.187.186-.314.611.161.692C445.437,941.492,445.136,941.453,445.078,941.266Zm1.586-2.818-.3-.144c.045-.1.1-.2.144-.3.039.155.353.208.157.445Zm1.849-2.08c-.275-.335.477-.156,0,0Zm.028,3.834c.543.465-.205-.173,0,0Z" transform="translate(-30.124 -27.884)" fill="#fff"/>
  </g>
</svg>
