<svg xmlns="http://www.w3.org/2000/svg" xmlns:xlink="http://www.w3.org/1999/xlink" width="220.61" height="220.612" viewBox="0 0 220.61 220.612">
  <defs>
    <clipPath id="clip-path">
      <rect id="Rectangle_2265" data-name="Rectangle 2265" width="165.007" height="165.01" transform="matrix(0.899, -0.438, 0.438, 0.899, 566.248, 670.83)" fill="none"/>
    </clipPath>
  </defs>
  <g id="Groupe_568" data-name="Groupe 568" transform="translate(-566.248 -598.559)">
    <g id="Groupe_567" data-name="Groupe 567" clip-path="url(#clip-path)">
      <g id="Groupe_254" data-name="Groupe 254">
        <path id="Tracé_10265" data-name="Tracé 10265" d="M634.179,637.733l1.254-.611a6.083,6.083,0,0,0,2.038-.992l6.271-3.056a5.065,5.065,0,0,0,1.881-.916l.941-.459c1.569-.5,3.024-1.287,4.595-1.794A82.943,82.943,0,0,1,745.6,662.914c.745,1.131,1.27,2.4,2.05,3.51l.534,1.1a6.071,6.071,0,0,0,.993,2.037l3.054,6.269a5.092,5.092,0,0,0,.916,1.88l.611,1.255c.6,1.87,1.49,3.631,2.058,5.521a84.417,84.417,0,0,1,3.572,21.772,82.362,82.362,0,0,1-1.523,18.372,83.441,83.441,0,0,1-7.061,20.808,82.027,82.027,0,0,1-30.376,33.5,109.755,109.755,0,0,1-10.584,5.447,73.114,73.114,0,0,1-10.24,3.891,4.663,4.663,0,0,1-1.95.371.278.278,0,0,1-.179-.188,12.359,12.359,0,0,1,1.352-1.9,38.763,38.763,0,0,0,6.09-13.869,43.48,43.48,0,0,0,1.562-11.536,90.972,90.972,0,0,0-1.235-11.513c-.94-5.876-1.943-11.75-2.371-17.694a68.167,68.167,0,0,1,1.446-20.862,58.191,58.191,0,0,1,5.769-14.713c.117-.217.336-.4.293-.713a6.029,6.029,0,0,0-1.3.473,12.729,12.729,0,0,1-6.715.373,1.177,1.177,0,0,0-1.433.6,8.429,8.429,0,0,1-3.654,3.5,5.518,5.518,0,0,1-3.894.278c-1.019-.293-1.023-.3-1.5.673a24.675,24.675,0,0,1-9.959,10.426,40.861,40.861,0,0,1-6.309,2.913,1.6,1.6,0,0,0-.966.937A88.761,88.761,0,0,0,670.117,730a67.033,67.033,0,0,0-1.664,14.421A65.588,65.588,0,0,0,669.6,756.9a2.018,2.018,0,0,1,.053,1.28.3.3,0,0,1-.224.12,1.284,1.284,0,0,1-.669-.956,60.468,60.468,0,0,1-1.8-31.979,67.813,67.813,0,0,1,2.579-9.245,9.591,9.591,0,0,1-9.944.643c-1.215-.547-1.141-.826-1.97.673a103.435,103.435,0,0,0-6.7,14.164c-.522,1.416-1.073,2.821-1.57,4.247-.261.749-.528.836-1.1.253a42.117,42.117,0,0,0-8.089-6.306.9.9,0,0,1-.412-1.213c.007-.014.014-.029.022-.043,1.617-4.42,3.247-8.832,4.774-13.285a31.519,31.519,0,0,1,1.446-3.551c.145-.293.221-.688.667-.715a1.532,1.532,0,0,1,.643.8,5.3,5.3,0,0,0,1.272,1.535,2.919,2.919,0,0,0,3.317.442,10.608,10.608,0,0,0,3.523-2.784c.9-1.047,1.149-1.04,2.156-.089,3.1,2.929,7.275,3.552,10.667.862a10.053,10.053,0,0,0,2.6-3.016,16.229,16.229,0,0,0,1.228-2.882c.386-1.181.624-1.278,1.764-.718a14.93,14.93,0,0,0,4.441,1.481,6.981,6.981,0,0,0,6.434-2.32,16.234,16.234,0,0,0,3.332-5.961c.689-1.971.684-1.971,2.3-.735a5.651,5.651,0,0,0,7.965-.218,11.511,11.511,0,0,0,1.788-1.9,2.585,2.585,0,0,1,.913-.916,1.192,1.192,0,0,1,.6-.085,24.8,24.8,0,0,0,8.775-1.069c1.018-.242,2.022-.541,3.038-.787.326-.078.711-.263.966.086.234.318.069.678-.071,1-1.165,2.632-2.193,5.316-3.17,8.019a78.446,78.446,0,0,0-2.367,7.927,70.3,70.3,0,0,0-2.1,17.086,86.241,86.241,0,0,0,1.612,15.669c.815,4.341,1.755,8.657,2.444,13.02.259,1.637.308,3.3.486,4.945.021.194-.03.411.142.591.358-.028.5-.352.708-.567a23.6,23.6,0,0,0,6.147-13.118,72.9,72.9,0,0,0,.508-13.389c-.2-6.3-.587-12.594-.471-18.9a94.783,94.783,0,0,1,3.515-24.776c.321-1.118.68-2.223,1.018-3.335.178-.582.055-.841-.563-.96-3.026-.583-6.031-1.257-8.987-2.12a29.113,29.113,0,0,1-17.2-10.417,27.834,27.834,0,0,0-6.29-5.343,11.92,11.92,0,0,0-10.987-1.361,15,15,0,0,0-6.16,4.692,32.255,32.255,0,0,0-5.132,9.259c-.324.87-.666,1.736-.958,2.618-.092.267-.154.612-.5.647s-.466-.3-.631-.528a13.841,13.841,0,0,0-4.485-4.182,8.476,8.476,0,0,0-7.721-.158,15.765,15.765,0,0,0-5.912,4.643,30.507,30.507,0,0,0-7.067,17.576c-.1,1.249.053,2.5.073,3.746a47.5,47.5,0,0,1-1.884,13.926,40.576,40.576,0,0,1-4.641,10.382,26.341,26.341,0,0,1-2.33,3.044c-.519.612-.487.718.272,1.015a27.476,27.476,0,0,0,2.995.924,21.174,21.174,0,0,1,9.172,4.971,26.148,26.148,0,0,1,2.992,3.51,2.059,2.059,0,0,1,.384,1.716,56.914,56.914,0,0,0-.968,10.223,46.535,46.535,0,0,0,.346,5.829,2.446,2.446,0,0,1,.009,1.293c-.482.346-.8-.093-1.161-.259a6.154,6.154,0,0,1-.879-.558c-.432-.291-.7-.047-.943.274-.262.342-.1.586.179.809a10.7,10.7,0,0,0,2.142,1.31,2.856,2.856,0,0,1,1.081.7,23.052,23.052,0,0,1,1.092,4.665c-.263.448-.6.208-.9.086a20.7,20.7,0,0,1-5.935-3.583c-.213-.191-.4-.46-.737-.372a.839.839,0,0,0-.635.543c-.094.3.151.482.33.66a19.325,19.325,0,0,0,4.834,3.227,19.651,19.651,0,0,0,3.108,1.37,1.691,1.691,0,0,1,.818.478,14.588,14.588,0,0,1,1.185,2.694,52.3,52.3,0,0,0,6.905,11.891c.549.747,1.116,1.478,1.717,2.185a2.049,2.049,0,0,1,.628,1.207c-.18.618-.654.36-1,.3a36.933,36.933,0,0,1-4.817-1.2,83.165,83.165,0,0,1-44.422-31.423,69.711,69.711,0,0,1-5.312-8.792c-1.392-2.708-2.7-5.463-3.951-8.233a65.121,65.121,0,0,1-3.981-12.245A82.363,82.363,0,0,1,596.7,687.1a83.3,83.3,0,0,1,9.894-22.577A81.933,81.933,0,0,1,630.823,639.7c1.082-.716,2.3-1.2,3.356-1.969" fill="#1f1a17"/>
        <path id="Tracé_10266" data-name="Tracé 10266" d="M749.179,669.561a3.1,3.1,0,0,1-.993-2.037Z" fill="#322e2b"/>
        <path id="Tracé_10267" data-name="Tracé 10267" d="M753.151,677.711a2.735,2.735,0,0,1-.916-1.88Z" fill="#383431"/>
        <path id="Tracé_10268" data-name="Tracé 10268" d="M696.293,788.819a67.963,67.963,0,0,1-8.956,1.938,79.731,79.731,0,0,1-26.91-1.119,2.664,2.664,0,0,1-1.08-.275,18.334,18.334,0,0,0-2.456-3.333A54.114,54.114,0,0,1,649.04,771.8c-.1-.24-.208-.476-.33-.706a2.43,2.43,0,0,1-.7-2.223q-.6-2.419-1.19-4.839a2.209,2.209,0,0,1-.329-2.167,54.673,54.673,0,0,1,.529-17.747,1.063,1.063,0,0,0-.177-.875,20.349,20.349,0,0,0-12.093-8.68,19.874,19.874,0,0,1-4.251-1.455c-.026-.308.226-.416.373-.576a32.928,32.928,0,0,0,6.856-12.389,47.08,47.08,0,0,0,2.213-17.412,25.382,25.382,0,0,1,2-10.523,27.365,27.365,0,0,1,7.647-11.247,12.3,12.3,0,0,1,5.5-2.865c4.355-.9,7.421,1.177,9.985,4.375.306.383.576.8.94,1.3.315-.84.621-1.62.908-2.413a31.745,31.745,0,0,1,6.318-11.126,12.642,12.642,0,0,1,10.009-4.61,14.247,14.247,0,0,1,7.575,2.747,33.366,33.366,0,0,1,6.5,6,27.506,27.506,0,0,0,12.573,8.082,99.238,99.238,0,0,0,12.727,3.238c.671.131.76.316.551.94a89.649,89.649,0,0,0-4.369,22.139,205.03,205.03,0,0,0,.124,22.951,78.353,78.353,0,0,1-.512,16.055,23.694,23.694,0,0,1-6.521,13.189c-.184.184-.38.36-.579.525a1.127,1.127,0,0,1-.314.095c-.036-.623-.08-1.226-.117-1.822a121.562,121.562,0,0,0-2.554-15.6,86.37,86.37,0,0,1-1.852-20.908,71.986,71.986,0,0,1,1.886-13.071,92.794,92.794,0,0,1,5.707-16.574,1.477,1.477,0,0,0,.22-.918c-1.571.393-3.13.812-4.693,1.174a24.376,24.376,0,0,1-7.113.959c-.46-.031-.923-.1-1.384-.148a3.1,3.1,0,0,1-2.126-.614c-2.077-1.165-4.006-2.6-6.136-3.675a12.885,12.885,0,0,0-8.855-1.352,10.683,10.683,0,0,0-3.831,1.822,42.68,42.68,0,0,0-5.533,5.42,27.1,27.1,0,0,1-3.969,3.522,12.727,12.727,0,0,1-8.874,2.066,13.11,13.11,0,0,0-13.05,5.95,27.725,27.725,0,0,0-1.526,2.543c-.145.274-.239.608-.615.677a87.116,87.116,0,0,0-3.507,9.089c-1.037,2.894-2.079,5.779-3.169,8.653-.192.509.093.622.385.791a47.334,47.334,0,0,1,5.267,3.685A39.382,39.382,0,0,1,648.9,736.4c.879-2.832,1.924-5.5,3.035-8.143a111.357,111.357,0,0,1,6.041-12.03c.327-.574.619-.232.9-.089a12.412,12.412,0,0,0,4.71,1.411,8.382,8.382,0,0,0,5.715-1.672c.137-.1.3-.173.509-.3a2.3,2.3,0,0,1-.285,1.261,65.418,65.418,0,0,0-3.649,22.648,58.457,58.457,0,0,0,2.984,17.312,9.093,9.093,0,0,0,.535,1.467.415.415,0,0,1,.08.219c.067-.091.039-.2.077-.3a64.949,64.949,0,0,1-1.345-16.075,69,69,0,0,1,2.145-14.347,97.81,97.81,0,0,1,3.956-11.89,2.148,2.148,0,0,1,1.432-1.339c6.8-2.48,12.511-6.309,15.853-13.012.625-1.253.628-1.232,1.931-.872a5.612,5.612,0,0,0,5.86-1.92,11.955,11.955,0,0,0,1.693-2.317c.184-.32.327-.447.737-.338a12.24,12.24,0,0,0,8.249-.633,1.407,1.407,0,0,1,.971-.207c-.794,1.472-1.612,2.9-2.331,4.38a59.372,59.372,0,0,0-5.78,27.5,152.786,152.786,0,0,0,2.388,21.232,87.771,87.771,0,0,1,1.415,13.216,48.629,48.629,0,0,1-2.018,12.934,37.072,37.072,0,0,1-5.157,11.454,7.016,7.016,0,0,1-2.024,2.464c-.432.1-.8.341-1.245.413" fill="#d9251d"/>
        <path id="Tracé_10269" data-name="Tracé 10269" d="M646.6,711.046a16.23,16.23,0,0,1,6.2-7.606,13.275,13.275,0,0,1,8.655-1.87,13.143,13.143,0,0,0,11.26-3.759c2.117-2.01,3.949-4.291,6.117-6.251A11.486,11.486,0,0,1,690.8,689.2a25.777,25.777,0,0,1,5.78,3.114,22.651,22.651,0,0,0,4.519,2.368,17.74,17.74,0,0,1-3.4,3.553,5.886,5.886,0,0,1-7.322-.226c-.505-.379-.981-.8-1.5-1.231a22.982,22.982,0,0,1-3.164,6.748,7.949,7.949,0,0,1-9.843,2.8,32.666,32.666,0,0,1-3.234-1.47,14.735,14.735,0,0,1-1.435,3.776c-1.754,3.037-4.182,5.1-7.888,5.082a8.329,8.329,0,0,1-6.1-2.843c-.573-.6-.88-.665-1.421.051a10.459,10.459,0,0,1-2.924,2.668,3.687,3.687,0,0,1-5.745-1.539c-.183-.33-.352-.668-.526-1" fill="#fefefe"/>
        <path id="Tracé_10270" data-name="Tracé 10270" d="M634.94,750.542l-.751,5.014c1.383-.241,2.68-.473,3.979-.7.616-.106.74-.36.291-.837-.126-.132-.393-.254-.173-.487.29-.3.4.086.531.2.591.555,1.155,1.138,1.72,1.725.118.122.4.228.163.477-.179.2-.314.042-.432-.08a1.73,1.73,0,0,0-1.774-.394,6.981,6.981,0,0,1-1.37.223,6.833,6.833,0,0,0-5.531,2.876c-.361.459-.423.671.03,1.019a8.946,8.946,0,0,1,.676.672c.136.129.266.256.114.435s-.29.062-.425-.07q-2.364-2.375-4.731-4.731c-.134-.134-.256-.264-.1-.432s.308-.053.424.09a.337.337,0,0,0,.058.067c.433.317.711,1.078,1.209.984.45-.084.773-.739,1.2-1.081a4.483,4.483,0,0,0,1.787-3.638,37.72,37.72,0,0,1,.427-3.808c-.708.473-1.276.872-1.864,1.241-.192.121-.4.419-.673.121-.253-.273-.028-.467.135-.672a3.068,3.068,0,0,0,.54-3.329c-.216-.489-.432-.582-.906-.278-2.1,1.345-4.207,2.691-6.344,3.981-.516.31-.386.522-.2.941s.955.884.494,1.176c-.426.269-.643-.61-.9-.988-.971-1.45-1.874-2.934-2.775-4.433-.122-.2-.53-.477-.141-.71.315-.19.4.23.528.427.748,1.176.725,1.159,1.9.409,1.835-1.17,3.674-2.329,5.552-3.446.677-.4.62-.742.147-1.227a2.9,2.9,0,0,0-2.96-.791c-.579.149-.792-.153-1.051-.484-.312-.4.043-.621.268-.871a3.061,3.061,0,0,0,.581-3.251c-.9-2.606-.91-2.611-3.373-1.471a.367.367,0,0,0-.077.037c-.388.324-1.213.176-1.209.874a2.344,2.344,0,0,0,1.965,1.73c.328.015.737-.171.824.356s-.425.472-.691.6c-.777.378-1.589.715-2.392,1.054-.165.07-.358.286-.524.009a.392.392,0,0,1,.078-.594c.941-.808.758-1.78.373-2.79-.143-.375-.325-.417-.653-.264-.977.449-1.952.906-2.942,1.321-.615.259-.19.6-.127.917.071.373.606.916.258,1.045-.513.191-.5-.555-.665-.894-.744-1.576-1.436-3.177-2.135-4.773-.073-.169-.364-.419.022-.559.284-.1.3.2.383.362a1.858,1.858,0,0,1,.166.4c.151.579.409.681.986.41q3.318-1.545,6.689-2.974c.54-.23.676-.475.372-.96a5.113,5.113,0,0,1-.492-1.651c-.089-.385-.232-.455-.583-.357q-3.735,1.008-7.482,1.995c-.45.119-.472.32-.383.751.075.383.543,1.035.107,1.134-.595.13-.43-.681-.54-1.05-.495-1.635-.9-3.3-1.33-4.962-.044-.172-.24-.4.07-.514.393-.136.315.215.372.407.348,1.172.351,1.177,1.558.861,2.158-.571,4.32-1.129,6.479-1.71.3-.083.858-.03.638-.662-.148-.433-.115-1.027-.906-.755a7.971,7.971,0,0,1-1.456.229c-.215.032-.466.172-.544-.2a.392.392,0,0,1,.2-.505c2.392-1.277,1.806-3.414,1.581-5.451-.043-.385-.283-.353-.562-.316-1.034.137-2.068.275-3.1.381-.325.034-.461.086-.39.46.194,1.01.454,1.96,1.648,2.191.355.071.393.263.4.547.005.318-.248.281-.424.3-1.006.13-2.013.24-3.021.359-.2.026-.407.1-.5-.173s.02-.417.272-.532c1.133-.512,1.231-1.5,1.154-2.565-.021-.371-.158-.49-.534-.437-1.031.146-2.066.279-3.1.376-.495.045-.562.244-.534.711.027.423.476,1.1-.127,1.236-.336.072-.256-.752-.317-1.165-.23-1.634-.413-3.275-.595-4.916-.025-.225-.243-.591.135-.655.4-.068.308.343.3.563-.014.859.3,1.086,1.193.946,2.286-.362,4.595-.614,6.9-.854.6-.063.855-.218.659-.833a2.5,2.5,0,0,1-.049-.43c-.03-.226-.13-.523.219-.538.269-.01.221.288.246.475.242,1.984.488,3.969.715,5.952A50.546,50.546,0,0,0,624.61,734.7c.515,1.073.9,2.215,1.487,3.247.456.8,1.134,1.468,1.617,2.28,1.174,1.97,2.378,3.925,3.644,5.835a33.4,33.4,0,0,0,3.634,3.84c.336.36.7.695,1.037,1.052.12.127.41.217.184.474s-.337-.007-.474-.129c-.234-.22-.465-.441-.8-.758" fill="#fefefe"/>
        <path id="Tracé_10271" data-name="Tracé 10271" d="M657.2,656.049a10.563,10.563,0,0,1,4.682-14.108A10.674,10.674,0,0,1,675.81,647.2a10.311,10.311,0,0,1-18.207,9.684q-.219-.413-.4-.841" fill="#fefefe"/>
        <path id="Tracé_10272" data-name="Tracé 10272" d="M642.653,650.106a8.372,8.372,0,0,1-1.314,8.012A12.526,12.526,0,0,1,637,661.55c-.67.326-.751.631-.38,1.235.331.536.567,1.13.9,1.807a16.89,16.89,0,0,1,4.1-4,10.983,10.983,0,0,1,4.722-1.9,5.9,5.9,0,0,1,6.439,8.282,10.817,10.817,0,0,1-8.031,6.542,4.975,4.975,0,0,1-3-.231,3.8,3.8,0,0,1-2.279-4.551,2.737,2.737,0,0,1,2.237-1.954,3.254,3.254,0,0,1,3.34.6,1.913,1.913,0,0,1,.288,2.27,6.452,6.452,0,0,1-.96,1.319c1.728,1.062,3.025.381,3.081-1.57a8.182,8.182,0,0,0-4.242-6.652,2.658,2.658,0,0,0-3.451,1.321,7.871,7.871,0,0,1-.829,1.621c-.713.84-1.408.763-1.876-.2l-3.589-7.366c-.118-.242-.453-.558.17-.665,4.073-.676,6.669-3.259,8.6-6.7.085-.153.18-.287.409-.659" fill="#fefefe"/>
        <path id="Tracé_10273" data-name="Tracé 10273" d="M710.644,767.639c-.485-.565.129-.723.439-.927a66.647,66.647,0,0,0,12.056-10.187,72.839,72.839,0,0,0,17.817-31.96,27.864,27.864,0,0,0,1.026-8.354c-.032-.725.412-.565.757-.6,1.1-.13,1.118-.117,1.131,1.006a38.807,38.807,0,0,1-2.314,12.618,75.693,75.693,0,0,1-25.877,36.488c-1.054.816-2.172,1.549-3.257,2.324s-1.146.766-1.778-.416" fill="#fefefe"/>
        <path id="Tracé_10274" data-name="Tracé 10274" d="M681.9,644.437l-1.51,14.314c-.1.938-.545,1.185-1.449.826-.447-.18-.164-.509-.141-.733q.813-7.945,1.664-15.885c.109-1.09.216-2.189.361-3.279.038-.251-.17-.807.345-.7s1.274-.329,1.508.584q1.616,6.3,3.253,12.6c.227.883.443,1.77.665,2.68.434-.162.3-.532.335-.815q.725-6.732,1.429-13.465c.052-.483.017-.952.827-.782.635.13.846.229.766.943-.7,6.3-1.34,12.6-2.028,18.9-.027.275.269.882-.372.849-.6-.03-1.332.168-1.566-.8-.782-3.2-1.625-6.387-2.444-9.581q-.73-2.848-1.466-5.7Z" fill="#fefefe"/>
        <path id="Tracé_10275" data-name="Tracé 10275" d="M717.045,757.775c-.068.012-.238.084-.273.043a5.5,5.5,0,0,1-.926-1.244c-.135-.316.342-.464.574-.659a43.267,43.267,0,0,0,7.891-9.088,77.585,77.585,0,0,0,10.625-21.822,24.359,24.359,0,0,0,1.205-8.486c-.046-.721.413-.564.759-.609,1.1-.145,1.117-.133,1.135.978a30.675,30.675,0,0,1-1.864,10.4,78.761,78.761,0,0,1-15.343,26.958,26.394,26.394,0,0,1-3.4,3.228c-.115.092-.233.18-.382.3" fill="#fefefe"/>
        <path id="Tracé_10276" data-name="Tracé 10276" d="M697.066,641.59c2.512.881,4.982,1.74,7.461,2.594.374.129.486.254.362.675-.569,1.945-.553,1.95-2.489,1.286-1.373-.474-2.752-.933-4.118-1.43-.407-.151-.561-.105-.707.345-.509,1.6-1.065,3.2-1.642,4.781-.17.464-.09.636.385.79,1.658.537,3.292,1.146,4.952,1.679.449.144.513.284.341.7-.244.588-.414,1.2-.658,1.938-1.807-.65-3.588-1.274-5.356-1.94-.49-.184-.719-.177-.9.4q-.843,2.653-1.819,5.272c-.213.57-.032.718.466.885,1.821.6,3.624,1.256,5.447,1.852.478.156.539.351.394.809-.569,1.835-.557,1.836-2.349,1.218l-6.017-2.075c-.334-.113-.517-.183-.359-.635,2.208-6.365,4.394-12.731,6.6-19.145" fill="#fefefe"/>
        <path id="Tracé_10277" data-name="Tracé 10277" d="M713.614,656.036c.183-.663.351-1.251.505-1.838A2.556,2.556,0,0,0,712.744,651a2.449,2.449,0,0,0-3.106.956c-1.23,1.545-1.159,2.706.279,4.6.313.415.642.821.941,1.246,1.538,2.207,1.339,4.476-.685,7.476a6.4,6.4,0,0,1-3.055,2.611,4.069,4.069,0,0,1-5.454-4.239,11.08,11.08,0,0,1,1.289-4.29c.119-.241.207-.261.445-.177.385.133.775.222,1.224.342a9.469,9.469,0,0,0-.927,2.643,2.858,2.858,0,0,0,3.6,3.467,3.743,3.743,0,0,0,1.932-5.355c-.446-.673-.93-1.327-1.392-1.992a5.3,5.3,0,0,1-.31-5.888,7.679,7.679,0,0,1,3.14-3.487,3.7,3.7,0,0,1,5.444,2.688,8.048,8.048,0,0,1-1.042,4.66c-.121.266-.295.208-.493.129l-.958-.369" fill="#fefefe"/>
        <path id="Tracé_10278" data-name="Tracé 10278" d="M645.6,652.357c.027-1.169-.267-2.375.269-3.175.45-.674,1.575-.9,2.409-1.3,1.748-.852,3.5-1.7,5.241-2.564.449-.219.618-.26.643.36.091,2.454.134,2.5-2.065,3.494-.773.352-.761.673-.428,1.347,2.214,4.475,4.373,8.975,6.588,13.448.283.58.233.808-.367,1.088-1.8.84-1.789.872-2.66-.914-2.034-4.175-4.083-8.342-6.086-12.532-.322-.661-.6-.764-1.214-.4-.72.425-1.5.749-2.324,1.151" fill="#fefefe"/>
        <path id="Tracé_10279" data-name="Tracé 10279" d="M726.817,671.505c-.571-1.5-.441-2.1.716-3.156.821-.753.821-.826.039-1.649-.119-.127-.449-.193-.2-.446.2-.194.37,0,.524.133A6.185,6.185,0,0,1,729.7,668.7c.5,1.183.319,1.8-.71,2.769-1.153,1.089-1.175,1.663-.222,2.889.286.359.464.315.76.087.687-.532,1.366-1.076,2.087-1.566.473-.322.56-.594.11-1a3.213,3.213,0,0,1-.361-.491c-.077-.1-.123-.2-.007-.3.142-.119.255-.065.355.072q1.645,2.19,3.3,4.379c.087.117.16.255-.02.361-.126.071-.206-.031-.3-.1-1.029-.8-1.017-.787-2.061,0-1.318,1-2.633,2-3.976,2.966-.553.4-.862.741-.2,1.3.152.13.425.415.228.58-.329.271-.426-.189-.543-.346a69.776,69.776,0,0,1-4.621-6.426,3.679,3.679,0,0,1-.593-2.148,1.127,1.127,0,0,1,1.622-1.11,5.214,5.214,0,0,1,2.308,1.642c.141-.143.141-.143-.036-.76" fill="#fefefe"/>
        <path id="Tracé_10280" data-name="Tracé 10280" d="M643.117,638.588q.374,2.739.738,5.484a2.572,2.572,0,0,1-1.644,3.078c-.939.458-1.889.9-2.816,1.38-.468.242-.6.114-.621-.377-.042-1.042.221-1.413,1.281-1.693,1.938-.516,1.938-.516,1.651-2.531q-.277-1.928-.55-3.857c-.042-.313-.054-.588-.505-.35-.893.471-1.839.874-2.712,1.389a1.6,1.6,0,0,0-.406,2.524,8.912,8.912,0,0,1,.232-.914,1.418,1.418,0,0,1,1.731-1.013,1.358,1.358,0,0,1,.283.107,1.485,1.485,0,0,1,.939,1.877,1.466,1.466,0,0,1-.075.183,2.146,2.146,0,0,1-2,1.308,2.4,2.4,0,0,1-2.349-1.168,3.315,3.315,0,0,1,1.134-4.547c2.257-1.382,4.724-2.364,7.078-3.565.338-.165.487-.1.455.3-.021.257-.012.515-.016.774-.132.185.124.347.036.531-.519.533-1.311.6-1.857,1.083" fill="#fefefe"/>
        <path id="Tracé_10281" data-name="Tracé 10281" d="M623.132,675.129c2.187,1.749,4.568,3.233,6.828,4.883,1.146.835,2.338,1.6,3.477,2.441.264.192.962.261.484.913-.434.591-.733.037-.99-.139q-5.625-3.909-11.222-7.86c-.944-.662-1.894-1.32-2.836-1.993-.2-.145-.57-.219-.275-.636.227-.317.408-.479.824-.307,2.174.895,4.361,1.769,6.54,2.643,1.9.764,3.79,1.532,5.773,2.156-.838-.593-1.674-1.187-2.514-1.772l-7.74-5.425c-.2-.139-.549-.213-.515-.52a.954.954,0,0,1,.338-.583c.2-.162.353.092.5.2q2.914,2.035,5.821,4.083c2.722,1.907,5.454,3.8,8.162,5.728.278.2.949.241.606.916s-.758.271-1.15.116q-5.895-2.38-11.781-4.773a1.449,1.449,0,0,0-.326-.055c-.1-.06.029.022-.07-.039-.023-.015,0,0,.073.029" fill="#fefefe"/>
        <path id="Tracé_10282" data-name="Tracé 10282" d="M626.464,702.2c.16.954-.189,1.257-1.078,1.315-1.956.132-3.906.371-5.851.626-1.533.2-1.529.235-1.716,1.846q3.7.454,7.4.916c.326.041.762-.08.693.581s-.473.41-.781.369c-5.713-.7-11.425-1.41-17.138-2.09-.524-.066-.677-.18-.57-.713.146-.739.2-1.488.311-2.235a1.681,1.681,0,0,1,1.592-1.666,12.633,12.633,0,0,1,7.041.825,1.739,1.739,0,0,1,.853.57c.5.923,1.181.681,1.972.5,2.4-.527,4.856-.536,7.278-.85" fill="#fefefe"/>
        <path id="Tracé_10283" data-name="Tracé 10283" d="M631.427,666.08a14.732,14.732,0,0,0-2.484-1.531c-.587-.238-1.2-.408-1.709.095a1.422,1.422,0,0,0-.162,1.617,10.4,10.4,0,0,0,2.387,3.484,26.1,26.1,0,0,0,5.033,4.353,4.538,4.538,0,0,0,2.5.894,1.1,1.1,0,0,0,1.244-1.3,2.834,2.834,0,0,0-.971-2.15c-.266-.218-.506-.473-.759-.709-1.084-1.014-1.1-1.024-2.122,0-.235.235-.366.339-.594.046-.012-.024-.051-.03-.07-.053-.39-.45-1.3-.866-1.15-1.255a7.055,7.055,0,0,1,1.593-1.9c.2-.207.357.009.5.144,1.5,1.4,3.073,2.725,4.477,4.211a3.858,3.858,0,0,1,.918,3.239,1.551,1.551,0,0,1-1.586,1.512,1.643,1.643,0,0,1-.2-.018,5.3,5.3,0,0,1-2.475-.707,27.711,27.711,0,0,1-9.99-9.406,4.322,4.322,0,0,1-.663-2.047,1.7,1.7,0,0,1,2.1-1.935,9.694,9.694,0,0,1,4.075,2.2c.375.284.027.741.111,1.215" fill="#fefefe"/>
        <path id="Tracé_10284" data-name="Tracé 10284" d="M610.254,693.229a9.591,9.591,0,0,1,4.182-.321,30.649,30.649,0,0,1,10.356,2.719,6.873,6.873,0,0,1,2.253,1.585c1.064,1.2.67,2.467-.87,2.925a9.357,9.357,0,0,1-3.431.337,28.022,28.022,0,0,1-12.171-3.414,4.635,4.635,0,0,1-1.139-.929c-.979-1.095-.768-2.158.828-2.906" fill="#fefefe"/>
        <path id="Tracé_10285" data-name="Tracé 10285" d="M743.059,699.28c-.238-.019-.275-.161-.323-.3-.406-1.137-.408-1.136-1.606-.854-1.727.4-3.444.826-5.17,1.173-.685.138-.948.382-.667,1.069.089.214.272.586-.047.656-.394.081-.266-.367-.318-.579-.677-2.845-1.328-5.694-2.005-8.543-.121-.5-.078-.817.505-.913a9.668,9.668,0,0,0,1.082-.321c.179-.051.383-.229.528.044a.4.4,0,0,1-.088.544c-1.707,1.493-.928,3.279-.6,5.018.065.342.233.321.5.256a16.837,16.837,0,0,1,2.208-.491c.879-.094.841-.534.579-1.143a1.783,1.783,0,0,0-1.366-1.2c-.242-.042-.481-.075-.476-.386s.3-.32.5-.372c.759-.19,1.522-.363,2.287-.531.178-.039.405-.154.521.113s-.062.379-.265.532a2.127,2.127,0,0,0-.621,2.425c.091.218.2.239.389.189q1.4-.325,2.8-.627a.351.351,0,0,0,.347-.354.357.357,0,0,0-.034-.147,16.087,16.087,0,0,0-.744-2.682,3.14,3.14,0,0,0-2.282-1.841c-.283-.06-.508-.152-.516-.476-.008-.449.391-.264.574-.3,2.1-.354,2.091-.345,2.558,1.718.586,2.6,1.184,5.193,1.774,7.79.036.156.156.32-.02.518" fill="#fefefe"/>
        <path id="Tracé_10286" data-name="Tracé 10286" d="M735.98,708.615c1.1-.912,2.085-1.721,3.062-2.535.186-.155.376-.318.059-.538-1.026-.688-2.049-1.379-3.056-2.057a1.565,1.565,0,0,0-.139.154c-.211.271.116.9-.256.87-.451-.028-.2-.614-.239-.946a16.663,16.663,0,0,1-.065-1.731c0-.128-.054-.32.159-.332a.245.245,0,0,1,.255.234.248.248,0,0,1,0,.054c-.027.8.547,1.159,1.106,1.545a6.616,6.616,0,0,1,.922.648,5.4,5.4,0,0,0,4.846,1.421c.622-.093.849-.177.766-.838-.04-.334-.3-.951.191-1.005.317-.034.166.624.183.964.082,1.705.132,3.413.183,5.119.006.2.153.544-.226.524-.277-.015-.162-.333-.175-.508-.12-1.335-.118-1.251-1.408-1.316a4.074,4.074,0,0,0-3.517,1.422,18.888,18.888,0,0,1-1.932,1.743c-.34.289-.693.533-.593,1.067.024.124.017.312-.189.315-.27,0-.2-.222-.209-.379q-.081-2.387-.158-4.773c-.006-.185-.125-.466.175-.483s.194.295.218.468c.037.256.029.517.043.9" fill="#fefefe"/>
        <path id="Tracé_10287" data-name="Tracé 10287" d="M736.722,680.633c-.391.534-.713,1.005-1.068,1.451a.522.522,0,0,0-.067.629c.433.911.846,1.847,1.287,2.762a2.024,2.024,0,0,0,1.947.411c.2-.17.091-.365.061-.561-.054-.338-.36-.6-.268-.981.006-.025.034-.042.051-.062.053,0,.146-.03.157-.006a31.627,31.627,0,0,1,1.528,3.116c.063.129.137.28-.005.392a.205.205,0,0,1-.336-.121c-.36-1.107-1.306-1.068-2.2-1.153-2.218-.214-4.441-.426-6.665-.666-.37-.042-.872.137-1.078-.353-.181-.439.243-.681.447-.965q2.1-2.922,4.26-5.817c.386-.522.791-1.008.281-1.678-.1-.136-.154-.34.081-.425.189-.07.238.106.3.231q1.095,2.372,2.18,4.749c.06.121.164.281,0,.378-.234.14-.284-.092-.356-.234l-.533-1.094" fill="#fdfdfd"/>
        <path id="Tracé_10288" data-name="Tracé 10288" d="M644.85,637.355a.32.32,0,0,1,.092-.379c.728-.009,1.238-.581,2.006-.763l.8,5.33.853-2.045a2.35,2.35,0,0,1,.732-.952c.582-.451,1.147-.279,1.315.435.138.613.172,1.251.254,1.878-.047.561.12.819.707.511.329-.171.664-.333,1-.487.273-.125.514-.162.5.264a1.491,1.491,0,0,1-.94,1.152c-.538.281-1.089.541-1.639.8-.984.469-1.284.331-1.476-.727-.043-.222-.078-.443-.14-.8-.876,1.317-.753,3.251-2.778,3.556l-1.119-7.448c-.048-.116-.028-.267-.176-.33" fill="#fefefe"/>
        <path id="Tracé_10289" data-name="Tracé 10289" d="M721.435,667.834c-.6-.854-1.213-1.7-1.789-2.567-.922-1.39-.933-2.5-.062-3.418a2.924,2.924,0,0,1,3.685-.295,5.2,5.2,0,0,1,2.13,2.235,1.325,1.325,0,0,0,.989.827c.76.179.8.408.291.957-.278.3-.562.585-.862.865-.146.14-.239.458-.54.236-.216-.159-.381-.326-.246-.65a3.282,3.282,0,0,0-1.6-3.851,2.629,2.629,0,0,0-.877-.359,1.249,1.249,0,0,0-1.352.357,1.161,1.161,0,0,0,.017,1.392c.519.837,1.123,1.619,1.67,2.44.912,1.374.927,2.688.055,3.5a2.881,2.881,0,0,1-3.619-.144,4.571,4.571,0,0,1-1.382-1.544,1.831,1.831,0,0,0-1.186-1.142c-.337-.079-.522-.363-.161-.713.226-.221.386-.522.623-.721.214-.181.268-.676.7-.479.409.183.309.543.228.9a3.047,3.047,0,0,0,1.232,3.214,2.845,2.845,0,0,0,.838.443,1.076,1.076,0,0,0,1.275-.269c.347-.413.148-.816-.055-1.223" fill="#fdfdfd"/>
        <path id="Tracé_10290" data-name="Tracé 10290" d="M613.926,680.9c4.69,2.388,9.263,4.7,13.811,7.054.644.336.963.31,1.209-.386.133-.385.412-.71.526-1.093.286-.957.773-.882,1.5-.45,1.01.6,1.038.557.524,1.574-.38.749-.792,1.484-1.139,2.247-.167.368-.3.364-.631.2q-7.853-4.027-15.72-8.015c-.81-.406.021-.7-.083-1.127" fill="#fdfdfd"/>
        <path id="Tracé_10291" data-name="Tracé 10291" d="M629.847,690.974c-.426,1.1-.882,2.169-1.252,3.266-.18.532-.412.47-.822.313q-6.211-2.4-12.435-4.775c-1.436-.551-2.87-1.107-4.272-1.648.048-.856.4-.888,1.114-.609,4.59,1.807,9.205,3.552,13.8,5.352.526.206.7.086.851-.4.185-.607.457-1.194.648-1.8.13-.419.321-.552.743-.361.523.239,1.064.431,1.625.654" fill="#fdfdfd"/>
        <path id="Tracé_10292" data-name="Tracé 10292" d="M653.114,641.143c-.61-.5-1,.142-1.458.314-.784.3-.82.289-.754-.6.06.509.243.761.76.394a1.826,1.826,0,0,1,.47-.228c.587-.2.81-.442.4-1.084a2.038,2.038,0,0,1,.2-2.435,4.8,4.8,0,0,1,3.349-1.8,1.113,1.113,0,0,1,1.322.856l0,.012a1.131,1.131,0,0,1-.745,1.382c-1.183.54-1.169.569-1.335-.8-.325.094-.771.132-.813.489a2.764,2.764,0,0,0,.3,1.674c.188.327.574.112.865-.03l3.934-1.916a1.413,1.413,0,0,1-.775,1.66,23.949,23.949,0,0,1-3.947,1.812,1.947,1.947,0,0,1-1.274.056c-.314-.122-.406.017-.5.245" fill="#fdfdfd"/>
        <path id="Tracé_10293" data-name="Tracé 10293" d="M648.01,768.868l.7,2.224a22.912,22.912,0,0,1-8.836-5.022c-.216-.205-.9-.476-.214-.9.449-.275.693-1.239,1.549-.4a19.349,19.349,0,0,0,6.8,4.086" fill="#fefdfd"/>
        <path id="Tracé_10294" data-name="Tracé 10294" d="M616.684,675.773c.176-.063.318.114.487.208l15.269,8.449c.306.172.516.3.308.724-.254.509-.54.262-.821.1q-4.485-2.475-8.964-4.962-3.152-1.749-6.295-3.5a.613.613,0,0,1-.138-.858.592.592,0,0,1,.159-.153" fill="#fdfdfd"/>
        <path id="Tracé_10295" data-name="Tracé 10295" d="M646.492,761.862l.328,2.167a14.118,14.118,0,0,1-3.466-1.944c-.364-.257-.463-.467-.1-.8a3.84,3.84,0,0,0,.562-.659c.2-.284.349-.271.62-.059a10.948,10.948,0,0,0,2.052,1.294" fill="#fdfcfc"/>
        <path id="Tracé_10296" data-name="Tracé 10296" d="M644.849,637.354c.277-.005.262.142.176.329l-1.909.9c.188-.458.691-.447,1.028-.685.237-.171.626-.164.705-.548" fill="#afadac"/>
        <path id="Tracé_10297" data-name="Tracé 10297" d="M726.816,671.5c.133.244.275.482.391.733.044.09.2.278-.071.293a.286.286,0,0,1-.28-.263c.221-.268-.134-.5-.037-.76" fill="#a4a2a1"/>
        <path id="Tracé_10298" data-name="Tracé 10298" d="M696.293,788.819a2.252,2.252,0,0,1,1.245-.413.29.29,0,0,1,.038.122,3.971,3.971,0,0,1-1.28.29" fill="#6b504e"/>
        <path id="Tracé_10299" data-name="Tracé 10299" d="M669.571,758.185c.055.249.111.5.181.828a.668.668,0,0,1-.34-.747l.159-.078" fill="#431c18"/>
        <path id="Tracé_10300" data-name="Tracé 10300" d="M691.239,769.947a10.737,10.737,0,0,1-.79-6.186,58.318,58.318,0,0,0,0-15.3c-.527-5.292-1.286-10.564-1.317-15.9a46.489,46.489,0,0,1,3.823-19.044,4.931,4.931,0,0,1,3.473-3.118,1.772,1.772,0,0,1,2.367,2.052,15.448,15.448,0,0,1-.972,3.229,57.874,57.874,0,0,0-1.1,25.376c.853,4.787,2.137,9.479,3.068,14.247a40.222,40.222,0,0,1,.988,10.072,9.626,9.626,0,0,1-2.55,6.228,3.721,3.721,0,0,1-5.56.2,7.417,7.417,0,0,1-1.433-1.865" fill="#fefefe"/>
        <path id="Tracé_10301" data-name="Tracé 10301" d="M658.389,770.576a43.52,43.52,0,0,1-3.358-24.63,57.7,57.7,0,0,1,5.222-16.255,8.132,8.132,0,0,1,2.5-3.378,1.96,1.96,0,0,1,2.19-.329,1.767,1.767,0,0,1,.762,1.894,13.482,13.482,0,0,1-.811,3.2,50.831,50.831,0,0,0-1.4,28.337,49.49,49.49,0,0,0,2.382,7.082,10.275,10.275,0,0,1,.808,5.007,3.512,3.512,0,0,1-2.631,3.482,4.134,4.134,0,0,1-4.547-2.136c-.378-.753-.738-1.516-1.107-2.274" fill="#fefefe"/>
        <path id="Tracé_10302" data-name="Tracé 10302" d="M679.709,669.261a8.823,8.823,0,0,1,4.594-1.1,3.356,3.356,0,0,1,3.353,2.934,8.959,8.959,0,0,1-.662,5.173,2.276,2.276,0,0,1-2.821,1.263,9.846,9.846,0,0,1-2.494-1.01c-1.56-.792-2.226-.568-2.863,1.074a4.647,4.647,0,0,1-2.061,2.482,1.769,1.769,0,0,1-2.31-.21c-1.538-1.461-2.12-2.981-1.023-4.841a14.628,14.628,0,0,1,6.291-5.769" fill="#fefefe"/>
        <path id="Tracé_10303" data-name="Tracé 10303" d="M654.2,681.7a8.856,8.856,0,0,1,4.081-1,3.39,3.39,0,0,1,3.236,2.661,8.637,8.637,0,0,1-.265,5.205,2.161,2.161,0,0,1-2.527,1.508,9.52,9.52,0,0,1-2.487-.732c-2.067-.745-2.43-.59-3.092,1.485a4.657,4.657,0,0,1-1.818,2.457,1.761,1.761,0,0,1-1.569.259,3.7,3.7,0,0,1-2.266-4.6A14.376,14.376,0,0,1,654.2,681.7" fill="#fefefe"/>
        <path id="Tracé_10304" data-name="Tracé 10304" d="M669.731,759.318c.413.191.4.447.317.83a.939.939,0,0,1-.317-.83" fill="#b8221b"/>
        <path id="Tracé_10305" data-name="Tracé 10305" d="M664.766,660.09a8.751,8.751,0,0,1-6.987-8.482,7.545,7.545,0,0,1,3.227-6.994c.359-.251.54-.263.636.216q1.545,7.473,3.1,14.94c.017.085.014.172.028.32" fill="#d9251d"/>
        <path id="Tracé_10306" data-name="Tracé 10306" d="M666.24,659.416c-.286-1.319-.62-2.871-.963-4.425q-1.126-5.124-2.254-10.241a1.974,1.974,0,0,1,.891-2.164,1.464,1.464,0,0,1,1.842.491,1.2,1.2,0,0,1,.28.531q1.623,7.586,3.217,15.176a1.383,1.383,0,0,1-.936,1.716c-.033.009-.066.018-.1.025a1.762,1.762,0,0,1-1.985-1.106" fill="#1f1a17"/>
        <path id="Tracé_10307" data-name="Tracé 10307" d="M671.358,658.215c-1.143-4.544-2.255-8.967-3.37-13.389q-.168-.673-.347-1.344c-.226-.861-.126-.974.794-.929a3.164,3.164,0,0,1,2.391,1.252,12.271,12.271,0,0,1,2.184,12.285,4.769,4.769,0,0,1-1.656,2.123" fill="#d9251d"/>
        <path id="Tracé_10308" data-name="Tracé 10308" d="M644.281,661.116a5.377,5.377,0,0,1,6.238,1.159c1.186,1.495.725,4.073-1.288,6.595a9.459,9.459,0,0,0-4.961-7.75" fill="#d9251d"/>
        <path id="Tracé_10309" data-name="Tracé 10309" d="M634.528,658.217a11.841,11.841,0,0,0,3.926-1.518c1.127-.738,2.012-1.752,3.122-2.644a6.544,6.544,0,0,1-4.3,5.388,2.471,2.471,0,0,1-2.747-1.226" fill="#d9261e"/>
        <path id="Tracé_10310" data-name="Tracé 10310" d="M643.381,669.068a1.519,1.519,0,0,1-.62,1.96,1.432,1.432,0,0,1-1.875-.767l0-.006a1.409,1.409,0,0,1,.547-1.916l.033-.018a1.545,1.545,0,0,1,1.921.745" fill="#d9271f"/>
        <path id="Tracé_10311" data-name="Tracé 10311" d="M724.819,675.173c-.415-.785.008-1.3.572-1.725s1.2-.854,1.865-.215c.478.458.865,1.008,1.3,1.509.2.224.079.339-.108.478-.674.5-1.338,1.016-2.006,1.524a.343.343,0,0,1-.575-.09c-.337-.5-.705-.992-1.058-1.487" fill="#201b18"/>
        <path id="Tracé_10312" data-name="Tracé 10312" d="M623.134,675.131a.945.945,0,0,1-.771-.351.743.743,0,0,1,.767.36Z" fill="#e2e1e0"/>
        <path id="Tracé_10313" data-name="Tracé 10313" d="M632.307,677.891l.086-.311a2.083,2.083,0,0,1,.26.176c.022.018,0,.134-.007.136-.107.008-.212,0-.337,0" fill="#eaeaea"/>
        <path id="Tracé_10314" data-name="Tracé 10314" d="M610.567,702.2a6.283,6.283,0,0,1,4.795.694c.707.435.341,1.19.354,1.83.018.85-.318,1.036-1.127.883-1.275-.233-2.57-.341-3.859-.5-1.111-.139-1.112-.139-.968-1.277a8.273,8.273,0,0,1,.139-.857,1.028,1.028,0,0,1,.67-.78" fill="#1f1a17"/>
        <path id="Tracé_10315" data-name="Tracé 10315" d="M625.315,697.575a.974.974,0,0,1-.541,1.471,4.854,4.854,0,0,1-1.859.349,26.133,26.133,0,0,1-9.679-2.1,4.967,4.967,0,0,1-1.646-1.111,1.2,1.2,0,0,1-.507-1.206,1.257,1.257,0,0,1,1.034-.812,10.607,10.607,0,0,1,4.63.061,23.537,23.537,0,0,1,6.881,2.023,4.748,4.748,0,0,1,1.688,1.326" fill="#1f1a17"/>
        <path id="Tracé_10316" data-name="Tracé 10316" d="M733.183,685.464l1.918-2.6,1.429,2.934-3.349-.335" fill="#201b19"/>
      </g>
    </g>
  </g>
</svg>
