<svg xmlns="http://www.w3.org/2000/svg" xmlns:xlink="http://www.w3.org/1999/xlink" width="186.176" height="217.749" viewBox="0 0 186.176 217.749">
  <defs>
    <clipPath id="clip-path">
      <rect id="Rectangle_2264" data-name="Rectangle 2264" width="184.348" height="133.392" transform="matrix(0.326, -0.945, 0.945, 0.326, 954.774, 396.865)" fill="none"/>
    </clipPath>
  </defs>
  <g id="Groupe_479" data-name="Groupe 479" transform="translate(-954.774 -222.576)">
    <g id="Groupe_566" data-name="Groupe 566">
      <g id="Groupe_565" data-name="Groupe 565" clip-path="url(#clip-path)">
        <g id="Groupe_310" data-name="Groupe 310">
          <path id="Tracé_10426" data-name="Tracé 10426" d="M993.175,323.478c.518-9.4,1.161-18.616,3.089-27.863a163.044,163.044,0,0,1,8.423-27.515c.047-.115-.128-.242-.187-.113a133.339,133.339,0,0,0-8.936,27.006,123.443,123.443,0,0,0-3.249,28.338c.009.468.831.7.862.148" fill="#fff"/>
          <path id="Tracé_10427" data-name="Tracé 10427" d="M1083.552,284.942c-1-4.735-6.037-6.657-10.214-7.772-7.2-1.924-14.542-3.443-21.864-4.826q-10.609-2-21.327-3.355a212.615,212.615,0,0,0-22.521-2.039c-.478-.01-.356.686.055.734,6.849.806,13.732,1.284,20.577,2.158q10.377,1.326,20.667,3.239,9.963,1.847,19.815,4.23c4.891,1.187,12.144,2.258,13.865,7.869a.489.489,0,0,0,.958-.193c0-.015-.007-.03-.011-.044" fill="#fff"/>
          <path id="Tracé_10428" data-name="Tracé 10428" d="M1070.792,337.792q2.127-7.479,4.213-14.97c2.761-9.854,5.483-19.717,8.076-29.618.007-.022-.033-.044-.044-.015-3.032,9.484-5.945,19.005-8.814,28.539-1.454,4.832-2.915,9.662-4.351,14.5-1.468,4.945-3.209,9.894-4.379,14.917-.16.691,1.009,1.372,1.282.58,1.594-4.541,2.7-9.3,4.015-13.93" fill="#fff"/>
          <path id="Tracé_10429" data-name="Tracé 10429" d="M1065.057,352.61c-5.505,1.82-11.116-1-16.27-2.831q-8.967-3.187-17.807-6.717t-17.532-7.4c-5.88-2.614-11.645-5.574-17.655-7.883-.094-.032-.12.111-.048.156,5.723,3.58,11.976,6.35,18.1,9.162q9.113,4.189,18.387,8.013,9.387,3.869,18.926,7.352c4.3,1.573,10.237,4.5,14.646,1.767.77-.476.122-1.911-.747-1.624" fill="#fff"/>
          <path id="Tracé_10430" data-name="Tracé 10430" d="M1061.5,284.342c-13.742-3.621-27.873-5.976-41.811-8.686-.059-.012-.069.075-.015.09,13.767,3.58,27.554,7.569,41.541,10.243,1.1.21,1.274-1.386.286-1.647" fill="#fff"/>
          <path id="Tracé_10431" data-name="Tracé 10431" d="M1079.529,276.856c-4.92-7.71-14.481-12.732-23.29-14.215a36.212,36.212,0,0,0-26.144,5.617c-.222.15.014.534.243.4a37.252,37.252,0,0,1,25.276-4.977,35.018,35.018,0,0,1,12.673,4.935c4,2.522,6.939,5.766,10.038,9.262.681.765,1.728-.2,1.205-1.02" fill="#fff"/>
          <path id="Tracé_10432" data-name="Tracé 10432" d="M1110.01,299.378c-3.087-3.969-7.392-7.3-11.4-10.3a90.5,90.5,0,0,0-14.062-8.622c-.271-.135-.424.256-.18.386a91.2,91.2,0,0,1,12.984,8.391c4.272,3.32,7.79,7.283,11.774,10.89.523.474,1.346-.151.883-.747" fill="#fff"/>
          <path id="Tracé_10433" data-name="Tracé 10433" d="M1103.75,325.9a135.134,135.134,0,0,0,5.723-25.681c.009-.083-.138-.141-.16-.055-2.288,8.707-4.3,17.452-7.27,25.955a253.3,253.3,0,0,1-10.217,23.952c-.479,1.023,1.527,2.289,2.1,1.165a158.181,158.181,0,0,0,9.828-25.34" fill="#fff"/>
          <path id="Tracé_10434" data-name="Tracé 10434" d="M1000.9,330.058c-.015-.234-.395-.357-.438-.076a12.336,12.336,0,0,0-.2,3.134c.034.309.508.478.586.1a12.3,12.3,0,0,0,.053-3.156" fill="#fff"/>
          <path id="Tracé_10435" data-name="Tracé 10435" d="M1085.319,359.3c-1.854.16-3.657,1.091-5.46,1.579a46.49,46.49,0,0,1-6.423,1.268,86.879,86.879,0,0,1-11.733.352.837.837,0,0,0-.292-.332,58.249,58.249,0,0,0-7.385-3.549l-7.436-3.439q-7.627-3.513-15.258-7.013c-9.776-4.492-19.585-9.271-29.676-13-.141-.048-.182.164-.071.227,9.607,5.4,19.837,9.9,29.817,14.569q7.422,3.469,14.845,6.936,3.713,1.731,7.431,3.449a54.888,54.888,0,0,0,7.291,3.254.589.589,0,0,0,.771-.31l.012-.032a33.476,33.476,0,0,0,11.676.626,46.6,46.6,0,0,0,5.984-1.022c2.016-.481,4.688-.933,6.34-2.237.467-.368.265-1.384-.432-1.321" fill="#fff"/>
          <path id="Tracé_10436" data-name="Tracé 10436" d="M1091.644,350.395c-4.808.265-9.647,1.16-14.425,1.764-4.994.632-9.975,1.307-14.94,2.154-.128.022-.072.237.047.228,5.058-.245,10.1-.66,15.141-1.119,4.807-.437,9.739-.6,14.5-1.377.91-.149.512-1.7-.325-1.65" fill="#fff"/>
          <path id="Tracé_10437" data-name="Tracé 10437" d="M1089.106,352.142c.029-.083-.09-.229-.161-.126a28.565,28.565,0,0,0-3.583,6.505c-.131.379.415,1.04.73.57a29.085,29.085,0,0,0,3.015-6.953" fill="#fff"/>
          <path id="Tracé_10438" data-name="Tracé 10438" d="M1064.942,355.013c.005-.082-.073-.178-.16-.127a7.393,7.393,0,0,0-2.1,2.646c-.806,1.258-1.664,2.516-2.347,3.848-.379.737.725,1.474,1.2.733.757-1.172,1.379-2.451,2.024-3.689a8.8,8.8,0,0,0,1.386-3.406" fill="#fff"/>
          <path id="Tracé_10439" data-name="Tracé 10439" d="M1003.841,321.569c-.02-2.031-.675-4.112-.863-6.153a47.914,47.914,0,0,1-.183-5.894,50.318,50.318,0,0,1,2.061-12.706,56.046,56.046,0,0,1,12.813-21.937c.057-.063-.038-.2-.109-.138a45.247,45.247,0,0,0-14.09,21.445,51.135,51.135,0,0,0-2.349,12.715,49.551,49.551,0,0,0,.027,6.117c.147,2.153.208,4.712,1.06,6.716.363.851,1.642.946,1.631-.169" fill="#fff"/>
          <path id="Tracé_10440" data-name="Tracé 10440" d="M1058.066,343.509a32.673,32.673,0,0,0-5.839-2.573c-2.265-.925-4.528-1.855-6.8-2.766l-13.23-5.307c-8.764-3.5-17.564-7.157-26.567-10-.219-.069-.293.262-.11.353,8.312,4.173,17.012,7.652,25.591,11.236,4.267,1.788,8.55,3.535,12.826,5.3q3.393,1.4,6.8,2.779c2.2.891,4.5,2.176,6.832,2.6,1.036.185,1.294-1.086.5-1.614" fill="#fff"/>
          <path id="Tracé_10441" data-name="Tracé 10441" d="M1061.949,336.824l1.71-6.806q1.764-7,3.574-13.995c2.367-9.181,4.994-18.366,6.689-27.7.026-.141-.207-.283-.265-.12l-.015.043a.819.819,0,0,0-.466-.6,22.078,22.078,0,0,0-8.311-2.315.1.1,0,0,0-.067.024,8.926,8.926,0,0,0-3.149-.384c-.156.008-.138.215-.012.26,3.65,1.314,7.026,4.286,8.051,8.076a24.6,24.6,0,0,1-.943,9.231.809.809,0,0,0,.248.8c-1.052,3.8-2.061,7.613-3.105,11.4q-1.861,6.759-3.75,13.51-.642,2.277-1.282,4.552a11.309,11.309,0,0,1-4.209,4.819c-2.445,1.55-5.079,1.684-7.878,1.539-.994-.051-.9,1.441-.078,1.667a9.73,9.73,0,0,0,2.9.347.9.9,0,0,0,.695.65l2.951.588a.887.887,0,0,0,.941.678.811.811,0,0,0,1.03.475c.165-.068.324-.141.479-.219.3.661,1.248,1.109,1.586.252l.037-.106a.739.739,0,0,0,.893-.479,33.056,33.056,0,0,0,1.739-6.2m11.078-47.505a.662.662,0,0,0,.291-.123c-.12.35-.235.7-.354,1.054l.062-.931m-13.189,47.013c-.089.283-.179.568-.27.853a.934.934,0,0,0-.242-.146c.178-.229.35-.464.512-.707" fill="#fff"/>
          <path id="Tracé_10442" data-name="Tracé 10442" d="M1017.5,274.874a4.153,4.153,0,0,0-4.953-.594l-.01,0c-.008,0-.012.006-.012.013a6.281,6.281,0,0,0-2.237,1.95,13.693,13.693,0,0,0-1.7,3.591,62.146,62.146,0,0,0-4.531,11.307,70.811,70.811,0,0,0-1.9,7.735,57.912,57.912,0,0,0-2.026,6.881c-1,4.408-2.075,9.762-1.324,14.286.109.66,1.149,1.186,1.464.579a.8.8,0,0,0,.969-.586.811.811,0,0,0,.021-.25c.146-3.24.166-6.457.364-9.671.307.16.7.1.763-.335a121.008,121.008,0,0,1,3.108-17.386q.3-1.068.607-2.129a.935.935,0,0,1,.056-.141l.011-.014c1.665-2.437,3.08-5.011,4.595-7.542a.724.724,0,0,0,.1-.284c.067-.126.128-.254.2-.379a.831.831,0,0,0,.109-.087c1.42-1.515,2.825-3.049,4.269-4.54a.708.708,0,0,0,.133-.809c0-.013,0-.027.007-.041q.246-.232.484-.468a3.464,3.464,0,0,0,.379.054c.08.042.16.082.242.13.841.492,1.462-.653.821-1.267" fill="#fff"/>
          <path id="Tracé_10443" data-name="Tracé 10443" d="M1011.487,324.524a43.382,43.382,0,0,0-5.631-2.395c-.752-.289-1.8-.567-2.815-.938a3.5,3.5,0,0,0-.194-2.289,20.043,20.043,0,0,0-1.539-4.024,78.632,78.632,0,0,0,1.883-9.273c.081-.62-.952-1.325-1.2-.544-.944,2.916-1.9,5.827-2.825,8.748-.566,1.779-1.5,3.838-.922,5.725a3.612,3.612,0,0,0,.216.541,1,1,0,0,0,.455.8c.073.05.149.1.223.149a7.712,7.712,0,0,0,2.467,1.529c.375.2.752.4,1.133.584a1.041,1.041,0,0,0,.474.111,50.372,50.372,0,0,0,7.762,2.941c1.046.261,1.373-1.2.52-1.67" fill="#fff"/>
          <path id="Tracé_10444" data-name="Tracé 10444" d="M1106.83,254.845c.032-.014.065-.024.1-.038.258-.113.063-.552-.177-.543-3.729.126-7.632,1.544-11.217,2.517q-5.688,1.543-11.3,3.352a216.584,216.584,0,0,0-21.747,8.319c-.329.146-.032.769.294.637,7.281-2.946,14.662-5.655,22.142-8.053q5.433-1.74,10.94-3.235c1.925-.522,3.966-.915,5.974-1.393-5.406,1.937-10.781,3.985-16.2,5.865-6.647,2.3-13.564,4.293-19.969,7.215-.054.025-.006.114.046.1,6.976-1.639,13.788-4.35,20.571-6.634,6.827-2.3,13.756-4.33,20.563-6.659.7-.239.511-1.2-.009-1.452" fill="#fff"/>
          <path id="Tracé_10445" data-name="Tracé 10445" d="M1040.369,263.293a106.266,106.266,0,0,1-5.834-10.942c-1.574-3.641-2.733-7.4-4.067-11.128-.011-.029-.063-.032-.057.006a56.641,56.641,0,0,0,9.12,22.58.491.491,0,0,0,.88-.438.55.55,0,0,0-.045-.073" fill="#fff"/>
          <path id="Tracé_10446" data-name="Tracé 10446" d="M1042.345,262.471c-5.287-8.362-9.944-17.517-12.467-27.131a.043.043,0,0,0-.051-.033.045.045,0,0,0-.033.052v0c2.276,9.964,5.537,19.354,11.087,28.007a.862.862,0,1,0,1.538-.777.818.818,0,0,0-.074-.12" fill="#fff"/>
          <path id="Tracé_10447" data-name="Tracé 10447" d="M1083.337,365.931c.252-1.563-1.983-4.248-3.679-3.758a.123.123,0,0,0-.071.159.111.111,0,0,0,.035.05c.554.543,1.287.85,1.808,1.457a12.426,12.426,0,0,1,1.125,2.18.42.42,0,0,0,.785-.086" fill="#fff"/>
          <path id="Tracé_10448" data-name="Tracé 10448" d="M1031.924,357.57a53.776,53.776,0,0,0-7.16-3.181,66.949,66.949,0,0,0-7.872-3.093c-.118-.033-.15.129-.057.184a69.945,69.945,0,0,0,7.671,3.742,52.4,52.4,0,0,0,7.178,3.127c.5.14.613-.551.241-.779" fill="#fff"/>
          <path id="Tracé_10449" data-name="Tracé 10449" d="M1031.449,358.443a15.776,15.776,0,0,1-10.771,6.071c-.714.1-.377,1.258.249,1.265a11.622,11.622,0,0,0,10.579-7.289c.011-.034-.032-.085-.062-.048" fill="#fff"/>
          <path id="Tracé_10450" data-name="Tracé 10450" d="M1017.42,359.736c-1.323-2.055-1.216-5.268,1.156-6.575.058-.032,0-.122-.058-.1-2.712,1.223-4.075,4.917-1.788,7.254a.452.452,0,0,0,.689-.583" fill="#fff"/>
          <path id="Tracé_10451" data-name="Tracé 10451" d="M1022.5,364.8a20.534,20.534,0,0,0-4.37-4.356c-.04-.032-.1.007-.065.055a20.609,20.609,0,0,0,3.929,4.73c.313.247.752-.059.507-.428" fill="#fff"/>
          <path id="Tracé_10452" data-name="Tracé 10452" d="M995.339,409.772q5.429-13.083,11.706-25.791c3.619-7.319,7.685-14.417,11.22-21.774.026-.055-.059-.137-.1-.078a178.712,178.712,0,0,0-10.351,18.107q-5,9.6-9.5,19.451-2.169,4.756-4.224,9.56l1.251.526" fill="#fff"/>
          <path id="Tracé_10453" data-name="Tracé 10453" d="M1021.129,366.624a13.553,13.553,0,0,0,2.878,2.841.513.513,0,0,0,.708-.126,265.878,265.878,0,0,1-9.15,48.413q.792.289,1.586.573a270.54,270.54,0,0,0,6.974-29.522q2.091-11.768,3.077-23.689c.109-1.3-1.967-2.094-2.076-.641q-.159,2.123-.355,4.238a.575.575,0,0,0-.033-.076,13.78,13.78,0,0,0-2.892-2.824,23.017,23.017,0,0,0-3.107-2.347.042.042,0,0,0-.056.062,24.425,24.425,0,0,0,2.451,3.1" fill="#fff"/>
          <path id="Tracé_10454" data-name="Tracé 10454" d="M1023.408,370.454c-1.409-2.472-4.091-4.406-6.139-6.339a.035.035,0,0,0-.053.045c.866,1.266,1.675,2.555,2.6,3.789a17.132,17.132,0,0,0,2.69,3.271.593.593,0,0,0,.9-.766" fill="#fff"/>
          <path id="Tracé_10455" data-name="Tracé 10455" d="M998.661,335.671c-4.649,2.657-8.717,6.785-12.389,10.634a101.441,101.441,0,0,0-24.363,43.13c-.021.06.081.1.1.034a98.655,98.655,0,0,1,25.511-41.915c3.864-3.773,8.259-6.868,12.238-10.494.676-.614-.323-1.829-1.1-1.39" fill="#fff"/>
          <path id="Tracé_10456" data-name="Tracé 10456" d="M1081.068,363.882a27.534,27.534,0,0,1,5.171,6.679,27.092,27.092,0,0,1,2.619,8.862c.86,6.894-.291,13.773-1.509,20.55-1.972,10.973-6.007,28.447-8.914,39.211.409.043.816.088,1.225.13,1-3.894,3.452-13.982,4.173-16.822q2.878-11.355,5.138-22.86c1.337-6.784,2.66-13.84,1.722-20.767-.81-5.995-3.4-12.988-8.655-16.481-.987-.657-1.67.773-.969,1.5" fill="#fff"/>
          <path id="Tracé_10457" data-name="Tracé 10457" d="M1036.151,367.92a43.666,43.666,0,0,0-4.522-18.45.761.761,0,0,0-1.02-.315,61.2,61.2,0,0,1-5.586,3.664c-.055-.877-.307-1.791-.434-2.614-.139-.909-.264-1.818-.455-2.715.782-.716-.277-2.088-1.123-1.32-1.322,1.2-2.647,2.4-3.95,3.619-.978.918-2.32,1.794-2.668,3.137a.034.034,0,0,0,.028.04h0c1.36-.1,2.443-1.307,3.479-2.11,1.241-.96,2.468-1.94,3.687-2.922,0,.741.031,1.493.059,2.237a14.478,14.478,0,0,0,.216,3.364l-.013.009c-.067.041-.009.133.058.125.029.091.055.183.092.27.18.431.82.6.953.033a3.624,3.624,0,0,0,.082-.8c1.837-.826,3.672-1.679,5.571-2.345a82.046,82.046,0,0,1,3.814,17.03c.121,1.1,1.758,1.311,1.733.069" fill="#fff"/>
          <path id="Tracé_10458" data-name="Tracé 10458" d="M1051.976,428.377q.68.141,1.359.277l.831-3.418c1.5-6.165,3.2-12.324,4.272-18.592.029-.166-.283-.349-.35-.154-1.989,5.771-3.4,11.754-4.978,17.652Z" fill="#fff"/>
          <path id="Tracé_10459" data-name="Tracé 10459" d="M978.85,381.231c-.145.469-.293.937-.435,1.408q-2.65,8.8-4.54,17.8l.216.1a143.821,143.821,0,0,1,5.194-17.5c.157-.425.319-.843.48-1.269a.6.6,0,0,0,.6-.6.583.583,0,0,0-.02-.15c-.03-.174-.058-.347-.086-.52q1.375-3.535,2.909-7.005c1.387-3.144,3.352-6.374,4.236-9.687.185-.7-.905-1.555-1.409-.86-1.989,2.742-3.1,6.512-4.252,9.68q-.977,2.675-1.859,5.38a42.043,42.043,0,0,1,.024-12.541c.006-.036-.054-.076-.07-.032a26.265,26.265,0,0,0-1.009,15.74c.007.024.018.044.026.067" fill="#fff"/>
          <path id="Tracé_10460" data-name="Tracé 10460" d="M1058.363,407.619c.127-2.931-.505-5.952-.482-8.916a62.021,62.021,0,0,1,.792-9.582c.007-.046-.058-.072-.072-.025a43.574,43.574,0,0,0-1.895,9.775c-.186,2.751-.4,5.934.364,8.621a12.7,12.7,0,0,1-5.026-12.162c.008-.056-.069-.086-.086-.03a12.606,12.606,0,0,0,4.794,13.922c.725.521,1.26-.315,1.043-.983a.606.606,0,0,0,.571-.627" fill="#fff"/>
          <path id="Tracé_10461" data-name="Tracé 10461" d="M1018.917,349.839a40.556,40.556,0,0,0-5.595,4.465c-1.588,1.343-3.314,2.668-4.768,4.17.723-2.483,1.029-5.086,1.776-7.574.928-3.088,2.662-5.856,3.619-8.889.173-.548-.51-1.4-1.014-.8-1.827,2.189-2.763,5.5-3.522,8.222-.825,2.958-1.583,6.275-1.159,9.359-.081.088-.165.172-.243.26l.01,0c-.172.219.069.6.348.447a51.462,51.462,0,0,0,6.028-4.348,39.246,39.246,0,0,0,5.315-4.307c.442-.483-.221-1.346-.8-1.016" fill="#fff"/>
          <path id="Tracé_10462" data-name="Tracé 10462" d="M1048.47,357.863c-2.124,1.925-3.713,4.28-6.017,6.084-1.934,1.513-4.275,2.575-6.089,4.212-.023.021,0,.07.031.067,2.645-.2,5.263-1.936,7.33-3.486,2.124-1.6,4.649-3.607,5.858-6a.728.728,0,0,0-1.112-.874" fill="#fff"/>
          <path id="Tracé_10463" data-name="Tracé 10463" d="M1084.435,366.447c-8.467-1.612-16.978,2.674-19.872,10.933-.011.033.04.069.054.032,3.032-7.989,11.364-12.708,19.692-10.247.475.141.558-.635.125-.718" fill="#fff"/>
          <path id="Tracé_10464" data-name="Tracé 10464" d="M1001.45,334.6c-2.25.884-4.121,3.5-5.378,5.488-1.371,2.174-2.661,4.957-2.494,7.579,0,.041.063.072.083.029,1.094-2.375,1.7-4.765,3.266-6.932a16.655,16.655,0,0,1,2.156-2.483c.984-.909,2.212-1.47,3.128-2.432.439-.461-.125-1.5-.763-1.247" fill="#fff"/>
          <path id="Tracé_10465" data-name="Tracé 10465" d="M1045.922,399.7c-4.943-2.079-10.24-3.545-15.341-5.19-.049-.017-.054.058-.013.075,5.016,1.976,10.072,4.224,15.242,5.758.437.13.461-.5.116-.642" fill="#fff"/>
          <path id="Tracé_10466" data-name="Tracé 10466" d="M1027.343,406.486c1.082-3.737,2.535-7.593,3-11.467,0-.029-.039-.06-.055-.025-1.542,3.293-2.266,7.059-3.227,10.549-1.027,3.726-2.537,7.618-3.1,11.433-.021.14.194.285.265.12,1.429-3.31,2.118-7.147,3.122-10.611" fill="#fff"/>
          <path id="Tracé_10467" data-name="Tracé 10467" d="M1026.448,421.507l.88.284a31.227,31.227,0,0,0-3.425-4.551c-.048-.049-.1.011-.076.064a26.99,26.99,0,0,0,2.621,4.2" fill="#fff"/>
          <path id="Tracé_10468" data-name="Tracé 10468" d="M1041.08,425.806a3.256,3.256,0,0,0,.54-.482.358.358,0,0,0-.085-.5.353.353,0,0,0-.177-.065,5,5,0,0,0-2.064.571q.893.242,1.786.476" fill="#fff"/>
          <path id="Tracé_10469" data-name="Tracé 10469" d="M1030.979,397.63c2.718,1.089,5.437,2.22,8.177,3.3l0,.006c-1.348,4.306-2.559,8.652-3.775,13-.876,3.131-1.957,6.3-2.82,9.479.366.11.73.221,1.1.328.773-2.93,1.37-5.935,2.114-8.829,1.194-4.638,2.4-9.272,3.455-13.944a.013.013,0,0,0,0-.011c2.916,1.148,5.857,2.23,8.844,3.14-.065.4-.133.8-.214,1.2-.423,2.062-.9,4.113-1.463,6.139a100.321,100.321,0,0,1-4.574,12.531c-.018.051.049.1.08.049a64.562,64.562,0,0,0,5.427-12.158c1.216-3.641,2.793-7.912,2.671-11.78-.015-.47-.824-.893-1.026-.316a17.188,17.188,0,0,0-.675,2.911c-5.627-2.1-11.515-3.545-17.29-5.143-.07-.024-.075.08-.017.1" fill="#fff"/>
          <path id="Tracé_10470" data-name="Tracé 10470" d="M1080.935,438.014c-3.96-1.853-8.234-2.995-12.354-4.414l-12.388-4.269q-12.138-4.182-24.288-8.333c-16.2-5.52-32.388-11.069-48.6-16.537-9.252-3.119-18.46-6.4-27.88-9-.251-.069-.339.488-.134.572,16,6.644,32.558,11.881,48.9,17.573q24.258,8.451,48.53,16.862l13.874,4.781c4.6,1.585,9.147,3.553,13.908,4.637.848.193,1.092-1.574.436-1.881" fill="#fff"/>
          <path id="Tracé_10471" data-name="Tracé 10471" d="M960.723,395.252a26.644,26.644,0,0,0,.656-3.936c0-.021-.03-.046-.044-.015a18.746,18.746,0,0,0-1.018,3.055,6.821,6.821,0,0,1-.776,2.041,1.6,1.6,0,0,0-.365.969c-.075.664.979,1.426,1.3.587.351-.922.035-1.714.249-2.7" fill="#fff"/>
          <path id="Tracé_10472" data-name="Tracé 10472" d="M1067.8,299.7s1.322-9.777-5.387-11.834-42.726-10.375-42.726-10.375-2.838.813-3.232,1.956c0,0-9.986,11.9-11.065,20.233s-.351,19.577-.351,19.577l2.2,1.782L1048,337.133s8.776,2,11.061-4.631,8.745-32.8,8.745-32.8m-59.8,11.885c-3.189-8.507,2.265-18.375,7.2-25.052,1.619-2.194,5.044.315,3.415,2.507-4.1,5.52-8.723,13.758-6.579,20.853.8,2.634-3.025,4.377-4.031,1.692m11.4-26.208c-2.7-.931-1.506-5.224,1.211-4.288,2.7.931,1.506,5.224-1.211,4.288" fill="#fff"/>
        </g>
      </g>
    </g>
  </g>
</svg>
