<svg id="Groupe_711" data-name="Groupe 711" xmlns="http://www.w3.org/2000/svg" xmlns:xlink="http://www.w3.org/1999/xlink" width="22.16" height="21.928" viewBox="0 0 22.16 21.928">
  <defs>
    <clipPath id="clip-path">
      <rect id="Rectangle_2337" data-name="Rectangle 2337" width="22.16" height="21.928" fill="none"/>
    </clipPath>
  </defs>
  <g id="Groupe_653" data-name="Groupe 653" clip-path="url(#clip-path)">
    <path id="Tracé_11151" data-name="Tracé 11151" d="M5.487.968a4.836,4.836,0,0,0-1.91,2.694A3.532,3.532,0,0,0,4.161,6.67,4.781,4.781,0,0,0,5.522,7.878l.078.045-.312-.01a6.332,6.332,0,0,0-2.909.561,4.022,4.022,0,0,0-2.3,2.841A4.482,4.482,0,0,0,.757,14.58,4.229,4.229,0,0,0,3.01,16.459a3.306,3.306,0,0,0,1.122.173,4.113,4.113,0,0,0,1.929-.488,6.5,6.5,0,0,0,.933-.582.715.715,0,0,1,.116-.083s-.062.128-.144.281a12.824,12.824,0,0,0-1.526,4.106,4.1,4.1,0,0,0,0,.98,1.656,1.656,0,0,0,.237.6c.244.374.535.547.772.457a.593.593,0,0,0,.279-.26l.045-.087,0-.606A7.806,7.806,0,0,1,6.943,19.2,13.956,13.956,0,0,1,9.65,13.68c.237-.317.62-.807.625-.8a1,1,0,0,1-.01.135c-.009.071-.026.3-.04.511a9.85,9.85,0,0,0,1.155,6.052A3.765,3.765,0,0,0,13.4,21.152a4.7,4.7,0,0,0,4.2-1.172,4.258,4.258,0,0,0,1.605-2.748,5.069,5.069,0,0,0-.023-1.171,6.458,6.458,0,0,0-3.034-4.022c-.138-.1-.232-.166-.208-.161a11.076,11.076,0,0,0,2.087.393,7.593,7.593,0,0,0,1.186-.026,3.174,3.174,0,0,0,2.89-2.989,8.429,8.429,0,0,0-.377-3.463,6.292,6.292,0,0,0-.464-1.183,4.581,4.581,0,0,0-2.984-2.436,3.949,3.949,0,0,0-2.144.13A6.413,6.413,0,0,0,12.766,5.61a1.489,1.489,0,0,1-.146.253c0-.013.012-.134.028-.268A10.442,10.442,0,0,0,12.673,4.2a5.115,5.115,0,0,0-.764-2.5A3.781,3.781,0,0,0,9.061.021,5.428,5.428,0,0,0,5.487.968" transform="translate(0 0)" fill="#be870e"/>
  </g>
</svg>
