<svg xmlns="http://www.w3.org/2000/svg" width="22.155" height="21.928" viewBox="0 0 22.155 21.928">
  <g id="_23901" data-name="23901" transform="translate(-0.107 1266.853)">
    <path id="Tracé_11150" data-name="Tracé 11150" d="M13.2-1266.828a3.778,3.778,0,0,0-2.848,1.679,5.108,5.108,0,0,0-.763,2.5,10.452,10.452,0,0,0,.026,1.394c.016.133.026.254.028.268a1.494,1.494,0,0,1-.145-.253,6.412,6.412,0,0,0-3.372-3.3,3.948,3.948,0,0,0-2.143-.13A4.577,4.577,0,0,0,1-1262.239a6.289,6.289,0,0,0-.464,1.182,8.428,8.428,0,0,0-.377,3.462,3.172,3.172,0,0,0,2.889,2.988,7.609,7.609,0,0,0,1.186.026,11.074,11.074,0,0,0,2.086-.393c.024-.005-.069.066-.208.161a6.453,6.453,0,0,0-3.033,4.021,5.066,5.066,0,0,0-.023,1.17,4.256,4.256,0,0,0,1.6,2.747,4.7,4.7,0,0,0,4.2,1.172,3.764,3.764,0,0,0,2.02-1.575,9.847,9.847,0,0,0,1.155-6.05c-.014-.209-.031-.44-.04-.511a1.014,1.014,0,0,1-.01-.135c.005-.005.388.485.625.8a13.952,13.952,0,0,1,2.706,5.522,7.8,7.8,0,0,1,.166,1.748l0,.606.045.086a.593.593,0,0,0,.279.26c.237.09.528-.083.772-.457a1.657,1.657,0,0,0,.237-.6,4.1,4.1,0,0,0,0-.98,12.809,12.809,0,0,0-1.525-4.1c-.081-.152-.147-.279-.144-.28a.709.709,0,0,1,.116.083,6.519,6.519,0,0,0,.933.582,4.114,4.114,0,0,0,1.928.488,3.3,3.3,0,0,0,1.122-.173,4.228,4.228,0,0,0,2.252-1.878,4.48,4.48,0,0,0,.679-3.263,4.021,4.021,0,0,0-2.3-2.841,6.331,6.331,0,0,0-2.908-.561l-.312.011.078-.045a4.78,4.78,0,0,0,1.361-1.208,3.531,3.531,0,0,0,.583-3.007,4.834,4.834,0,0,0-1.909-2.694A5.426,5.426,0,0,0,13.2-1266.828Z" transform="translate(0)" fill="#be870e"/>
  </g>
</svg>
