<svg id="Groupe_248" data-name="Groupe 248" xmlns="http://www.w3.org/2000/svg" xmlns:xlink="http://www.w3.org/1999/xlink" width="173.305" height="101.179" viewBox="0 0 173.305 101.179">
  <defs>
    <clipPath id="clip-path">
      <rect id="Rectangle_2207" data-name="Rectangle 2207" width="173.305" height="101.179" fill="none"/>
    </clipPath>
  </defs>
  <g id="Groupe_247" data-name="Groupe 247" clip-path="url(#clip-path)">
    <path id="Tracé_10063" data-name="Tracé 10063" d="M88.772,57.305a23.28,23.28,0,0,1-6.262,4.037c-2.312.92-4.632,1.235-6.912-.109-.365-.214-.49-.059-.656.263a25.894,25.894,0,0,1-1.87,3.294,1.125,1.125,0,0,0-.324.509,20.179,20.179,0,0,1-5.963,6.646.969.969,0,0,0-.537.314c-.222.1-.5.1-.665.315l-.052.023h-.056c-.285.1-.612.079-.864.282a5.528,5.528,0,0,1-4.871-1.208,1.069,1.069,0,0,0-.653-.514l-.311-.355c-.129-.161-.159-.4-.382-.493a7.7,7.7,0,0,1-1.52-4.321,26.642,26.642,0,0,1-.011-2.812,12.468,12.468,0,0,0,.28-2.018,6.411,6.411,0,0,1,.483-2.249c.239-.16-.011-.453.171-.628.234-1.348.819-2.6,1.181-4.028-.558.272-.655.742-.847,1.121a50.744,50.744,0,0,0-2.933,8.2c-.414,1.34-.65,2.781-1.729,3.828-.2.079-.416.133-.523.35a2.181,2.181,0,0,1-3-.731,2.071,2.071,0,0,1-.158-.316,6.6,6.6,0,0,1-.765-2.852c-.168-.546-.015-1.149-.3-1.674L48.7,61.9a10.518,10.518,0,0,1-.147-2.738,2.372,2.372,0,0,1,.137-1.046,39.788,39.788,0,0,1,1.716-7.965c.264-.148.113-.454.246-.652a18.66,18.66,0,0,1,1.886-4.7,3.4,3.4,0,0,1,4.839-.9c.364.225.687.516,1.028.776.224.08.231.325.365.473.16.463.361.5.736.16a5.207,5.207,0,0,1,6.4-.877,6.722,6.722,0,0,1,3.349,6.976,34.724,34.724,0,0,1-2.871,7.612A27.065,27.065,0,0,0,64.2,65.013c-.029.155-.036.313-.067.6a10.872,10.872,0,0,0,1.81-1.822c2.182-2.4,3.828-5.2,5.8-7.765.183-.112.22-.327.337-.485.46-.505.239-1.124.284-1.7.027-.348.039-.7.059-1.048.279-.526.13-1.129.294-1.675A10.43,10.43,0,0,1,76.1,44.863l.539-.479c.106-.209.325-.251.51-.341a13.84,13.84,0,0,1,6.823-1.93,12.207,12.207,0,0,1,4.556.944,4.481,4.481,0,0,1,1.367.978c.2.111.249.327.338.513.194.5.256,1.175.62,1.435.318.23.973-.028,1.479-.031a2.625,2.625,0,0,1,2.76,2.226c.166.737.306,1.479.454,2.219.074.369.166.554.558.217,1.1-.95,2.233-1.872,3.36-2.791a1.044,1.044,0,0,0,.287-.732,19.959,19.959,0,0,1,2.187-6.482,10.846,10.846,0,0,1,7.6-5.628c2.083-.389,4.755,1.621,5.05,3.78a9.827,9.827,0,0,1-2.839,8.5,24.75,24.75,0,0,0-3.724,4.67c-.092.159-.177.33-.268.494a1.436,1.436,0,0,0-.009,1.6c.364.431.95.021,1.431-.09a4.859,4.859,0,0,0,.532-.186c.212-.123.508-.088.648-.345l.474-.315c.176-.1.383-.144.5-.326,2.1-1.572,3.565-3.729,5.206-5.722a.43.43,0,0,1,.047-.065c1.573-1.325,1.743-3.158,1.888-5.033a83.733,83.733,0,0,1,1.425-9.689,128.511,128.511,0,0,1,3.126-12.546A82.534,82.534,0,0,1,128.552,5.4a1.342,1.342,0,0,0,.3-.533A15.509,15.509,0,0,1,130.9,1.42a3.681,3.681,0,0,1,6.436,1.227,2.269,2.269,0,0,1,.213.934c-.008,1.561,0,3.12,0,4.681a.505.505,0,0,1-.1.378l.006-.008c-.189.42.035.882-.133,1.3a63.281,63.281,0,0,1-8.253,24.257,9.32,9.32,0,0,0-1.008,3.046,103.515,103.515,0,0,0-1.682,13.974,38.629,38.629,0,0,0,.274,6.044,73.788,73.788,0,0,0,6.755-10,1.517,1.517,0,0,0,.318-.509l1.628-2.733a1.384,1.384,0,0,0,.319-.518,31.131,31.131,0,0,1,2.3-3.509,2.017,2.017,0,0,1,2.56-.763,2.2,2.2,0,0,1,1.067,2.559,33,33,0,0,1-2.062,4.822c-1.8,3.827-3.588,7.659-5.511,11.424a19.261,19.261,0,0,1-4.607,6.171,6.566,6.566,0,0,1-7.694.266c-.126-.18-.334-.231-.512-.333a4.387,4.387,0,0,1-1.766-2.254c-.182-.314-.056-.725-.319-1.011a4.927,4.927,0,0,1-.332-1.567c-.187-.32.1-.747-.234-1.033l-.519-3.738c-.9.948-1.7,1.873-2.577,2.719A13.048,13.048,0,0,1,110,60.713a8.231,8.231,0,0,1-4.154.176c-.389-.311-.9-.12-1.319-.331a5.588,5.588,0,0,1-3.246-2.4,1.426,1.426,0,0,0-.318-.536,4.915,4.915,0,0,1-.707-1.62c-.166-.648-.375-.463-.714-.1a10.085,10.085,0,0,0-3.208,6.659c-.111,2.545-.717,5.065-1.057,7.6-.463,3.447-.974,6.885-1.777,10.271-1.373,5.8-3.225,11.409-6.922,16.22a15.163,15.163,0,0,1-3.882,3.738,5.258,5.258,0,0,1-5.4.08,1.457,1.457,0,0,0-.537-.315,8.014,8.014,0,0,1-3.706-6.131,2.94,2.94,0,0,1-.072-.842c0-.041.126-.212-.085-.154a12.142,12.142,0,0,1,.016-4.092,48.8,48.8,0,0,1,5.666-16.05,1.08,1.08,0,0,0,.306-.541A51.5,51.5,0,0,1,83.4,65.091c.214-.1.261-.324.353-.511,1.226-1.834,2.64-3.525,4-5.255.525-.667,1.055-1.331,1.583-1.994,0-.361.323-.519.576-.938a3.56,3.56,0,0,1-1.139.911" fill="#be7e01"/>
    <path id="Tracé_10064" data-name="Tracé 10064" d="M36.055,70.933a22.334,22.334,0,0,1-.975-3.853c-.151-.434-.023-.931-.3-1.337a9.743,9.743,0,0,1-.355-2.212,6.841,6.841,0,0,1-.063-1.444c-.005-.08,0-.16,0-.239a.387.387,0,0,1-.1.231,49.949,49.949,0,0,1-.291-6.378c.01-1.082.006-1.126-1.072-.957-2.319.362-4.63.775-6.945,1.164a2.915,2.915,0,0,0-1.495.914,58.357,58.357,0,0,0-5.5,6.243,47.442,47.442,0,0,1-9.074,9.293c-.283.2-.591.37-.887.554a1.15,1.15,0,0,0-.516.319,13.83,13.83,0,0,1-3.476,1.63,3.273,3.273,0,0,1-3.682-1.1,1.6,1.6,0,0,0-.293-.558,3.068,3.068,0,0,1,1.082-2.975A158.811,158.811,0,0,0,13.545,57.49c.1-.125.217-.24.309-.374s.319-.268.239-.478-.331-.111-.505-.137c-1.009-.15-2.041-.072-3.039-.315.214-.159.463-.056.673-.087.129,0-.023-.139.02-.039a11.155,11.155,0,0,1-2.325-.033l-1.088-.035A16.945,16.945,0,0,0,5.3,55.759a1.273,1.273,0,0,0-.753-.24,6.609,6.609,0,0,1-2.8-.577,2.123,2.123,0,0,0-.718-.07A1.889,1.889,0,0,1,.053,52.75c.165-.822.809-1.121,1.544-1.356a104.739,104.739,0,0,1,11.61-2.53c2.617-.531,5.235-1.058,7.878-1.442.461-.067.676-.4.924-.718A93.224,93.224,0,0,0,28.958,36.29c.08-.139.185-.263.279-.394a.977.977,0,0,0,.318-.539c2.915-5.237,5.521-10.631,8.2-15.987a9.9,9.9,0,0,1,.61-.942c.049-.226.319-.213.416-.391,1.914-1.215,3.852-1.41,5.692.677.2.112.247.325.336.51l.383,1.112c.128.425-.07.878.119,1.3l.015.319a64.226,64.226,0,0,1,.007,6.479c-.319,4.87-.94,9.717-1.182,14.592-.039.773.218.969.936.985a4.385,4.385,0,0,1,4.129,2.5,3.238,3.238,0,0,1-1.162,4.319,11.85,11.85,0,0,1-3.779,1.594c-.55.142-.69.421-.764.951-.654,4.689-.642,9.414-.835,14.129-.1,2.4-.074,4.806-.408,7.189a2.425,2.425,0,0,1-4.766.662,13.69,13.69,0,0,1-.473-1.449c-.178-.313-.023-.739-.346-1a1.578,1.578,0,0,1-.3-.946c-.169-.32-.051-.733-.319-1.022" fill="#bf7e01"/>
    <path id="Tracé_10065" data-name="Tracé 10065" d="M150.262,49.64a22.58,22.58,0,0,1,3.364-4.825c.486-.58.6-.944-.045-1.485a18.559,18.559,0,0,1-1.658-1.764c-.152-.134-.168-.378-.378-.466a7.83,7.83,0,0,1-1.914-4.187,14.775,14.775,0,0,1,0-3.828,9.43,9.43,0,0,1,1.332-3.758,11.28,11.28,0,0,1,4.8-5.137c.243-.071.513-.079.7-.292a8.8,8.8,0,0,1,5.091.862,2,2,0,0,1,1.1,1.607,20.037,20.037,0,0,0,2.171,7.151,4.485,4.485,0,0,1,.45,2.34c1.312-.573,2.473-1.268,3.743-1.707.484-.166.969-.345,1.466-.463a2.342,2.342,0,0,1,2.5.943,1.9,1.9,0,0,1-.262,2.461A22.6,22.6,0,0,1,167.9,41.1q-1.143.837-2.29,1.667c-.35.252-.49.5-.22.941,1.846,3,1.777,6.2.915,9.466a21.271,21.271,0,0,1-4.38,8.571,8.989,8.989,0,0,1-8.631,3.357A2.667,2.667,0,0,1,151.9,64.5c-.1-.213-.33-.256-.513-.361a7.324,7.324,0,0,1-3.059-5.148,14.847,14.847,0,0,1,0-4.334,13.439,13.439,0,0,1,1.637-4.476,1.166,1.166,0,0,0,.3-.54" fill="#be7e01"/>
    <path id="Tracé_10066" data-name="Tracé 10066" d="M142.8,15.773a38.6,38.6,0,0,1-2.837,3.4,1.69,1.69,0,0,1-1.956.548,1.552,1.552,0,0,1-1-1.754,25.853,25.853,0,0,1,1.6-6.725,1.189,1.189,0,0,0,.3-.537c1.14-2.017,2.666-2.518,4.291-1.391A2.708,2.708,0,0,1,144.37,11.9a7.464,7.464,0,0,1-1.236,3.368c-.1.174-.144.385-.329.5" fill="#be7e01"/>
    <path id="Tracé_10067" data-name="Tracé 10067" d="M1.017,54.88c.638-.537,1.181.106,1.7.239a8.487,8.487,0,0,0,1.963.249c.244.006.5-.027.559.31a.3.3,0,0,1-.381.032,10,10,0,0,1-3.845-.832" fill="#b58216"/>
    <path id="Tracé_10068" data-name="Tracé 10068" d="M148.328,54.656q0,2.166,0,4.334a7.542,7.542,0,0,1,0-4.334" fill="#b08434"/>
    <path id="Tracé_10069" data-name="Tracé 10069" d="M149.625,33.09q0,1.914.005,3.828a6.855,6.855,0,0,1-.005-3.828" fill="#a9853e"/>
    <path id="Tracé_10070" data-name="Tracé 10070" d="M57.146,61.151c0,.645,0,1.29.01,1.935.008.429-.156.186-.289.079a5.089,5.089,0,0,1,.279-2.018" fill="#b28531"/>
    <path id="Tracé_10071" data-name="Tracé 10071" d="M4.862,55.711l.38-.032c.646.007,1.292,0,1.938.024.246.007.57-.111.645.292l-.159,0c-.595-.159-1.216.061-1.809-.126a1.512,1.512,0,0,1-.992-.154" fill="#aa853e"/>
    <path id="Tracé_10072" data-name="Tracé 10072" d="M8.913,56.03H11.7a2.692,2.692,0,0,1-1.159.16,4.254,4.254,0,0,1-1.633-.16" fill="#a9823f"/>
    <path id="Tracé_10073" data-name="Tracé 10073" d="M48.73,62.174c.653.459.178,1.116.3,1.674a3.479,3.479,0,0,1-.3-1.674" fill="#a87a19"/>
    <path id="Tracé_10074" data-name="Tracé 10074" d="M72.715,51.1c-.121.558.355,1.214-.3,1.675a3.286,3.286,0,0,1,.3-1.675" fill="#ab7b17"/>
    <path id="Tracé_10075" data-name="Tracé 10075" d="M34.264,62.076c.045-.228-.063-.479.16-.774V63.53a3.167,3.167,0,0,1-.16-1.454" fill="#9e804c"/>
    <path id="Tracé_10076" data-name="Tracé 10076" d="M104.522,60.561c.437.122,1.016-.319,1.319.331a2.09,2.09,0,0,1-1.319-.331" fill="#a97e1c"/>
    <path id="Tracé_10077" data-name="Tracé 10077" d="M34.78,65.743c.606.332.206.891.3,1.337a2.7,2.7,0,0,1-.3-1.337" fill="#a37321"/>
    <path id="Tracé_10078" data-name="Tracé 10078" d="M5.854,55.864c.6.069,1.223-.159,1.81.125a5.567,5.567,0,0,1-1.81-.125" fill="#bf7e01"/>
    <path id="Tracé_10079" data-name="Tracé 10079" d="M72.885,93.034l.049-.515.107.013v1.5a1.66,1.66,0,0,1-.159-1" fill="#a1824b"/>
    <path id="Tracé_10080" data-name="Tracé 10080" d="M36.055,70.933c.588.19.245.671.319,1.021a1.466,1.466,0,0,1-.319-1.021" fill="#a07622"/>
    <path id="Tracé_10081" data-name="Tracé 10081" d="M119.133,60.874c.578.187.238.666.318,1.01a1.34,1.34,0,0,1-.318-1.01" fill="#a87421"/>
    <path id="Tracé_10082" data-name="Tracé 10082" d="M36.68,72.9c.638.154.263.655.345,1a1.6,1.6,0,0,1-.345-1" fill="#ad781c"/>
    <path id="Tracé_10083" data-name="Tracé 10083" d="M59.091,71.149c.533-.229.544.2.653.513a1.361,1.361,0,0,1-.653-.513" fill="#a17c30"/>
    <path id="Tracé_10084" data-name="Tracé 10084" d="M118.566,58.276c.079-.023.159-.336.221-.067a4.857,4.857,0,0,1,.011,1.1,2.62,2.62,0,0,1-.233-1.031" fill="#a48540"/>
    <path id="Tracé_10085" data-name="Tracé 10085" d="M64.615,72.871c.152-.506.558-.25.863-.283a1.141,1.141,0,0,1-.863.283" fill="#a17720"/>
    <path id="Tracé_10086" data-name="Tracé 10086" d="M156.452,23.9c-.084.448-.426.285-.7.292a.941.941,0,0,1,.7-.292" fill="#9b7020"/>
    <path id="Tracé_10087" data-name="Tracé 10087" d="M65.587,72.566c.066-.433.4-.305.665-.314a.906.906,0,0,1-.665.314" fill="#a17720"/>
    <path id="Tracé_10088" data-name="Tracé 10088" d="M110.365,53.4c-.035.454-.379.329-.647.346a1.109,1.109,0,0,1,.647-.346" fill="#9c7323"/>
    <path id="Tracé_10089" data-name="Tracé 10089" d="M48.7,59.094l-.117.016-.016-.817.128-.177c0,.327,0,.652.005.978" fill="#70604b"/>
    <path id="Tracé_10090" data-name="Tracé 10090" d="M57.8,58.274v.717c0,.093-.051.138-.128.063-.032-.032-.03-.1-.042-.151a.846.846,0,0,1,.17-.629" fill="#ac8338"/>
    <path id="Tracé_10091" data-name="Tracé 10091" d="M121.219,64.138c.258-.021.5-.017.513.334a.668.668,0,0,1-.513-.334" fill="#99772d"/>
    <path id="Tracé_10092" data-name="Tracé 10092" d="M100.955,57.627c.337.041.354.273.322.537a.689.689,0,0,1-.322-.537" fill="#977632"/>
    <path id="Tracé_10093" data-name="Tracé 10093" d="M72.078,55.527c.017.251,0,.479-.337.485a.631.631,0,0,1,.337-.485" fill="#986a2a"/>
    <path id="Tracé_10094" data-name="Tracé 10094" d="M151.391,64.138c.275-.029.513,0,.513.361a.752.752,0,0,1-.513-.361" fill="#a27c2b"/>
    <path id="Tracé_10095" data-name="Tracé 10095" d="M83.75,64.583c.033.273.014.512-.353.511a.811.811,0,0,1,.353-.511" fill="#a67926"/>
    <path id="Tracé_10096" data-name="Tracé 10096" d="M111.341,52.757c-.013.347-.247.352-.5.326a.681.681,0,0,1,.5-.326" fill="#9b7024"/>
    <path id="Tracé_10097" data-name="Tracé 10097" d="M150.261,49.641c.036.254.055.5-.3.54a.7.7,0,0,1,.3-.54" fill="#9d722a"/>
    <path id="Tracé_10098" data-name="Tracé 10098" d="M50.656,49.5c-.043.233.171.563-.248.652a1.321,1.321,0,0,1,.248-.652" fill="#a38145"/>
    <path id="Tracé_10099" data-name="Tracé 10099" d="M133.726,46.749c.022.248.017.479-.319.508a.635.635,0,0,1,.319-.508" fill="#906f26"/>
    <path id="Tracé_10100" data-name="Tracé 10100" d="M72.748,65.295c-.027-.256-.026-.494.325-.509a.7.7,0,0,1-.325.509" fill="#9b7424"/>
    <path id="Tracé_10101" data-name="Tracé 10101" d="M135.67,43.5c.028.255.022.488-.319.518a.674.674,0,0,1,.319-.518" fill="#946f2d"/>
    <path id="Tracé_10102" data-name="Tracé 10102" d="M52.947,67.746c0-.381.247-.387.523-.351a.76.76,0,0,1-.523.351" fill="#ab7f24"/>
    <path id="Tracé_10103" data-name="Tracé 10103" d="M151.546,41.1c.332-.012.374.212.378.466a.646.646,0,0,1-.378-.466" fill="#8a6f2f"/>
    <path id="Tracé_10104" data-name="Tracé 10104" d="M58.4,70.3c.349-.009.4.215.383.492A.74.74,0,0,1,58.4,70.3" fill="#9e7831"/>
    <path id="Tracé_10105" data-name="Tracé 10105" d="M66.248,72.255c.022-.372.277-.346.537-.313a.729.729,0,0,1-.537.313" fill="#a47926"/>
    <path id="Tracé_10106" data-name="Tracé 10106" d="M78.873,72.351c.035.258.052.506-.306.54a.749.749,0,0,1,.306-.54" fill="#9f7627"/>
    <path id="Tracé_10107" data-name="Tracé 10107" d="M8.483,73.228c.02-.353.26-.349.517-.318a.7.7,0,0,1-.517.318" fill="#987426"/>
    <path id="Tracé_10108" data-name="Tracé 10108" d="M29.549,35.359c.036.263.048.512-.32.538a.766.766,0,0,1,.32-.538" fill="#a17c23"/>
    <path id="Tracé_10109" data-name="Tracé 10109" d="M1.033,73.2c.343.056.319.3.292.559a.632.632,0,0,1-.292-.559" fill="#9a7731"/>
    <path id="Tracé_10110" data-name="Tracé 10110" d="M76.748,100.162c.257-.028.5-.033.537.312a.69.69,0,0,1-.537-.312" fill="#917735"/>
    <path id="Tracé_10111" data-name="Tracé 10111" d="M138.907,10.709c.036.257.045.5-.3.537a.681.681,0,0,1,.3-.537" fill="#9e7625"/>
    <path id="Tracé_10112" data-name="Tracé 10112" d="M128.849,4.871c.032.25.045.489-.3.533a.677.677,0,0,1,.3-.533" fill="#957327"/>
    <path id="Tracé_10113" data-name="Tracé 10113" d="M93.191,74.2l-.677,3.863c-.165.428-.017.927-.3,1.326q-.5,2.085-1,4.167c-.171.319-.038.732-.325,1.013-.49,1.3-.968,2.6-1.472,3.894a34.628,34.628,0,0,1-3.059,5.99c-.117.165-.15.387-.344.5-1.01,1.254-2.153,2.383-3.27,3.536-1.576,1.622-4.435,1.188-5.81-.019a7.98,7.98,0,0,1-2.539-5.5,15.554,15.554,0,0,1,.3-5.469,9.245,9.245,0,0,0,.3-1.323,36.245,36.245,0,0,1,1.748-5.684,65.354,65.354,0,0,1,6.671-12.793c1.141-1.72,2.4-3.349,3.6-5.023.129-.152.151-.38.347-.479a59.466,59.466,0,0,0,3.96-4.87,4.983,4.983,0,0,0,.256-4.376c-.178-.536-.483-.19-.711.048a51.992,51.992,0,0,1-3.915,3.828c-.224.189-.479.345-.718.516-.192.08-.409.129-.509.346a12.164,12.164,0,0,1-5.933,2.837,4.544,4.544,0,0,1-4.978-2.253,51.671,51.671,0,0,1-3.083,5.866,22.58,22.58,0,0,1-5.456,6.374c-2.945,2.159-6.014.509-7.176-1.985-.155-.257-.076-.605-.326-.824a14.233,14.233,0,0,1-.164-6.387A57.7,57.7,0,0,1,61.2,52.626a1.526,1.526,0,0,0-.15-1.455.654.654,0,0,0-.926-.02c-.011.01-.021.021-.031.032-2.637,1.276-3.566,3.8-4.514,6.278a37.912,37.912,0,0,0-1.667,5.356c-.2.3-.061.711-.319,1q-.337.894-.673,1.786c-.19.507-.488.968-1.072.917s-.819-.525-.861-1.084a1.565,1.565,0,0,1-.123-.895c.033-.19-.148,0-.18-.086-.009-.1-.019-.2-.029-.3-.2-.53.024-1.14-.3-1.647l-.023-.295a15.322,15.322,0,0,1,0-4.288,21.514,21.514,0,0,1,1.043-5.615,51.9,51.9,0,0,1,2.073-6,2.129,2.129,0,0,1,3.682-.686c.113.116.234.223.351.334a1.457,1.457,0,0,1,.319.522.283.283,0,0,0,.025.121,1.16,1.16,0,0,1,.014,1.314c-.08.38-.378.685-.365,1.095-.027.213-.405.552.193.543.93-1,1.733-2.11,2.764-3.018a4,4,0,0,1,6.14.355c.107.12.21.245.319.366.178.129.222.344.335.513l.651,1.754a1.334,1.334,0,0,1,.012,1.312c-.046.546-.382,1.029-.344,1.6-.193.307-.051.718-.319,1-1.347,3.281-3.019,6.425-4.157,9.794a2.627,2.627,0,0,0-.066.559c-.191.422-.038.923-.3,1.329l-.033.286c-.08.136-.053.3-.11.439a9.183,9.183,0,0,0,0,1.707c.033.068.067.135.1.2a.6.6,0,0,0,.669.279c.2-.194.482-.18.709-.305a11.022,11.022,0,0,0,2.951-2.817c2.533-2.758,4.42-6,6.681-8.965a1.677,1.677,0,0,0,.212-1.162,12.3,12.3,0,0,1,1.729-7.017,8.279,8.279,0,0,1,4.536-3.412c.757-.27,1.55-.44,2.326-.656a5.422,5.422,0,0,1,2.92.007l0,.007c.308.178.718-.073.995.238l.6.088c.586.2,1.276.2,1.645.834.192.478.794.886.523,1.435-.31.631-1.018.466-1.6.5a12.87,12.87,0,0,0-4.138.59,7.147,7.147,0,0,0-3.827,4.032,8.483,8.483,0,0,0-.673,4.263c.039.435.036.933.485,1.122.432.182.816-.115,1.17-.38a41.085,41.085,0,0,0,4.821-4.737,13.991,13.991,0,0,1,5.4-3.944,3.313,3.313,0,0,1,2.363-.143c.218.092.239.326.357.491.458,1.6.7,3.257,1.053,4.885.055.251.051.623.307.712.281.1.418-.268.607-.436.877-.785,1.738-1.585,2.605-2.379.079-.222.328-.226.468-.369.744-.6,1.472-1.226,2.241-1.794a1.559,1.559,0,0,0,.521-1.123c.3-.511.122-1.116.312-1.647l.026-.295c.228-.3.129-.689.293-1.005a12.4,12.4,0,0,1,3.588-6.092c.116-.109.223-.228.333-.342.1-.205.328-.227.485-.35l1.782-.957c.271-.3.691-.152,1-.333a3.464,3.464,0,0,1,3.655,1.561,1.257,1.257,0,0,1,.225.661,9.857,9.857,0,0,1,.126,2.64.751.751,0,0,1-.085.281,7.735,7.735,0,0,1-2.212,4.276,40.643,40.643,0,0,0-4.067,5.053,4.641,4.641,0,0,0-.569,3.321c.15,1.023,1.248,1.557,2.552,1.293a4.184,4.184,0,0,0,.673-.257c.247-.314.685-.111.957-.355a6.542,6.542,0,0,0,1.631-.957c.121-.173.339-.2.491-.333a20.463,20.463,0,0,0,3.947-4.1c1-1.15,1.884-2.409,2.845-3.6a2.1,2.1,0,0,0,.494-1.315,68.283,68.283,0,0,1,.885-7.863c.219-1.41.423-2.821.757-4.209.281-.406.16-.9.3-1.339a8.474,8.474,0,0,1,.36-1.906c.222-.3.144-.688.282-1.014a37.6,37.6,0,0,1,1.139-4.776q.94-3.54,2.114-7.014a62.75,62.75,0,0,1,6.114-13.7A3.178,3.178,0,0,1,133.415,1.5a.8.8,0,0,1,.969.019h.006c.208.127.5.088.646.34a2.98,2.98,0,0,1,.991,2.509c-.056,1.2-.027,2.414-.035,3.621-.22.421.192.971-.274,1.341-.468-.77-.031-1.611-.189-2.289a14.99,14.99,0,0,1-.049,1.543c-.023.227-.023.432-.31.466-.363-.117-.291-.423-.3-.694a.633.633,0,0,1,.007-.076.119.119,0,0,0-.053.018,5.384,5.384,0,0,0-.243.787c-.6,1.509-1.123,3.044-1.662,4.572a2.528,2.528,0,0,0-.286.922c-.748,2.2-1.264,4.466-1.975,6.677a3.636,3.636,0,0,0-.27,1.081c-.4,1.638-.942,3.238-1.355,4.875a5.923,5.923,0,0,0-.337,1,3.4,3.4,0,0,1-.261.577c-.043.1.025.148.005.042s.118,0,.027-.064.123-.139.041-.076a11.937,11.937,0,0,0,.519-1.126,80.093,80.093,0,0,0,3.361-9.426c.541-1.829,1.05-3.668,1.48-5.532.073-.314.054-.732.563-.718.2.292.255.673.638.86.315.154.26.471.136.755a49.314,49.314,0,0,1-2.59,9.587,78.679,78.679,0,0,1-4.414,9.681,1.181,1.181,0,0,1-.314.528,7.185,7.185,0,0,0-1.254,3.276c-.167.734-.251,1.487-.372,2.233-.094.129-.06.293-.121.431a5.717,5.717,0,0,1-.169.9l-.036,1.072c-.2.6-.014,1.253-.3,1.834-.012.1-.025.189-.039.283a.1.1,0,0,1-.1.093l-.015,0c-.066.411,0,.823-.028,1.234a.659.659,0,0,1-.1.319l-.069.97c-.094.137-.066.308-.124.456-.055.487-.009.977-.031,1.465a.7.7,0,0,1-.106.353l-.069,1.619a2.75,2.75,0,0,0-.128.513c-.021,1.6-.033,3.2.007,4.8a.842.842,0,0,0,.118.243l.024-.018c.346.73.03,1.551.318,2.29a1.183,1.183,0,0,0,.768,1.287,1.514,1.514,0,0,0,1.7-.6,56.374,56.374,0,0,0,5.258-7.506c1.87-3.038,3.58-6.174,5.587-9.128.165-.244.334-.486.517-.718.2-.247.391-.575.784-.3a.684.684,0,0,1,.19.935c-.515,1.176-.99,2.372-1.541,3.531-1.922,4.035-3.836,8.071-5.809,12.082a20.862,20.862,0,0,1-3.336,4.913c-1.455,1.584-3.19,2.484-5.411,1.639-.225-.233-.563-.168-.823-.313h0c-.185-.182-.462-.174-.661-.324a3.679,3.679,0,0,1-1.96-2.626,22.273,22.273,0,0,1-.787-5.17c.239-.245.159-.558.159-.843.008-1.157,0-2.313,0-3.47,0,1.015.007,2.031-.007,3.046,0,.282.1.6-.183.826a26.787,26.787,0,0,1-.3-5.061c-.888,1.236-1.653,2.381-2.5,3.459a19.165,19.165,0,0,1-5.581,5.148,7.26,7.26,0,0,1-7.532.122,2.013,2.013,0,0,1-.3-.261c-.085-.214-.324-.233-.469-.371l-.159-.165c-.137-.144-.159-.368-.35-.479a4.5,4.5,0,0,1-.973-2.392c-.186-.487-.015-1.045-.3-1.515-.079-.5-.159-1-.24-1.515-.422.03-.5.417-.67.638-1.342,1.73-2.917,3.269-4.176,5.062a3.668,3.668,0,0,0-.771,1.645c-.207.417-.034.924-.313,1.324L93.8,69.937c-.035.06-.069.119-.1.18-.079.31-.008.629-.057.942a.851.851,0,0,1-.086.195q-.036.638-.073,1.268c-.173.545-.019,1.147-.29,1.674" fill="#0a4438"/>
    <path id="Tracé_10114" data-name="Tracé 10114" d="M80.424,54.541c.2-3.437,2.483-6.414,6.055-6.061-2.164,1.893-3.879,4.147-6.055,6.061" fill="#222223"/>
    <path id="Tracé_10115" data-name="Tracé 10115" d="M135.017,8.953c.551-.284.239-.816.325-1.224.11-.507-.054-1.054.09-1.57l.27-.009V9.324c.261.366.043.736.01,1.1a18.777,18.777,0,0,1-.513,3.079c-.033-.223.093-.59-.224-.6-.812-.035-.526-.631-.606-1.046a1.117,1.117,0,0,1-.063-1.117,11.6,11.6,0,0,0,.239-1.152,1.664,1.664,0,0,1,.247-.585.182.182,0,0,1,.226-.049" fill="#0b453b"/>
    <path id="Tracé_10116" data-name="Tracé 10116" d="M119.757,54.925V49.946c.439.053.345.292.346.45q.012,2.175,0,4.353c0,.257.076.568-.326.618-.008-.146-.016-.3-.023-.442" fill="#08443e"/>
    <path id="Tracé_10117" data-name="Tracé 10117" d="M50.322,57.922v4.287a7.607,7.607,0,0,1,0-4.287" fill="#0e4437"/>
    <path id="Tracé_10118" data-name="Tracé 10118" d="M85.381,43.7l-2.919-.007a.34.34,0,0,1,.358-.322l.025,0h2.166a.325.325,0,0,1,.368.275.29.29,0,0,1,0,.051" fill="#98791d"/>
    <path id="Tracé_10119" data-name="Tracé 10119" d="M124.817,50.179l.14-.345v5.554c-.043-.008-.085-.016-.128-.022a31.583,31.583,0,0,1-.008-5.183" fill="#627853"/>
    <path id="Tracé_10120" data-name="Tracé 10120" d="M125.294,57.661a4.611,4.611,0,0,1-.319-2.29c.4.054.319.363.319.615.006.559,0,1.117,0,1.675" fill="#a77e19"/>
    <path id="Tracé_10121" data-name="Tracé 10121" d="M88.615,44.861l-1.645-.833c.726-.071,1.377,0,1.645.833" fill="#a48018"/>
    <path id="Tracé_10122" data-name="Tracé 10122" d="M135.712,10.43c0-.368-.007-.737-.011-1.106.293-.405,0-.932.282-1.34a4.351,4.351,0,0,1-.271,2.445" fill="#88680f"/>
    <path id="Tracé_10123" data-name="Tracé 10123" d="M50.349,62.505c.109-.009.294-.414.312.043.021.534,0,1.069-.008,1.6a3.162,3.162,0,0,1-.3-1.647" fill="#0e4437"/>
    <path id="Tracé_10124" data-name="Tracé 10124" d="M125.638,43.046a3.794,3.794,0,0,1,.3-1.834c-.1.612.33,1.309-.3,1.834" fill="#aa7e1a"/>
    <path id="Tracé_10125" data-name="Tracé 10125" d="M112.985,41.621l.009-2.833a.869.869,0,0,1,.107.061,7.769,7.769,0,0,1,.11,2.02c-.076.251.182.6-.226.752" fill="#2b3f12"/>
    <path id="Tracé_10126" data-name="Tracé 10126" d="M93.191,74.2a3.394,3.394,0,0,1,.29-1.674c-.105.558.348,1.21-.29,1.674" fill="#a27f1a"/>
    <path id="Tracé_10127" data-name="Tracé 10127" d="M125.023,48.215l-.045-.272c.225-.536-.069-1.124.165-1.657l.142-.345c0,.591,0,1.182,0,1.772,0,.2.058.454-.257.5" fill="#768350"/>
    <path id="Tracé_10128" data-name="Tracé 10128" d="M101.605,45.938c-.141.542.357,1.205-.312,1.647a3.105,3.105,0,0,1,.312-1.647" fill="#1e4026"/>
    <path id="Tracé_10129" data-name="Tracé 10129" d="M67.874,50.831l-.012-1.312a.75.75,0,0,1,.012,1.312" fill="#b68211"/>
    <path id="Tracé_10130" data-name="Tracé 10130" d="M101.294,53.416c.622.4.2,1.007.3,1.515a2.592,2.592,0,0,1-.3-1.515" fill="#204022"/>
    <path id="Tracé_10131" data-name="Tracé 10131" d="M62.511,65.76l.139-.364q0,1.174-.007,2.348l-.13-.053a4.723,4.723,0,0,1,0-1.931" fill="#7b8751"/>
    <path id="Tracé_10132" data-name="Tracé 10132" d="M57.828,47.915c.16-.44-.053-.877-.014-1.314a.772.772,0,0,1,.014,1.314" fill="#817328"/>
    <path id="Tracé_10133" data-name="Tracé 10133" d="M62.684,65.109a2.012,2.012,0,0,1,.3-1.329c-.1.444.319,1-.3,1.329" fill="#a97d15"/>
    <path id="Tracé_10134" data-name="Tracé 10134" d="M113.146,40.934l-.044-2.086c.411.66.106,1.379.172,2.067-.033.082-.075.088-.128.019" fill="#5e7a53"/>
    <path id="Tracé_10135" data-name="Tracé 10135" d="M95.127,60.568a1.967,1.967,0,0,1,.313-1.324c-.109.441.319,1.008-.313,1.324" fill="#a97f17"/>
    <path id="Tracé_10136" data-name="Tracé 10136" d="M92.21,79.387a2.546,2.546,0,0,1,.305-1.327c-.091.445.314,1-.305,1.327" fill="#9f7d17"/>
    <path id="Tracé_10137" data-name="Tracé 10137" d="M60.086,51.181c.313-.571.632-.564.957-.012Z" fill="#243e1f"/>
    <path id="Tracé_10138" data-name="Tracé 10138" d="M121.714,31.322c-.088.448.319,1-.295,1.339a2.505,2.505,0,0,1,.295-1.339" fill="#254621"/>
    <path id="Tracé_10139" data-name="Tracé 10139" d="M50.681,64.45c.107.023.218-.376.293-.037a4.612,4.612,0,0,1,.01,1.017,1.242,1.242,0,0,1-.3-.981" fill="#0e4437"/>
    <path id="Tracé_10140" data-name="Tracé 10140" d="M134.377,1.514l-.97-.02c.333-.479.658-.514.97.02" fill="#a8811c"/>
    <path id="Tracé_10141" data-name="Tracé 10141" d="M74.989,86.174c.018.468.1.951-.3,1.322a2.019,2.019,0,0,1,.3-1.322" fill="#3a4d1c"/>
    <path id="Tracé_10142" data-name="Tracé 10142" d="M57.656,49.552c-.1.147-.252.407-.392.251-.259-.287-.029-.566.2-.8.042.189-.012.411.193.542" fill="#8b732a"/>
    <path id="Tracé_10143" data-name="Tracé 10143" d="M101.924,44.638c-.072.342.253.8-.294,1.005a1.228,1.228,0,0,1,.294-1.005" fill="#3a4c1c"/>
    <path id="Tracé_10144" data-name="Tracé 10144" d="M122.357,28.4c-.059.348.263.8-.283,1.014a1.28,1.28,0,0,1,.283-1.014" fill="#3b4a20"/>
    <path id="Tracé_10145" data-name="Tracé 10145" d="M90.885,84.567a1.442,1.442,0,0,1,.324-1.013c-.066.351.286.835-.324,1.013" fill="#a67c1a"/>
    <path id="Tracé_10146" data-name="Tracé 10146" d="M110.369,55.038a1.181,1.181,0,0,1-.957.354c.134-.618.638-.248.957-.354" fill="#a17d1c"/>
    <path id="Tracé_10147" data-name="Tracé 10147" d="M109.114,36.565a1.422,1.422,0,0,1-1,.333c.16-.633.66-.25,1-.333" fill="#9f7b1c"/>
    <path id="Tracé_10148" data-name="Tracé 10148" d="M67.209,53.427a1.38,1.38,0,0,1,.319-1c-.075.344.264.821-.319,1" fill="#9e791d"/>
    <path id="Tracé_10149" data-name="Tracé 10149" d="M53.59,63.812a1.317,1.317,0,0,1,.319-1c-.072.342.245.808-.319,1" fill="#8d7722"/>
    <path id="Tracé_10150" data-name="Tracé 10150" d="M86.371,43.942c-.331-.084-.7-.02-1-.239a4.679,4.679,0,0,1,1.071.013c.239.057-.053.143-.076.226" fill="#898647"/>
    <path id="Tracé_10151" data-name="Tracé 10151" d="M93.555,71.255a.253.253,0,0,1-.052-.114c.216-.362-.062-.8.173-1.157a.733.733,0,0,0,.126-.046c-.065.442.252.957-.246,1.317" fill="#72804d"/>
    <path id="Tracé_10152" data-name="Tracé 10152" d="M58.773,67.7c.506.118.274.527.325.824a.967.967,0,0,1-.325-.824" fill="#464917"/>
    <path id="Tracé_10153" data-name="Tracé 10153" d="M123.186,63.49c.3.04.7-.186.823.313a.931.931,0,0,1-.823-.313" fill="#3f4a1a"/>
    <path id="Tracé_10154" data-name="Tracé 10154" d="M64.024,67.719a.632.632,0,0,1-.709.305c.087-.45.432-.3.709-.305" fill="#a47e1d"/>
    <path id="Tracé_10155" data-name="Tracé 10155" d="M135.028,1.854a.967.967,0,0,1-.646-.339c.276,0,.614-.121.646.339" fill="#a8811c"/>
    <path id="Tracé_10156" data-name="Tracé 10156" d="M126.11,39.141l.15-.332c-.018.337.138.7-.16,1a.713.713,0,0,1,.008-.663" fill="#647a4e"/>
    <path id="Tracé_10157" data-name="Tracé 10157" d="M126.112,39.141l-.007.663c-.045.11-.089.222-.132.333,0-.338-.14-.7.139-1" fill="#33420e"/>
    <path id="Tracé_10158" data-name="Tracé 10158" d="M113.146,40.934c.043,0,.085-.01.128-.018-.054.272.221.643-.239.792a.186.186,0,0,1-.05-.087c.181-.2.121-.455.159-.687" fill="#8a8a4a"/>
    <path id="Tracé_10159" data-name="Tracé 10159" d="M125.47,43.374a1.153,1.153,0,0,0,.129-.044c0,.329,0,.659.008.988a.122.122,0,0,1-.172.012.126.126,0,0,1-.036-.055c.011-.3-.1-.612.071-.9" fill="#707e51"/>
    <path id="Tracé_10160" data-name="Tracé 10160" d="M125.456,44.317a.752.752,0,0,0,.15,0c-.025.239.169.564-.25.652l-.047-.273c.086-.112.048-.273.147-.38" fill="#9e8b3c"/>
    <path id="Tracé_10161" data-name="Tracé 10161" d="M122.527,63.162a.546.546,0,0,1,.661.325.665.665,0,0,1-.661-.325" fill="#33441b"/>
    <path id="Tracé_10162" data-name="Tracé 10162" d="M87.362,62.194a.608.608,0,0,1-.347.479c-.017-.256.007-.484.347-.479" fill="#937626"/>
    <path id="Tracé_10163" data-name="Tracé 10163" d="M102.566,57.321c.325.005.358.225.35.479a.542.542,0,0,1-.35-.479" fill="#41470d"/>
    <path id="Tracé_10164" data-name="Tracé 10164" d="M85.728,57.685c-.006-.374.234-.385.509-.346a.671.671,0,0,1-.509.346" fill="#253f1e"/>
    <path id="Tracé_10165" data-name="Tracé 10165" d="M112.489,53.747a.557.557,0,0,1-.49.333c.014-.33.243-.345.49-.333" fill="#867628"/>
    <path id="Tracé_10166" data-name="Tracé 10166" d="M98.53,50.5a.61.61,0,0,1-.469.369c-.02-.347.206-.381.469-.369" fill="#947926"/>
    <path id="Tracé_10167" data-name="Tracé 10167" d="M93.489,48.089a.78.78,0,0,1-.355-.491c.361-.013.382.221.355.491" fill="#7f7b30"/>
    <path id="Tracé_10168" data-name="Tracé 10168" d="M67.211,47.768a.693.693,0,0,1-.336-.513c.344.019.357.255.336.513" fill="#7d7a3b"/>
    <path id="Tracé_10169" data-name="Tracé 10169" d="M57.789,46.478a.685.685,0,0,1-.319-.521c.348.025.346.264.319.521" fill="#857835"/>
    <path id="Tracé_10170" data-name="Tracé 10170" d="M86.009,94.947a.647.647,0,0,1,.344-.5c.023.26,0,.491-.344.5" fill="#947b29"/>
    <path id="Tracé_10171" data-name="Tracé 10171" d="M106.331,37.854a.63.63,0,0,1-.486.35c-.007-.35.224-.371.486-.35" fill="#967724"/>
    <path id="Tracé_10172" data-name="Tracé 10172" d="M127.886,33.3a.646.646,0,0,1,.313-.528c.039.26.04.5-.313.528" fill="#967e26"/>
    <path id="Tracé_10173" data-name="Tracé 10173" d="M103.077,57.961c.261-.009.485.028.469.371a.587.587,0,0,1-.469-.371" fill="#3a4110"/>
    <path id="Tracé_10174" data-name="Tracé 10174" d="M48.066,48.561a4.682,4.682,0,0,1-2.9,1.948c-.306.183-.718.053-.993.319a.926.926,0,0,1-.294.131c-1.834.12-1.845,1.51-1.955,2.819-.181,2.147-.349,4.3-.529,6.444a1.75,1.75,0,0,1-.12.378c-.415-.815-.027-1.693-.2-2.419.112,1.8-.147,3.714.154,5.615q0,1.291.005,2.584c-.159.212.057.518-.178.711A.211.211,0,0,1,40.849,67a.74.74,0,0,1-.07-.208c.112,1.637.016,3.274.02,4.912a.388.388,0,0,0,.115.209,8.571,8.571,0,0,1-.261,3.029c-.136.337-.291.573-.638.648a.814.814,0,0,1-.877-.448,2.222,2.222,0,0,1-.49-1.247c-.181-.306-.023-.731-.344-.99A23.156,23.156,0,0,1,37.022,68.7c-.159-.319-.067-.708-.286-1.009-.042-.651-.439-1.237-.356-1.913-.189-.534-.01-1.137-.314-1.649a10.8,10.8,0,0,1-.338-3.553c.218-.109.171-.313.174-.5.028-2.066-.069-4.134.061-6.2-.1,1.925-.043,3.852-.066,5.778,0,.311.1.653-.17.918a23.74,23.74,0,0,1-.193-5.954c.16-1.624.2-1.649-1.369-1.54-2.312.16-4.575.7-6.857,1.057-.3.23-.683.119-1.011.234-1.246-.151-2.064.614-2.878,1.363A69.8,69.8,0,0,0,16.9,63.188c-2.585,3.163-5.248,6.248-8.736,8.484a21.715,21.715,0,0,1-3.522,1.742,1.948,1.948,0,0,1-1.9-.353.611.611,0,0,1-.171-.846l.012-.018A4.546,4.546,0,0,1,3.5,70.978,162.989,162.989,0,0,0,16.046,56.833c.439-.536.891-1.061,1.414-1.682-1-.2-1.914-.03-2.809-.136a13.469,13.469,0,0,0-2.414-.216c-.284-.042-.582.057-.861-.068a53.945,53.945,0,0,1-9.05-.982c-.319-.08-.711-.144-.718-.528,0-.362.393-.364.669-.448a74.856,74.856,0,0,1,8.245-1.884c1.267-.235,2.53-.479,3.8-.718a10.853,10.853,0,0,1,1.32-.3l.3-.031c.472-.2,1-.128,1.479-.3,1.451-.227,2.908-.428,4.352-.695a2.342,2.342,0,0,0,1.293-1.02c.66-.833,1.3-1.682,1.948-2.525.186-.11.222-.324.337-.484l1.269-1.792a.85.85,0,0,0,.336-.516l1.312-2.074a1.246,1.246,0,0,0,.32-.507l2.94-5a1.387,1.387,0,0,0,.3-.516c2.532-4.7,4.837-9.521,7.251-14.284A2.434,2.434,0,0,1,41.74,18.7a2.115,2.115,0,0,1,1.789,1.617c-.366.9-.042,1.843-.193,2.757.16-.877-.19-1.788.216-2.645a3.5,3.5,0,0,1,.258,1.573c.016,2.024.017,4.047.024,6.07-.16.217.049.522-.173.723a.209.209,0,0,1-.213-.086,2.647,2.647,0,0,1-.091-.933,28.78,28.78,0,0,1,.013,3.609A.763.763,0,0,0,43.5,32c.059,1.516-.442,2.991-.312,4.51a23.644,23.644,0,0,0-.151,2.364,1.383,1.383,0,0,1-.149.92l-.035.293a.164.164,0,0,1-.143.1c0,.79.007,1.579.005,2.369a.966.966,0,0,1-.091.488c-.022.449-.012.9-.074,1.346-.108.765.159,1.1.946.931.752.2,1.564-.106,2.293.28a3.036,3.036,0,0,1,2.285,1.967.828.828,0,0,1-.006.989" fill="#0a4438"/>
    <path id="Tracé_10175" data-name="Tracé 10175" d="M41.231,63.8a2.531,2.531,0,0,1-.3-1.148c-.008-1.848,0-3.7.118-5.548a18.713,18.713,0,0,1,.222,3.5q-.023,1.6-.044,3.2" fill="#07443c"/>
    <path id="Tracé_10176" data-name="Tracé 10176" d="M40.913,71.918c-.287-.041-.307-.25-.307-.479l.007-5.329c0-.1.007-.216.22-.263a3.65,3.65,0,0,1,.1,1.214,10.757,10.757,0,0,1,.019,3.907q-.021.474-.043.948" fill="#034440"/>
    <path id="Tracé_10177" data-name="Tracé 10177" d="M43.5,32.005c-.231-.038-.3-.191-.3-.4.007-1.5.009-3.01.021-4.514,0-.059.073-.116.175-.268a7.764,7.764,0,0,1,.134,1.954,4.4,4.4,0,0,1,.02,2.453q-.026.389-.053.779" fill="#06443e"/>
    <path id="Tracé_10178" data-name="Tracé 10178" d="M43.549,20.436v3.682c-.437-.038-.343-.279-.345-.436q-.015-1.37,0-2.737c0-.256-.074-.566.324-.622a.1.1,0,0,1,.024.112" fill="#06443e"/>
    <path id="Tracé_10179" data-name="Tracé 10179" d="M42.887,39.8a11.938,11.938,0,0,1,.3-3.285q.006,1.365.014,2.732c0,.243.021.5-.314.553" fill="#ab7f12"/>
    <path id="Tracé_10180" data-name="Tracé 10180" d="M41.1,67.062c.032-.229-.045-.479.132-.683v4.112c0,.159.015.329-.173.411a21.888,21.888,0,0,1,.041-3.84" fill="#748253"/>
    <path id="Tracé_10181" data-name="Tracé 10181" d="M11.376,54.734c1.042,0,2.084,0,3.127-.009.291,0,.436.023.148.293h-.174a1.71,1.71,0,0,0-.792-.025,8.96,8.96,0,0,1-2.313-.255" fill="#303400"/>
    <path id="Tracé_10182" data-name="Tracé 10182" d="M41.1,67.063l-.041,3.84a.373.373,0,0,1-.107.063q-.009-1.953-.019-3.907l.167.005" fill="#3a430e"/>
    <path id="Tracé_10183" data-name="Tracé 10183" d="M43.7,28.78c.034-.234-.039-.489.131-.7V31.1c0,.022-.019.062-.026.062a.884.884,0,0,1-.124-.027A6.96,6.96,0,0,1,43.7,28.78" fill="#818750"/>
    <path id="Tracé_10184" data-name="Tracé 10184" d="M45.788,45.6a15.906,15.906,0,0,1-2.292-.28c.58-.005,1.16-.015,1.741-.011.226,0,.5-.057.551.292" fill="#908747"/>
    <path id="Tracé_10185" data-name="Tracé 10185" d="M36.066,64.13c.675.44.174,1.105.314,1.648a3.276,3.276,0,0,1-.314-1.648" fill="#1d4025"/>
    <path id="Tracé_10186" data-name="Tracé 10186" d="M43.7,28.78q-.009,1.18-.017,2.358a.551.551,0,0,1-.131.089l-.021-2.453.169.007" fill="#3f450e"/>
    <path id="Tracé_10187" data-name="Tracé 10187" d="M42.622,43.049c-.02-.15-.039-.3-.059-.451.141-.259.034-.548.093-.817a.154.154,0,0,1,.2-.053v1.981l-.234-.66" fill="#968c45"/>
    <path id="Tracé_10188" data-name="Tracé 10188" d="M17.419,49.542a2.273,2.273,0,0,1-1.479.3c.426-.431.962-.314,1.479-.3" fill="#7e6c1b"/>
    <path id="Tracé_10189" data-name="Tracé 10189" d="M48.066,48.561q0-.5.007-.988c.495.333.5.662-.007.988" fill="#ad7f18"/>
    <path id="Tracé_10190" data-name="Tracé 10190" d="M15.638,49.873a2,2,0,0,1-1.32.3,1.455,1.455,0,0,1,1.32-.3" fill="#7e6c1b"/>
    <path id="Tracé_10191" data-name="Tracé 10191" d="M26.291,54.372a2.041,2.041,0,0,1,1.01-.235c.024.086.327.173.085.23a4.611,4.611,0,0,1-1.095.005" fill="#97873b"/>
    <path id="Tracé_10192" data-name="Tracé 10192" d="M36.736,67.687c.53.212.22.663.285,1.008a1.252,1.252,0,0,1-.285-1.008" fill="#474d17"/>
    <path id="Tracé_10193" data-name="Tracé 10193" d="M42.856,41.728l-.068,0H42.72a3.081,3.081,0,0,1,0-1.595.805.805,0,0,0,.128-.044v1.635" fill="#6d7d55"/>
    <path id="Tracé_10194" data-name="Tracé 10194" d="M44.173,50.829c.177-.585.654-.239.993-.319a1.268,1.268,0,0,1-.993.319" fill="#364a19"/>
    <path id="Tracé_10195" data-name="Tracé 10195" d="M38.3,72.9c.649.144.246.653.344.99a1.368,1.368,0,0,1-.344-.99" fill="#1e4325"/>
    <path id="Tracé_10196" data-name="Tracé 10196" d="M13.684,54.988a.671.671,0,0,1,.792.024l-.792-.024" fill="#0a4438"/>
    <path id="Tracé_10197" data-name="Tracé 10197" d="M25.348,44.815c.015.25,0,.479-.336.484a.557.557,0,0,1,.336-.484" fill="#3c4a19"/>
    <path id="Tracé_10198" data-name="Tracé 10198" d="M26.954,42.51c.038.27.035.512-.335.516a.7.7,0,0,1,.335-.516" fill="#2b411b"/>
    <path id="Tracé_10199" data-name="Tracé 10199" d="M28.582,39.932c.029.252.024.485-.319.506a.607.607,0,0,1,.319-.506" fill="#3c461b"/>
    <path id="Tracé_10200" data-name="Tracé 10200" d="M31.825,34.412c.032.25.034.479-.3.517a.577.577,0,0,1,.3-.517" fill="#3e481b"/>
    <path id="Tracé_10201" data-name="Tracé 10201" d="M158.869,62.5a13.869,13.869,0,0,1-2.756,1.093c-3.311.928-5.517-1.844-6.156-4.067-.995-3.456.125-6.52,1.778-9.48a31.776,31.776,0,0,1,4.038-5.408c.4-.451.452-.747,0-1.207-1-1.014-1.934-2.087-2.895-3.137-.118-.166-.147-.4-.368-.487a7.459,7.459,0,0,1-1.5-6.145,12.773,12.773,0,0,1,3.93-7.122,3.643,3.643,0,0,1,4.1-.983c.287.3.73-.031,1.02.255.957.2,1.117.45,1.287,1.965.213.366.129.8.276,1.181a14.136,14.136,0,0,0,1.385,4.339c.11.245.251.478.349.726.243.611.747,1.335.144,1.858-.567.491-1.266.015-1.861-.3-.123-.172-.337-.207-.492-.331a3.626,3.626,0,0,1-1.146-1.435,1.561,1.561,0,0,0-.313-.516c-.6-1.135-1.2-2.265-1.783-3.406-.214-.423-.417-.5-.868-.257-1.938,1.041-3.4,4.944-.8,7.087.33.272.666.535,1,.8a3.243,3.243,0,0,1,.818.694,13.941,13.941,0,0,0,2.016,1.718,1.036,1.036,0,0,0,1.325-.047,50.962,50.962,0,0,1,8.993-4.645.96.96,0,0,1,.99-.037l.255.063c.273.182.214.4.072.632a11.115,11.115,0,0,1-2.291,2.247c-.108.188-.334.209-.479.345-1.815,1.321-3.628,2.65-5.451,3.961-.4.29-.285.553-.074.883a11.5,11.5,0,0,1,1.919,4.715,28.971,28.971,0,0,1-.141,3.384c-.183.43-.029.934-.306,1.342a28.8,28.8,0,0,1-2.612,5.976c-.1.169-.151.376-.318.5a16.01,16.01,0,0,1-2.6,2.891c-.1.2-.331.23-.491.35" fill="#0a4438"/>
    <path id="Tracé_10202" data-name="Tracé 10202" d="M159.035,35.131a5.421,5.421,0,0,0,3.136,2.372,5.7,5.7,0,0,1-1.22.885c-.223.174-.4.028-.567-.122-1.117-.977-2.224-1.965-3.359-2.92-.851-.717-.755-2.477-.165-3.389.311-.478.425-.053.51.16a14.243,14.243,0,0,0,1.325,2.489,1.14,1.14,0,0,1,.339.528" fill="#212224"/>
    <path id="Tracé_10203" data-name="Tracé 10203" d="M164.9,52.779a2.227,2.227,0,0,1,.3-1.341c-.093.449.326,1.015-.3,1.341" fill="#a57e18"/>
    <path id="Tracé_10204" data-name="Tracé 10204" d="M171.389,35.208l-.988.037c.311-.489.641-.478.988-.037" fill="#9c7d20"/>
    <path id="Tracé_10205" data-name="Tracé 10205" d="M161.63,28.961a1.863,1.863,0,0,1-.276-1.184c.53.292.224.779.276,1.182" fill="#9b7a21"/>
    <path id="Tracé_10206" data-name="Tracé 10206" d="M158.066,38.219a1.635,1.635,0,0,1-.818-.694.787.787,0,0,1,.818.694" fill="#8b7f35"/>
    <path id="Tracé_10207" data-name="Tracé 10207" d="M160.066,25.815a5.974,5.974,0,0,1-1.036.009c-.368-.057,0-.173.014-.265a.252.252,0,0,1,.125-.039c.254.193.6-.049.847.18.017.037.033.076.047.114" fill="#2e3c0e"/>
    <path id="Tracé_10208" data-name="Tracé 10208" d="M171.716,35.9c-.023-.213-.047-.423-.07-.632.2-.009.351.037.369.275a.3.3,0,0,1-.232.351.29.29,0,0,1-.066.006" fill="#aa7f17"/>
    <path id="Tracé_10209" data-name="Tracé 10209" d="M156.209,34.087a1.7,1.7,0,0,1,0-1.029,1.69,1.69,0,0,1,0,1.029" fill="#bc831b"/>
    <path id="Tracé_10210" data-name="Tracé 10210" d="M161.959,59.261a.611.611,0,0,1,.319-.506c.028.255.014.484-.319.506" fill="#8d7728"/>
    <path id="Tracé_10211" data-name="Tracé 10211" d="M158.869,62.5a.65.65,0,0,1,.492-.35c0,.351-.229.371-.492.35" fill="#967a28"/>
    <path id="Tracé_10212" data-name="Tracé 10212" d="M152.512,39.809c.357-.016.386.218.367.487a.645.645,0,0,1-.367-.487" fill="#333d16"/>
    <path id="Tracé_10213" data-name="Tracé 10213" d="M168.945,38.491a.583.583,0,0,1,.479-.345c-.006.33-.227.359-.479.345" fill="#887628"/>
    <path id="Tracé_10214" data-name="Tracé 10214" d="M161.155,35.251c.248-.014.472.006.492.331a.534.534,0,0,1-.492-.331" fill="#434614"/>
    <path id="Tracé_10215" data-name="Tracé 10215" d="M159.036,35.131a.783.783,0,0,1-.339-.529c.359.019.369.26.339.529" fill="#9f7732"/>
    <path id="Tracé_10216" data-name="Tracé 10216" d="M159.7,33.3c.334.033.339.265.312.516a.592.592,0,0,1-.312-.516" fill="#40450d"/>
    <path id="Tracé_10217" data-name="Tracé 10217" d="M160.019,25.7c-.286-.042-.6.035-.847-.18.289.03.621-.141.847.18" fill="#747c4b"/>
    <path id="Tracé_10218" data-name="Tracé 10218" d="M142.492,10.614a.363.363,0,0,0,.29.319,1.174,1.174,0,0,1,.061,1.285,7.006,7.006,0,0,1-.687,1.747,1.235,1.235,0,0,1-.318.517,16.209,16.209,0,0,1-3.214,3.624c.389-2.652.511-5.371,2.274-7.627.677-.522.787-.512,1.6.137" fill="#0a4438"/>
    <path id="Tracé_10219" data-name="Tracé 10219" d="M142.492,10.614c-.52-.2-1.024-.553-1.6-.136.552-.822,1.116-.773,1.6.136" fill="#aa821a"/>
    <path id="Tracé_10220" data-name="Tracé 10220" d="M142.843,12.217q-.03-.642-.061-1.285c.5.353.52.8.061,1.285" fill="#ab8213"/>
    <path id="Tracé_10221" data-name="Tracé 10221" d="M141.835,14.481a.643.643,0,0,1,.319-.517c.035.26.028.495-.319.517" fill="#977d25"/>
    <path id="Tracé_10222" data-name="Tracé 10222" d="M89.3,66.245a16.21,16.21,0,0,0-.367,2.073c-.159.32-.066.71-.284,1.013-.767,3.017-1.583,6.018-2.531,8.985-.957,2.986-1.828,6-2.97,8.918A22.372,22.372,0,0,1,79.2,94.261a.338.338,0,0,1-.3.188c-.558.009-.393-.565-.65-.8a11.94,11.94,0,0,1-.305-5.5c.273-.522.126-1.121.293-1.662a21.639,21.639,0,0,1,1.478-5.325c1.968-5.234,5-9.874,8.138-14.45.391-.572.748-1.168,1.12-1.755.181-.285.416-.432.467.034a2.051,2.051,0,0,1-.135,1.255" fill="#be7e01"/>
    <path id="Tracé_10223" data-name="Tracé 10223" d="M134.734,9.488c.066.82-.447,1.55-.366,2.372a15,15,0,0,0-.9,3.151,84,84,0,0,1-4.338,12.776c-.547.063-.319-.286-.282-.532.255-1.485.786-2.9,1.159-4.352.053-.208.116-.414.174-.622.248-.289.163-.677.3-1,.585-2.283,1.2-4.557,1.962-6.79.225-.239.176-.571.3-.842a45.137,45.137,0,0,1,1.657-4.68c.566-.114.358.258.327.52" fill="#c07d01"/>
    <path id="Tracé_10224" data-name="Tracé 10224" d="M109.09,42.572a7.268,7.268,0,0,1-1.583,1.785c-.935-.043-.384-.65-.4-1.044a1.213,1.213,0,0,1,.326-.924,1.049,1.049,0,0,0,.319-.53,7.05,7.05,0,0,1,1.652-1.72c.113-.187.332-.217.491-.337.16.014.371-.1.454.15-.1.276-.2.552-.287.83a2.7,2.7,0,0,1-.645,1.291c-.187.116-.232.324-.331.5" fill="#bd7e03"/>
    <path id="Tracé_10225" data-name="Tracé 10225" d="M124.817,50.182l.007,5.183c-.215-.148-.168-.376-.169-.584q0-2.007,0-4.014c0-.208-.047-.435.159-.589" fill="#233a15"/>
    <path id="Tracé_10226" data-name="Tracé 10226" d="M134.854,13.265a7.843,7.843,0,0,1-.34,2.583c-.347-1.083.28-1.783.34-2.583" fill="#0b453b"/>
    <path id="Tracé_10227" data-name="Tracé 10227" d="M89.3,66.246c.009-.391.013-.781.028-1.17.021-.478-.207-.181-.361-.118-.016-.264,0-.51.363-.479.259.021.289.234.265.42-.058.457.214.992-.295,1.349" fill="#414c1d"/>
    <path id="Tracé_10228" data-name="Tracé 10228" d="M107.11,43.312c.141.345-.257.894.4,1.044a1.2,1.2,0,0,1-.685.713,2.326,2.326,0,0,1,.289-1.755" fill="#b57f13"/>
    <path id="Tracé_10229" data-name="Tracé 10229" d="M128.852,27.255c.047.2-.039.479.282.532-.2.332-.233.756-.571,1.009a.473.473,0,0,1-.031-.542,1.527,1.527,0,0,1,.319-1" fill="#ab7f18"/>
    <path id="Tracé_10230" data-name="Tracé 10230" d="M78.232,86.484c-.116.552.35,1.205-.293,1.664a3.018,3.018,0,0,1,.293-1.664" fill="#ac7f14"/>
    <path id="Tracé_10231" data-name="Tracé 10231" d="M134.734,9.488c-.053-.209.025-.5-.327-.519-.019-.363.272-.618.332-.957.432.266.152.638.148.973a.7.7,0,0,1-.153.5" fill="#9d8126"/>
    <path id="Tracé_10232" data-name="Tracé 10232" d="M78.245,93.648c.463-.015.191.718.687.672.043.173-.108.225-.195.319a.908.908,0,0,1-.492-.988" fill="#997925"/>
    <path id="Tracé_10233" data-name="Tracé 10233" d="M62.515,65.76v1.931a2.479,2.479,0,0,1,0-1.931" fill="#42490d"/>
    <path id="Tracé_10234" data-name="Tracé 10234" d="M134.888,8.988c-.086-.319.121-.682-.149-.973,0-.133-.006-.3.136-.346.226-.067.165.141.165.246,0,.346-.013.693-.023,1.036a.947.947,0,0,1-.129.036" fill="#7f7024"/>
    <path id="Tracé_10235" data-name="Tracé 10235" d="M125.146,46.286a4.212,4.212,0,0,1-.165,1.655c.067-.55-.182-1.132.165-1.655" fill="#2f4112"/>
    <path id="Tracé_10236" data-name="Tracé 10236" d="M88.651,69.329a1.267,1.267,0,0,1,.283-1.013c-.057.348.259.8-.283,1.013" fill="#3b4b20"/>
    <path id="Tracé_10237" data-name="Tracé 10237" d="M125.456,44.315l-.147.379V43.259c0-.015.032-.031.048-.047l.113.16q-.008.472-.013.943" fill="#1f3b17"/>
    <path id="Tracé_10238" data-name="Tracé 10238" d="M128.532,28.254c.01.18.021.361.03.542a.6.6,0,0,1-.3.492,1.449,1.449,0,0,1,.271-1.037" fill="#7c7a3f"/>
    <path id="Tracé_10239" data-name="Tracé 10239" d="M130.484,21.281c-.068.344.239.8-.3,1a1.538,1.538,0,0,1,.3-1" fill="#867423"/>
    <path id="Tracé_10240" data-name="Tracé 10240" d="M132.749,13.648c-.034.306.2.7-.3.843a1.028,1.028,0,0,1,.3-.843" fill="#8b7421"/>
    <path id="Tracé_10241" data-name="Tracé 10241" d="M93.675,69.984c-.05.386.085.8-.172,1.154.049-.385-.151-.809.172-1.154" fill="#32400d"/>
    <path id="Tracé_10242" data-name="Tracé 10242" d="M110.066,40.782a.935.935,0,0,1,.287-.829.957.957,0,0,1-.287.829" fill="#79671c"/>
    <path id="Tracé_10243" data-name="Tracé 10243" d="M78.737,94.636l.194-.319.268-.061c.029.351-.2.38-.462.378" fill="#30431c"/>
    <path id="Tracé_10244" data-name="Tracé 10244" d="M109.091,42.572c-.026-.257-.016-.489.331-.5a.6.6,0,0,1-.331.5" fill="#977a22"/>
    <path id="Tracé_10245" data-name="Tracé 10245" d="M107.755,41.859c.04.264.038.5-.318.53a.644.644,0,0,1,.318-.53" fill="#9d7e29"/>
    <path id="Tracé_10246" data-name="Tracé 10246" d="M109.9,39.8a.569.569,0,0,1-.49.337c0-.344.239-.356.49-.337" fill="#33441b"/>
    <path id="Tracé_10247" data-name="Tracé 10247" d="M30.864,45.461a33.692,33.692,0,0,1,2.248-3.081c.2-.106.239-.325.347-.5l3.069-4.29.139.035a24.109,24.109,0,0,0-.24,2.427,47.821,47.821,0,0,1-.39,5.321,1.726,1.726,0,0,1-.283.913,29.491,29.491,0,0,1-3.814.787c-.512.065-.952.4-1.478.333-.275-.035-.73.108-.558-.471l-.012-.012c.174-.12.212-.331.327-.491l.319-.478c.175-.122.218-.33.327-.5" fill="#bd7e01"/>
    <path id="Tracé_10248" data-name="Tracé 10248" d="M35.725,60.574q.008-3.157.019-6.314a2,2,0,0,1,.079-.713c.057-.145.208-.387.406-.328.249.075.1.286.066.465a11.958,11.958,0,0,0-.221,1.737c-.03,1.646-.014,3.292-.009,4.939,0,.273.019.529-.338.211" fill="#08453d"/>
    <path id="Tracé_10249" data-name="Tracé 10249" d="M29.9,46.94c.292.572.8.354,1.172.224a13.5,13.5,0,0,1,2.593-.536c.7-.094,1.345-.547,2.089-.338-.187.588-.735.329-1.1.413-1.48.343-2.98.606-4.475.877-.184.034-.468.152-.565-.113-.08-.217.12-.386.284-.528" fill="#b08017"/>
    <path id="Tracé_10250" data-name="Tracé 10250" d="M43.379,24.66a2.681,2.681,0,0,1-.011,1.716,2.343,2.343,0,0,1,.011-1.716" fill="#06443e"/>
    <path id="Tracé_10251" data-name="Tracé 10251" d="M42.725,40.137q0,.8,0,1.595c-.059.288.041.6-.159.867V40.015c0-.014.034-.028.052-.044l.111.168" fill="#1a381b"/>
    <path id="Tracé_10252" data-name="Tracé 10252" d="M30.218,46.436c.014.246,0,.479-.328.492a.578.578,0,0,1,.328-.492" fill="#86752d"/>
    <path id="Tracé_10253" data-name="Tracé 10253" d="M30.863,45.461c.02.251.006.479-.328.5a.59.59,0,0,1,.328-.5" fill="#83752f"/>
    <path id="Tracé_10254" data-name="Tracé 10254" d="M33.458,41.885c.025.264,0,.493-.347.5a.641.641,0,0,1,.347-.5" fill="#947e28"/>
    <path id="Tracé_10255" data-name="Tracé 10255" d="M159.712,49.531a15.885,15.885,0,0,1-4.958,8.981c-.182.17-.4.47-.676.371-.348-.124-.215-.51-.239-.785-.165-1.963.7-3.656,1.472-5.359a29.866,29.866,0,0,1,3.269-5.317c.137-.187.2-.491.492-.486.386.007.259.415.413.607a1.494,1.494,0,0,1,.23.682,1.389,1.389,0,0,1,0,1.305" fill="#bd7e01"/>
    <path id="Tracé_10256" data-name="Tracé 10256" d="M159.713,49.531V48.225a.759.759,0,0,1,.269,1.037.77.77,0,0,1-.269.269" fill="#1c4027"/>
    <path id="Tracé_10257" data-name="Tracé 10257" d="M86.064,72.94a49.991,49.991,0,0,1-1.5,5.276c-.792,2.543-1.631,5.071-2.449,7.6-.079.239-.086.515-.3.7a30.3,30.3,0,0,1-2.448,4.971,6.007,6.007,0,0,1-.067-2.192c.572-6.214,3.285-11.594,6.538-16.762.327,0,.271.2.217.4" fill="#202224"/>
    <path id="Tracé_10258" data-name="Tracé 10258" d="M86.063,72.943a.51.51,0,0,0-.216-.4,1.008,1.008,0,0,1,.526-.663l-.31,1.063" fill="#3c280c"/>
    <path id="Tracé_10259" data-name="Tracé 10259" d="M81.82,86.523a1.05,1.05,0,0,1,.3-.7c0,.274.149.614-.3.7" fill="#966f22"/>
    <path id="Tracé_10260" data-name="Tracé 10260" d="M34.579,44.957a.527.527,0,0,0-.11.037c-.884.276-1.063.185-1.015-.52a18.332,18.332,0,0,1,1.3-1.871v1.061c-.216.409.08.889-.178,1.293" fill="#2b2721"/>
    <path id="Tracé_10261" data-name="Tracé 10261" d="M33.454,44.473c.014.806.643.412,1.014.521-.338.319-.661.413-1.607.44a1.574,1.574,0,0,1,.593-.962" fill="#34250f"/>
    <path id="Tracé_10262" data-name="Tracé 10262" d="M34.579,44.957a3.193,3.193,0,0,1,.178-1.293c-.067.429.2.9-.178,1.293" fill="#9e8347"/>
    <path id="Tracé_10263" data-name="Tracé 10263" d="M156.45,53.732l.84-1.66a4.42,4.42,0,0,1-.638,1.747l-.2-.088" fill="#825405"/>
  </g>
</svg>
