<svg xmlns="http://www.w3.org/2000/svg" xmlns:xlink="http://www.w3.org/1999/xlink" width="28.457" height="43.377" viewBox="0 0 28.457 43.377">
  <defs>
    <clipPath id="clip-path">
      <rect id="Rectangle_54" data-name="Rectangle 54" width="23.035" height="40.566" fill="#c3c2b1"/>
    </clipPath>
  </defs>
  <g id="Groupe_301" data-name="Groupe 301" transform="translate(0 3.206) rotate(-8)">
    <g id="Groupe_52" data-name="Groupe 52" transform="translate(0 0)" clip-path="url(#clip-path)">
      <path id="Tracé_574" data-name="Tracé 574" d="M3.541,4.131c7.23-2.6,13.259-2.613,15.871.608,2.158,2.668,1.687,7.494-1.3,13.217A61.187,61.187,0,0,1,2.67,35.917l.595-5.71a1.133,1.133,0,0,0-2.254-.235L0,39.539l9.583,1.023a1.154,1.154,0,0,0,1.244-1.023,1.135,1.135,0,0,0-1.009-1.244l-5.725-.608A63.445,63.445,0,0,0,20.132,19.008c3.47-6.664,3.842-12.236,1.051-15.692A9.527,9.527,0,0,0,14.5.066a24.174,24.174,0,0,0-8.89,1c-1.342.415-2.67.885-3.982,1.4Z" transform="translate(-0.001 0)" fill="#c3c2b1"/>
    </g>
  </g>
</svg>
