<svg id="Groupe_251" data-name="Groupe 251" xmlns="http://www.w3.org/2000/svg" xmlns:xlink="http://www.w3.org/1999/xlink" width="41.457" height="54" viewBox="0 0 41.457 54">
  <defs>
    <clipPath id="clip-path">
      <rect id="Rectangle_1931" data-name="Rectangle 1931" width="41.457" height="54" fill="#c3c2b1"/>
    </clipPath>
  </defs>
  <g id="Groupe_209" data-name="Groupe 209" transform="translate(0 0)" clip-path="url(#clip-path)">
    <path id="Tracé_8214" data-name="Tracé 8214" d="M38.852,17.041c-3.1-3.623-6.356-3.407-10.021-1.481a9.4,9.4,0,0,0-.22-2.3,3.347,3.347,0,0,0-.669-1.348c3.937-3.156.326-10.084-4.437-8.5A5.468,5.468,0,0,0,19.492.286c-2.133-.38-3.651.708-5.164,1.978C11.16-2.4,2.6.741,2.872,6.273.1,6.279-.974,9.127,1.042,10.826a2.469,2.469,0,0,0-.98,1.7c0,.016,0,.028,0,.042a.693.693,0,0,0-.025.129C.118,24.928-.188,37.185.284,49.41.322,50.4.148,51.646.941,52.4c1.245,1.177,4.235,1,5.844,1.17a78,78,0,0,0,18.139-.2c4.043-.517,3.124-2.814,3.229-6.558,0-.193.012-.385.017-.576a8.546,8.546,0,0,0,7.743.164c4.608-2.709,5.031-9.194,5.321-13.941.28-4.555.834-11.655-2.382-15.412M1.324,12.788c.581-2.3,11.168-1.269,13.274-1.261,3.229.013,8.134-.784,11.148.486,1.938.816,1.831,3.286,1.661,5.458a100.33,100.33,0,0,0-15.149-.387c-3.633.175-7.306-.322-10.922.073,0-1.457,0-2.913-.011-4.369M28.581,23.916a.554.554,0,0,0,.415-.09c1.686-1.116,4.523-.956,5.259,1.072a16.058,16.058,0,0,1,.435,4.548,38.472,38.472,0,0,1-.539,5.642c-.223,1.611-.418,3.6-2.223,4.117a4.918,4.918,0,0,1-3.533-.369c.1-3.341.184-6.683.2-10.023.006-1.633,0-3.265-.011-4.9M3.428,7.594a.651.651,0,0,0,.79-.79C3.173,1.863,11.38-.914,13.608,3.569a.65.65,0,0,0,1.009.129c1.091-.928,2.315-2.162,3.855-2.231,1.637-.073,3.724,1.3,3.978,2.979a.648.648,0,0,0,.944.384c3.975-2.051,6.553,4.012,3.474,6.246a10.008,10.008,0,0,0-3.614-.687c-4.756-.334-9.588-.161-14.351-.111-1.575.016-4.369-.522-6.4-.079-.9-.765-.977-2.985.929-2.605M25.995,51.931c-.795.628-4.268.5-5.437.584q-2.189.158-4.384.194a77.422,77.422,0,0,1-8.766-.361c-1.438-.142-3.6.092-4.8-.629-1.525-.918-1.051-2.711-1.088-4.212-.238-9.689-.169-19.382-.181-29.074,3.97-.5,8.151.05,12.147-.127a94.728,94.728,0,0,1,13.825.441c-.014.227-.023.449-.025.654-.014,2.739.023,5.477.023,8.218,0,5.563-.215,11.125-.372,16.686-.055,1.966.725,6.309-.943,7.627M40.01,31.263c-.147,3.744-.292,8.213-2.3,11.491-1.807,2.949-6.575,4.474-9.494,1.967q.069-2.249.138-4.5c1.756.681,4.29.657,5.7-.548a4.628,4.628,0,0,0,1.267-2.783A43.2,43.2,0,0,0,36,29.986c.016-1.888.192-5.7-1.283-7.127-1.453-1.407-4.465-1.225-6.143-.264,0-.677-.007-1.354-.006-2.031,0-1.041.131-2.277.209-3.511,1.945-1.14,3.866-2.21,6.137-1.349a7.312,7.312,0,0,1,4.022,4.1c1.362,3.369,1.214,7.871,1.072,11.459" transform="translate(0 0)" fill="#c3c2b1"/>
    <path id="Tracé_8215" data-name="Tracé 8215" d="M14.991,22.8c-1.771.688-1.642,4.306-1.761,5.717-.29,3.443-.514,6.9-.536,10.356,0,1.6-.8,13.385,3.122,11.851,1.5-.586,1.189-3.041,1.252-4.274.207-4.057.418-8.116.587-12.175.054-1.306.919-12.864-2.664-11.475m1.352,12.054c-.183,4.122.146,8.755-.618,12.8a1.41,1.41,0,0,1-.4,1.29q-.449,1.157-.582-.191c-.543-.823-.54-2.89-.611-3.687-.185-2.057-.156-4.132-.157-6.2.025-3.765.233-7.556.618-11.3.084-.811-.193-3.066,1.236-2.739.458.1.541,2.764.581,3.251a53.736,53.736,0,0,1-.071,6.769" transform="translate(-1.036 -1.861)" fill="#c3c2b1"/>
    <path id="Tracé_8216" data-name="Tracé 8216" d="M6.527,22.8c-1.771.688-1.642,4.306-1.762,5.717-.29,3.443-.513,6.9-.535,10.356,0,1.6-.805,13.385,3.122,11.851,1.5-.586,1.189-3.041,1.252-4.274.207-4.057.417-8.116.586-12.175.055-1.306.919-12.864-2.663-11.475M7.879,34.854c-.183,4.122.146,8.755-.619,12.8a1.409,1.409,0,0,1-.395,1.29q-.449,1.157-.583-.191c-.542-.823-.539-2.89-.61-3.687-.185-2.057-.156-4.132-.157-6.2.025-3.765.232-7.556.618-11.3.083-.811-.193-3.066,1.236-2.739.457.1.54,2.764.581,3.251a53.735,53.735,0,0,1-.071,6.769" transform="translate(-0.341 -1.861)" fill="#c3c2b1"/>
    <path id="Tracé_8217" data-name="Tracé 8217" d="M23.455,23.314c-1.771.687-1.642,4.305-1.762,5.716-.29,3.444-.513,6.9-.535,10.356,0,1.6-.805,13.386,3.122,11.851,1.5-.586,1.189-3.04,1.252-4.274.207-4.056.417-8.115.586-12.174.055-1.306.919-12.864-2.663-11.475m1.352,12.054c-.183,4.121.146,8.755-.619,12.8a1.409,1.409,0,0,1-.395,1.29q-.449,1.155-.583-.191c-.542-.823-.539-2.89-.61-3.687-.185-2.058-.156-4.132-.157-6.2.025-3.764.232-7.556.618-11.3.084-.811-.193-3.067,1.236-2.74.457.106.54,2.765.581,3.252a53.736,53.736,0,0,1-.071,6.769" transform="translate(-1.73 -1.903)" fill="#c3c2b1"/>
    <path id="Tracé_8218" data-name="Tracé 8218" d="M36.982,18.329a.643.643,0,0,0-.341,1.239c2.054.6,2.773,2.466,3.138,4.371.155.811,1.394.468,1.239-.341-.456-2.379-1.532-4.541-4.036-5.269" transform="translate(-2.969 -1.501)" fill="#c3c2b1"/>
    <path id="Tracé_8219" data-name="Tracé 8219" d="M34.242,18.378a.643.643,0,0,0,0,1.285.643.643,0,0,0,0-1.285" transform="translate(-2.759 -1.508)" fill="#c3c2b1"/>
  </g>
</svg>
