<svg xmlns="http://www.w3.org/2000/svg" xmlns:xlink="http://www.w3.org/1999/xlink" width="44.663" height="44.235" viewBox="0 0 44.663 44.235">
  <defs>
    <clipPath id="clip-path">
      <rect id="Rectangle_2202" data-name="Rectangle 2202" width="44.663" height="44.235" fill="#c3c2b1"/>
    </clipPath>
  </defs>
  <g id="Groupe_232" data-name="Groupe 232" transform="translate(0 0)">
    <g id="Groupe_231" data-name="Groupe 231" transform="translate(0 0)" clip-path="url(#clip-path)">
      <path id="Tracé_9725" data-name="Tracé 9725" d="M44.049,3.2c-2.916-.053-5.834-.079-8.752-.1.584-.738,1.171-1.474,1.735-2.225.474-.633-.591-1.246-1.06-.62-.718.959-1.461,1.9-2.21,2.836-11.034-.04-22.083.116-33.109.1a.541.541,0,0,0-.245.036.556.556,0,0,0-.388.451.566.566,0,0,0,.087.479.652.652,0,0,0,.046.075l.005.007C4.081,8.48,8.195,12.364,12.341,16.354c1.763,1.7,3.486,3.451,5.223,5.174.718.713,1.812,2.224,2.952,3.215.089,4.267.076,8.532,0,12.8-1.974.025-11.022.006-10.532,3.669.386,2.874,8.18,2.857,10.148,2.966a42.448,42.448,0,0,0,9.338-.547c1.247-.208,4.709-.8,5.117-2.392.91-3.56-8.322-3.738-10.516-3.771.07-4.205.082-8.409,0-12.616.416-.363.793-.768,1.111-1.051,2.22-1.979,4.319-4.091,6.383-6.231C35.859,13.114,39.98,8.5,44.483,4.249A.62.62,0,0,0,44.049,3.2M2,4.427c10.251,0,20.519-.133,30.776-.105l-3.065,3.77c-8.117-.031-16.244-.579-24.36-.135Q3.666,6.212,2,4.427m20.81,35.716a.614.614,0,0,0,1.227,0c.012-.482.01-.965.019-1.448a29.441,29.441,0,0,1,6.142.64c.512.119,2.051.326,2.381.787.971,1.358-.992,1.758-1.789,2a32.2,32.2,0,0,1-10.658.827c-2.182-.121-5.778-.035-7.733-1.192-2.061-1.218.709-2.077,2.01-2.376a28.815,28.815,0,0,1,6.09-.611c-.01.458-.007.917-.018,1.375a.614.614,0,0,0,1.227,0q.178-7.3.038-14.6a1.9,1.9,0,0,0,.523.134,1.568,1.568,0,0,0,.578-.079q.131,7.274-.038,14.546M27.327,20.1c-.742.724-1.492,1.442-2.257,2.142-1.481,1.357-2.426,2.006-4.274.776-1.569-1.044-3.05-3-4.422-4.323-1.482-1.432-2.852-2.962-4.394-4.33-1.9-1.687-3.714-3.438-5.486-5.234,7.408-.324,14.823.117,22.232.181-.665.832-1.309,1.678-1.95,2.526a4.172,4.172,0,0,0-5.346,1.893A3.631,3.631,0,0,0,22.5,17.942c-.54.771-1.157,1.482-1.678,2.267-.437.661.625,1.275,1.06.62.5-.76,1.1-1.453,1.623-2.2.071.035.141.072.214.1a4.092,4.092,0,0,0,4.847-1.561,3.443,3.443,0,0,0-.721-4.726q1.2-1.581,2.44-3.129c2.537,0,5.073-.054,7.607-.207-1.786,1.868-3.549,3.757-5.326,5.632-1.718,1.812-3.447,3.614-5.235,5.358M24.019,17.53c-1.024-.531-2-1.862-1.589-3.035a2.967,2.967,0,0,1,3.577-1.65c-.06.081-.124.158-.182.239-.465.639.6,1.252,1.06.619.075-.1.158-.2.235-.307,2.312,1.342-.454,5.506-3.1,4.133M39.16,7.806c-2.626.195-5.254.272-7.883.285,1.022-1.252,2.047-2.5,3.062-3.762q4.113.017,8.223.08-1.729,1.673-3.4,3.4" transform="translate(0 0)" fill="#c3c2b1"/>
      <path id="Tracé_9726" data-name="Tracé 9726" d="M12.966,12.178c-.573-.543-1.443.323-.868.868A31.272,31.272,0,0,1,14.84,16c.5.613,1.364-.259.868-.867a31.174,31.174,0,0,0-2.742-2.951" transform="translate(-1.47 -1.482)" fill="#c3c2b1"/>
      <path id="Tracé_9727" data-name="Tracé 9727" d="M17.253,16.92a.614.614,0,0,0,0,1.227.614.614,0,0,0,0-1.227" transform="translate(-2.056 -2.088)" fill="#c3c2b1"/>
    </g>
  </g>
</svg>
