<svg xmlns="http://www.w3.org/2000/svg" xmlns:xlink="http://www.w3.org/1999/xlink" width="51.385" height="33.287" viewBox="0 0 51.385 33.287">
  <defs>
    <clipPath id="clip-path">
      <rect id="Rectangle_2227" data-name="Rectangle 2227" width="51.385" height="33.287" fill="#c3c2b1"/>
    </clipPath>
  </defs>
  <g id="Groupe_307" data-name="Groupe 307" transform="translate(0 0)">
    <g id="Groupe_306" data-name="Groupe 306" transform="translate(0 0)" clip-path="url(#clip-path)">
      <path id="Tracé_10417" data-name="Tracé 10417" d="M24.077,15.517a27.606,27.606,0,0,0,8.617-.548c1.483-.333,3.83-.753,4.327-2.5.883-3.1-4.19-4.759-6.361-4.849C27.47,7.4,19.9,6.988,18.1,10.8c-1.625,3.443,3.828,4.516,5.974,4.716m0-1.222c-.458-.045-1.163-.089-1.889-.206,2.449-1.261,7.683-1.629,10.042-.275a26.282,26.282,0,0,1-8.153.481M22.4,9.35a23.886,23.886,0,0,1,8.258-.507c1.362.055,3.162.389,4.109,1.518,1.154,1.373.13,2.405-1.115,2.989-1.634-1.541-4.554-1.458-6.659-1.415-2.257.045-4.592.257-6.381,1.733a1.88,1.88,0,0,1-1.249-1.274C19,10.585,21.082,9.758,22.4,9.35" transform="translate(-2.256 -0.949)" fill="#c3c2b1"/>
      <path id="Tracé_10418" data-name="Tracé 10418" d="M51.38,16.8a.551.551,0,0,0-.028-.263A18.567,18.567,0,0,0,51.2,14.4,13.569,13.569,0,0,0,44.5,4.511a27.606,27.606,0,0,0-6.781-2.74l-.462-.141A32.851,32.851,0,0,0,29.705.152C28.2.051,26.672,0,25.173,0A55.481,55.481,0,0,0,13.727,1.107C10.2,1.855,5.4,3.636,2.547,7.879A16.637,16.637,0,0,0,.272,19.9a13.25,13.25,0,0,0,8.7,10.7A44.823,44.823,0,0,0,24.426,33.28c.386,0,.773.007,1.16.007a36.5,36.5,0,0,0,12.327-1.769c3.525-1.265,7.521-2.7,10.267-5.771a12.989,12.989,0,0,0,3.172-8.719c.01-.077.021-.159.029-.229M2.4,10.738C4,6.955,7.484,4.118,12.223,2.749,16.379,1.55,20.78,1.383,25.689,1.3c.206,0,.413-.005.618-.005A39.864,39.864,0,0,1,39.354,3.586c3.086,1.04,8.495,3.506,10.054,8.342a16.454,16.454,0,0,1,.762,4.29c.014.158.015.324.018.488a.555.555,0,0,0-.03.093c-.05.421-.386,2.333-.8,2.49-.681.258-1.223-.8-1.888-.8s-.731-.055-1.234.431a6.625,6.625,0,0,0-.984,2.594c-.4,1.284-.509,3.077-1.666,1.5-.824-1.125-1.279-3.214-3.034-2.182-1.033.607-1.4,2.413-2.654,2.579-1.028.135-2.814-.889-3.816-1.122-1.883-.439-2.806-.554-3.464,1.4-.69,2.05-1.57,5.455-4.124,3.043a28.423,28.423,0,0,0-3.071-3.048c-1.754-1.207-2.887-.281-4.332.989-1.277,1.124-1.918.985-3.513.263-.336-.152-.522-.5-.926-.589a1.6,1.6,0,0,0-1.616.543c-.783.741-.423,1.707-1.612,1.655-1.047-.045-1.127-1.291-1.357-2.187a8.654,8.654,0,0,0-.81-2.835,2.215,2.215,0,0,0-2.3-.955c-.66.181-.815.785-1.3,1.159-1.7,1.317-3.381.854-4.017-1.35-.005-.017-.017-.025-.022-.041-.056-.262-.127-.518-.171-.783l-.134-.973A15.8,15.8,0,0,1,2.4,10.738M38.315,30.06A34.762,34.762,0,0,1,25.5,32.054c-.342,0-.686,0-1.03-.007C16.843,31.882,6.53,30.834,2.9,24.016a2.249,2.249,0,0,0,2.275-.072c.535-.314.864-1.106,1.359-1.35,2.078-1.027,1.946.367,2.217,1.5a8.66,8.66,0,0,0,1.324,3.567c2.213,2.59,2.722-1.485,4.262-1.626.994-.092,1.649,1.092,2.769,1.113,1.906.038,2.46-1.969,3.96-2.6,2.712-1.145,4.233,4.374,6.863,4.573,3.562.27,2.858-5.669,5.53-5.728,2.254-.049,4.115,2.3,6.112.534.431-.381.858-1.63,1.331-1.74,1.141-.266,1.332,1.007,1.768,1.7.359.569.853,1.528,1.67,1.5.762-.024,1.073-.77,1.361-1.35.341-.683.853-4.207,1.509-4.385.84-.228,1.467,1.292,2.484.953a9.891,9.891,0,0,1-1.465,3.119C45.9,26.978,42.5,28.46,38.315,30.06" transform="translate(0 0)" fill="#c3c2b1"/>
      <path id="Tracé_10419" data-name="Tracé 10419" d="M12.235,18.586a.612.612,0,0,0,.325-1.179c-2.493-.74-4.849-2.147-5.734-4.723-.254-.74-1.436-.422-1.179.325,1.032,3,3.656,4.706,6.588,5.577" transform="translate(-0.711 -1.554)" fill="#c3c2b1"/>
      <path id="Tracé_10420" data-name="Tracé 10420" d="M16.177,20.015a.612.612,0,0,0,0-1.223.612.612,0,0,0,0,1.223" transform="translate(-1.975 -2.381)" fill="#c3c2b1"/>
    </g>
  </g>
</svg>
