<svg xmlns="http://www.w3.org/2000/svg" xmlns:xlink="http://www.w3.org/1999/xlink" width="77.129" height="77.129" viewBox="0 0 77.129 77.129">
  <defs>
    <clipPath id="clip-path">
      <rect id="Rectangle_2199" data-name="Rectangle 2199" width="69.21" height="69.21" fill="none"/>
    </clipPath>
  </defs>
  <g id="Groupe_249" data-name="Groupe 249" transform="matrix(0.996, -0.087, 0.087, 0.996, -277.219, -1175.239)">
    <g id="Groupe_224" data-name="Groupe 224" transform="translate(242.168 1200.915) rotate(88)">
      <g id="Groupe_223" data-name="Groupe 223" clip-path="url(#clip-path)">
        <path id="Tracé_9709" data-name="Tracé 9709" d="M62.279,39.132c-3.052-1.245-6.467-1.093-9.458-2.554-3.209-1.568-3.641-5.468-5.952-7.891a8.954,8.954,0,0,0-13.45.966l-6.5-6.531c-2.375-2.384-4.741-4.778-7.139-7.14a77.862,77.862,0,0,0-6.746-6.544,12.9,12.9,0,0,1-1-2.537,3.007,3.007,0,0,0-.638-.884A1.264,1.264,0,0,0,11.43,4.3a1.007,1.007,0,0,0-1.046-.218.889.889,0,0,0-.564.536l-.195-.18a1.3,1.3,0,0,0-.25-1.874,1.179,1.179,0,0,0-1.13-.171.939.939,0,0,0-.411.394l-.257-.237A1.06,1.06,0,0,0,7.471.908,1.008,1.008,0,0,0,6.5.769a.754.754,0,0,0-.417.4L4.944.118a.413.413,0,0,0-.578,0C3.51,1.061,2.52.452,1.7,1.2a.536.536,0,0,0-.179.326A.536.536,0,0,0,1.2,1.7C.452,2.52,1.061,3.509.119,4.365a.412.412,0,0,0,0,.578L1.172,6.087a.753.753,0,0,0-.4.417,1.007,1.007,0,0,0,.139.968,1.06,1.06,0,0,0,1.638.106l.238.257a.937.937,0,0,0-.394.411,1.178,1.178,0,0,0,.171,1.13,1.3,1.3,0,0,0,1.874.25l.179.194a.889.889,0,0,0-.535.564A1.007,1.007,0,0,0,4.3,11.43a1.265,1.265,0,0,0,1.721-.04,3.019,3.019,0,0,0,.883.637,12.885,12.885,0,0,1,2.537,1,77.808,77.808,0,0,0,6.544,6.746c2.361,2.4,4.756,4.764,7.14,7.138l6.53,6.5a8.955,8.955,0,0,0-.966,13.45c2.423,2.31,6.323,2.743,7.891,5.951,1.461,2.991,1.31,6.406,2.554,9.459,2.191,5.373,8.324,7.891,13.835,6.6a16.666,16.666,0,0,0,2.423-.77,10.811,10.811,0,0,0,2.483-1.232,36.032,36.032,0,0,0,5.009-3.8,19.69,19.69,0,0,0,3.768-4.649,12.139,12.139,0,0,0,.889-1.783,16.753,16.753,0,0,0,1.336-3.68c1.294-5.51-1.223-11.643-6.6-13.834M10.52,4.6a.489.489,0,0,1,.557.173c.225.3.024.557-.167.8-.27-.234-.542-.455-.774-.667.134-.1.222-.239.385-.3M8.486,2.98a.592.592,0,0,1,.56.182c.269.248.184.527.055.789l-.843-.778a.378.378,0,0,1,.228-.193M7.1,1.395a.4.4,0,0,1-.048.668l-.58-.535c.152-.227.374-.346.628-.134M5.57,10.91c-.24.191-.5.392-.8.167a.489.489,0,0,1-.173-.557c.064-.163.208-.251.3-.385.212.232.433.5.667.774M3.951,9.1c-.263.129-.541.214-.789-.055a.594.594,0,0,1-.182-.561.379.379,0,0,1,.193-.228l.778.844M2.063,7.053A.4.4,0,0,1,1.4,7.1c-.212-.254-.094-.476.133-.628l.535.58m3.4,2.461Q3.224,7.084.972,4.663a2.979,2.979,0,0,0,.564-1c.056-.152-.092-1.526.37-1.364a.251.251,0,0,0,.311-.087.251.251,0,0,0,.087-.31c-.162-.463,1.213-.315,1.364-.371A2.969,2.969,0,0,0,4.663.972q2.424,2.249,4.851,4.5a7.352,7.352,0,0,1,2.31,3.247,2.032,2.032,0,0,0,.411.717c.046.064.094.127.141.19a19.7,19.7,0,0,0-2.735,2.447.517.517,0,0,0-.131.225l-.079-.058a2.026,2.026,0,0,0-.717-.411,7.355,7.355,0,0,1-3.247-2.31M45.379,48.141c-.894-.939-1.807-1.858-2.723-2.775.075-.027.15-.056.224-.086s.152-.066.225-.1q1.185,1.2,2.381,2.387c1.613,1.6,3.152,3.3,4.9,4.758q-.256.254-.512.509c-1.384-1.669-3-3.125-4.492-4.69m6.5,2.687c-.136.137-.272.274-.408.411-1.385-1.671-3-3.129-4.5-4.695-.814-.854-1.643-1.694-2.476-2.53.062-.084.12-.169.174-.257q1.149,1.161,2.306,2.311c1.614,1.6,3.153,3.3,4.9,4.76m-5.651-3.536c-.811-.852-1.637-1.689-2.467-2.522.082-.063.159-.129.234-.2q1.114,1.126,2.237,2.243c1.614,1.6,3.154,3.3,4.9,4.76l-.411.408c-1.385-1.67-3-3.127-4.495-4.692M31.985,30.96,35.1,34.1c-.094.057-.185.118-.275.182l-3.069-3.092-2.2-2.218c.074-.081.146-.164.217-.248l2.216,2.237M21.719,20.581q1.042,1.057,2.086,2.113c-.01,0-.018,0-.027,0a2.129,2.129,0,0,0-.3.17q-.889-.892-1.778-1.783l-3.3-3.307q.127-.161.238-.33l3.088,3.134m-.747.747q.979.994,1.96,1.986c-.085.083-.169.168-.252.253q-.707-.709-1.414-1.418a.414.414,0,0,0,.022-.178.2.2,0,0,0-.145-.187.47.47,0,0,0-.231.011L19.56,20.441a1.1,1.1,0,0,0,.1-.289A.128.128,0,0,0,19.5,20a1.085,1.085,0,0,0-.287.1L17.7,18.578l.268-.3,3.005,3.049M33.488,33.976a2.17,2.17,0,0,0-.278.179l-.693-.7c.076-.078.148-.158.216-.242l.756.762m2.647,2.667c-.075.077-.148.157-.219.238l-.625-.63c.064-.1.123-.188.178-.28l.667.672m-.7.795c-.034.041-.071.08-.1.122q-.3-.317-.6-.627c.035-.033.066-.07.1-.1Zm-.907-.915c-.033.035-.068.068-.1.1-.231-.23-.463-.46-.7-.686l.12-.1.677.682M33.45,35.67l-.525-.5c.05-.035.1-.079.145-.118l.483.487c-.034.043-.07.086-.1.129m-2.67-3.964-.729-.734a2.547,2.547,0,0,0,.194-.268L31,31.47c-.077.074-.151.154-.223.236m-1.193-1.2-.779-.783c.1-.094.174-.167.194-.187l.042-.042.8.809a2.537,2.537,0,0,0-.259.2m3.1,4.165c-.042.054-.087.106-.123.162l-.708-.667c.053-.057.1-.116.157-.175l.675.68m-.354-1.858a1.54,1.54,0,0,0-.291.167l-.822-.828c.073-.081.144-.164.21-.249l.9.91M28.547,29.08c-.063.062-.127.124-.192.186l-.864-.869a.993.993,0,0,0,.151-.318l.949.958-.044.044m-1.153-1.252a1.006,1.006,0,0,0-.308.161l-.911-.917a.641.641,0,0,0,.018-.109.179.179,0,0,0-.179-.179.617.617,0,0,0-.11.016l-1.1-1.1c.082-.079.163-.16.239-.246l2.349,2.375m-3.148-2.691L23.1,23.991c.086-.081.172-.162.256-.245L24.5,24.9c-.087.076-.171.156-.254.236m-5.562-4.625c-.1.1-.187.209-.27.316-.492-.486-.982-.975-1.475-1.459.11-.1.214-.2.316-.307l1.43,1.451m.461.467,1.079,1.1.137.139c-.093.09-.187.179-.276.272l-1.248-1.239c.1-.083.208-.172.307-.267m1.663,1.686,1.375,1.393c-.086.084-.172.17-.252.26l-1.412-1.4c.1-.079.193-.167.289-.251M22.6,24.478l1.134,1.148c-.081.08-.161.162-.236.246l-.085-.085-1.073-1.066c.09-.078.176-.161.26-.244M24.3,26.2l.987,1c-.076.079-.148.162-.213.244l-1.018-1.015c.084-.073.164-.151.244-.229m1.466,1.484.808.815c-.07.076-.142.151-.211.229l-.843-.84c.083-.062.166-.132.245-.2m1.243,1.254.842.849c-.066.076-.13.155-.188.236l-.87-.867c.074-.072.144-.145.216-.219m1.261,1.272.824.831c-.061.076-.121.154-.178.23l-.878-.875c.072-.054.151-.119.232-.186m1.271,1.283.77.777c-.057.073-.115.147-.168.223l-.819-.816c.072-.059.145-.121.218-.184m1.186,1.2.8.808c-.053.069-.1.139-.151.209q-.413-.395-.812-.792l-.035-.035c.068-.06.132-.125.2-.19m4.859,5.145c.042-.039.083-.081.124-.122l.7.707c-.051.06-.1.12-.151.181q-.328-.388-.674-.766m.634-.65c.074-.079.147-.158.216-.241l.651.657c-.07.082-.139.165-.207.25l-.66-.665m-.873-1.339c-.088.058-.176.122-.267.19l-.676-.681q.116-.113.227-.231l.716.722m-1.311-.862-.46-.464a2.176,2.176,0,0,0,.173-.285l.515.519q-.116.112-.228.23m-4.914-6.448q-1.874-1.886-3.749-3.769s0-.006,0-.009a.175.175,0,0,0-.174-.174h-.009l-1.372-1.376a2.225,2.225,0,0,0,.174-.3c0-.009,0-.016,0-.025q2.686,2.72,5.377,5.437c-.085.07-.169.142-.251.215M16.715,15.5l1.678,1.7c-.112.076-.221.157-.328.243L16.657,16.04c-.79-.791-1.589-1.572-2.384-2.357a2.181,2.181,0,0,0,.181-.324c.757.725,1.545,1.418,2.26,2.143m-.747.747,1.6,1.626L17.425,18l-.159.141L15.91,16.787c-.122-.122-.245-.242-.367-.364.025-.042.054-.082.075-.124.044-.092-.03-.225-.144-.188a1.624,1.624,0,0,0-.17.075q-.865-.857-1.733-1.712l.028-.028q.115-.113.226-.227c.72.685,1.465,1.342,2.143,2.03m-1.207.294a4.325,4.325,0,0,0-.327.3c-.529-.547-1.061-1.1-1.6-1.638.086-.076.167-.158.249-.24.56.533,1.134,1.049,1.681,1.576m.377.37L15.22,17l1.567,1.59c-.107.106-.212.214-.308.328-.08-.078-.158-.158-.239-.236-.485-.475-.968-.969-1.452-1.468a4.37,4.37,0,0,0,.349-.3m21.38,22.009c.062-.069.121-.142.18-.214l.328.33c-.052.109-.1.22-.147.333-.116-.152-.24-.3-.361-.45m.654-.778c.071-.082.141-.164.209-.248l.22.222q-.1.127-.2.262l-.234-.235m1.283.834,2.827,2.849q.928.936,1.854,1.876c-.074.073-.15.143-.229.21q-.808-.808-1.614-1.617L38.23,39.213c.071-.08.146-.158.223-.233m5.163,4.152q-.79-.79-1.578-1.582L39.014,38.5c.087-.065.175-.129.266-.191l2.748,2.77q.883.889,1.762,1.783c-.053.092-.112.18-.172.267m-5.5-5.538-.318-.32c.019-.038.038-.077.055-.116.034-.081-.044-.194-.136-.135-.034.022-.066.047-.1.071l-2.522-2.541q.1-.136.18-.278l3.1,3.122a3.226,3.226,0,0,0-.258.2M32.5,30.442l-2.3-2.313c.036-.06.073-.12.106-.181l2.605,2.615c2.089,2.1,4.124,4.561,6.52,6.361a3.123,3.123,0,0,0-.385.116l-6.548-6.6M18.679,16.24c2.353,2.407,4.737,4.782,7.109,7.17q2.177,2.192,4.361,4.377c-.062.032-.122.068-.182.1q-3.758-3.782-7.525-7.555L17.4,15.293c-.88-.881-1.772-1.749-2.656-2.625a20.366,20.366,0,0,0-2.072-1.985q.145-.152.281-.308c1.707,2.1,3.855,3.956,5.721,5.865m-4.529-3.176a2.2,2.2,0,0,0-.319.179,16.908,16.908,0,0,0-1.913-1.822c.154-.141.307-.284.454-.429a13.893,13.893,0,0,0,1.778,2.072m-.861.634q-.11.108-.22.22l-.029.028a15.408,15.408,0,0,0-1.932-1.825q.248-.2.492-.417A13.439,13.439,0,0,0,13.289,13.7m-.748.747c-.08.081-.163.162-.238.247-.68-.658-1.376-1.294-2.1-1.872a.58.58,0,0,0,.121-.07c.158-.123.318-.249.477-.377a13.25,13.25,0,0,0,1.742,2.073M37.8,39.824l2.73,2.752q.873.88,1.744,1.764c-1.972,1.046-4.171-.519-4.676-2.434a2.746,2.746,0,0,1,.2-2.082M52.016,52.015a65.369,65.369,0,0,0,6.137-5.951c.7.645,1.185,1.63.316,2.426-.451.413-.907.822-1.35,1.244q-1.106,1.056-2.222,2.1-.394.371-.783.743-.162.154-.322.309l-.03.029c-.142.139-.284.278-.424.419s-.28.282-.419.425l-.029.03q-.155.16-.31.322-.371.389-.743.783-1.046,1.115-2.1,2.222c-.422.443-.831.9-1.244,1.35-.8.869-1.782.384-2.426-.316a65.378,65.378,0,0,0,5.952-6.138m-4.231-6.752c1.613,1.6,3.152,3.294,4.9,4.757-.156.156-.31.313-.466.469-1.384-1.67-3-3.126-4.494-4.692-.885-.929-1.788-1.841-2.695-2.749.052-.136.1-.274.136-.415q1.3,1.32,2.621,2.629m-3.667-3.125q-.667-.667-1.332-1.335L40,38a3.351,3.351,0,0,1,3.31.866,2.994,2.994,0,0,1,.805,3.273m23.852,9.7a8.888,8.888,0,0,1-.342,2.03c-.59,1.173-.958,2.463-1.584,3.636a18.362,18.362,0,0,1-3.553,4.371,38.934,38.934,0,0,1-4.748,3.766,19.5,19.5,0,0,1-3.5,1.785,13.987,13.987,0,0,1-1.555.4C46.769,69,40.951,65.98,39.6,59.883c-.561-2.531-.731-5.325-2.021-7.631-1.248-2.231-3.086-3.226-5.306-4.337-2.729-1.366-5.077-3.715-5.19-6.965a8.509,8.509,0,0,1,3.178-6.925l.016.015c2.033,2.024,4.011,4.394,6.36,6.09a5.324,5.324,0,0,0-.1,2.057,4.405,4.405,0,0,0,5.283,3.4q1.4,1.421,2.82,2.83c1.613,1.6,3.153,3.3,4.9,4.758-.35.352-.7.7-1.045,1.057a.171.171,0,0,0-.035.054c-1.163,1.159-2.341,2.3-3.557,3.412a.558.558,0,0,0-.092.678c.559.789,1.231,1.737,2.275,1.864,1.208.147,1.855-.58,2.623-1.417,1.308-1.426,2.667-2.847,3.931-4.339.107-.1.213-.206.32-.307.878-.823,1.83-1.637,2.728-2.5.717-.658,1.425-1.322,2.135-1.972.838-.769,1.565-1.415,1.417-2.623-.127-1.044-1.075-1.716-1.864-2.275a.558.558,0,0,0-.678.092c-1.109,1.216-2.253,2.394-3.412,3.557a.169.169,0,0,0-.053.035c-.405.395-.807.794-1.207,1.193-1.384-1.669-3-3.126-4.493-4.691-1.052-1.1-2.129-2.184-3.207-3.262a4.907,4.907,0,0,0-.842-3.156,4.456,4.456,0,0,0-4.027-1.705.432.432,0,0,0-.042-.01c-.042,0-.083,0-.125-.006-1.7-2.445-4.159-4.482-6.244-6.576l-.016-.016a8.508,8.508,0,0,1,6.925-3.178c3.25.113,5.6,2.461,6.965,5.19,1.111,2.221,2.107,4.058,4.337,5.306,2.306,1.29,5.1,1.46,7.631,2.021,5.805,1.287,8.821,6.623,8.087,12.243" transform="translate(0 0)" fill="#e1dfcb"/>
      </g>
    </g>
    <path id="Tracé_9710" data-name="Tracé 9710" d="M-2407.465,1189.459c2.309,7.655-.844,10.53-.844,10.53" transform="translate(2619.379 24.132)" fill="none" stroke="#b1771a" stroke-linecap="round" stroke-width="1"/>
    <path id="Tracé_9711" data-name="Tracé 9711" d="M.762,0c-2.08,7.883.76,10.843.76,10.843" transform="matrix(-0.052, 0.999, -0.999, -0.052, 230.833, 1234.015)" fill="none" stroke="#b1771a" stroke-linecap="round" stroke-width="1"/>
  </g>
</svg>
