<svg xmlns="http://www.w3.org/2000/svg" width="24.347" height="24.347" viewBox="0 0 24.347 24.347">
  <path id="instagram_4_" data-name="instagram (4)" d="M20.674,6.212h0a1.461,1.461,0,1,0,1.461,1.461A1.461,1.461,0,0,0,20.674,6.212Zm5.6,2.946a9.239,9.239,0,0,0-.56-2.958A6.014,6.014,0,0,0,24.3,4.045a5.721,5.721,0,0,0-2.155-1.4,8.887,8.887,0,0,0-2.958-.572C17.9,2,17.485,2,14.173,2s-3.725,0-5.015.073A8.887,8.887,0,0,0,6.2,2.645a5.819,5.819,0,0,0-2.155,1.4A5.721,5.721,0,0,0,2.645,6.2a8.887,8.887,0,0,0-.572,2.958C2,10.448,2,10.862,2,14.173s0,3.725.073,5.015a8.887,8.887,0,0,0,.572,2.958,5.722,5.722,0,0,0,1.4,2.155A5.819,5.819,0,0,0,6.2,25.7a8.887,8.887,0,0,0,2.958.572c1.29.073,1.7.073,5.015.073s3.725,0,5.015-.073a8.887,8.887,0,0,0,2.958-.572A5.721,5.721,0,0,0,24.3,24.3a5.9,5.9,0,0,0,1.412-2.155,9.24,9.24,0,0,0,.56-2.958c0-1.29.073-1.7.073-5.015S26.347,10.448,26.274,9.158Zm-2.191,9.885a6.829,6.829,0,0,1-.414,2.264,3.725,3.725,0,0,1-.913,1.4,3.883,3.883,0,0,1-1.4.913,6.829,6.829,0,0,1-2.264.414c-1.217.061-1.668.073-4.869.073s-3.652,0-4.869-.073a6.975,6.975,0,0,1-2.362-.365,3.981,3.981,0,0,1-1.339-.913,3.652,3.652,0,0,1-.9-1.4,6.744,6.744,0,0,1-.487-2.313c0-1.217-.073-1.668-.073-4.869s0-3.652.073-4.869A6.744,6.744,0,0,1,4.69,6.991a3.652,3.652,0,0,1,.962-1.339,3.822,3.822,0,0,1,1.339-.974A6.975,6.975,0,0,1,9.3,4.264c1.217,0,1.668-.073,4.869-.073s3.652,0,4.869.073a6.829,6.829,0,0,1,2.264.414,3.725,3.725,0,0,1,1.449.974,3.725,3.725,0,0,1,.913,1.339A6.829,6.829,0,0,1,24.083,9.3c.061,1.217.073,1.668.073,4.869S24.143,17.825,24.083,19.043ZM14.173,7.928A6.233,6.233,0,1,0,18.6,9.75a6.245,6.245,0,0,0-4.427-1.821Zm0,10.3a4.054,4.054,0,1,1,4.054-4.054,4.054,4.054,0,0,1-4.054,4.054Z" transform="translate(-2 -2)" fill="#e1dfcb"/>
</svg>
