<svg id="Groupe_255" data-name="Groupe 255" xmlns="http://www.w3.org/2000/svg" xmlns:xlink="http://www.w3.org/1999/xlink" width="114.526" height="114.528" viewBox="0 0 114.526 114.528">
  <defs>
    <clipPath id="clip-path">
      <rect id="Rectangle_2208" data-name="Rectangle 2208" width="114.526" height="114.528" fill="none"/>
    </clipPath>
  </defs>
  <g id="Groupe_254" data-name="Groupe 254" clip-path="url(#clip-path)">
    <path id="Tracé_10265" data-name="Tracé 10265" d="M52.447,0h.968a4.219,4.219,0,0,0,1.573,0h4.84A3.519,3.519,0,0,0,61.28,0h.727c1.131.166,2.279.116,3.413.277A57.217,57.217,0,0,1,101.141,20a57.089,57.089,0,0,1,13.173,29.584c.121.932.064,1.881.212,2.813v.847a4.216,4.216,0,0,0,0,1.573v4.84a3.541,3.541,0,0,0,0,1.452v.968c-.192,1.351-.174,2.719-.394,4.071a58.617,58.617,0,0,1-4.39,14.671,57.183,57.183,0,0,1-6.535,11,57.945,57.945,0,0,1-10.73,10.833,56.93,56.93,0,0,1-29.138,11.668,76.2,76.2,0,0,1-8.263.181,50.682,50.682,0,0,1-7.572-.685,3.244,3.244,0,0,1-1.33-.361.194.194,0,0,1-.054-.172,8.589,8.589,0,0,1,1.421-.774,26.9,26.9,0,0,0,8.015-6.8,30.169,30.169,0,0,0,4.482-6.723,63.062,63.062,0,0,0,2.729-7.559c1.2-3.952,2.359-7.922,3.9-11.761a47.306,47.306,0,0,1,7.244-12.577,40.366,40.366,0,0,1,8.072-7.424c.141-.1.332-.149.4-.356a4.2,4.2,0,0,0-.956-.1,8.843,8.843,0,0,1-4.3-1.809.817.817,0,0,0-1.078-.059,5.851,5.851,0,0,1-3.343,1.072A3.836,3.836,0,0,1,70.193,57.4c-.546-.493-.546-.5-1.14-.036a17.124,17.124,0,0,1-9.383,3.478,28.4,28.4,0,0,1-4.822-.1,1.113,1.113,0,0,0-.888.291,61.6,61.6,0,0,0-7.138,7.462A46.533,46.533,0,0,0,41.4,76.987a45.494,45.494,0,0,0-3.074,8.133,1.4,1.4,0,0,1-.356.815.208.208,0,0,1-.176.007.891.891,0,0,1-.127-.8,41.965,41.965,0,0,1,8.6-20.5,47.036,47.036,0,0,1,4.42-4.984,6.658,6.658,0,0,1-6.4-2.622c-.592-.711-.461-.862-1.434-.179a71.906,71.906,0,0,0-8.484,6.8c-.756.725-1.528,1.434-2.27,2.173-.391.388-.584.361-.761-.177a29.216,29.216,0,0,0-3.13-6.393.629.629,0,0,1,.14-.9c2.352-2.266,4.711-4.524,7.017-6.838a21.9,21.9,0,0,1,1.977-1.777c.18-.141.347-.362.634-.243a1.069,1.069,0,0,1,.158.692,3.682,3.682,0,0,0,.327,1.344,2.026,2.026,0,0,0,1.937,1.287,7.376,7.376,0,0,0,3.045-.666c.882-.378,1.033-.3,1.372.6,1.041,2.769,3.459,4.428,6.394,3.781a6.986,6.986,0,0,0,2.539-1.091,11.281,11.281,0,0,0,1.64-1.426c.6-.62.778-.608,1.316.088a10.369,10.369,0,0,0,2.321,2.274,4.846,4.846,0,0,0,4.721.509,11.277,11.277,0,0,0,3.891-2.708c1.029-1.02,1.026-1.022,1.661.242a3.923,3.923,0,0,0,5.036,2.285,8,8,0,0,0,1.692-.64,1.8,1.8,0,0,1,.848-.294.832.832,0,0,1,.4.129,17.2,17.2,0,0,0,5.8,2c.709.159,1.426.277,2.135.433.227.05.523.052.577.35.049.269-.163.444-.347.6-1.526,1.288-2.982,2.651-4.416,4.04a54.205,54.205,0,0,0-3.885,4.226,48.806,48.806,0,0,0-6.506,10.022,59.883,59.883,0,0,0-3.758,10.267c-.811,2.956-1.536,5.935-2.433,8.867-.336,1.1-.811,2.15-1.2,3.233-.046.128-.144.247-.091.412.232.091.418-.066.614-.139A16.376,16.376,0,0,0,71.587,93.9a50.571,50.571,0,0,0,4.387-8.2c1.791-3.991,3.462-8.037,5.453-11.937a65.8,65.8,0,0,1,9.726-14.391c.541-.6,1.1-1.182,1.649-1.771.288-.309.29-.508-.06-.77-1.71-1.284-3.381-2.618-4.963-4.055a25.572,25.572,0,0,1-5.926-7.12,25.361,25.361,0,0,1-1.639-4.609,19.34,19.34,0,0,0-2.3-5.246,8.273,8.273,0,0,0-6.442-4.189,10.405,10.405,0,0,0-5.27,1.055,22.392,22.392,0,0,0-6.016,4.217c-.467.444-.943.881-1.394,1.342-.139.141-.282.335-.507.253s-.2-.329-.233-.522a9.611,9.611,0,0,0-1.526-3.972,5.883,5.883,0,0,0-4.77-2.446,10.937,10.937,0,0,0-5.1,1.1,21.166,21.166,0,0,0-9.753,8.819c-.44.75-.726,1.574-1.093,2.359A32.99,32.99,0,0,1,30.4,51.934,28.187,28.187,0,0,1,24.348,57a18.335,18.335,0,0,1-2.379,1.191c-.51.224-.522.3-.139.716a19.089,19.089,0,0,0,1.588,1.487,14.689,14.689,0,0,1,4.212,5.892,18.122,18.122,0,0,1,.8,3.1,1.427,1.427,0,0,1-.282,1.187,39.488,39.488,0,0,0-3.712,6.085A32.284,32.284,0,0,0,22.88,80.4a1.7,1.7,0,0,1-.387.807c-.406.071-.469-.3-.646-.514a4.327,4.327,0,0,1-.378-.615c-.181-.313-.42-.241-.672-.116-.267.133-.24.335-.134.559a7.432,7.432,0,0,0,.938,1.469,1.978,1.978,0,0,1,.463.766,15.947,15.947,0,0,1-.737,3.243c-.3.2-.44-.054-.588-.22a14.358,14.358,0,0,1-2.614-4.04c-.075-.183-.109-.408-.347-.456a.582.582,0,0,0-.561.146c-.151.16-.053.344.005.512a13.407,13.407,0,0,0,2.035,3.483,13.675,13.675,0,0,0,1.523,1.8,1.171,1.171,0,0,1,.365.547,10.081,10.081,0,0,1-.08,2.041,36.324,36.324,0,0,0,.692,9.519c.115.632.247,1.261.407,1.885a1.42,1.42,0,0,1,.025.944c-.3.331-.517.026-.719-.115a25.613,25.613,0,0,1-2.641-2.213A57.33,57.33,0,0,1,5.24,81.4,57.247,57.247,0,0,1,.666,66.718a48.334,48.334,0,0,1-.642-7.1C-.021,57.505,0,55.391.062,53.279A45.189,45.189,0,0,1,1.3,44.429a57.165,57.165,0,0,1,12.751-25.02A57.828,57.828,0,0,1,27.087,8.326,56.87,56.87,0,0,1,49.754.211c.893-.118,1.8-.052,2.693-.211" transform="translate(0)" fill="#1f1a17"/>
    <path id="Tracé_10266" data-name="Tracé 10266" d="M200.717,94.942a2.152,2.152,0,0,1,0-1.573Z" transform="translate(-86.191 -40.124)" fill="#322e2b"/>
    <path id="Tracé_10267" data-name="Tracé 10267" d="M200.72,106.068a1.9,1.9,0,0,1,0-1.452Z" transform="translate(-86.194 -44.957)" fill="#383431"/>
    <path id="Tracé_10268" data-name="Tracé 10268" d="M60.92,136.759a47.26,47.26,0,0,1-6.177-1.514,55.326,55.326,0,0,1-16.449-8.879c-.2-.155-.458-.258-.591-.5a12.732,12.732,0,0,0-.519-2.826,37.577,37.577,0,0,1-.575-11.262,5.346,5.346,0,0,0,.009-.541,1.689,1.689,0,0,1,.24-1.6q.364-1.69.729-3.381a1.533,1.533,0,0,1,.453-1.452,37.959,37.959,0,0,1,5.727-10.912.737.737,0,0,0,.156-.6A14.125,14.125,0,0,0,39.016,84.2a13.8,13.8,0,0,1-2.21-2.2c.078-.2.267-.191.408-.246a22.853,22.853,0,0,0,8.044-5.646,32.691,32.691,0,0,0,6.674-10.192,17.615,17.615,0,0,1,4.446-5.958,19,19,0,0,1,8.19-4.693,8.537,8.537,0,0,1,4.3-.115c2.991.765,4.273,2.99,4.9,5.765.075.332.118.672.19,1.1.452-.428.88-.822,1.3-1.23a22.035,22.035,0,0,1,7.325-5.021,8.773,8.773,0,0,1,7.646.166,9.889,9.889,0,0,1,3.892,4.017,23.143,23.143,0,0,1,2.232,5.721,19.1,19.1,0,0,0,5.388,8.865,68.879,68.879,0,0,0,6.957,5.889c.379.285.378.428.058.754A62.206,62.206,0,0,0,99.3,93.662a142.242,142.242,0,0,0-6.9,14.358,54.369,54.369,0,0,1-5.2,9.862,16.446,16.446,0,0,1-8.078,6.25c-.171.059-.346.109-.521.151a.762.762,0,0,1-.225-.036c.167-.4.323-.789.481-1.172a84.375,84.375,0,0,0,3.15-10.511,59.921,59.921,0,0,1,5.2-13.609,50.034,50.034,0,0,1,5.15-7.582,64.4,64.4,0,0,1,8.6-8.61,1.028,1.028,0,0,0,.416-.506c-1.1-.232-2.2-.445-3.285-.693A16.907,16.907,0,0,1,93.358,80c-.279-.159-.546-.341-.818-.513A2.149,2.149,0,0,1,91.4,78.458C90.458,77.1,89.69,75.62,88.688,74.3a8.938,8.938,0,0,0-5.114-3.536,7.417,7.417,0,0,0-2.944-.028,29.61,29.61,0,0,0-5.1,1.7,18.841,18.841,0,0,1-3.547.991,8.832,8.832,0,0,1-6.165-1.409,9.1,9.1,0,0,0-9.952-.255,19.371,19.371,0,0,0-1.723,1.121c-.174.127-.334.307-.59.235a60.48,60.48,0,0,0-4.951,4.605c-1.525,1.49-3.055,2.974-4.608,4.436-.274.259-.131.416,0,.611a32.819,32.819,0,0,1,2.166,3.9,27.358,27.358,0,0,1,1.127,2.971c1.41-1.5,2.872-2.847,4.369-4.158a77.232,77.232,0,0,1,7.429-5.67c.378-.258.457.044.59.219a8.627,8.627,0,0,0,2.51,2.312,5.818,5.818,0,0,0,4.074.694c.116-.021.237-.018.408-.031-.092.347-.366.5-.561.7a45.4,45.4,0,0,0-9.165,13.022,40.568,40.568,0,0,0-3.4,11.709,6.288,6.288,0,0,0-.112,1.078.289.289,0,0,1-.017.161c.069-.036.086-.115.139-.164a45.079,45.079,0,0,1,4.048-10.439,47.877,47.877,0,0,1,5.7-8.3,67.885,67.885,0,0,1,6.083-6.216,1.489,1.489,0,0,1,1.3-.4c5,.52,9.724-.133,13.847-3.3.771-.592.767-.578,1.47.043a3.894,3.894,0,0,0,4.24.583A8.293,8.293,0,0,0,92,80.554c.212-.144.34-.18.562.013A8.5,8.5,0,0,0,97.9,82.683a.976.976,0,0,1,.669.166c-.943.677-1.887,1.32-2.786,2.024a41.209,41.209,0,0,0-11.965,15.4,106,106,0,0,0-4.964,13.974,61.009,61.009,0,0,1-3.135,8.675,33.74,33.74,0,0,1-5.191,7.457,25.739,25.739,0,0,1-6.7,5.579,4.858,4.858,0,0,1-2.009.92c-.3-.071-.606-.032-.9-.12" transform="translate(-15.646 -23.606)" fill="#d9251d"/>
    <path id="Tracé_10269" data-name="Tracé 10269" d="M66.48,84.651a11.263,11.263,0,0,1,6.181-2.861,9.216,9.216,0,0,1,5.971,1.464A9.122,9.122,0,0,0,86.8,84.332c1.932-.611,3.768-1.477,5.717-2.041a7.972,7.972,0,0,1,8.183,2.167,17.878,17.878,0,0,1,2.66,3.7,15.753,15.753,0,0,0,2.1,2.851,12.3,12.3,0,0,1-3.2,1.184,4.084,4.084,0,0,1-4.5-2.367c-.2-.39-.368-.8-.56-1.223a15.95,15.95,0,0,1-4.026,3.248,5.516,5.516,0,0,1-6.993-1.244,22.71,22.71,0,0,1-1.569-1.9,10.226,10.226,0,0,1-2.043,1.92c-2.018,1.362-4.161,1.913-6.467.773a5.781,5.781,0,0,1-2.945-3.63c-.175-.55-.344-.682-.9-.4a7.266,7.266,0,0,1-2.64.776A2.56,2.56,0,0,1,66.5,85.436c-.014-.262-.016-.524-.023-.786" transform="translate(-28.569 -35.131)" fill="#fefefe"/>
    <path id="Tracé_10270" data-name="Tracé 10270" d="M26.352,100.418l-1.993,2.9c.936.27,1.816.52,2.694.776.418.121.571,0,.436-.434-.038-.121-.168-.278.04-.356.273-.1.227.176.269.288.2.526.375,1.061.549,1.6.036.112.18.263-.044.348-.172.066-.21-.072-.245-.182a1.2,1.2,0,0,0-.987-.784,4.89,4.89,0,0,1-.923-.279,4.741,4.741,0,0,0-4.325.113c-.365.176-.468.29-.291.645.1.2.139.419.217.626.046.122.088.241-.061.306s-.2-.049-.244-.173q-.753-2.2-1.513-4.39c-.043-.124-.08-.243.071-.3s.206.061.237.185a.255.255,0,0,0,.016.059c.174.33.116.889.455.982.307.084.707-.226,1.077-.31a3.111,3.111,0,0,0,2.222-1.726,26.142,26.142,0,0,1,1.424-2.247c-.586.08-1.061.156-1.54.206-.157.017-.378.14-.457-.129-.075-.247.124-.3.288-.378a2.13,2.13,0,0,0,1.349-1.913c.014-.371-.093-.495-.481-.449-1.721.2-3.443.4-5.168.556-.413.037-.4.206-.411.526s.327.842-.05.884c-.344.038-.215-.576-.258-.889-.165-1.2-.275-2.4-.384-3.606-.015-.162-.186-.459.128-.488.254-.023.181.266.2.427.109.961.1.943,1.062.833,1.5-.172,3-.336,4.511-.462.544-.045.612-.274.464-.721a2.015,2.015,0,0,0-1.606-1.393c-.407-.083-.448-.336-.509-.621-.074-.343.216-.375.432-.462a2.124,2.124,0,0,0,1.351-1.852c.232-1.9.226-1.906-1.657-1.942a.239.239,0,0,0-.06,0c-.341.084-.81-.259-1.02.178a1.629,1.629,0,0,0,.7,1.677c.2.109.512.117.406.473s-.409.165-.614.166c-.6,0-1.209-.037-1.813-.069-.124-.006-.31.066-.33-.154-.015-.166.01-.29.229-.348.832-.218,1.014-.88,1.081-1.627.025-.279-.076-.359-.327-.364-.746-.017-1.493-.028-2.237-.07-.462-.026-.3.314-.358.533-.07.255.1.756-.157.731-.378-.037-.146-.5-.143-.76.015-1.21.069-2.419.119-3.627.006-.128-.1-.372.184-.342.209.023.125.213.129.342a1.3,1.3,0,0,1-.018.3c-.082.407.048.549.491.557q2.54.045,5.078.178c.407.021.566-.091.524-.484a3.54,3.54,0,0,1,.194-1.18c.062-.267-.006-.354-.255-.4q-2.64-.506-5.275-1.029c-.317-.063-.392.056-.468.352-.067.262.024.811-.279.74-.411-.1-.061-.552-.018-.819.189-1.171.444-2.332.679-3.5.025-.121-.028-.324.2-.3.287.035.131.23.108.367-.14.837-.142.841.711,1.011,1.52.3,3.039.609,4.562.9.214.04.544.242.6-.219.039-.315.24-.675-.336-.746a5.568,5.568,0,0,1-.979-.3c-.144-.046-.343-.035-.277-.291.039-.153.1-.249.277-.255,1.88-.068,2.165-1.581,2.643-2.921.09-.253-.066-.306-.254-.368-.687-.229-1.374-.457-2.053-.706-.213-.078-.314-.086-.383.169-.186.689-.312,1.361.362,1.868.2.152.165.284.083.463-.094.2-.24.1-.356.059-.667-.225-1.329-.462-1.994-.691-.135-.046-.283-.064-.262-.262s.137-.254.331-.249c.863.025,1.224-.56,1.5-1.248.1-.238.051-.354-.2-.435-.688-.222-1.374-.454-2.051-.709-.323-.122-.425-.019-.549.282-.112.272-.039.834-.455.732-.231-.057.067-.547.157-.823.353-1.09.738-2.169,1.123-3.248.053-.148.028-.443.283-.368.272.08.088.308.019.444-.27.531-.145.768.457.952,1.537.469,3.052,1.014,4.563,1.564.393.143.6.124.665-.319a1.686,1.686,0,0,1,.1-.283c.05-.15.078-.366.3-.269.171.076.051.247.009.371-.452,1.312-.9,2.625-1.363,3.931A35.089,35.089,0,0,0,24.723,87.4c-.005.826-.111,1.656-.059,2.478.04.639.261,1.261.316,1.914.133,1.586.29,3.172.5,4.749a23.079,23.079,0,0,0,1.1,3.5c.1.327.224.646.327.971.036.116.19.26-.029.352s-.21-.107-.256-.225c-.08-.206-.156-.413-.27-.716" transform="translate(-7.724 -29.799)" fill="#fefefe"/>
    <path id="Tracé_10271" data-name="Tracé 10271" d="M107.39,26.747a7.331,7.331,0,0,1,7.21-7.379,7.408,7.408,0,0,1,7.093,7.517,7.157,7.157,0,1,1-14.3-.138" transform="translate(-46.149 -8.322)" fill="#fefefe"/>
    <path id="Tracé_10272" data-name="Tracé 10272" d="M88.389,18.054a5.813,5.813,0,0,1-3.256,4.6,8.692,8.692,0,0,1-3.746.823c-.517,0-.66.166-.612.655.043.435.01.877.01,1.4a11.721,11.721,0,0,1,3.771-1.249,7.621,7.621,0,0,1,3.525.247,4.093,4.093,0,0,1,1.5,7.125,7.506,7.506,0,0,1-7,1.64,3.448,3.448,0,0,1-1.8-1.055,2.637,2.637,0,0,1-.038-3.532,1.9,1.9,0,0,1,1.99-.539,2.258,2.258,0,0,1,1.9,1.392,1.327,1.327,0,0,1-.513,1.5,4.491,4.491,0,0,1-1,.531c.756,1.188,1.772,1.157,2.4-.043a5.679,5.679,0,0,0-.626-5.44,1.845,1.845,0,0,0-2.555-.225,5.471,5.471,0,0,1-1.01.76c-.7.307-1.113.048-1.113-.691,0-1.9,0-3.791,0-5.687,0-.187-.113-.488.308-.363,2.747.816,5.152-.006,7.4-1.565.1-.066.2-.124.456-.287" transform="translate(-34.416 -7.758)" fill="#fefefe"/>
    <path id="Tracé_10273" data-name="Tracé 10273" d="M106.365,165.689c-.131-.5.3-.412.553-.445a46.308,46.308,0,0,0,10.622-2.691,50.559,50.559,0,0,0,20.832-14.526,19.331,19.331,0,0,0,3.18-4.9c.2-.462.428-.228.656-.147.728.255.733.267.4.969a26.926,26.926,0,0,1-5.28,7.17,52.533,52.533,0,0,1-27.238,14.9c-.906.189-1.826.307-2.739.46s-.948.129-.983-.8" transform="translate(-45.698 -61.389)" fill="#fefefe"/>
    <path id="Tracé_10274" data-name="Tracé 10274" d="M135.686,29.993l-5.294,8.472c-.347.556-.7.574-1.155.075-.224-.248.052-.367.135-.5q2.922-4.711,5.867-9.406c.4-.647.8-1.3,1.222-1.936.1-.145.141-.554.427-.33s.895.182.763.823c-.605,2.948-1.2,5.9-1.8,8.849-.127.62-.262,1.239-.4,1.871.32.031.352-.239.457-.407q2.5-3.98,4.985-7.967c.179-.286.3-.589.754-.237.357.274.458.4.191.821-2.35,3.718-4.667,7.456-7.013,11.177-.1.164-.1.632-.49.415-.363-.2-.882-.3-.736-.971.485-2.235.928-4.479,1.387-6.721q.41-2,.817-4Z" transform="translate(-55.5 -11.303)" fill="#fefefe"/>
    <path id="Tracé_10275" data-name="Tracé 10275" d="M118.354,160.285c-.046-.013-.174-.02-.183-.056a3.837,3.837,0,0,1-.2-1.058c.012-.238.355-.185.559-.236a30.074,30.074,0,0,0,7.686-3.272,53.851,53.851,0,0,0,13.263-10.386,16.918,16.918,0,0,0,3.333-4.926c.19-.464.429-.227.659-.15.731.244.737.257.411.956a21.29,21.29,0,0,1-4.325,5.922,54.653,54.653,0,0,1-17.771,12.157,18.309,18.309,0,0,1-3.1.978c-.1.022-.2.042-.329.071" transform="translate(-50.695 -60.194)" fill="#fefefe"/>
    <path id="Tracé_10276" data-name="Tracé 10276" d="M151.125,37.744c1.3,1.313,2.58,2.6,3.867,3.884.194.194.226.306.021.531-.946,1.041-.938,1.049-1.94.046-.713-.713-1.434-1.419-2.135-2.144-.211-.218-.318-.236-.546,0-.805.847-1.636,1.671-2.478,2.484-.247.238-.249.37,0,.61.871.839,1.706,1.716,2.58,2.553.236.226.233.333,0,.541-.331.293-.625.627-1,1.009-.93-.955-1.851-1.886-2.752-2.839-.25-.264-.395-.329-.685-.023q-1.333,1.4-2.738,2.737c-.306.291-.238.438.022.691.954.927,1.879,1.885,2.835,2.811.251.243.23.383,0,.624-.913.969-.906.976-1.836.046q-1.562-1.561-3.125-3.121c-.174-.172-.267-.272-.031-.506,3.313-3.3,6.612-6.608,9.937-9.939" transform="translate(-60.612 -16.22)" fill="#fefefe"/>
    <path id="Tracé_10277" data-name="Tracé 10277" d="M161.455,58.347c.316-.358.6-.673.874-.993a1.774,1.774,0,0,0,.113-2.411,1.7,1.7,0,0,0-2.229-.348c-1.237.59-1.546,1.336-1.225,2.957.07.354.151.707.207,1.063.289,1.845-.525,3.2-2.7,4.457a4.448,4.448,0,0,1-2.7.7,2.824,2.824,0,0,1-2.114-4.3,7.7,7.7,0,0,1,2.109-2.285c.147-.114.21-.1.331.025.2.2.418.374.66.586a6.566,6.566,0,0,0-1.382,1.367,1.984,1.984,0,0,0,1.193,3.258,2.6,2.6,0,0,0,2.834-2.754c-.074-.558-.177-1.111-.263-1.666a3.679,3.679,0,0,1,1.594-3.768,5.329,5.329,0,0,1,3.019-1.221,2.568,2.568,0,0,1,2.58,3.333,5.591,5.591,0,0,1-2.067,2.591c-.157.129-.248.04-.347-.067l-.486-.521" transform="translate(-65.008 -22.78)" fill="#fefefe"/>
    <path id="Tracé_10278" data-name="Tracé 10278" d="M96.669,20.543c.372-.721.555-1.563,1.133-1.9.484-.283,1.255-.079,1.9-.081,1.35,0,2.7.006,4.049-.006.344,0,.465.026.292.42-.689,1.559-.676,1.6-2.351,1.552-.589-.015-.679.189-.676.711.021,3.465,0,6.93.022,10.394,0,.448-.1.575-.56.567-1.38-.024-1.381,0-1.381-1.379,0-3.223-.012-6.446.012-9.669,0-.51-.139-.658-.636-.619-.578.046-1.164.011-1.8.011" transform="translate(-41.542 -7.947)" fill="#fefefe"/>
    <path id="Tracé_10279" data-name="Tracé 10279" d="M173.222,83.983c.1-1.11.362-1.443,1.406-1.752.741-.22.764-.266.526-1.017-.036-.115-.222-.257.013-.337.181-.062.23.115.287.242a4.283,4.283,0,0,1,.417,1.99c-.048.89-.344,1.218-1.285,1.512-1.05.329-1.239.681-1.017,1.738.066.311.194.338.448.285.591-.123,1.181-.256,1.778-.343.393-.057.53-.2.372-.588a2.227,2.227,0,0,1-.076-.415c-.017-.087-.015-.163.086-.188.125-.031.179.037.2.153q.361,1.867.725,3.734c.019.1.022.21-.122.219-.1.006-.119-.082-.154-.153-.4-.809-.395-.8-1.287-.626-1.126.222-2.251.448-3.382.642-.466.08-.761.2-.519.749.055.127.137.388-.035.431-.287.07-.209-.247-.233-.381a48.444,48.444,0,0,1-.93-5.411,2.556,2.556,0,0,1,.283-1.521.782.782,0,0,1,1.349-.2,3.623,3.623,0,0,1,.941,1.727c.131-.047.131-.047.208-.489" transform="translate(-73.24 -34.75)" fill="#fefefe"/>
    <path id="Tracé_10280" data-name="Tracé 10280" d="M96.831,4.737q-.6,1.823-1.206,3.646a1.785,1.785,0,0,1-1.962,1.425c-.725,0-1.452-.013-2.177.005-.366.009-.409-.111-.273-.424.291-.663.567-.814,1.314-.667,1.366.267,1.366.267,1.8-1.077.275-.858.55-1.717.829-2.574.068-.207.145-.383-.208-.372-.7.023-1.413-.013-2.114.042-.772.061-1.148.621-1.021,1.451a6.22,6.22,0,0,1,.423-.5.984.984,0,0,1,1.532.047,1.03,1.03,0,0,1-.088,1.547,1.489,1.489,0,0,1-1.645.207,1.664,1.664,0,0,1-1.113-1.442,2.3,2.3,0,0,1,2.093-2.491c1.828-.176,3.666-.039,5.5-.073.261,0,.334.087.193.324-.091.154-.164.318-.245.478-.141.075-.028.254-.14.342-.485.175-1-.026-1.488.111" transform="translate(-39.067 -1.489)" fill="#fefefe"/>
    <path id="Tracé_10281" data-name="Tracé 10281" d="M58.238,31.689c.836,1.756,1.868,3.406,2.778,5.122.461.869.971,1.71,1.427,2.58.107.2.521.455.024.717-.45.237-.468-.2-.575-.388-1.548-2.766-3.078-5.541-4.613-8.315-.388-.7-.781-1.4-1.164-2.106-.083-.153-.289-.31.022-.48.238-.129.4-.175.607.059,1.084,1.219,2.183,2.426,3.277,3.637.951,1.053,1.9,2.108,2.947,3.1-.343-.623-.684-1.248-1.03-1.87q-1.59-2.868-3.18-5.737c-.082-.148-.276-.3-.163-.482a.666.666,0,0,1,.388-.261c.172-.041.192.165.253.275q1.2,2.156,2.391,4.317c1.119,2.017,2.249,4.029,3.351,6.055.113.208.519.439.1.756s-.558-.062-.753-.278q-2.954-3.277-5.9-6.56a1.016,1.016,0,0,0-.187-.133c-.047-.066.011.023-.032-.045-.01-.017,0,0,.037.04" transform="translate(-24.052 -11.714)" fill="#fefefe"/>
    <path id="Tracé_10282" data-name="Tracé 10282" d="M39.452,61.936c-.19.644-.5.727-1.072.493-1.261-.512-2.551-.956-3.842-1.39-1.016-.343-1.025-.318-1.632.63q2.172,1.409,4.341,2.822c.191.125.5.182.256.573s-.42.112-.6-.007c-3.353-2.172-6.7-4.353-10.058-6.515-.307-.2-.368-.318-.139-.618.316-.413.579-.867.873-1.3a1.167,1.167,0,0,1,1.5-.557,8.763,8.763,0,0,1,4.142,2.655,1.2,1.2,0,0,1,.359.615c.034.729.53.784,1.077.914,1.657.4,3.192,1.142,4.8,1.682" transform="translate(-11.416 -24.059)" fill="#fefefe"/>
    <path id="Tracé_10283" data-name="Tracé 10283" d="M71.061,26.777a10.246,10.246,0,0,0-1.085-1.71c-.294-.327-.628-.619-1.095-.46-.426.145-.545.529-.593.959a7.218,7.218,0,0,0,.43,2.9,18.127,18.127,0,0,0,1.817,4.246,3.151,3.151,0,0,0,1.289,1.316.761.761,0,0,0,1.171-.433,1.964,1.964,0,0,0,.048-1.636c-.1-.217-.172-.449-.258-.673-.368-.963-.372-.975-1.323-.647-.218.075-.332.1-.385-.152,0-.019-.022-.035-.027-.054-.107-.4-.551-.938-.336-1.133a4.888,4.888,0,0,1,1.571-.7c.185-.07.22.114.27.243.513,1.327,1.089,2.634,1.514,3.988a2.678,2.678,0,0,1-.412,2.3,1.075,1.075,0,0,1-1.569.388,3.682,3.682,0,0,1-1.329-1.193,19.237,19.237,0,0,1-3.374-8.906,3.006,3.006,0,0,1,.208-1.479,1.178,1.178,0,0,1,1.9-.567,6.727,6.727,0,0,1,1.871,2.611c.148.291-.209.47-.3.791" transform="translate(-28.948 -9.925)" fill="#fefefe"/>
    <path id="Tracé_10284" data-name="Tracé 10284" d="M35.1,47.965a6.66,6.66,0,0,1,2.706,1.072,21.265,21.265,0,0,1,5.635,4.845,4.762,4.762,0,0,1,.922,1.676c.3,1.072-.332,1.743-1.432,1.561a6.489,6.489,0,0,1-2.243-.833,19.447,19.447,0,0,1-6.556-5.833,3.214,3.214,0,0,1-.428-.926c-.276-.981.177-1.58,1.4-1.562" transform="translate(-14.452 -20.612)" fill="#fefefe"/>
    <path id="Tracé_10285" data-name="Tracé 10285" d="M174.116,119.251c-.143-.084-.123-.184-.111-.283.092-.834.091-.831-.743-1.022-1.2-.273-2.4-.531-3.582-.839-.469-.122-.708-.05-.741.464-.01.16-.008.448-.229.395-.27-.066-.054-.31-.022-.458.443-1.981.905-3.958,1.346-5.94.078-.351.2-.534.593-.414a6.62,6.62,0,0,0,.773.129c.127.022.308-.027.316.188a.275.275,0,0,1-.22.312c-1.519.412-1.576,1.764-1.9,2.949-.063.233.048.271.232.31a11.561,11.561,0,0,1,1.524.365c.577.209.687-.078.709-.537a1.239,1.239,0,0,0-.489-1.167c-.14-.1-.275-.193-.18-.385s.284-.109.427-.079c.531.112,1.06.236,1.588.364.123.03.3.027.291.229s-.154.217-.327.251a1.478,1.478,0,0,0-1.125,1.324c-.009.164.05.205.186.236.646.148,1.292.3,1.935.459a.243.243,0,0,0,.344-.217,11.169,11.169,0,0,0,.351-1.9,2.179,2.179,0,0,0-.864-1.843c-.158-.123-.271-.249-.177-.453.131-.283.324-.046.448-.01,1.416.415,1.41.42,1.074,1.849-.424,1.8-.84,3.6-1.261,5.4-.025.108,0,.247-.17.317" transform="translate(-72.443 -47.75)" fill="#fefefe"/>
    <path id="Tracé_10286" data-name="Tracé 10286" d="M164.491,128.356c.966-.234,1.824-.44,2.681-.651.163-.04.331-.084.2-.318-.431-.741-.859-1.483-1.281-2.213-.1.038-.115.044-.133.054-.214.105-.2.594-.425.465-.272-.155.062-.444.138-.663a11.506,11.506,0,0,1,.485-1.1c.038-.08.063-.216.2-.159a.17.17,0,0,1,.071.256c-.261.492-.011.89.22,1.3a4.635,4.635,0,0,1,.378.685,3.751,3.751,0,0,0,2.592,2.362c.413.131.584.147.733-.29.076-.221.1-.686.425-.569.207.075-.086.44-.179.657-.467,1.089-.955,2.17-1.442,3.25-.056.125-.067.386-.3.258-.169-.094,0-.257.045-.37.331-.87.307-.817-.478-1.249a2.827,2.827,0,0,0-2.627-.182,13.021,13.021,0,0,1-1.738.5c-.3.077-.594.122-.691.484-.023.085-.085.2-.214.142-.169-.081-.06-.2-.015-.3q.675-1.514,1.352-3.026c.053-.117.064-.329.256-.248s.031.243-.006.358c-.055.171-.141.331-.247.575" transform="translate(-70.073 -53.182)" fill="#fefefe"/>
    <path id="Tracé_10287" data-name="Tracé 10287" d="M177.053,99.341c-.406.214-.75.41-1.107.58a.363.363,0,0,0-.233.372c-.006.7-.033,1.41-.036,2.115,0,.315.8.921,1.09.848.179-.044.167-.2.206-.331.069-.228-.041-.488.131-.694.011-.013.034-.015.051-.023.034.014.1.026.1.044a22.052,22.052,0,0,1,.006,2.409c0,.1,0,.216-.123.243s-.187-.072-.172-.178c.112-.8-.491-1.063-1.023-1.389-1.322-.808-2.642-1.616-3.953-2.442-.218-.138-.586-.18-.565-.548.02-.329.358-.351.572-.466q2.2-1.184,4.426-2.335c.4-.209.8-.388.686-.961-.023-.116.007-.259.18-.241.139.014.116.141.114.234q-.038,1.813-.083,3.626c0,.094.017.225-.114.237-.189.016-.149-.144-.151-.255,0-.255,0-.512,0-.845" transform="translate(-73.666 -41.401)" fill="#fdfdfd"/>
    <path id="Tracé_10288" data-name="Tracé 10288" d="M102.674,5.115a.222.222,0,0,1,.173-.21c.457.216.949.014,1.483.134L103.21,8.608l1.154-1.017a1.633,1.633,0,0,1,.746-.371c.5-.105.8.175.688.671-.1.425-.273.833-.412,1.248-.2.335-.174.547.286.534.257-.007.515-.006.772,0,.209.005.37.055.234.318a1.034,1.034,0,0,1-.936.433c-.421.012-.844.006-1.265,0-.757-.006-.9-.184-.7-.9.041-.151.086-.3.156-.543-.947.557-1.461,1.8-2.814,1.374l1.566-4.988c.005-.087.064-.175-.01-.259" transform="translate(-43.454 -2.108)" fill="#fefefe"/>
    <path id="Tracé_10289" data-name="Tracé 10289" d="M169.353,76.125c-.113-.715-.24-1.429-.336-2.146-.153-1.147.178-1.843,1-2.152a2.03,2.03,0,0,1,2.389.936,3.615,3.615,0,0,1,.65,2.042.92.92,0,0,0,.366.817c.42.343.378.5-.11.686-.263.1-.528.194-.8.28-.134.043-.289.213-.409-.017-.087-.165-.136-.319.044-.481a2.278,2.278,0,0,0,.171-2.89,1.828,1.828,0,0,0-.438-.49.868.868,0,0,0-.952-.189.806.806,0,0,0-.412.874c.072.68.205,1.352.3,2.03.151,1.135-.239,1.959-1.029,2.2a2,2,0,0,1-2.214-1.19,3.171,3.171,0,0,1-.393-1.383,1.272,1.272,0,0,0-.393-1.073c-.186-.152-.216-.385.116-.494.209-.068.4-.207.608-.26.189-.048.373-.34.582-.086.2.239.028.433-.131.631a2.115,2.115,0,0,0-.209,2.38,1.966,1.966,0,0,0,.388.531.747.747,0,0,0,.877.22c.342-.153.34-.464.337-.78" transform="translate(-71.613 -30.818)" fill="#fdfdfd"/>
    <path id="Tracé_10290" data-name="Tracé 10290" d="M46.485,36.434c2.2,2.914,4.351,5.748,6.473,8.6.3.405.507.486.872.126.2-.2.473-.318.661-.522.469-.51.75-.315,1.074.176.448.68.478.663-.152,1.141-.464.352-.945.685-1.394,1.056-.216.179-.3.135-.453-.072q-3.675-4.9-7.372-9.78c-.382-.5.226-.432.291-.729" transform="translate(-19.797 -15.657)" fill="#fdfdfd"/>
    <path id="Tracé_10291" data-name="Tracé 10291" d="M50.668,50.032c-.6.556-1.21,1.085-1.774,1.657-.274.277-.4.169-.608-.054q-3.145-3.387-6.307-6.76c-.729-.78-1.454-1.563-2.165-2.327.29-.519.522-.431.88-.041,2.315,2.523,4.664,5.015,6.983,7.534.266.289.412.267.652.011.3-.323.648-.606.952-.927.21-.222.368-.247.573,0,.253.308.533.593.815.9" transform="translate(-17.109 -18.129)" fill="#fdfdfd"/>
    <path id="Tracé_10292" data-name="Tracé 10292" d="M109.739,11.779c-.227-.5-.668-.216-1.005-.247-.579-.054-.6-.066-.287-.605-.117.335-.079.548.355.477a1.263,1.263,0,0,1,.362,0c.427.055.64-.029.578-.554a1.414,1.414,0,0,1,.866-1.458,3.33,3.33,0,0,1,2.635-.107.773.773,0,0,1,.563.944.784.784,0,0,1-.885.636c-.9-.022-.9,0-.591-.9-.232-.04-.521-.152-.656.058a1.915,1.915,0,0,0-.319,1.137c.018.261.324.244.548.244h3.037a.98.98,0,0,1-.988.8,16.586,16.586,0,0,1-3.014-.07,1.347,1.347,0,0,1-.812-.352c-.159-.172-.259-.113-.387,0" transform="translate(-46.516 -3.896)" fill="#fdfdfd"/>
    <path id="Tracé_10293" data-name="Tracé 10293" d="M33.882,147.052q-.12.8-.24,1.6a15.9,15.9,0,0,1-3.986-5.82c-.073-.194-.417-.57.138-.623.364-.035.809-.562,1.087.224a13.414,13.414,0,0,0,3,4.616" transform="translate(-12.67 -61.025)" fill="#fefdfd"/>
    <path id="Tracé_10294" data-name="Tracé 10294" d="M52.264,32.295c.129.014.164.167.24.275q3.479,4.958,6.958,9.916c.141.2.229.347-.028.545-.313.241-.414,0-.543-.186q-2.046-2.908-4.085-5.821-1.435-2.049-2.863-4.1a.427.427,0,0,1,.321-.627" transform="translate(-22.297 -13.878)" fill="#fdfdfd"/>
    <path id="Tracé_10295" data-name="Tracé 10295" d="M37.673,141.139l-.454,1.452a9.773,9.773,0,0,1-1.572-2.267c-.149-.271-.147-.432.182-.528a2.655,2.655,0,0,0,.551-.24c.211-.118.3-.063.405.152a7.6,7.6,0,0,0,.887,1.431" transform="translate(-15.278 -59.946)" fill="#fdfcfc"/>
    <path id="Tracé_10296" data-name="Tracé 10296" d="M102.749,5.273c.174.081.12.169.01.259l-1.466-.017c.257-.229.567-.066.85-.115.2-.035.44.088.606-.128" transform="translate(-43.529 -2.266)" fill="#afadac"/>
    <path id="Tracé_10297" data-name="Tracé 10297" d="M175.161,86.333c.009.192.025.384.021.576,0,.072.039.233-.133.161a.2.2,0,0,1-.095-.249c.22-.1.07-.355.208-.489" transform="translate(-75.179 -37.1)" fill="#a4a2a1"/>
    <path id="Tracé_10298" data-name="Tracé 10298" d="M79.391,198.409a1.56,1.56,0,0,1,.9.12.2.2,0,0,1-.013.088,2.747,2.747,0,0,1-.887-.208" transform="translate(-34.117 -85.256)" fill="#6b504e"/>
    <path id="Tracé_10299" data-name="Tracé 10299" d="M66.312,150.658c-.041.172-.083.344-.137.572a.464.464,0,0,1,.015-.57l.123,0" transform="translate(-28.399 -64.743)" fill="#431c18"/>
    <path id="Tracé_10300" data-name="Tracé 10300" d="M83.921,148.2a7.451,7.451,0,0,1,1.389-4.1,40.468,40.468,0,0,0,4.649-9.548c1.28-3.462,2.409-6.982,4.011-10.32a32.255,32.255,0,0,1,8.175-10.72,3.422,3.422,0,0,1,3.115-.89,1.23,1.23,0,0,1,.853,2,10.761,10.761,0,0,1-1.588,1.719,40.17,40.17,0,0,0-8.4,15.5c-.923,3.246-1.548,6.564-2.417,9.822a27.869,27.869,0,0,1-2.445,6.585,6.679,6.679,0,0,1-3.484,3.111,2.584,2.584,0,0,1-3.531-1.563,5.151,5.151,0,0,1-.327-1.6" transform="translate(-36.064 -48.359)" fill="#fefefe"/>
    <path id="Tracé_10301" data-name="Tracé 10301" d="M47.642,138.414a30.2,30.2,0,0,1,5.392-16.389,40.03,40.03,0,0,1,8.2-8.555,5.641,5.641,0,0,1,2.586-1.348,1.36,1.36,0,0,1,1.466.46,1.227,1.227,0,0,1-.1,1.414,9.371,9.371,0,0,1-1.479,1.75A35.278,35.278,0,0,0,54.217,133a34.317,34.317,0,0,0-.666,5.143,7.135,7.135,0,0,1-1.018,3.37,2.438,2.438,0,0,1-2.7,1.373,2.871,2.871,0,0,1-2.188-2.715c-.007-.585,0-1.17,0-1.755" transform="translate(-20.473 -48.166)" fill="#fefefe"/>
    <path id="Tracé_10302" data-name="Tracé 10302" d="M119.85,58.765a6.127,6.127,0,0,1,3.2.713,2.33,2.33,0,0,1,1.2,2.85,6.214,6.214,0,0,1-1.986,3.026,1.579,1.579,0,0,1-2.144-.072,6.852,6.852,0,0,1-1.247-1.387c-.732-.968-1.216-1.031-2.113-.2a3.225,3.225,0,0,1-2.04.922,1.227,1.227,0,0,1-1.378-.831c-.516-1.379-.417-2.505.833-3.335a10.151,10.151,0,0,1,5.679-1.687" transform="translate(-48.579 -25.253)" fill="#fefefe"/>
    <path id="Tracé_10303" data-name="Tracé 10303" d="M85.088,58.771a6.143,6.143,0,0,1,2.85.618,2.352,2.352,0,0,1,1.21,2.644A5.992,5.992,0,0,1,87.4,65.2a1.5,1.5,0,0,1-2.035.173,6.626,6.626,0,0,1-1.33-1.213c-1.063-1.094-1.337-1.107-2.381-.014a3.232,3.232,0,0,1-1.881.981,1.224,1.224,0,0,1-1.058-.315,2.569,2.569,0,0,1-.014-3.563,9.976,9.976,0,0,1,6.384-2.476" transform="translate(-33.516 -25.256)" fill="#fefefe"/>
    <path id="Tracé_10304" data-name="Tracé 10304" d="M65.975,151.983c.2.244.113.4-.055.614a.652.652,0,0,1,.055-.614" transform="translate(-28.306 -65.312)" fill="#b8221b"/>
    <path id="Tracé_10305" data-name="Tracé 10305" d="M111.751,32.619a6.073,6.073,0,0,1-1.782-7.415,5.238,5.238,0,0,1,4.14-3.383c.3-.047.413,0,.331.328q-1.308,5.132-2.608,10.264c-.015.058-.044.112-.08.205" transform="translate(-47.015 -9.371)" fill="#d9251d"/>
    <path id="Tracé_10306" data-name="Tracé 10306" d="M115.49,32.37c.222-.91.485-1.98.744-3.051q.855-3.538,1.707-7.075a1.37,1.37,0,0,1,1.214-1.079,1.016,1.016,0,0,1,1,.866.838.838,0,0,1,.013.415q-1.294,5.226-2.606,10.447a.959.959,0,0,1-1.175.772,1.224,1.224,0,0,1-.9-1.294" transform="translate(-49.63 -9.095)" fill="#1f1a17"/>
    <path id="Tracé_10307" data-name="Tracé 10307" d="M121.73,34.053c.668-3.183,1.318-6.281,1.967-9.379q.1-.471.192-.943c.121-.606.217-.647.778-.339A2.195,2.195,0,0,1,125.78,24.9a8.514,8.514,0,0,1-2.372,8.332,3.306,3.306,0,0,1-1.678.821" transform="translate(-52.311 -9.971)" fill="#d9251d"/>
    <path id="Tracé_10308" data-name="Tracé 10308" d="M90.557,30.97A3.732,3.732,0,0,1,94.1,33.589c.285,1.294-.786,2.762-2.808,3.724a6.565,6.565,0,0,0-.74-6.344" transform="translate(-38.915 -13.309)" fill="#d9251d"/>
    <path id="Tracé_10309" data-name="Tracé 10309" d="M81.432,22.253a8.216,8.216,0,0,0,2.911.246c.927-.117,1.788-.481,2.752-.7a4.542,4.542,0,0,1-4.321,2.055,1.716,1.716,0,0,1-1.341-1.6" transform="translate(-34.994 -9.366)" fill="#d9261e"/>
    <path id="Tracé_10310" data-name="Tracé 10310" d="M83.888,38.4a1.054,1.054,0,0,1-.983,1.034.994.994,0,0,1-.936-1.053.978.978,0,0,1,.95-1.03,1.072,1.072,0,0,1,.969,1.049" transform="translate(-35.225 -16.051)" fill="#d9271f"/>
    <path id="Tracé_10311" data-name="Tracé 10311" d="M171.184,88.56c-.021-.616.4-.808.881-.9s1.007-.169,1.229.433c.159.431.233.892.354,1.337.054.2-.054.236-.213.266-.573.108-1.144.227-1.715.341-.19.038-.3-.015-.331-.231-.057-.417-.136-.833-.205-1.249" transform="translate(-73.563 -37.645)" fill="#201b18"/>
    <path id="Tracé_10312" data-name="Tracé 10312" d="M59.665,34.687a.655.655,0,0,1-.374-.453c.258.121.355.254.369.458Z" transform="translate(-25.479 -14.711)" fill="#e2e1e0"/>
    <path id="Tracé_10313" data-name="Tracé 10313" d="M68.516,42.813l.148-.168a1.559,1.559,0,0,1,.109.189c.008.018-.041.084-.046.083-.068-.028-.133-.063-.212-.1" transform="translate(-29.444 -18.326)" fill="#eaeaea"/>
    <path id="Tracé_10314" data-name="Tracé 10314" d="M30.789,57.944a4.361,4.361,0,0,1,2.781,1.891c.309.485-.149.846-.336,1.251-.247.536-.513.55-.975.21-.724-.533-1.5-.994-2.255-1.486-.651-.424-.652-.425-.216-1.091a5.882,5.882,0,0,1,.344-.492.716.716,0,0,1,.655-.283" transform="translate(-12.671 -24.9)" fill="#1f1a17"/>
    <path id="Tracé_10315" data-name="Tracé 10315" d="M44.151,56.094a.675.675,0,0,1-.785.753A3.375,3.375,0,0,1,42.1,56.5a18.14,18.14,0,0,1-5.4-4.254,3.446,3.446,0,0,1-.689-1.193.836.836,0,0,1,.05-.907.873.873,0,0,1,.892-.192A7.364,7.364,0,0,1,39.824,51.4,16.334,16.334,0,0,1,43.5,54.754a3.3,3.3,0,0,1,.65,1.34" transform="translate(-15.426 -21.45)" fill="#1f1a17"/>
    <path id="Tracé_10316" data-name="Tracé 10316" d="M174.849,104.218l1.988-1.038v2.265l-1.988-1.227" transform="translate(-75.138 -44.34)" fill="#201b19"/>
  </g>
</svg>
