<svg xmlns="http://www.w3.org/2000/svg" xmlns:xlink="http://www.w3.org/1999/xlink" width="72.774" height="70.047" viewBox="0 0 72.774 70.047">
  <defs>
    <clipPath id="clip-path">
      <rect id="Rectangle_62" data-name="Rectangle 62" width="72.774" height="70.047" fill="#e1dfcb"/>
    </clipPath>
  </defs>
  <g id="Groupe_62" data-name="Groupe 62" transform="translate(0 -9.729)">
    <g id="Groupe_61" data-name="Groupe 61" transform="translate(0 9.729)" clip-path="url(#clip-path)">
      <path id="Tracé_646" data-name="Tracé 646" d="M0,832.362c.138-.154.1-.357.139-.536a4.116,4.116,0,0,1,4.075-3.293,6.5,6.5,0,0,1,2.008.234c.117.035.22.053.225.225.023.709.065,1.418.1,2.127,0,.076.061.2-.1.2-.115,0-.22.011-.25-.145-.327-1.673-2.515-1.818-3.51-.828a3.087,3.087,0,0,0-.769,3.15,2.789,2.789,0,0,0,2.211,2.178,3.414,3.414,0,0,0,2.559-.7c.066-.042.126-.095.235-.178-.047.479-.087.9-.132,1.331-.01.093-.1.124-.164.166A4.186,4.186,0,0,1,.1,833.572c-.022-.12.015-.265-.1-.358v-.122a1.223,1.223,0,0,0,0-.609Z" transform="translate(0 -778.034)" fill="#e1dfcb"/>
      <path id="Tracé_647" data-name="Tracé 647" d="M706.286,257.23c.753-1.016,1.439-2.076,2.1-3.155.118-.193.091-.274-.08-.408a22.232,22.232,0,0,1-3.108-3.1c-.1-.122-.085-.156.064-.155a20.745,20.745,0,0,0,4.922.066c.149-.015.2-.1.256-.213a55.776,55.776,0,0,0,2.222-5.2,14.5,14.5,0,0,1,.3,2c.1.794.173,1.591.2,2.392.008.218.072.247.262.15a5.014,5.014,0,0,0,1.626-1.24c.054-.065.085-.162.21-.187a2.361,2.361,0,0,1-.148.82,11.014,11.014,0,0,1-1.792,3.784,2.237,2.237,0,0,0-.29,1.063,9.521,9.521,0,0,1-.735,2.492.93.93,0,0,1-.21.338,4.881,4.881,0,0,0-1.146-1.207.245.245,0,0,0-.341-.007,12.412,12.412,0,0,1-4.242,1.849c-.065.016-.084-.014-.073-.074" transform="translate(-662.309 -230.123)" fill="#e1dfcb"/>
      <path id="Tracé_648" data-name="Tracé 648" d="M397.454,386.944c.14-.035.194.089.271.157a42.134,42.134,0,0,0,3.437,2.724.33.33,0,0,0,.443,0,21.5,21.5,0,0,0,3.615-2.821c.164.046.059.168.046.235-.209,1.1-.383,2.21-.5,3.325-.044.412-.063.827-.11,1.238-.02.173.048.244.19.323q1.661.926,3.4,1.688a3.545,3.545,0,0,1-.919.111A23.122,23.122,0,0,1,404.9,394c-.221-.007-.292.033-.266.281a6.316,6.316,0,0,0,.536,2.224A6.182,6.182,0,0,1,403,395.471a8.88,8.88,0,0,1-1.644-1.523.887.887,0,0,0-.556-.316,11.385,11.385,0,0,1-4.09-1.508,4.03,4.03,0,0,1-.816-.678,6.679,6.679,0,0,0,3.381-.46,25.907,25.907,0,0,1-1.819-4.043" transform="translate(-371.85 -363.355)" fill="#e1dfcb"/>
      <path id="Tracé_649" data-name="Tracé 649" d="M681.375,60.72a24.41,24.41,0,0,0-1.669-2.987c-.369-.592-.781-1.157-1.16-1.743a.413.413,0,0,0-.422-.207,25.85,25.85,0,0,0-4.256.584.788.788,0,0,1-.358.031c.235-.274.459-.53.678-.79a25.682,25.682,0,0,0,1.794-2.409.289.289,0,0,0-.039-.434,23.654,23.654,0,0,0-3.873-3.394c-.066-.045-.125-.1-.188-.15a.23.23,0,0,1,.221-.017,15.825,15.825,0,0,1,4.6,1.332c.5.227.5.23.612-.306a3.535,3.535,0,0,0,.049-1.278,8.045,8.045,0,0,1,1.112,1.255,12.183,12.183,0,0,1,1.182,1.941,1.636,1.636,0,0,0,.427.538,11.834,11.834,0,0,1,2.977,3.87c.025.052.04.109.092.25a5.393,5.393,0,0,0-2.135-.841c.088.539.181,1.062.256,1.586a19.363,19.363,0,0,1,.176,2.973c0,.068.048.171-.079.194" transform="translate(-631.081 -45.97)" fill="#e1dfcb"/>
      <path id="Tracé_650" data-name="Tracé 650" d="M452.539,3.188a38.314,38.314,0,0,0-5.223.32.589.589,0,0,0-.478.3,12.115,12.115,0,0,0-1.509,3.684c-.016.069-.033.137-.052.205,0,.017-.022.03-.047.063a16.226,16.226,0,0,1-2-2.548c-.043-.068-.085-.138-.127-.207-.364-.595-.366-.6-1.044-.387a23.375,23.375,0,0,0-3.187,1.214c-.089.043-.172.111-.281.09a13.542,13.542,0,0,1,2.68-2.619,5,5,0,0,1,.49-.356c.167-.1.148-.188.063-.336a4.91,4.91,0,0,0-.957-1.286,7.62,7.62,0,0,1,1.565-.255,13.283,13.283,0,0,1,2.452-.025,1.433,1.433,0,0,0,.65-.084,15.7,15.7,0,0,1,5.7-.956c.081,0,.162,0,.242.01.015,0,.029.016.069.04a8.558,8.558,0,0,0-2.827,1.613,20.56,20.56,0,0,1,2.145.727,8.7,8.7,0,0,1,1.679.793" transform="translate(-411.956 -0.003)" fill="#e1dfcb"/>
      <path id="Tracé_651" data-name="Tracé 651" d="M423.6,841.328q-.055,2.293-.11,4.587a.46.46,0,0,0,.437.519c.06.009.118.029.178.036.117.013.11.1.107.179,0,.135-.105.1-.178.094a12.932,12.932,0,0,0-2.119,0c-.079.007-.162.024-.171-.105s.05-.161.155-.172c.37-.037.478-.288.494-.613q.132-2.8.267-5.591c.015-.3,0-.561-.388-.581-.147-.008-.107-.118-.109-.2,0-.136.1-.1.173-.094a8.737,8.737,0,0,0,2-.007c.189-.023.212.091.259.217q.875,2.327,1.753,4.653c.028.075.059.15.1.24.113-.071.113-.189.146-.285.516-1.522,1.035-3.043,1.537-4.57.073-.222.17-.269.387-.243a8.666,8.666,0,0,0,1.755.008c.089-.007.228-.11.27.074.036.156-.05.2-.188.232-.223.049-.26.229-.247.426.047.728.089,1.457.143,2.185.089,1.213.193,2.426.275,3.639.018.274.111.444.389.487.122.019.217.06.188.212s-.161.09-.243.085a18.449,18.449,0,0,0-2.393,0c-.079.005-.208.088-.237-.088s.079-.177.192-.2c.416-.1.5-.206.49-.662-.022-1.1-.15-2.184-.223-3.277a9.6,9.6,0,0,0-.131-1.131c-.067.19-.135.38-.2.571-.519,1.531-1.042,3.062-1.55,4.6-.068.206-.153.283-.377.279-.661-.014-.662,0-.9-.624q-.931-2.434-1.859-4.868l-.063,0" transform="translate(-396.13 -788.206)" fill="#e1dfcb"/>
      <path id="Tracé_652" data-name="Tracé 652" d="M329.028,213.057c-.467.427-.938.85-1.4,1.283a23.974,23.974,0,0,0-2.009,2.152.438.438,0,0,0-.091.463,19.656,19.656,0,0,0,1.434,3.632c.033.061.078.121.055.2a18.73,18.73,0,0,1-2.748-1.818c-.193-.153-.276-.133-.388.082a10.817,10.817,0,0,0-1,2.651,6.722,6.722,0,0,1-.5-1.512,11.055,11.055,0,0,1-.282-3.046.576.576,0,0,0-.132-.416,5.869,5.869,0,0,1-.883-1.548.289.289,0,0,1,.108-.386,4.24,4.24,0,0,1,1.158-.646.484.484,0,0,0,.323-.351,14.128,14.128,0,0,1,1.615-3.447c.036-.057.053-.134.136-.147.042,1.032.175,2.055.315,3.077.021.154.074.188.237.16a29.426,29.426,0,0,1,4.06-.381" transform="translate(-301.547 -197.39)" fill="#e1dfcb"/>
      <path id="Tracé_653" data-name="Tracé 653" d="M139.814,843.232c0-.933,0-1.866,0-2.8,0-.3-.057-.531-.4-.567-.119-.013-.114-.086-.116-.17,0-.111.054-.137.153-.127a12.52,12.52,0,0,0,2.391,0c.081-.008.143.011.137.11,0,.075.031.172-.1.184-.382.033-.43.3-.427.608.007.619.008,1.238,0,1.856,0,.173.046.224.219.222q1.137-.014,2.274,0c.162,0,.231-.029.228-.213-.011-.659-.005-1.318,0-1.978,0-.268-.1-.458-.387-.487-.131-.013-.138-.079-.138-.181,0-.15.1-.124.19-.116a12.428,12.428,0,0,0,2.3,0c.086-.008.186-.038.2.111.009.129-.038.17-.165.19a.4.4,0,0,0-.35.455q0,2.936,0,5.873a.4.4,0,0,0,.356.451c.1.018.168.047.158.172-.011.148-.109.118-.2.112a16.16,16.16,0,0,0-2.3,0c-.074.005-.17.038-.185-.089-.012-.1.008-.173.132-.189.32-.042.395-.262.393-.547,0-.75-.008-1.5,0-2.252,0-.188-.05-.241-.237-.238q-1.122.015-2.244,0c-.179,0-.245.037-.242.233.012.76.007,1.521,0,2.282,0,.276.082.482.385.522.12.016.149.078.138.185-.013.128-.107.1-.182.094a16.18,16.18,0,0,0-2.332,0c-.08.006-.163.021-.173-.105s.038-.162.148-.179c.3-.047.372-.258.371-.532-.005-.964,0-1.927,0-2.891" transform="translate(-130.837 -788.396)" fill="#e1dfcb"/>
      <path id="Tracé_654" data-name="Tracé 654" d="M807.89,837.9a3.564,3.564,0,0,0-3.687,3.545,3.692,3.692,0,0,0,3.4,4.043,3.605,3.605,0,0,0,3.877-3.612,3.646,3.646,0,0,0-3.588-3.976m1.7,5.455a1.7,1.7,0,0,1-2.96.364,3.84,3.84,0,0,1-.608-3.512A1.585,1.585,0,0,1,807.393,839a1.753,1.753,0,0,1,1.728.716,4.189,4.189,0,0,1,.717,2.382,3.165,3.165,0,0,1-.244,1.263" transform="translate(-755.363 -786.835)" fill="#e1dfcb"/>
      <path id="Tracé_655" data-name="Tracé 655" d="M953.937,841.068c0,1.7,0,3.3,0,4.9,0,.384.124.529.5.608.115.024.188.043.17.182-.02.16-.137.093-.209.085a8.818,8.818,0,0,0-1.756,0c-.079.008-.189.053-.2-.1-.009-.123.054-.159.156-.175.29-.047.363-.245.363-.508q0-2.891,0-5.783c0-.268-.09-.461-.378-.491-.13-.013-.138-.08-.141-.181,0-.15.1-.127.185-.12a8.8,8.8,0,0,0,2.025,0c.174-.027.194.12.252.213q1.388,2.246,2.77,4.5l.146.236c.1-.056.051-.146.051-.214q.006-1.857,0-3.713c0-.515-.051-.588-.563-.726-.121-.033-.1-.1-.106-.177-.012-.124.065-.127.154-.116a7.813,7.813,0,0,0,1.845,0c.079-.009.17-.026.169.1,0,.093.011.177-.128.19-.348.032-.4.279-.4.569,0,2.07,0,4.139.009,6.209,0,.263-.083.283-.317.315a1.231,1.231,0,0,1-1.36-.734c-.963-1.6-2-3.163-3.011-4.74-.058-.09-.121-.177-.233-.34" transform="translate(-894.6 -788.32)" fill="#e1dfcb"/>
      <path id="Tracé_656" data-name="Tracé 656" d="M1096.736,842.57c-.018-.324-.039-.648-.054-.972,0-.08-.051-.191.1-.2.127-.011.177.049.2.168a2.161,2.161,0,0,0,2.631,1.65,2.053,2.053,0,0,0,.753-.213.88.88,0,0,0,.508-.833.813.813,0,0,0-.516-.756,14.952,14.952,0,0,0-1.806-.6,5.685,5.685,0,0,1-1.236-.559,1.993,1.993,0,0,1,.01-3.257,4.11,4.11,0,0,1,1.974-.61,6.533,6.533,0,0,1,2.544.272c.146.046.217.1.218.266,0,.578.017,1.156.069,1.733.006.071.071.191-.088.206-.126.012-.185-.025-.235-.158a2.25,2.25,0,0,0-3.135-1.176.818.818,0,0,0-.49.744.776.776,0,0,0,.487.771,17.37,17.37,0,0,0,1.931.607,6.435,6.435,0,0,1,.929.359,2.024,2.024,0,0,1,.252,3.486,3.741,3.741,0,0,1-1.865.652,7.681,7.681,0,0,1-2.908-.286.314.314,0,0,1-.269-.379c.019-.3.005-.608.005-.913Z" transform="translate(-1029.891 -785.387)" fill="#e1dfcb"/>
      <path id="Tracé_657" data-name="Tracé 657" d="M605.379,843.9c0,.811,0,1.622,0,2.434,0,.516.052.582.541.727.122.036.208.076.183.222s-.137.091-.217.088a18.741,18.741,0,0,0-2.483,0c-.07.006-.172.05-.184-.085-.009-.1,0-.183.116-.211.323-.077.383-.326.383-.607q0-2.814.005-5.628a.4.4,0,0,0-.372-.464c-.129-.016-.134-.082-.136-.182s.029-.145.136-.142a34.734,34.734,0,0,1,4.087.084,2.153,2.153,0,0,1,1.74,3.039,2.185,2.185,0,0,1-1.943,1.379,2.477,2.477,0,0,1-1.5-.251c-.1-.055-.258-.109-.224-.251.04-.17.2-.075.309-.076.131,0,.263.027.392.016a1.519,1.519,0,0,0,1.411-2.058,1.152,1.152,0,0,0-.939-.841,3.565,3.565,0,0,0-1.145-.005c-.2.016-.16.142-.161.257q0,1.278,0,2.556" transform="translate(-566.583 -788.831)" fill="#e1dfcb"/>
      <path id="Tracé_658" data-name="Tracé 658" d="M285.923,846.607a.851.851,0,0,1-.527-.622c-.168-.5-.327-1-.488-1.5q-.758-2.352-1.515-4.706c-.044-.138-.064-.262-.271-.232a6.636,6.636,0,0,1-1.724.006c-.07-.008-.174-.052-.183.081-.007.1-.027.186.129.217.277.055.344.229.237.5-.762,1.927-1.516,3.856-2.275,5.784a.68.68,0,0,1-.462.483c-.118.027-.129.108-.12.207.013.136.115.089.184.083a11.42,11.42,0,0,1,1.938,0c.069.006.166.053.187-.08s-.04-.168-.156-.2c-.363-.11-.432-.241-.311-.607.144-.432.31-.855.463-1.284a.2.2,0,0,1,.218-.159c.626.007,1.253.005,1.88,0a.176.176,0,0,1,.2.144c.126.416.274.826.378,1.247s.055.492-.367.64c-.119.041-.166.1-.147.221s.117.086.19.083c.414-.017.828-.037,1.242-.056.4.018.808.04,1.212.054.078,0,.193.062.213-.088a.169.169,0,0,0-.12-.212m-3.107-2.88c-.394-.007-.788-.01-1.182,0-.187.005-.191-.051-.133-.207.287-.766.585-1.528.832-2.393.162.666.3,1.255.45,1.842.049.2.113.388.173.581.041.131,0,.18-.14.177" transform="translate(-261.795 -788.373)" fill="#e1dfcb"/>
      <path id="Tracé_659" data-name="Tracé 659" d="M388.419,616.646a18.423,18.423,0,0,1,13.053,5.43c.186.182.233.3-.006.456a.44.44,0,0,0-.11.1c-.133.173-.234.174-.4,0a16.342,16.342,0,0,0-2.69-2.261,17.53,17.53,0,0,0-22.512,2.379c-.17.175-.244.153-.392-.007-.338-.365-.347-.358.012-.713a18.348,18.348,0,0,1,9.9-5.122,17.708,17.708,0,0,1,3.14-.269" transform="translate(-352.329 -579.063)" fill="#e1dfcb"/>
      <path id="Tracé_660" data-name="Tracé 660" d="M599.6,451.28a23.376,23.376,0,0,0,4.083.183.443.443,0,0,0,.3-.173,20.651,20.651,0,0,0,2.726-3.214c.15-.009.026.138.1.174a9.36,9.36,0,0,1-.118,2.836,13.111,13.111,0,0,0,3.932-1.45,16.4,16.4,0,0,1-11.334,4.513,9.781,9.781,0,0,0,2.463-1.127,10.982,10.982,0,0,1-2.206-1.589c-.039-.035-.116-.064-.089-.129.01-.024.092-.017.141-.024" transform="translate(-562.894 -420.767)" fill="#e1dfcb"/>
      <path id="Tracé_661" data-name="Tracé 661" d="M331.934,58.4a34.541,34.541,0,0,0-2.927,2.448.769.769,0,0,0-.243.4,16.855,16.855,0,0,0-.446,3.793c-.231-.131-.32-.377-.457-.581a11.2,11.2,0,0,1-.817-1.5,14.484,14.484,0,0,0-1.772,2.685c-.115,0-.069-.068-.056-.124a14.379,14.379,0,0,1,1.331-4.042,16.94,16.94,0,0,1,4.6-5.721,16.557,16.557,0,0,0-1.547,2.911,9.652,9.652,0,0,1,2.33-.27" transform="translate(-305.446 -52.357)" fill="#e1dfcb"/>
      <path id="Tracé_662" data-name="Tracé 662" d="M707.485,1019.8c0-.669,0-1.227,0-1.785,0-.2-.052-.345-.258-.385-.1-.019-.14-.06-.126-.159.019-.133.116-.085.187-.078a9.394,9.394,0,0,0,1.756,0c.07-.006.167-.056.188.077s-.046.15-.153.16c-.241.023-.315.187-.315.4,0,1.116-.02,2.233.009,3.348a1.128,1.128,0,0,0,1.787.928.754.754,0,0,0,.363-.536,2.9,2.9,0,0,0,.056-.543c.005-1.025,0-2.049,0-3.074,0-.276-.026-.519-.377-.536-.108-.005-.1-.076-.1-.148s.06-.093.125-.087a9.1,9.1,0,0,0,1.876,0c.066-.007.123,0,.13.083s.007.138-.095.154c-.283.044-.293.254-.291.481q.007,1.43,0,2.861c0,1.547-.607,2.175-2.15,2.236a3.993,3.993,0,0,1-1.526-.182,1.525,1.525,0,0,1-1.052-1.324c-.091-.667-.018-1.338-.044-1.9" transform="translate(-664.158 -955.371)" fill="#e1dfcb"/>
      <path id="Tracé_663" data-name="Tracé 663" d="M598.678,1020.941a2.417,2.417,0,0,1-2.565.539,2.612,2.612,0,0,1-1.764-2.4,2.766,2.766,0,0,1,1.4-2.962,3.681,3.681,0,0,1,3.164-.122.311.311,0,0,1,.225.34c0,.375.028.75.039,1.124,0,.06.041.154-.075.161-.079,0-.138.005-.187-.1a1.564,1.564,0,0,0-1.707-1.043,1.642,1.642,0,0,0-1.517,1.315,2.8,2.8,0,0,0,.452,2.425,1.3,1.3,0,0,0,1.527.505.652.652,0,0,0,.479-.659c0-.142-.007-.284,0-.426.02-.3-.035-.534-.412-.51-.136.009-.132-.086-.134-.182,0-.134.088-.114.164-.106a10.9,10.9,0,0,0,1.907,0c.061,0,.149-.035.16.079s-.007.176-.13.192c-.291.038-.334.254-.335.492,0,.558,0,1.115,0,1.673,0,.083.068.239-.1.228-.15-.01-.356.12-.442-.128-.046-.133-.091-.267-.15-.44" transform="translate(-558.234 -953.797)" fill="#e1dfcb"/>
      <path id="Tracé_664" data-name="Tracé 664" d="M396.813,1023.53c-.677,0-1.354,0-2.031,0-.08,0-.211.082-.243-.086s.088-.144.18-.173c.226-.073.218-.267.218-.451q0-1.491,0-2.982c0-.447,0-.893,0-1.339,0-.181-.033-.352-.255-.388-.09-.015-.152-.043-.143-.152.012-.153.128-.1.205-.1.7,0,1.395,0,2.092,0,.616,0,1.233.006,1.849,0,.174,0,.223.053.224.223,0,.3.033.607.045.911,0,.068.059.17-.075.192-.118.02-.149-.048-.185-.145-.159-.433-.233-.485-.681-.489-.526,0-1.051,0-1.577,0-.164,0-.23.035-.224.215.013.405.012.811,0,1.217-.005.179.034.254.231.243.312-.018.626-.006.94-.005.221,0,.4-.053.446-.31.016-.091.065-.146.167-.129.129.022.079.119.075.191a9.348,9.348,0,0,0,0,1.277c0,.062.055.148-.056.172s-.17-.022-.192-.134c-.046-.236-.216-.3-.427-.3-.323,0-.647,0-.97,0-.145,0-.217.02-.213.194.012.466.01.933,0,1.4,0,.16.047.209.206.207.546-.008,1.091,0,1.637,0,.519,0,.654-.11.788-.609.016-.059.035-.117.046-.176.025-.143.136-.091.216-.092.112,0,.082.085.077.154-.03.425-.069.849-.083,1.274-.006.174-.06.217-.227.216-.687-.009-1.374,0-2.062,0" transform="translate(-370.575 -955.81)" fill="#e1dfcb"/>
      <path id="Tracé_665" data-name="Tracé 665" d="M824.309,1023.577c-.677,0-1.355,0-2.032,0-.081,0-.211.081-.246-.083s.081-.15.177-.177a.3.3,0,0,0,.209-.33q0-2.252,0-4.5a.284.284,0,0,0-.25-.326c-.1-.014-.144-.056-.136-.158.01-.131.109-.1.181-.1,1.324,0,2.648,0,3.972,0,.152,0,.214.04.215.2,0,.314.029.628.046.941,0,.078.034.166-.093.181-.107.013-.133-.053-.165-.134-.19-.472-.23-.5-.732-.5s-1.011.006-1.516,0c-.177,0-.252.03-.245.23.016.405.011.811,0,1.217,0,.158.043.213.2.207.323-.011.647,0,.97,0,.222,0,.4-.063.447-.314a.132.132,0,0,1,.174-.118c.109.017.074.1.07.167a11.218,11.218,0,0,0,0,1.277c0,.071.051.172-.077.192-.1.015-.15-.036-.166-.132-.04-.24-.21-.3-.42-.306-.333,0-.667,0-1-.013-.169-.007-.2.069-.2.218.007.466.01.933,0,1.4,0,.185.073.218.234.215.536-.008,1.071,0,1.607,0s.668-.11.8-.628c.015-.059.029-.118.046-.176.033-.117.13-.071.2-.073.112,0,.086.077.081.149-.03.435-.066.87-.078,1.305,0,.176-.079.19-.22.189-.687-.005-1.375,0-2.062,0" transform="translate(-772.105 -955.857)" fill="#e1dfcb"/>
      <path id="Tracé_666" data-name="Tracé 666" d="M493.937,1022.815c-.3-.1-.377-.371-.461-.634q-.734-2.278-1.471-4.557c-.04-.121-.032-.293-.256-.258a4.555,4.555,0,0,1-1.269.006c-.063-.008-.149-.043-.172.062a.126.126,0,0,0,.1.176c.219.059.239.2.16.4q-.878,2.211-1.747,4.424a.558.558,0,0,1-.328.374.145.145,0,0,0-.12.173c.013.14.115.09.182.083a6.547,6.547,0,0,1,1.391,0c.066.007.168.065.2-.06.036-.141-.057-.163-.165-.189a.267.267,0,0,1-.21-.369,2.909,2.909,0,0,1,.13-.4c.108-.26.114-.628.332-.758.2-.12.53-.025.8-.025v.01c.282,0,.638-.1.824.029s.2.506.291.775c.016.048.032.1.046.144.077.279.1.532-.276.6-.089.017-.106.074-.1.154,0,.108.076.1.147.1a10.461,10.461,0,0,1,1.906,0c.064.006.149.032.151-.087,0-.072,0-.137-.086-.168m-3.456-2.253.69-1.945c.159.683.29,1.311.5,1.945Z" transform="translate(-458.717 -955.356)" fill="#e1dfcb"/>
      <path id="Tracé_667" data-name="Tracé 667" d="M732.92,846.846a14.551,14.551,0,0,0-1.614.024c-.082,0-.209.083-.233-.094-.019-.142.064-.167.173-.186a.38.38,0,0,0,.332-.433q0-2.949,0-5.9c0-.251-.107-.416-.356-.443-.147-.016-.153-.087-.149-.2.007-.157.119-.108.2-.1a12.211,12.211,0,0,0,2.3,0c.09-.008.188-.031.181.12,0,.1,0,.168-.134.179-.29.024-.381.22-.38.487q0,2.9,0,5.807c0,.266.088.459.377.493.122.014.143.075.137.181-.008.136-.1.1-.175.1-.252-.009-.5-.022-.655-.029" transform="translate(-686.672 -788.337)" fill="#e1dfcb"/>
      <path id="Tracé_668" data-name="Tracé 668" d="M459.106,746.918c-.5-.438-.508-.442-.045-.9a10.932,10.932,0,0,1,16,.44c.3.329-.083.363-.179.517-.141.227-.237.05-.334-.058a10.243,10.243,0,0,0-15.166-.278c-.071.072-.137.149-.207.223a.681.681,0,0,1-.07.057" transform="translate(-430.862 -697.481)" fill="#e1dfcb"/>
      <path id="Tracé_669" data-name="Tracé 669" d="M515.016,652.7a1.12,1.12,0,0,1-1.27-.924c-.226-1-.422-2-.619-3-.07-.36.013-.478.377-.559.837-.185,1.678-.355,2.517-.535.138-.03.185.012.222.152.184.69.19.69-.491.828-.485.1-.968.2-1.455.287-.177.031-.21.093-.159.262.076.25.046.6.206.738.175.152.49-.054.745-.1.358-.058.712-.146,1.066-.225.171-.038.269-.016.313.194.128.61.14.609-.469.743-.433.1-.867.19-1.3.274-.152.029-.212.091-.165.245.035.116.056.236.093.352.1.326.256.422.593.356.5-.1,1.009-.205,1.51-.322.185-.043.258-.014.3.193.141.644.153.637-.5.769a10.243,10.243,0,0,1-1.518.273" transform="translate(-481.944 -608.191)" fill="#e1dfcb"/>
      <path id="Tracé_670" data-name="Tracé 670" d="M404.657,689.589a1.906,1.906,0,0,1-1.614-.693c-.573-.7-1.128-1.406-1.691-2.109-.019-.024-.059-.055-.053-.07.1-.281.389-.373.581-.564.124-.124.173.017.23.086.534.65,1.053,1.311,1.6,1.95a1.045,1.045,0,0,0,1.719,0,.928.928,0,0,0,.026-1.3c-.453-.609-.94-1.193-1.416-1.784-.347-.431-.35-.429.085-.791.305-.254.3-.253.556.061q.733.911,1.469,1.821a1.816,1.816,0,0,1,.317,2.089,2.146,2.146,0,0,1-1.808,1.3" transform="translate(-376.928 -642.437)" fill="#e1dfcb"/>
      <path id="Tracé_671" data-name="Tracé 671" d="M306.4,1023.178c-.637,0-1.274,0-1.91,0-.077,0-.192.058-.226-.076s.073-.156.172-.186a.3.3,0,0,0,.214-.327q0-2.267,0-4.534a.312.312,0,0,0-.281-.337.115.115,0,0,1-.107-.147c.011-.1.079-.1.154-.093a9.2,9.2,0,0,0,1.846,0c.069-.007.146-.024.161.081s-.023.143-.126.16c-.3.049-.374.257-.373.533q.007,1.963,0,3.926c0,.188.05.243.237.238.454-.013.91,0,1.364-.006a.8.8,0,0,0,.884-.664c.019-.058.035-.116.054-.174.03-.095.11-.073.177-.07.11,0,.093.085.081.155a11.139,11.139,0,0,0-.17,1.387c-.007.163-.109.137-.207.137H306.4" transform="translate(-285.782 -955.458)" fill="#e1dfcb"/>
      <path id="Tracé_672" data-name="Tracé 672" d="M686.659,704.748c-.068-.058-.1-.094-.144-.122-.477-.328-.786-.707-.426-1.312.075-.126-.02-.2-.113-.274-.12-.092-.237-.189-.355-.284l-.372-.3c.145-.1.271-.172.389-.26.25-.188.5-.329.755.075l.474-1.595-.494.322c-.743.487-1.488.971-2.228,1.464a.287.287,0,0,1-.374.014c-.207-.143-.43-.263-.645-.392.007-.108.1-.125.164-.165q1.854-1.206,3.711-2.405a.566.566,0,0,1,.858.081.519.519,0,0,1,.1.588q-.57,2.029-1.145,4.057c-.044.154-.091.308-.15.506" transform="translate(-641.639 -656.734)" fill="#e1dfcb"/>
      <path id="Tracé_673" data-name="Tracé 673" d="M620.361,654.59a10.663,10.663,0,0,1,1.627.381c.5.119.471.125.372.634-.063.322-.172.381-.473.278-.428-.146-.871-.252-1.311-.361a.685.685,0,0,0-.814.818c.024.1.107.076.168.092.546.142,1.091.286,1.64.419.178.043.237.095.177.3-.179.618-.166.622-.783.458-.389-.1-.782-.2-1.167-.314-.216-.066-.319-.03-.368.21-.09.445-.219.883-.317,1.327-.044.2-.1.321-.331.212a1.074,1.074,0,0,0-.233-.06.382.382,0,0,1-.322-.519c.266-1.038.526-2.077.828-3.1.16-.545.568-.778,1.306-.772" transform="translate(-580.664 -614.695)" fill="#e1dfcb"/>
      <path id="Tracé_674" data-name="Tracé 674" d="M905.137,1115.545a1.023,1.023,0,0,0-1.112.1.967.967,0,0,0-.38,1.046,1,1,0,0,0,.845.8l.309,0a1.044,1.044,0,0,0,.9-.925,1.028,1.028,0,0,0-.562-1.022m-.5,1.773a.824.824,0,0,1-.809-.877.832.832,0,1,1,1.662.044.819.819,0,0,1-.853.833m.393-.879a.268.268,0,0,0,.072-.381c-.164-.293-.462-.191-.709-.19s-.115.212-.128.328a2.287,2.287,0,0,0,0,.515c.013.115-.1.322.083.327s.058-.2.094-.313c.02-.06-.03-.15.073-.173a.173.173,0,0,1,.2.091c.055.1.117.189.169.286s.122.161.254.1c-.053-.086-.1-.171-.157-.255-.081-.124-.19-.229.047-.334m-.4-.053c-.125.023-.192-.021-.19-.19,0-.152.057-.192.194-.179s.307-.015.306.192c0,.188-.157.173-.31.177" transform="translate(-848.741 -1047.444)" fill="#e1dfcb"/>
      <path id="Tracé_675" data-name="Tracé 675" d="M721.6,445.146l-.1-.174.16-.2.073.074c-.154.051-.125.185-.136.3" transform="translate(-677.688 -417.663)" fill="#e1dfcb"/>
      <path id="Tracé_676" data-name="Tracé 676" d="M324.683,215.933l.056.124-.068.183a.27.27,0,0,1,.012-.307" transform="translate(-304.915 -202.773)" fill="#e1dfcb"/>
      <path id="Tracé_677" data-name="Tracé 677" d="M670.724,52.2l-.221.017-.089-.008c.1-.118.205-.052.31-.009" transform="translate(-629.701 -48.965)" fill="#e1dfcb"/>
      <path id="Tracé_678" data-name="Tracé 678" d="M460.483,144.655c-.214-.977-.436-1.952-.589-2.941-.138-.891-.256-1.783-.319-2.682a.364.364,0,0,0-.29-.382,47.007,47.007,0,0,1-4.389-1.7c-.089-.04-.235-.025-.239-.184,1.409-.649,2.815-1.307,4.27-1.844a.775.775,0,0,0,.6-.826,23.535,23.535,0,0,1,.755-4.884c.018-.067.009-.145.1-.192q.971,1.7,2.056,3.322c.185.278.386.546.559.831.1.171.2.194.39.131a62.088,62.088,0,0,1,6-1.657c-.245.32-.458.6-.674.879-1.011,1.3-1.982,2.637-2.943,3.977a.29.29,0,0,0,.014.43c1.078,1.33,2.2,2.622,3.384,3.856.062.065.133.121.2.181.167.076.328.159.357.369a.048.048,0,0,0,.019.049,15.845,15.845,0,0,1-1.989-.374c-1.369-.3-2.732-.628-4.081-1.009a.3.3,0,0,0-.388.157c-.9,1.405-1.781,2.822-2.6,4.276-.047.083-.047.234-.206.219" transform="translate(-427.047 -121.155)" fill="#e1dfcb"/>
      <path id="Tracé_679" data-name="Tracé 679" d="M914.661,1122.99a.267.267,0,0,0,.072-.38c-.165-.294-.462-.191-.709-.19s-.115.211-.128.328a2.272,2.272,0,0,0,0,.515c.013.115-.1.322.083.328s.058-.2.094-.313c.02-.06-.03-.15.073-.172a.173.173,0,0,1,.2.091c.055.1.117.189.169.287s.121.161.255.1c-.053-.086-.1-.171-.157-.255-.081-.124-.19-.229.047-.334m-.4-.053c-.125.023-.192-.021-.189-.19,0-.152.057-.192.193-.179s.307-.015.306.192c0,.188-.157.173-.31.177" transform="translate(-858.374 -1053.994)" fill="#e1dfcb"/>
      <path id="Tracé_680" data-name="Tracé 680" d="M914.661,1122.99a.267.267,0,0,0,.072-.38c-.165-.294-.462-.191-.709-.19s-.115.211-.128.328a2.272,2.272,0,0,0,0,.515c.013.115-.1.322.083.328s.058-.2.094-.313c.02-.06-.03-.15.073-.172a.173.173,0,0,1,.2.091c.055.1.117.189.169.287s.121.161.255.1c-.053-.086-.1-.171-.157-.255-.081-.124-.19-.229.047-.334m-.4-.053c-.125.023-.192-.021-.189-.19,0-.152.057-.192.193-.179s.307-.015.306.192c0,.188-.157.173-.31.177" transform="translate(-858.374 -1053.994)" fill="#e1dfcb"/>
    </g>
  </g>
</svg>
