<svg xmlns="http://www.w3.org/2000/svg" xmlns:xlink="http://www.w3.org/1999/xlink" width="120" height="120" viewBox="0 0 120 120">
  <defs>
    <clipPath id="clip-path">
      <rect id="Rectangle_2226" data-name="Rectangle 2226" width="86.507" height="73.242" fill="none"/>
    </clipPath>
  </defs>
  <g id="Groupe_305" data-name="Groupe 305" transform="translate(2181 -1802)">
    <g id="Groupe_304" data-name="Groupe 304">
      <circle id="Ellipse_2" data-name="Ellipse 2" cx="60" cy="60" r="60" transform="translate(-2181 1802)" fill="#f2c816"/>
      <g id="Groupe_303" data-name="Groupe 303" transform="translate(-2164 1825.528)">
        <g id="Groupe_302" data-name="Groupe 302" transform="translate(0 0.005)" clip-path="url(#clip-path)">
          <path id="Tracé_10326" data-name="Tracé 10326" d="M492.394,255.1c0,.224,1.39.535,2.78-.139a2.536,2.536,0,0,0,1.429-3.01,2.292,2.292,0,0,0-2.849-1.774c-2.063.4-2.033,2.008-1.39,3.316s.074,1.374.03,1.606" transform="translate(-469.631 -239.216)" fill="#1e2222"/>
          <path id="Tracé_10327" data-name="Tracé 10327" d="M473.639,402.16c.258.129.9-.22,1.287.2a1.621,1.621,0,0,1,.208.9c-.214,4.7-.361,9.878-.414,10.2a2.356,2.356,0,0,0,1.014,1.907,3.475,3.475,0,0,0,2.308.58c.733-.143,1.107-.529,1.141-.894.015-.406-1.047-.109-1.043-2.081l1.026-10.5a4.967,4.967,0,0,0-.1-2.086c-.327-.832-1.028-1.278-2.495-.992a4.792,4.792,0,0,0-2.759,1.836c-.5.545-.435.8-.177.93" transform="translate(-451.938 -381.907)" fill="#1e2222"/>
          <path id="Tracé_10328" data-name="Tracé 10328" d="M38.956,7.043c-1.228.374,1.271,1.812,2.273-.488a4.106,4.106,0,0,0-1.663-5.319c-2.084-1.3-3.1-1.231-3.1-1.231-1.146.223-3.338,2.979-4.242,7.589a47.726,47.726,0,0,0-1.056,8.894c-.423,14.4,1.384,21.19,2.96,22.592-6.437-.453-18.007-3.61-22.262-4.321a41.164,41.164,0,0,0,.846-6.166,26.2,26.2,0,0,0,3.33-4.1c3.74-5.834,3.289-14.972,2.687-16.959-.537-1.955-6.32-3.157-7.649-2.9C9.7,4.907,8.5,5.23,7.941,8.609,7.332,12,7.122,18.576,7.321,27.047c.064,1.241.082,2.492.155,3.642-.467.181-.888.352-1.328.483-3.188.89-4.679-2.178-4.382-2.953.479-1.034-.377-2.7-1.279-1.721-.966.95-.764,4.806,3.126,5.795A7.054,7.054,0,0,0,7.5,32.071c.054,1.109.07,2.136.068,3.122-2.18.693-4.263,2.04-4.814,3.356-.785,1.9,1.545,2.968,4,2.983,2.047,0,3.176-1.246,4.142-3.628a15.94,15.94,0,0,1,2.841.655c4.822,1.613,18.328,5.878,21.9,5.181s5.316-6.32,4.961-7.1-1.134-.63-.945.005c.169.594-.821,2.041-2.471,2.362a7.493,7.493,0,0,1-1.086.117,10.865,10.865,0,0,0,1.36-1.38c.883-1.023,2.705-2.946,1.92-8.749a20.227,20.227,0,0,0-2.993-7.7,10.52,10.52,0,0,1,2.2-1.414c1.044-.338,1.9-.1,1.833-.357,0-.224-.775-.61-2.694-.55a6.271,6.271,0,0,0-2.392.556c.073-1.268.183-2.678.373-4.238.954-9.008,3.536-12.557,4.515-11.718,1.025.83.59,2.841-1.269,3.472M13.643,12.6c.65-4.068,1.695-5.615,2.587-5.3,1.5.558,2.286,5.152,1.037,11.531A16.611,16.611,0,0,1,12.837,27c.417-5.9.418-12.173.806-14.4M7.028,40.046c-.883,1.023-2.653-.02-1.953-1.008a3.809,3.809,0,0,1,2.47-1.153,4.777,4.777,0,0,1-.517,2.161m31.04-8.333c.03,4.249-2.078,4.659-2.3,2.194a109.153,109.153,0,0,1-.526-11.944,17.525,17.525,0,0,1,2.824,9.75" transform="translate(0 -0.005)" fill="#1e2222"/>
          <path id="Tracé_10329" data-name="Tracé 10329" d="M919.54,312.287c-.319.286-.766.731-.671,1.161.124.6,1.186,1.516.661,2.558-.95,1.976-3.619,4.781-6.711,3.681-.764-.254-1.137-1.077-1.355-2.109a7.666,7.666,0,0,1,.188-3.216,4.784,4.784,0,0,0,1.66-.189c6.1-1.726,6.865-6.533,5.089-7.261-.8-.337-2.047,0-4.3-.685a5.57,5.57,0,0,0-2.9-.464c-2.292.447-3.879,4.428-4.211,7.986a9.38,9.38,0,0,0,.538,4.6c1.039,2.843,3.739,4.287,5.527,3.939a9.853,9.853,0,0,0,6.566-4.773,6.553,6.553,0,0,0,1.159-3.5c-.047-1.424-.941-1.966-1.233-1.73m-7.53.885c1.276-3.787,2.368-5.119,3.469-5.333.5-.1,1.006.789.756,1.778-.537,1.9-3.084,3.87-4.315,3.8a.56.56,0,0,1,.09-.241" transform="translate(-865.721 -292.382)" fill="#1e2222"/>
          <path id="Tracé_10330" data-name="Tracé 10330" d="M1504.5,49.515c0,.224,1.39.535,2.78-.139a2.536,2.536,0,0,0,1.429-3.01,2.292,2.292,0,0,0-2.85-1.774c-2.062.4-2.032,2.008-1.39,3.316s.074,1.374.03,1.606" transform="translate(-1435.766 -42.592)" fill="#1e2222"/>
          <path id="Tracé_10331" data-name="Tracé 10331" d="M1491.177,194.8c-.327-.832-1.028-1.277-2.495-.992a4.793,4.793,0,0,0-2.759,1.836c-.5.545-.435.8-.177.93s.9-.22,1.286.2a1.622,1.622,0,0,1,.208.9c-.214,4.7-.36,9.878-.413,10.2a2.356,2.356,0,0,0,1.014,1.907,3.477,3.477,0,0,0,2.309.58c.733-.143,1.107-.529,1.141-.894.016-.406-1.047-.109-1.043-2.081l1.026-10.5a4.971,4.971,0,0,0-.1-2.086" transform="translate(-1418.074 -185.282)" fill="#1e2222"/>
          <path id="Tracé_10332" data-name="Tracé 10332" d="M1674.876,163.5c-.888-.857-1.912-1.687-2.827-2.494-2.18-1.949-2.791-2.636-2.708-3.772a2,2,0,0,1,.242-.9,1.087,1.087,0,0,1,.547-.554,1.433,1.433,0,0,1,1.682.3c.5.664-.055,1.309-.018,1.392.241.311,1.927,1.058,2.529.627a1.592,1.592,0,0,0-.2-2.424c-.989-.971-3.077-1.505-5.46-1.041-2.75.536-3.315,3.691-2.485,5.41.867,1.8,3.981,3.389,5.525,4.924-1.144.447-3.531,1.673-3.838,3.748-.361,2.175,1.552,2.653,3.889,2.2,2.384-.465,4.357-1.834,4.865-3.9.25-.989-.42-2.247-1.742-3.512m-4.457,5.795c-1.054.205-1.228-1.059-.656-1.887a8.2,8.2,0,0,1,2.484-1.783l.037.082c1.077,1.716-.857,3.391-1.865,3.588" transform="translate(-1590.162 -147.733)" fill="#1e2222"/>
          <path id="Tracé_10333" data-name="Tracé 10333" d="M931.8,1161.642a4.762,4.762,0,0,0-.275-.842l-.044-.108c.084-.09.157-.18.221-.262l.017-.022Z" transform="translate(-889.174 -1109.841)" fill="#323232"/>
          <path id="Tracé_10334" data-name="Tracé 10334" d="M641.535,1473.486h0Z" transform="translate(-612.396 -1409.277)" fill="#323232"/>
          <path id="Tracé_10335" data-name="Tracé 10335" d="M47.086,988.99c8.506-.326,11.911-1.447,14.412-3.007,1.65-1.429,5.357-8.242,6.425-8.687a6.667,6.667,0,0,1,4.658-.152c1.674.648,5.387.846,5.917,1.86a6.151,6.151,0,0,1,.446,3.174,18.5,18.5,0,0,0,.553,3.515,13.991,13.991,0,0,1-.124,1.5c-.032.058-.128,1.085-1.954.893s-3.731-4.065-3.894-4.558,0,1.709,0,1.709l-.56,2.6a15.842,15.842,0,0,0,.074,4.012c.329,2.024,3.69,4.353,3.791,4.436s3.087,2.7,3.087,2.7a9.366,9.366,0,0,0-4.185.469c-1.656.769-6.735.4-8.868.5a10.36,10.36,0,0,0-2.405.5c-1.379.349-2.748.736-4.114,1.129q-2.641.759-5.269,1.558c-.8.241-1.6.515-2.409.7a37.958,37.958,0,0,0-4.1,1.036c-.328.124-.763.055-.819-.221-.073-.36.56-.67.34-.97-.259-.353-.923-.021-1.262-.305a.707.707,0,0,1-.169-.824c.12-.284.471-.441.661-.688a3.676,3.676,0,0,0,.564-3.4c-.3-.864-.934-1.7-.746-2.59.069-.325.244-.62.344-.937a.974.974,0,0,0-.115-.946c-.242-.269-.721-.36-.793-.709a2.043,2.043,0,0,1,.07-.646c.119-1.008-.184-.941-.739-1.276a1.937,1.937,0,0,1-.916-1.184c-.032-.6.295-1,1.26-1.1.335-.033.571-.078.835-.088" transform="translate(-42.945 -934.224)" fill="#ead5a7"/>
          <path id="Tracé_10336" data-name="Tracé 10336" d="M95.647,584.877a2.42,2.42,0,0,0,.356-.157c2.23-1.5,1.713-3.609,1.057-5.769a9.987,9.987,0,0,1-.621-3.109c0-.6.122-1.019.153-1.593.147-2.759.738-5.588-1.744-7.616-2.021-1.652-5.172-1.279-7.657-1.287a13.638,13.638,0,0,1-2.537-.018,11.533,11.533,0,0,1-1.4-.372,32.941,32.941,0,0,0-6.992-1.328,2.38,2.38,0,0,0-.862-.247,2.052,2.052,0,0,0-.748.1,2.212,2.212,0,0,0-1.964-.085,2.31,2.31,0,0,0-.955.975,1.874,1.874,0,0,0-1.442,1.5,1.711,1.711,0,0,0-.648.913,1.937,1.937,0,0,0,.2,1.431.2.2,0,0,1-.02.213,3.042,3.042,0,0,0-1.52,2.241c-.05,1.039-.161,2.336-.249,3.307a24.97,24.97,0,0,0-.076,2.521,3.178,3.178,0,0,1-1.874.068c-.132-.026-.2-.051-.578-.139-4.019-.931-6.668-.161-8.66,3.619a7.172,7.172,0,0,0-.249.717,8.95,8.95,0,0,0-1.2-.112,5.449,5.449,0,0,0-1.731.257,3.7,3.7,0,0,0-1.44,1,5.661,5.661,0,0,0-.674.977c-.093.144-.12.21-.226.37s-.272.43-.38.609-.28.459-.369.593l-.2.3c-.2.3-.412.622-.591.879s-.354.475-.514.682-.287.373-.419.552c-.291.394-.581.828-.844,1.2a8.715,8.715,0,0,1-.811.987,5.52,5.52,0,0,1-.944.849,3.483,3.483,0,0,1-1.007.371c-.047.015-.064.018-.181.055l-.476.155c-.215.07-.629.2-.917.268s-.733.181-1,.255c-.515.142-.926.232-1.436.324l-.188.036c-.71.122-1.757.315-2.392.41-1.524.23-2.817.33-4.269.458-.432.038-.143,0-.767.047s-2.057.163-2.947.157c-.045,0-.686-.007-.839-.018s-.573.184-.477.355c.059.1.3.123.524.127l-.034-.009.119.01a2.418,2.418,0,0,1,.279.01c.031,0,.06.008.09.011.19.008.405.013.637.017a36.629,36.629,0,0,0,8.551-.179c.317-.036,1.008-.086,1.373-.159h0l.227-.036a18.171,18.171,0,0,0,1.813-.363c.349-.092.81-.177,1.244-.287s.97-.281,1.449-.422a5.322,5.322,0,0,0,1.411-.6,4.491,4.491,0,0,0,.62-.547c.026-.025.287-.347.346-.353.006,0-.278.492-.317.534a6.164,6.164,0,0,1-.585.588,4.759,4.759,0,0,1-1.441.8,12.735,12.735,0,0,1-1.64.435c-.517.115-.956.211-1.442.306s-.863.149-1.371.223l-.219.034h0c-.458.082-.9.139-1.364.2s-.946.115-1.416.166a11.085,11.085,0,0,0-1.209.15c-.766.149-3.449.4-4.723.513-.3.019-.409.276-.052.383a17.853,17.853,0,0,0,2.62.2c-.272.039-.89.2-1.078.24l-.065.015c-.122.028-.294.065-.5.107-.913.2-.594.693.053.668.234.014.438.025.583.031.691.025,1.489.069,2.191.083-.7.205-1.415.385-2.125.578-.326.089-.715.433.467.286,1.205-.084,3.56-.432,4.533-.58a9.79,9.79,0,0,0,1.43-.323c.194-.044.255-.084.375-.1a.708.708,0,0,0,.265-.074,2.336,2.336,0,0,0-.367,0c-.261,0-.479,0-.722,0-.574.01-1.1-.014-1.685.042-.371.036-1.254-.028-1.045-.08.569-.141,1.034-.178,1.557-.265.864-.144,1.7-.136,2.551-.321.075-.016.155-.024.23-.042v0a11.235,11.235,0,0,0,1.311-.172c.319-.068.187-.106.526-.2a11.656,11.656,0,0,1,1.368-.361,3.37,3.37,0,0,1,.429-.038.515.515,0,0,1,.269.055,4.208,4.208,0,0,1,1.248.821,6.307,6.307,0,0,1,1.118,1.639c.115.25.241.64.309.828s.093.254.128.354.038.177.08.2-.005-.041-.013-.1-.028-.137-.042-.287-.017-.4-.039-.637a6.6,6.6,0,0,0-.2-.925,5.4,5.4,0,0,0-.292-.656c-.077-.177-.137-.381-.184-.489s-.122-.283-.1-.287.1.165.175.256.105.178.232.356.379.518.544.768a7.449,7.449,0,0,1,.744,1.389c.174.466.219.893.347,1.368a3.578,3.578,0,0,1,.158.63,4.832,4.832,0,0,0,.119.889,5.475,5.475,0,0,0,.409.924c.046.085.115.193.155.255s.073.311.137.281.014-.181-.013-.3a4.25,4.25,0,0,0-.129-.44,4.357,4.357,0,0,1-.169-.882c-.05-.619-.074-1.316-.133-1.956a2.22,2.22,0,0,0-.229-.952c-.174-.305-.284-.545-.5-.871a9.41,9.41,0,0,1-.759-1.284c-.143-.349-.278-.7-.373-.941s-.1-.415-.146-.543.037-.43.057-.345.345.97.4,1.081c.27.517.345.777.631,1.253a11.566,11.566,0,0,1,.925,1.56,8.053,8.053,0,0,1,.285,1.8c.091.593.191,1.179.287,1.775a2.439,2.439,0,0,0,.165.6c.088.209.262.527.359.723s.2.445.283.581a2.06,2.06,0,0,0,.192.272c.063.075.031.187.117.191s.054-.213.033-.324a2.347,2.347,0,0,1-.013-.5,1.554,1.554,0,0,1,.127-.49c.062-.112.067-.18.172-.229s.215,0,.346,0,.368-.1.493-.1a1.8,1.8,0,0,0,.537-.313c-.083-.038-.21.1-.315.124a1,1,0,0,1-.294.043,2.37,2.37,0,0,1-.536-.115,1.406,1.406,0,0,1-.323-.113,2.076,2.076,0,0,0-.379-.245c-.076-.011.034.045-.018.022s-.223-.159-.2-.2c0,0,.624.247.7.275a1.222,1.222,0,0,0,.962-.057,3.664,3.664,0,0,0,.919-.649,5.2,5.2,0,0,0,.423-.425c.106-.119.224-.261.258-.291s-.074.061-.115.1-.087.07-.193.151-.294.21-.468.327a2.749,2.749,0,0,1-.64.316,1.827,1.827,0,0,1-1.01-.011,2,2,0,0,1-.454-.314.94.94,0,0,1-.263-.269c.015-.012.349.252.447.257s.341.19.4.109-.047-.323-.054-.486a2.962,2.962,0,0,1,.025-.631,1.112,1.112,0,0,1,.18-.406c.088-.135.185-.262.275-.4-.207-.071-.471-.123-.66-.212a3.541,3.541,0,0,1-.528-.323c-.144-.1-.353-.255-.435-.331a1.84,1.84,0,0,1-.208-.195c.017,0,.2.138.314.207a3.931,3.931,0,0,0,.435.23,5.622,5.622,0,0,0,.962.286,2.139,2.139,0,0,0,.746.016,2.222,2.222,0,0,0,.527-.161c.127-.065.408-.152.4-.207s-.326.007-.467.029a1.316,1.316,0,0,1-.584-.055,1.832,1.832,0,0,1-.572-.369c-.128-.136-.318-.376-.237-.511s.574,0,.654-.054.181-.043.145-.083-.242-.017-.4-.06a2.82,2.82,0,0,1-.633-.263,4.677,4.677,0,0,1-.663-.478c-.024-.021-.394-.337-.336-.382s.174.1.275.15.195.113.357.192.441.184.669.264a3.606,3.606,0,0,0,.914.112c.211,0,.365-.046.486-.05a1.266,1.266,0,0,0,.39-.087c-.04-.05-.169-.017-.295-.04s-.286-.023-.468-.071a3.933,3.933,0,0,1-.657-.233,2.276,2.276,0,0,1-1.085-.817,2.011,2.011,0,0,1-.271-1.188c.042-.428-.007-.972.335-1.283.022-.02,1.257.54,1.529.59a7.659,7.659,0,0,0,1.033.138c.224,0,.373-.005.493,0s.263,0,.264-.022-.232-.018-.3-.042-.238-.078-.307-.1a7.609,7.609,0,0,1-.994-.281,7.337,7.337,0,0,1-1.085-.656,3.121,3.121,0,0,1-.861-.878,4.75,4.75,0,0,1-.361-.867,2.983,2.983,0,0,0,1.073,1.226,6.328,6.328,0,0,0,.61.3,5.29,5.29,0,0,0,.5.188c.1.037.183.039.172.024s-.173-.1-.257-.17-.178-.108-.328-.223-.348-.264-.555-.453a1.223,1.223,0,0,1-.261-.964,4.914,4.914,0,0,1,.234-.635c.065-.167.077-.169.124-.285s.142-.137.14-.268-.118-.2-.208-.339-.232-.414-.321-.586c.153.076.221.214.341.331a2.084,2.084,0,0,0,.3.257,3.986,3.986,0,0,0,.76.407,8.163,8.163,0,0,0,.963.363,3.066,3.066,0,0,0,.316.056.978.978,0,0,0,.2.02c.048-.006.17.009.159,0s-.129-.042-.21-.073-.135-.065-.276-.127-.42-.189-.6-.289-.4-.281-.578-.4-.219-.241-.163-.384.079-.164.121-.261.1-.08.126-.186-.143-.243-.215-.33a3.073,3.073,0,0,1-.215-.326c-.048-.08-.153-.145-.162-.195s.056.013.1.049.1.1.187.185.144.144.3.27a6.23,6.23,0,0,0,.739.484,6.632,6.632,0,0,0,.818.354c.173.057.321.075.372.092.112.037.245.019.225-.006s-.035.025-.105-.011-.142-.059-.277-.139-.348-.217-.547-.333a2.409,2.409,0,0,1-.7-.551,1.51,1.51,0,0,1-.207-.5c-.046-.181.063-.234-.034-.428a2.823,2.823,0,0,0-.563-.6c.261.123.709.273.951.357s.523.152.67.209.427.148.421.113a2.9,2.9,0,0,0-.467-.3c-.135-.077-.464-.284-.443-.449s.068-.12.069-.223-.058-.107-.11-.189-.113-.266-.152-.347-.127-.353-.1-.356.063.181.132.266a3.563,3.563,0,0,0,.258.367,3.021,3.021,0,0,0,.4.41c.186.14.492.317.713.5a5.524,5.524,0,0,0,.447.423,3.64,3.64,0,0,0-.267-.409,2.2,2.2,0,0,0-.329-.376c-.167-.171-.569-.5-.593-.817-.006-.077.037-.236.13-.2s.106.149.166.22a2.9,2.9,0,0,0,.212.228c.068.064.22.179.265.22s.227.2.189.153a5.157,5.157,0,0,1-.337-.492c-.082-.15-.176-.392-.282-.572a3.107,3.107,0,0,1-.244-1.115c.062-.065.149.395.212.463s.153.485.232.472-.04-.182-.034-.254,0-.133.014-.239a1.144,1.144,0,0,1,.158-.482c.08-.063.034.014.085-.021s.02-.034.082-.087a.641.641,0,0,1,.231-.156,3.449,3.449,0,0,1,.524-.1,4.765,4.765,0,0,1,.778-.114.979.979,0,0,0,.331-.006c.082-.02-.013-.031.033-.048a1.212,1.212,0,0,1,.131-.019c.046-.012.084-.043.129-.058-.674-.06-1.366-.319-2.032-.361A4.17,4.17,0,0,0,54,582.4a2.942,2.942,0,0,0-1.19,1.269,6.128,6.128,0,0,0-.817,1.465,3.483,3.483,0,0,0,.055,1.836,2.008,2.008,0,0,1-.341-.54,1.5,1.5,0,0,1-.1-.378c-.009-.095-.025-.314-.027-.312-.162.188-.664.891-.761,1.017a13.492,13.492,0,0,0-.8,1.142,14.756,14.756,0,0,0-.774,1.295,2.192,2.192,0,0,0-.2,1.4,5.257,5.257,0,0,0,.257.879c.016.048.195.452.185.45s-.135-.2-.2-.314-.221-.425-.308-.57-.153-.621-.22-.669-.1.44-.1.533a6.951,6.951,0,0,0,.052.915,5.88,5.88,0,0,0,.326,1.333,14.534,14.534,0,0,0,.608,1.357c.133.254.267.51.437.771.022.034.29.405.233.42s-.115-.137-.193-.226a2.424,2.424,0,0,1-.236-.319,7.515,7.515,0,0,1-.464-.793,11.634,11.634,0,0,1-.8-1.834,4.29,4.29,0,0,1,.266-3.279c.258-.487.586-.9.839-1.36a12.2,12.2,0,0,1,.873-1.231c.31-.436.646-.97.934-1.421s.491-.83.79-1.274a7.677,7.677,0,0,1,.918-1.345,2.414,2.414,0,0,1,1.476-.771,5.427,5.427,0,0,1,2.08.071c.7.183,1.367.337,2.135.484s1.7.328,2.51.477a4.232,4.232,0,0,1,.7.174,2.773,2.773,0,0,1,1.252.689,2.313,2.313,0,0,1,.5,1.253c.095.525-.1,1.185-.034,1.765.084.8.308,1.662.44,2.451.02.122.067.31.065.366,0,.087.072.193,0,.181a1.715,1.715,0,0,1-.149-.457c-.037-.143-.147-.359-.213-.563a1.648,1.648,0,0,0-.352-.736.768.768,0,0,0-.641-.127,2.162,2.162,0,0,0-.764.282,1.2,1.2,0,0,0-.6.6,1.868,1.868,0,0,0-.035.8c.018.282.036.577.066.871,0,0-.037-.086-.012,0s.113.473.137.606c-.287-.255-.351-1.085-.407-1.406a1.765,1.765,0,0,1,.028-.743,2.041,2.041,0,0,1,.334-.648c0-.007,0,.007-.023,0s.132-.14.052-.12a1.428,1.428,0,0,0-.376.431c-.064.121-.17.254-.217.365s-.082.169-.12.273a1.767,1.767,0,0,1-.257-.557.939.939,0,0,1-.1-.578,1.343,1.343,0,0,1,.343-.7,3.135,3.135,0,0,1,.794-.5c.012-.005.236-.057.188-.1s-.179.025-.31.071a5.684,5.684,0,0,0-.6.23,6.4,6.4,0,0,0-.652.41c-.144.105-.225.211-.317.278s-.217.249-.241.247.1-.237.146-.307a2.557,2.557,0,0,1,.189-.3c.071-.077.221-.2.25-.278s-.015-.132-.027-.184c-.1-.434-.182-.848-.294-1.276a3.991,3.991,0,0,0-.5.449,3.882,3.882,0,0,0-.453.656,2.066,2.066,0,0,0-.2.826,2.335,2.335,0,0,0,.2,1,4.591,4.591,0,0,0,.512.942c.206.288.394.566.611.848a7.834,7.834,0,0,0,.718.786,5.145,5.145,0,0,0,.852.727,2.448,2.448,0,0,0,1.227.275,2.326,2.326,0,0,0,.716-.18c.182-.063.232-.151.316-.18s-.007.017.025.014.044-.061.057-.056-.034.063-.075.1a2.11,2.11,0,0,1-.19.146,2.049,2.049,0,0,1-.343.205,3.551,3.551,0,0,1-.545.146,2.3,2.3,0,0,1-.565.008,2.788,2.788,0,0,1-.461-.147,2.292,2.292,0,0,1-.736-.515,4.075,4.075,0,0,1-.368-.351,14.7,14.7,0,0,1-1.62-2.114,2.893,2.893,0,0,1-.461-1.945,2.792,2.792,0,0,1,.907-1.646,9.31,9.31,0,0,1,.946-.807c.058-.049.823-.445.8-.469a4.591,4.591,0,0,0-.912.324c-.141.089-.362.18-.47.25s-.143.076-.22.13-.128.122-.2.164-.064.041-.145.022-.153-.08-.234-.107-.064-.033-.122.042a1.623,1.623,0,0,0-.136.2,3.234,3.234,0,0,0-.225.485c-.05.145-.119.435-.143.542s-.022.226-.058.233-.017-.122-.012-.2,0-.21.014-.355a2.931,2.931,0,0,1,.052-.5,2.825,2.825,0,0,1,.387-.716,10.805,10.805,0,0,1,1.083-.951c.082-.1-.608.271-.669.312-.262.174-.538.341-.8.484a.961.961,0,0,1-.8.01c-.191-.09-.234-.246-.3-.3s-.162-.317-.182-.2.073.78.07.991a2.212,2.212,0,0,0,.152.6,1.908,1.908,0,0,1,.1.376,2.012,2.012,0,0,1,.018.335c-.019.021-.072-.155-.1-.239s-.082-.19-.134-.33a4.9,4.9,0,0,1-.159-.484,3.746,3.746,0,0,0-.333-.912,2.175,2.175,0,0,1-.432,1.484c-.067.088-.194.142-.152.253s.175.152.27.221.327.212.4.262.234.188.183.185-.318-.118-.491-.14a6.213,6.213,0,0,0-.632-.119,5.243,5.243,0,0,0-1.017.01,4.455,4.455,0,0,1,2.171.786,1.259,1.259,0,0,1,.69.8c.038.152.054.391-.126.425s-.547-.149-.615-.131.191.15.263.209a4.686,4.686,0,0,1,.366.354c.077.089.242.224.23.323s-.095-.017-.142-.051c-.18-.13-.549-.361-.7-.475a3.979,3.979,0,0,1-.336-.274c-.076-.073-.173-.227-.185-.209a1.364,1.364,0,0,0,.139.252,3.534,3.534,0,0,0,.277.406c.127.166.422.4.581.62a4.043,4.043,0,0,1,.38.767c.023.052.159.275.1.343s-.294.044-.346.058a1.474,1.474,0,0,1-.8.02,2.074,2.074,0,0,1-.385-.213c-.174-.1-.518-.3-.677-.378a4.5,4.5,0,0,0-.481-.174c-.106-.032-.218-.119-.217-.07s.209.1.323.181a3.9,3.9,0,0,1,.428.346,4.574,4.574,0,0,0,.6.605,2.561,2.561,0,0,0,.827.191c.274.065.343.285.156.488a1.833,1.833,0,0,0-.52.874c-.049.306-.07.709-.107.97a5.291,5.291,0,0,0-.063.579c-.011.223.051.245-.1.489a6.972,6.972,0,0,1-.776.887,8.878,8.878,0,0,1-.844.657c-.195.153-.322.217-.431.3s-.391.14-.335.2.393-.123.58-.211a7.276,7.276,0,0,0,.735-.323c.275-.159.755-.5,1.069-.695a3.511,3.511,0,0,0,.427-.323c.091-.084.293-.344.344-.284s-.408.575-.445.619a9.16,9.16,0,0,1-.73.713c-.207.195-.437.336-.59.479s-.441.389-.5.44.153-.045.212-.069.227-.08.346-.121.337-.128.482-.182.469-.345.591-.3,0,.232,0,.371a2.4,2.4,0,0,1-.185.524,4.35,4.35,0,0,1-.382.74c-.141.214-.243.521-.374.728a3.045,3.045,0,0,1-.412.538,3.885,3.885,0,0,0-.618,1.128c.039.088.444-.5.485-.529.288-.21.478-.5.729-.68a13.263,13.263,0,0,0,.933-1.1,7.486,7.486,0,0,1-.58,1.07c-.122.154-.23.346-.351.482a1.349,1.349,0,0,0-.312.413,2.491,2.491,0,0,0-.068.53,3.754,3.754,0,0,0-.055.5,1.561,1.561,0,0,1-.053.483,2.2,2.2,0,0,0-.1.3c-.023.1-.005.2-.056.28a2.93,2.93,0,0,0,.79-1.018,5.689,5.689,0,0,1,.259-.8,4.879,4.879,0,0,1,.371-.55c.166-.228.47-.627.631-.844s.4-.475.5-.618a1.316,1.316,0,0,1,.257-.253c-.042.062-.242.419-.264.472-.111.26-.322.534-.428.747a4.816,4.816,0,0,0-.24.626c-.052.155-.078.253-.1.33s-.068.178-.049.167.093-.134.17-.218.142-.192.271-.347a3.273,3.273,0,0,1,.671-.646A.615.615,0,0,1,59,599.35a.719.719,0,0,1,.37.25c0,.008.016.021.034.035l.031.032.074.075a2.924,2.924,0,0,0,.315.3,1.278,1.278,0,0,0,.223.151l.07.033c.141.068.311.129.466.186.1.037.192.071.264.1.043.018.09.041.138.065a15.863,15.863,0,0,0,2.874,2.207,2.272,2.272,0,0,1-.271.011c-.294-.008-.588,0-.851-.031a5.385,5.385,0,0,0-.773-.055c-.255,0-1.593.216-1.592.216.1.083,1.059.076,1.19.144s-.114.053-.183.1a3.089,3.089,0,0,1-.405.145c-.176.064-.515.173-.763.261s-.635.229-.9.291a3.576,3.576,0,0,1-.756.057c-.561.016-1.1.057-1.662.023-.275-.017-.523-.074-.809-.1s-.64-.042-.933-.066c-.623-.052-1.381-.028-1.962-.036s-1.04-.031-1.562.005-1.053.109-1.534.166a9.571,9.571,0,0,0-1.39.252c-1.445.4-2.781.925-4.163,1.415l0,.01c-.694.25-2.035.725-2.717.967-1.282.456-8.279,2.737-8.2,2.763a.526.526,0,0,0,.095.021c-.556.132-1.091.254-1.7.4a1.3,1.3,0,0,0-.552.423c-.125.24.16.138.339.1,2.873-.555,5.835-1.248,8.723-2.066l.371-.108c.45-.131.893-.28,1.335-.435l.073-.025c.233-.081.487-.172.714-.246.649-.213,1.283-.421,1.927-.624.05-.016.093-.054.132-.068.419-.149.935-.327,1.327-.466.9-.32,1.687-.591,2.607-.84a10.8,10.8,0,0,1,1.238-.247c.191-.029.334-.052.6-.091s.7-.1,1.039-.111.72,0,1.108.028l.454.024c.2.01.585.023.843.033s.517.017.8.029.609.04.919.067l.1.008c.108.009.453.04.633.05.5.027,1.14.033,1.611.011a6.889,6.889,0,0,0,1.872-.344c.1-.032.277-.1.367-.129.333-.116.761-.266,1.055-.357s.658-.21.854-.267.136-.062.252-.089.01-.051.154-.053a1.664,1.664,0,0,1,.433.06,3.2,3.2,0,0,0,1.272,0c.049-.016.136-.092.2-.065a16.17,16.17,0,0,0,4.843,1.167c.128.01.182.133.286.184a3.152,3.152,0,0,0,1.026.293c.087.011.107.157.185.187,1.341,5.038,6.2,5.873,11.048,6.119a13.453,13.453,0,0,0,1.648-.053c5.242-.59,11.035-1.772,11.863-7.511a4.959,4.959,0,0,0,.958-3.045c-.3-5.38-.672-10.972-1.024-16.406m-35.36,13.629a2.388,2.388,0,0,0,.686.8c.059.051.438.355.494.287s-.2-.284-.252-.385a2.264,2.264,0,0,1-.149-.3c-.05-.14-.129-.407-.171-.572a1.842,1.842,0,0,1-.061-.473,2.611,2.611,0,0,1,.06-.571,1.442,1.442,0,0,1,.086-.342.442.442,0,0,1,0,.2,1.545,1.545,0,0,0-.031.309,1.8,1.8,0,0,0,0,.415,2.4,2.4,0,0,0,.2.621,3.739,3.739,0,0,1,.737-.526c.243-.115.395-.04.644-.07a3.617,3.617,0,0,1,.906-.05,2.443,2.443,0,0,1,.454.152.877.877,0,0,1,.2.113c.075.045.092.031.163.07s.1.1.163.174a1.146,1.146,0,0,1,.156.245,4.552,4.552,0,0,0,.319.495,5.339,5.339,0,0,0,.4.381c.074.079.394.282.361.2s-.452-.482-.514-.674a2.129,2.129,0,0,1-.148-.525,3.805,3.805,0,0,1-.047-.909.624.624,0,0,1,.352-.457,1.008,1.008,0,0,1,.579-.211c.175.015.243.008.342.1s.049.155.11.3a3.341,3.341,0,0,1,.145.694,2.174,2.174,0,0,1-.053.391c0,.105-.186.356-.152.355a1.656,1.656,0,0,0,.312-.5,1.7,1.7,0,0,0,.06-.546c-.012-.2-.052-.62-.068-.8s-.075-.318-.077-.421-.161-.294-.128-.284c.166.048.258.447.4.554s.28.112.355.24.034.127.083.281a5.525,5.525,0,0,1,.15.712,2.189,2.189,0,0,1-.036.344c.006.087-.066.269-.047.26a.94.94,0,0,0,.123-.334,2.5,2.5,0,0,0,.068-.472,8.691,8.691,0,0,0-.008-.883,1.154,1.154,0,0,0-.481-.785,2.7,2.7,0,0,0-.6-.19.876.876,0,0,0-.541,0c-.028.017-.034.025-.031.029-.161.009-.53.142-.566.129s.211-.164.317-.193a1.509,1.509,0,0,1,.382-.129,3.9,3.9,0,0,1,.8.089,1.366,1.366,0,0,1,.589.21.7.7,0,0,1,.278.341,8.3,8.3,0,0,1,.457,1.556.772.772,0,0,1-.075.514,2.94,2.94,0,0,1-.436.806,2.553,2.553,0,0,1-.737.482c-.191.089-.316.15-.423.2-.081.037-.225.07-.278.1-.146.024-.173.057-.278.071h-.008a10.813,10.813,0,0,1-1.5-.1l-.148-.016-.1-.009c-.188-.018-.33-.027-.463-.032-.088,0-.17-.006-.242,0l-.067,0a.9.9,0,0,0-.236.039c-.036.009-.074.018-.123.027a.76.76,0,0,0-.077.018,1.439,1.439,0,0,1-.274.072l-.046,0c-.068,0-.142,0-.217,0-.115-.006-.237-.017-.35-.027l-.023,0c-.035-.005-.07-.012-.105-.02l.04.015-.018,0a1.249,1.249,0,0,1-.522-.256l-.171-.14a.255.255,0,0,0-.059-.048,5.386,5.386,0,0,1-1.126-1.139,1.254,1.254,0,0,1-.16-.639,3.063,3.063,0,0,1,.136-1.079c.044-.135.063-.331.2-.439a.755.755,0,0,1,.422-.22,7.919,7.919,0,0,1,.98-.043c.262,0,.476-.024.714-.01s.448.067.679.088a3.685,3.685,0,0,0,.7-.014c.222-.023.408-.03.627-.041a1,1,0,0,1-.518.133,5.853,5.853,0,0,1-.711.1c-.256.01-.613-.041-.882-.057s-.536-.021-.8-.022a1.491,1.491,0,0,0-.816.12.924.924,0,0,0-.324.519,2.092,2.092,0,0,0,.062,1.6m.461-16.5c-.1-.111-.49-.125-.652-.144a4.157,4.157,0,0,1,.351-.742,4.218,4.218,0,0,1,1.311-1.394,2.988,2.988,0,0,1,.428-.224c.118-.049.151-.06.241-.091s.156-.052.241-.074a4.761,4.761,0,0,1,1.01-.16,10.471,10.471,0,0,1,2.116.179,6.656,6.656,0,0,0-2.121-.545,3.824,3.824,0,0,0-3.733,2.016,4.735,4.735,0,0,0-.434.956,13.422,13.422,0,0,1-1.781-.424,5.031,5.031,0,0,1,.3-.881c1.675-3.267,3.825-3.694,7.22-2.91.325.075.456.118.6.145a5.03,5.03,0,0,0,1.922.058,2.21,2.21,0,0,0,.233,1.3,2.233,2.233,0,0,1,.55-.986q.077,1.12.156,2.242c-.54.158-.4.683-.3,1.316a1.87,1.87,0,0,1-.59-1.522q-.727.032-1.454.066a4.414,4.414,0,0,0-3-.281,3.705,3.705,0,0,0-.666.129c-1.14.331-1.461,1.137-1.868,1.988L60.749,582m10.22-14.336a.551.551,0,0,1-.153-.58.454.454,0,0,1,.448-.321H71.3l.752.221-.492-.583-.02-.05a.64.64,0,0,1,.149-.672.62.62,0,0,1,.688-.126h0l.8.488-.415-.765c0-.017,0-.033,0-.054a.914.914,0,0,1,.524-.813.976.976,0,0,1,.822.095,1.269,1.269,0,0,0-.127.351,1.08,1.08,0,0,0-.014.329.514.514,0,0,0-.174.072.661.661,0,0,0-.237.4c-.023.123.033.383.079.393s.056-.268.106-.345a.857.857,0,0,1,.2-.253,1,1,0,0,1,.313-.1c.094-.026.353.087.365.042s-.215-.209-.351-.223a1.009,1.009,0,0,0-.157,0,1.163,1.163,0,0,1,.126-.218,1.136,1.136,0,0,1,.32-.346,1.227,1.227,0,0,1,.784-.219,1.583,1.583,0,0,1,.819.3,1.265,1.265,0,0,1,.464.794.858.858,0,0,0,.085-.549c-.008-.033-.015-.062-.022-.091a31.463,31.463,0,0,1,6.237,1.239,12.579,12.579,0,0,0,1.549.4,15.176,15.176,0,0,0,2.783.034c2.187.012,5.062-.417,6.835,1.021,2.1,1.7,1.416,4.3,1.293,6.6-.027.5-.123,1.11-.158,1.62a12.149,12.149,0,0,0,.648,3.461c.4,1.551,1.405,3.588-.515,4.381-1.6.659-3.111-.948-4.231-2.515a.982.982,0,0,1-.858-1.282c-.152-.238-.29-.454-.411-.637-.183-.276-.351-.555-.52-.8a.71.71,0,0,1-.717-.66.734.734,0,0,1,0-.087,5.373,5.373,0,0,0-1.659-.678c-.85-.293-2.038-.675-2.945-1.084a.762.762,0,0,1-.306.084.7.7,0,0,1-.763-.606,9.026,9.026,0,0,1-2.026-1.844,4.757,4.757,0,0,0-2.689-1.781c-.011,0-.041-.016-.045-.016-1.57.118-6.709-.111-7.1-1.868-.245-1.106.055-1.01.045-1.8l.335-.262-.473-.065-.024-.018m1.523-2.343h0Zm19.376,17.629c.4,5.846.791,11.891,1.147,17.805-.447-.148-.686-.1-.725-.72-.369-5.909-.773-11.961-1.171-17.925.242.288.489.572.748.84M70.318,569.582c.011.065.023.134.04.211a2.272,2.272,0,0,0,.959,1.377c.94,1.118,4.112,1.264,6.695,1.19l.107,0a4.055,4.055,0,0,1,2.251,1.55,9.738,9.738,0,0,0,2.032,1.881.165.165,0,0,1,.025.018.228.228,0,0,1,.01.026,1.239,1.239,0,0,0,1.178.745,1.069,1.069,0,0,0,.228-.035c.047-.009.023-.007.037-.009a.067.067,0,0,1,.035.012c.663.3,1.556.6,2.284.846a32,32,0,0,1-3.948.471c-3.987.186-5.957.327-9.137-.887a4.494,4.494,0,0,0,1,.176,17.794,17.794,0,0,1-.083-2.565,10.127,10.127,0,0,1,.291-1.728,9.806,9.806,0,0,1-1.215-.2,10.47,10.47,0,0,0-.389,4.114,7.813,7.813,0,0,1-1.038-.468,13.948,13.948,0,0,1,.007-2.247,9.839,9.839,0,0,1,.376-1.671,6.177,6.177,0,0,1-1.93-.856c-.661-.562-.31-.372-.546-.726.027-.091.055-.184.088-.281a2.339,2.339,0,0,1,.64-.949m.172,11.846c.321,5.279.895,12.711,1.248,18.271.071,1.117.309,1.784,1.045,1.951.651.148.681-.351.887-.648a.331.331,0,0,1,.091-.1.554.554,0,0,0-.091.1c-.215.368-.044,1.231-.993.937-.732-.227-1.2-.067-1.313-2.021-.353-6.2-1-14.135-1.4-20.823-.024-.4.145-1.24.729-1.234.887.009,1.2.993,1.406,1.6-1.286-1.315-1.755-.452-1.608,1.967m1.751-1.2c.216,1.649.4,3.26.55,4.92s.284,3.225.41,4.947c.047.646.12,1.753.161,2.418.055.887.1,1.654.139,2.488.082,1.669.146,3.3.172,4.964-.215-1.653-.39-3.277-.549-4.941-.08-.832-.146-1.6-.219-2.483-.055-.664-.14-1.771-.186-2.416-.123-1.722-.22-3.29-.3-4.953s-.145-3.283-.176-4.943M68.6,586.17c-.071-.114-.3-.306-.354-.388s-.174-.092-.151-.144a3.323,3.323,0,0,0,.371-.958,2.31,2.31,0,0,0,.021-.235c.037.575.08,1.153.113,1.725m.652,11.5a7.49,7.49,0,0,0-.558-1.525c-.006-.011-.026-.011-.018-.049s.019-.025.059-.111a3.087,3.087,0,0,0,.14-.392,6.561,6.561,0,0,0,.227-1.233c.011-.133.025-.314.032-.454q.155,2.228.316,4.461a1.773,1.773,0,0,1-.262.318l.011-.045a2.694,2.694,0,0,0,.054-.97m-5.2,4.355a3.563,3.563,0,0,1-.763-1.046c-.044-.094-.225-.286-.147-.4s.356-.028.489-.036a13.515,13.515,0,0,1,1.4-.008,8.331,8.331,0,0,0,1.566.013,19.928,19.928,0,0,0,2.307.937,3.176,3.176,0,0,1,.86-1.688l-.023,0a5.453,5.453,0,0,0,.807-.862c.12,1.614.269,3.23.347,4.847a.525.525,0,0,1-.146.089c-.083,0-.166.009-.248.012a.968.968,0,0,1-.471-.206,2.4,2.4,0,0,1-.493-.549,4.8,4.8,0,0,1-.368-.712,4.251,4.251,0,0,0,.034.833,3.308,3.308,0,0,0,.157.616,11.142,11.142,0,0,1-4.882-1.509,4.227,4.227,0,0,1-.424-.332m10.4,6.169c.011-.191.09-.292.293-.222a22.667,22.667,0,0,0,8.948,1.121,25.065,25.065,0,0,0,8.066-1.823c.187-.077.283.143.217.313a3.361,3.361,0,0,1-1.689,1.5,20.288,20.288,0,0,1-6.483,1.33,17.683,17.683,0,0,1-8.166-1.124,2.622,2.622,0,0,1-1.16-1.026c-.1-.249-.025-.061-.024-.069m19.685-3.928a11.946,11.946,0,0,1-2.32,1.626,20.162,20.162,0,0,1-4.682,1.586,28.812,28.812,0,0,1-3.53.422,27.812,27.812,0,0,1-3.317.026,20.244,20.244,0,0,1-5.148-1.072,12.109,12.109,0,0,1-2.469-1.344,4.4,4.4,0,0,1-1.068-1.236.906.906,0,0,0,.01-.157c0-.058,0-.121,0-.185q.033.111.069.224a13.675,13.675,0,0,0,7.2,3.071c2.788.354,5.429.347,7.824-.94-5.745.427-10.892.322-15.144-3.671-.02-.347-.044-.716-.071-1.09a11.577,11.577,0,0,0,4.774,3.214,6.358,6.358,0,0,1-1.108-2.193c.55.67,1,1.875,2.2,1.649s1.841-1.217,1.753-2.709c-.322-5.467-.88-13.261-1.228-18.326-.2-2.844-1.12-3.014-2.749-3.571-1.053-.36-.769.529-1.338.723.6-.5.183-1.856,1.791-1.459s2.921.85,3.116,3.837c.346,5.319.909,13.536,1.3,19.262.107,1.564-.714,3.116-1.824,3.242-.094.011-.184.017-.271.022a22.033,22.033,0,0,0,6.563.33c-.986-.057-1.781.13-2.705-.5a3.423,3.423,0,0,1-1.088-2.988,2.73,2.73,0,0,0,1.377,2.035c.036.024.073.046.11.068.132.079.277.16.435.244l-.069-.088a2.432,2.432,0,0,0,.856.091,1.819,1.819,0,0,0,1.863-2.095c-.364-6.543-.856-13.9-1.35-20.432a1.855,1.855,0,0,0-2.129-1.846,1.806,1.806,0,0,0-1.875,1.825c-.143-2.694.3-.59.911-2.571-3.831-.111-8-.417-10.714-3.248,2.989,2.453,8.034,2.636,11.479,2.536A27.473,27.473,0,0,0,87,577.661a3.358,3.358,0,0,1,1.375.625,6.766,6.766,0,0,1,.859,1.2,1.279,1.279,0,0,1,.182.284,3.765,3.765,0,0,0,.38,1.228,2.359,2.359,0,0,0,.689.619c.408,6.077.863,12.358,1.191,18.349a1.393,1.393,0,0,0,1.273,1.322c.347.081.075.013.079.013a1.251,1.251,0,0,0,1.1-.8,1.158,1.158,0,0,0,.112-.662c-.319-5.21-.648-10.567-1.013-15.795a3.9,3.9,0,0,0,1.121.428c.444,5.52.969,10.982.96,17.167a3.743,3.743,0,0,1-1.175,2.627m-18.59-20.306c.32,4.579.809,12.229,1.159,16.9.132,1.76.286,1.131,1.206,1.725-.482-.032-.347.54-1.093.12a2.307,2.307,0,0,1-1.283-2.312c-.345-5.875-.887-12.733-1.262-18.727-.065-1.047.511-1.1,1.225-1.143.486-.029.525.4.784.539-1.156,1.087-.894.648-.737,2.9m6.175-1.18c.419,6.177.854,12.78,1.262,18.959.067,1.013.457,1.195,1.177,1.671-.251.135-.472.457-.844.382-.826-.168-1.333-.4-1.4-1.467-.436-6.5-.9-13.506-1.337-20-.072-1.069.406-1.351,1.2-1.616.361-.12.629.175.9.282-.655.555-1.024.777-.955,1.793m-17.053-1.217a3.472,3.472,0,0,0-.618.123c-.065.027.009-.012-.008-.012a1.139,1.139,0,0,0-.464.156c-.189.073-.556.168-.74.249s-.456.169-.571.236a1.922,1.922,0,0,1-.389.143c0-.04.313-.241.33-.255a9.26,9.26,0,0,1,.795-.522c.259-.166,1.037-.312,1.171-.4s-.236-.075-.358-.1-.373-.063-.626-.093a3.3,3.3,0,0,0-1.068.051,1.5,1.5,0,0,1,.44-.329c.176.008.348.025.535.039a7.036,7.036,0,0,1,.83.091,5.605,5.605,0,0,1,1.716.7,2.883,2.883,0,0,1,.744.6,3.569,3.569,0,0,1,.529.748,2.19,2.19,0,0,1,.188,2,1.617,1.617,0,0,1-.679.651,1.753,1.753,0,0,1-.49.111.752.752,0,0,1-.265.032c-.084-.006-.369.051-.355-.046s.389-.1.572-.143a1.416,1.416,0,0,0,.652-.28,1.681,1.681,0,0,0,.566-1.034,2.764,2.764,0,0,0-.168-.659,2.045,2.045,0,0,0-.293-.63,3.288,3.288,0,0,0-.648-.6c-.18-.133-.322-.208-.452-.292a1.805,1.805,0,0,0-.366-.215c-.079-.015,0,.05.01.078s.035.032.1.1.221.188.326.3a4.149,4.149,0,0,1,.911,1.246.959.959,0,0,1,.122.481c-.019.185-.353.366-.5.415a2.625,2.625,0,0,0-.337.09c-.088.049-.041.057-.057.127s-.014.206-.028.269c-.01.043-.027.114-.034.16a.967.967,0,0,0-.006-.1c-.015.015,0,.149-.028.149h-.007s0-.016-.008-.045a3.7,3.7,0,0,1-.052-.5,3.554,3.554,0,0,0-.3-.858c-.119-.22-.283-.524-.377-.694s-.149-.293-.214-.393-.045-.2-.133-.212,0,.211.059.343.136.313.243.549a2.506,2.506,0,0,1,.217,1.07c-.006.042-.111-.016-.155-.008s-.122-.081-.189-.044c0,0-.047.5-.05.486s-.012-.188-.021-.3a4.767,4.767,0,0,0-.1-.488,6.964,6.964,0,0,0-.373-1.145.818.818,0,0,1,0-.7,1.455,1.455,0,0,1,.246-.414c.073-.1.122-.092.162-.134s.081-.043.075-.062c-.012-.039.078-.063-.012-.081m-.451,4.958c-.064-.034-.038-.138,0-.193s.08-.052.216-.092a2.558,2.558,0,0,1,.526-.148c.253-.033.755,0,1.081,0,.126,0,.243-.075.411-.017a2.922,2.922,0,0,1,1.213.834,6.479,6.479,0,0,1,.65,1.055,3.6,3.6,0,0,1,.222,1.248,2.759,2.759,0,0,1-.32,1.162,2.2,2.2,0,0,1-.377.521c-.136.167-.28.352-.475.29a10.009,10.009,0,0,0-1.267-.549,7.156,7.156,0,0,0-.8-.043,2.346,2.346,0,0,0-.628.047c-.06.013-.065-.154-.03-.2s.257-.032.371-.034.383-.032.5-.04.255.005.342-.009.3.046.3-.052-.109-.125-.2-.238a2.387,2.387,0,0,1-.311-.442c-.1-.2-.231-.576-.318-.818a2.611,2.611,0,0,1-.172-.865.518.518,0,0,1,.115-.317c.059-.082.066-.014.121-.061s.076-.145.148-.169c.4-.13.545.394.675.651a3.357,3.357,0,0,1,.213.874c.039.224.091.423.119.553a.6.6,0,0,1,.021.169c0,.06-.056.063-.04.087s.087-.085.1-.163.052-.2.071-.348a2.651,2.651,0,0,0-.014-.608,3.294,3.294,0,0,1-.015-.543c0-.147-.069-.2-.033-.326s.086-.329.267-.268a1.329,1.329,0,0,1,.48.428,1.637,1.637,0,0,1,.225.3,3.814,3.814,0,0,1,.163.508,3.688,3.688,0,0,1,.159.6.837.837,0,0,1-.038.308,1.391,1.391,0,0,1-.065.228,1.036,1.036,0,0,0-.073.2,1.228,1.228,0,0,0,.148-.224,1.676,1.676,0,0,1,.156-.327c.057-.043.007.121.035.058a1.225,1.225,0,0,0,.032-.352,2.262,2.262,0,0,0-.021-.429,4.172,4.172,0,0,0-.1-.715,1.834,1.834,0,0,0-.3-.622,2.249,2.249,0,0,0-.636-.747,2.841,2.841,0,0,0-1.4-.382c-.246.007-.6.045-.784.06a1.87,1.87,0,0,0-.321.041c-.111.025-.287.141-.351.108m-1.537,1.835a.468.468,0,0,1,.12-.273.713.713,0,0,1,.334-.057c.378.012.5.226.576.545.019.085.035.1-.072.159a.606.606,0,0,1-.429.065c-.192-.033-.557-.144-.529-.439m1.292,3.073a1.588,1.588,0,0,1-1.373-.121,1.155,1.155,0,0,1-.525-.577,2.159,2.159,0,0,1-.135-.613,3.258,3.258,0,0,1,.044-.978,1.274,1.274,0,0,1,.114-.34c.052-.087.039-.1.144-.076a2.946,2.946,0,0,1,.316.148c.115.048.264.091.395.132a1.632,1.632,0,0,0,.435.034c.121,0,.173-.089.265-.073s.046-.255.175-.071a8.719,8.719,0,0,1,.5,1.377,1.657,1.657,0,0,1,.106.712.6.6,0,0,1-.463.445m-4.948-.262c.062.052.079.142.2.219a.928.928,0,0,0,.564.053c.181-.036.406-.076.571-.122s.175.013.267.109a7.01,7.01,0,0,1-1.135.249c-.31.03-.387-.143-.487-.287a1.283,1.283,0,0,1-.173-.462c0-.042.126.19.188.242m.018,4.38a1.7,1.7,0,0,1-.949-1.26,2.445,2.445,0,0,1,.149-1.339,1.281,1.281,0,0,1,.942-.84c.423-.073.767-.066,1.151-.17.168-.045.369-.091.5-.134s.1-.027.176.019.11.106.179.157c-.525.106-1.039.162-1.57.263a1.428,1.428,0,0,0-.71.232,1.609,1.609,0,0,0-.41.544,1.876,1.876,0,0,0-.117.913,2.055,2.055,0,0,0,.255.886c.154.253.427.572.71.564s.068-.3.009-.477a7.032,7.032,0,0,1-.229-.823,2.774,2.774,0,0,1-.013-.517,1.048,1.048,0,0,1,.073-.448l.008-.01a.136.136,0,0,0-.009.089c.032.157-.025.447.02.668a3.514,3.514,0,0,0,.221.747,2.286,2.286,0,0,1,.834-.8,1.094,1.094,0,0,1,.384-.144c.165-.026.395-.014.587-.036.573-.065,1.16-.2,1.739-.238a2.093,2.093,0,0,1,.557.044,1,1,0,0,1,.5.169,3.817,3.817,0,0,1,.411.47c.1.131.2.226.281.331s.225.3.309.292-.009-.084-.024-.144-.148-.479-.156-.522a4.115,4.115,0,0,1-.08-.9,7.682,7.682,0,0,1,.033-.821,2.958,2.958,0,0,1,.118-.513.438.438,0,0,1,.023.232,1.243,1.243,0,0,0,.023.424c.031.177.116.532.176.747s.136.423.181.65a1.277,1.277,0,0,0,.343.678c.05.04-.03-.063-.006-.058,0,0,.021.045.022,0a1.838,1.838,0,0,0-.1-.256,1.84,1.84,0,0,1-.1-.376c-.032-.192-.006-.642-.012-.878s-.037-.575-.019-.771,0-.576.081-.645.071.325.074.386-.032.3.064.331.168-.07.253-.076a.275.275,0,0,1,.169.011c.116.031.454.129.581.151s.093-.03.191.044a.719.719,0,0,1,.209.309,1.853,1.853,0,0,1,.1.64,6.765,6.765,0,0,1-.114.674c-.014.162-.175.6-.145.6a2.245,2.245,0,0,0,.272-.611,5.644,5.644,0,0,0,.187-.626,2.453,2.453,0,0,0-.228-1.454,1.156,1.156,0,0,0-.4-.409,2.651,2.651,0,0,0-.737-.432,2.49,2.49,0,0,0-.735,0c-.206,0-.479.114-.6.074-.085-.029,0-.211.109-.235a3.767,3.767,0,0,1,.524-.063c.141,0,.369-.007.474,0a.884.884,0,0,1,.187.019c.062.02.222.052.244.06a6.936,6.936,0,0,1,.782.342,1.083,1.083,0,0,1,.478.474,3.291,3.291,0,0,1,.495,1.511,13.863,13.863,0,0,1-.136,1.592.9.9,0,0,1-.217.664.454.454,0,0,1-.487.131c-.223-.056-.491-.185-.736-.228a2.444,2.444,0,0,0-.733.015c-.508.062-.986.145-1.491.242a3.017,3.017,0,0,1-.694.086c-.276,0-.611-.062-.923-.093a14.786,14.786,0,0,0-1.742.016,4.184,4.184,0,0,1-1.768-.148" transform="translate(-28.033 -538.657)" fill="#1b2227"/>
          <path id="Tracé_10337" data-name="Tracé 10337" d="M948.909,866.1c.366,5.229.694,10.585,1.013,15.795a1.157,1.157,0,0,1-.112.662,1.251,1.251,0,0,1-1.1.8s.268.068-.079-.013a1.393,1.393,0,0,1-1.273-1.322c-.328-5.99-.783-12.272-1.191-18.349a2.356,2.356,0,0,1-.689-.619,3.763,3.763,0,0,1-.38-1.228,1.282,1.282,0,0,0-.182-.284,6.764,6.764,0,0,0-.859-1.2,3.358,3.358,0,0,0-1.375-.625,27.469,27.469,0,0,1-5.437.925c-3.445.1-8.489-.083-11.479-2.536,2.711,2.831,6.883,3.137,10.714,3.248-.61,1.981-1.054-.123-.911,2.571a1.806,1.806,0,0,1,1.875-1.824l-.029-.049h0l.029.049a1.855,1.855,0,0,1,2.13,1.846c.494,6.537.986,13.889,1.35,20.432a1.818,1.818,0,0,1-1.863,2.095s0,.013,0,.026,0,.013,0,.017,0,.021,0,0c0-.005,0-.011,0-.017l0-.026a2.437,2.437,0,0,1-.856-.091l.069.088c-.159-.085-.3-.165-.435-.244-.038-.021-.074-.044-.11-.068a2.73,2.73,0,0,1-1.378-2.035,3.423,3.423,0,0,0,1.088,2.988c.925.626,1.719.439,2.705.5a22.033,22.033,0,0,1-6.563-.33c.087,0,.177-.011.271-.022,1.11-.126,1.931-1.678,1.824-3.242-.392-5.726-.955-13.943-1.3-19.262-.194-2.987-1.507-3.441-3.116-3.837s-1.187.963-1.791,1.459c.569-.194.284-1.083,1.338-.723,1.629.557,2.554.727,2.75,3.571.348,5.065.907,12.859,1.228,18.326.088,1.492-.56,2.484-1.753,2.709s-1.649-.98-2.2-1.65a6.362,6.362,0,0,0,1.108,2.193,11.579,11.579,0,0,1-4.774-3.214c.026.374.051.742.071,1.089,4.253,3.993,9.4,4.1,15.144,3.671-2.4,1.287-5.036,1.295-7.824.94a13.675,13.675,0,0,1-7.2-3.071q-.036-.113-.069-.224c0,.064,0,.126,0,.185a.908.908,0,0,1-.01.157,4.393,4.393,0,0,0,1.068,1.236,12.116,12.116,0,0,0,2.469,1.344,20.254,20.254,0,0,0,5.148,1.072,27.849,27.849,0,0,0,3.317-.026,28.8,28.8,0,0,0,3.53-.422,20.163,20.163,0,0,0,4.682-1.586,11.941,11.941,0,0,0,2.32-1.626,3.743,3.743,0,0,0,1.175-2.627c.009-6.184-.516-11.647-.961-17.167a3.9,3.9,0,0,1-1.121-.428M942.4,883.816c-.44-6.511-.907-13.754-1.342-20.264a1.655,1.655,0,0,1,1.7-1.9l-.005-.009-.011-.018,0-.005h0l0,.005.011.018.005.009a1.683,1.683,0,0,1,1.933,1.68c.5,6.508.951,13.749,1.331,20.261a1.672,1.672,0,0,1-1.709,1.907h0a1.665,1.665,0,0,1-1.913-1.685m8.2.688a5.661,5.661,0,0,1-2.047,2.259,10.929,10.929,0,0,1-4.823,1.715,8.288,8.288,0,0,0,2.482-1.323,4.244,4.244,0,0,0,1.334-2.244c1.424.434,2.362-.393,3.083-1.516a3.629,3.629,0,0,1-.029,1.109" transform="translate(-883.714 -820.706)" fill="#d89e60"/>
          <path id="Tracé_10338" data-name="Tracé 10338" d="M1390.843,1015.893c-.357-5.915-.749-11.959-1.147-17.806-.259-.267-.506-.552-.748-.84.4,5.964.8,12.017,1.171,17.925.039.619.278.572.725.72" transform="translate(-1325.861 -953.792)" fill="#d89e60"/>
          <path id="Tracé_10339" data-name="Tracé 10339" d="M914.929,710.9c.236.354-.115.164.546.726a6.175,6.175,0,0,0,1.93.856,9.847,9.847,0,0,0-.376,1.671,13.944,13.944,0,0,0-.007,2.246,7.791,7.791,0,0,0,1.038.468,10.473,10.473,0,0,1,.389-4.114,9.8,9.8,0,0,0,1.215.2,10.131,10.131,0,0,0-.291,1.728,17.784,17.784,0,0,0,.083,2.565,4.485,4.485,0,0,1-1-.176c3.18,1.215,5.15,1.074,9.137.887a32.043,32.043,0,0,0,3.948-.471c-.728-.245-1.621-.551-2.284-.846a.068.068,0,0,0-.035-.012c-.015,0,.009,0-.038.009a1.072,1.072,0,0,1-.228.034,1.239,1.239,0,0,1-1.178-.745.2.2,0,0,0-.01-.026.178.178,0,0,0-.026-.018A9.735,9.735,0,0,1,925.709,714a4.055,4.055,0,0,0-2.251-1.55l-.107,0c-2.583.075-5.755-.072-6.695-1.19a2.272,2.272,0,0,1-.959-1.377c-.017-.077-.029-.145-.04-.211a2.337,2.337,0,0,0-.64.949c-.032.1-.061.19-.088.281m7.886,2.4c.571,0,1.141-.018,1.71-.019-.035.333-.1.78-.132,1.088a6.674,6.674,0,0,0,.059,1.874c.056.348.162.849.226,1.224a9.158,9.158,0,0,1-.932.048,3.771,3.771,0,0,1-.9-.076,12.677,12.677,0,0,1-.254-2.148,9.1,9.1,0,0,1,.224-1.992" transform="translate(-873.372 -678.749)" fill="#d89e60"/>
          <path id="Tracé_10340" data-name="Tracé 10340" d="M1328.321,1438.585c-.721,1.122-1.659,1.95-3.083,1.516a4.245,4.245,0,0,1-1.334,2.244,8.289,8.289,0,0,1-2.483,1.323,10.93,10.93,0,0,0,4.823-1.715,5.66,5.66,0,0,0,2.047-2.259,3.615,3.615,0,0,0,.029-1.109" transform="translate(-1261.402 -1375.897)" fill="#1b2227"/>
          <path id="Tracé_10341" data-name="Tracé 10341" d="M1299.57,938.883l0-.005,0,.005" transform="translate(-1240.54 -897.964)" fill="#1b2227"/>
          <path id="Tracé_10342" data-name="Tracé 10342" d="M1299.379,938.543h0" transform="translate(-1240.351 -897.63)" fill="#1b2227"/>
          <path id="Tracé_10343" data-name="Tracé 10343" d="M1334.237,1486.906h0" transform="translate(-1273.635 -1422.112)" fill="#1b2227"/>
          <path id="Tracé_10344" data-name="Tracé 10344" d="M1299.885,939.437l-.005-.009.005.009" transform="translate(-1240.839 -898.491)" fill="#1b2227"/>
          <path id="Tracé_10345" data-name="Tracé 10345" d="M1299.651,939.023l-.011-.019.011.019" transform="translate(-1240.609 -898.086)" fill="#1b2227"/>
          <path id="Tracé_10346" data-name="Tracé 10346" d="M1265.712,963.387a1.672,1.672,0,0,0,1.709-1.907c-.379-6.512-.835-13.754-1.33-20.261a1.684,1.684,0,0,0-1.933-1.68,1.655,1.655,0,0,0-1.7,1.9c.434,6.51.9,13.753,1.342,20.264a1.665,1.665,0,0,0,1.913,1.685m-1.184-2.037c-.419-6.591-.873-13.428-1.32-20.017a.655.655,0,0,1,.682-.767v0c0-.009,0-.014,0-.017h0c0,.005,0,.013,0,.017s0,0,0,0a.67.67,0,0,1,.784.679c.479,6.587.92,13.424,1.319,20.015a.669.669,0,0,1-.691.771l.01.019h0l-.01-.019a.666.666,0,0,1-.774-.681" transform="translate(-1205.11 -898.593)" fill="#1b2227"/>
          <path id="Tracé_10347" data-name="Tracé 10347" d="M1218.5,1509.686v0" transform="translate(-1163.151 -1443.9)" fill="#1b2227"/>
          <path id="Tracé_10348" data-name="Tracé 10348" d="M1218.522,1510.075h0" transform="translate(-1163.176 -1444.272)" fill="#1b2227"/>
          <path id="Tracé_10349" data-name="Tracé 10349" d="M1182.185,948.564h0" transform="translate(-1128.488 -907.226)" fill="#1b2227"/>
          <path id="Tracé_10350" data-name="Tracé 10350" d="M1218.455,1509.083l0,.026c0-.013,0-.026,0-.026" transform="translate(-1163.112 -1443.323)" fill="#1b2227"/>
          <path id="Tracé_10351" data-name="Tracé 10351" d="M1182.252,948.675l-.03-.05.03.05" transform="translate(-1128.525 -907.287)" fill="#1b2227"/>
          <path id="Tracé_10352" data-name="Tracé 10352" d="M1294.089,962.772s0-.012,0-.017,0,.008,0,.017" transform="translate(-1235.309 -920.802)" fill="#fff"/>
          <path id="Tracé_10353" data-name="Tracé 10353" d="M1325.42,1456.225h0" transform="translate(-1265.219 -1392.768)" fill="#fff"/>
          <path id="Tracé_10354" data-name="Tracé 10354" d="M1281.822,983.851c-.4-6.591-.84-13.428-1.319-20.016a.67.67,0,0,0-.784-.679.655.655,0,0,0-.682.767c.448,6.589.9,13.426,1.32,20.017a.734.734,0,0,0,1.465-.09" transform="translate(-1220.939 -921.184)" fill="#d89e60"/>
          <path id="Tracé_10355" data-name="Tracé 10355" d="M1325.2,1455.783h0l.01.019-.01-.019" transform="translate(-1265.005 -1392.345)" fill="#fff"/>
          <path id="Tracé_10356" data-name="Tracé 10356" d="M1294.081,962.67h0" transform="translate(-1235.303 -920.718)" fill="#fff"/>
          <path id="Tracé_10357" data-name="Tracé 10357" d="M1294.087,962.734h0" transform="translate(-1235.308 -920.781)" fill="#fff"/>
          <path id="Tracé_10358" data-name="Tracé 10358" d="M1294.114,963.149a.013.013,0,0,0,0,0v0" transform="translate(-1235.334 -921.177)" fill="#fff"/>
          <path id="Tracé_10359" data-name="Tracé 10359" d="M1158.7,964.666c-.269-.107-.537-.4-.9-.282-.8.265-1.275.546-1.2,1.616.437,6.5.9,13.507,1.337,20,.072,1.069.578,1.3,1.4,1.467.371.076.593-.246.844-.382-.72-.476-1.11-.658-1.177-1.671-.408-6.179-.843-12.781-1.262-18.959-.069-1.016.3-1.238.955-1.793" transform="translate(-1104.055 -922.333)" fill="#d89e60"/>
          <path id="Tracé_10360" data-name="Tracé 10360" d="M1022.545,1576.31a17.682,17.682,0,0,0,8.166,1.125,20.293,20.293,0,0,0,6.483-1.33,3.363,3.363,0,0,0,1.689-1.5c.066-.17-.03-.389-.217-.313a25.058,25.058,0,0,1-8.066,1.823,22.664,22.664,0,0,1-8.948-1.121c-.2-.07-.282.03-.292.222,0,.009-.076-.18.025.069a2.619,2.619,0,0,0,1.16,1.026m8.266.3c.342-.03.68-.064,1.019-.1s.677-.079,1.015-.127c.676-.1,1.345-.2,2.016-.331s1.34-.293,2-.483a8.355,8.355,0,0,1-1.906.83,15.007,15.007,0,0,1-2.043.441c-.175.027-.327.042-.523.061s-.275.033-.54.047-.691.034-1.028.026a10.278,10.278,0,0,1-2.065-.239c.684-.026,1.374-.063,2.058-.122" transform="translate(-974.943 -1505.674)" fill="#d89e60"/>
          <path id="Tracé_10361" data-name="Tracé 10361" d="M1187.794,1605.18c.265-.013.344-.028.54-.047s.348-.033.523-.06a15.019,15.019,0,0,0,2.043-.441,8.366,8.366,0,0,0,1.906-.83c-.658.19-1.326.352-2,.483s-1.34.235-2.016.332c-.338.048-.675.089-1.015.127s-.677.073-1.019.1c-.684.06-1.374.1-2.058.122a10.27,10.27,0,0,0,2.066.239c.338.008.763-.013,1.028-.027" transform="translate(-1130.89 -1533.913)" fill="#1b2227"/>
          <path id="Tracé_10362" data-name="Tracé 10362" d="M1019.932,961.36c-.258-.137-.3-.568-.784-.539-.714.042-1.29.1-1.225,1.143.374,5.994.916,12.851,1.262,18.727a2.307,2.307,0,0,0,1.282,2.312c.746.42.611-.152,1.093-.12-.92-.595-1.074.035-1.206-1.725-.35-4.671-.839-12.321-1.159-16.9-.157-2.249-.419-1.81.737-2.9" transform="translate(-971.683 -918.951)" fill="#d89e60"/>
          <path id="Tracé_10363" data-name="Tracé 10363" d="M925.207,901.257c-.2-.607-.519-1.591-1.406-1.6-.584-.006-.753.834-.729,1.234.4,6.688,1.049,14.621,1.4,20.823.111,1.954.581,1.794,1.313,2.021.949.294.778-.569.993-.937-.206.3-.236.8-.887.648-.736-.167-.974-.835-1.045-1.951-.354-5.56-.927-12.991-1.248-18.27-.147-2.419.322-3.283,1.608-1.967" transform="translate(-881.143 -860.453)" fill="#d89e60"/>
          <path id="Tracé_10364" data-name="Tracé 10364" d="M1004.758,1428.409a.551.551,0,0,1,.091-.1.334.334,0,0,0-.091.1" transform="translate(-959.121 -1366.064)" fill="#fff"/>
          <path id="Tracé_10365" data-name="Tracé 10365" d="M973.946,966.393c.073.885.139,1.651.219,2.483.16,1.664.335,3.288.549,4.941-.027-1.665-.091-3.3-.172-4.964-.041-.834-.084-1.6-.139-2.488-.041-.665-.114-1.772-.161-2.418-.126-1.722-.255-3.287-.41-4.947s-.335-3.271-.55-4.92c.031,1.661.094,3.28.176,4.943s.179,3.232.3,4.953c.046.646.131,1.752.186,2.416" transform="translate(-929.075 -912.505)" fill="#d89e60"/>
          <path id="Tracé_10366" data-name="Tracé 10366" d="M1084.756,796.865a9.161,9.161,0,0,0,.932-.048c-.064-.375-.169-.877-.226-1.225a6.663,6.663,0,0,1-.059-1.874c.029-.308.1-.756.132-1.088-.569,0-1.138.016-1.71.02a9.1,9.1,0,0,0-.224,1.992,12.667,12.667,0,0,0,.254,2.148,3.77,3.77,0,0,0,.9.076" transform="translate(-1034.382 -758.09)" fill="#1b2227"/>
          <path id="Tracé_10367" data-name="Tracé 10367" d="M942.1,593.222l-.335.262c.01.793-.289.7-.045,1.8.389,1.757,5.528,1.986,7.1,1.868,0,0,.034.013.045.016a4.756,4.756,0,0,1,2.689,1.781,9.028,9.028,0,0,0,2.026,1.844.7.7,0,0,0,.763.606.767.767,0,0,0,.306-.084c.906.409,2.095.791,2.944,1.084a5.364,5.364,0,0,1,1.659.678.708.708,0,0,0,.718.747c.168.246.337.526.52.8.121.182.259.4.411.636a.982.982,0,0,0,.858,1.282c1.12,1.567,2.635,3.174,4.231,2.515,1.92-.793.918-2.83.515-4.381a12.146,12.146,0,0,1-.648-3.461c.035-.509.131-1.115.158-1.62.123-2.3.8-4.9-1.293-6.6-1.773-1.438-4.648-1.01-6.835-1.021a15.17,15.17,0,0,1-2.783-.034,12.608,12.608,0,0,1-1.549-.4,31.462,31.462,0,0,0-6.236-1.239c.007.028.014.058.022.091a.857.857,0,0,1-.085.549,1.267,1.267,0,0,0-.464-.794,1.584,1.584,0,0,0-.819-.3,1.227,1.227,0,0,0-.784.219,1.135,1.135,0,0,0-.32.347,1.166,1.166,0,0,0-.125.218,1.016,1.016,0,0,1,.157,0c.135.014.363.178.351.223s-.27-.068-.365-.042a1,1,0,0,0-.314.1.858.858,0,0,0-.2.253c-.049.077-.059.354-.106.345s-.1-.269-.078-.393a.66.66,0,0,1,.237-.4.511.511,0,0,1,.174-.072,1.077,1.077,0,0,1,.013-.329,1.276,1.276,0,0,1,.127-.351.976.976,0,0,0-.822-.094.914.914,0,0,0-.524.813c0,.021,0,.037,0,.054l.416.765-.8-.488h0a.62.62,0,0,0-.688.126.64.64,0,0,0-.149.672l.02.05.492.583-.752-.221H941.9a.453.453,0,0,0-.448.321.551.551,0,0,0,.153.58l.024.018.473.065m23.132,7.5a.879.879,0,0,1,.054.849.888.888,0,0,1-.706.509,1.049,1.049,0,0,1-.768-.241,2,2,0,0,0,.676-.087.685.685,0,0,0,.385-.36.706.706,0,0,0,.042-.52c-.047-.192-.283-.36-.406-.464-.03-.025.146-.007.185-.007a.8.8,0,0,1,.2.05.756.756,0,0,1,.186.109.655.655,0,0,1,.153.162m-.456,7.881a.292.292,0,0,1-.321-.269.287.287,0,0,1,.28-.307.292.292,0,0,1,.321.269.287.287,0,0,1-.28.307m-1.393-1.176a.508.508,0,0,1,.5-.544.518.518,0,0,1,.568.477.508.508,0,0,1-.5.544.518.518,0,0,1-.568-.477m-2.058-1.817a.52.52,0,0,1,.509-.557.531.531,0,0,1,.582.49.52.52,0,0,1-.509.557.531.531,0,0,1-.582-.49m-3.382-4.849a.393.393,0,0,1,.385-.422.4.4,0,0,1,.442.372.394.394,0,0,1-.386.422.4.4,0,0,1-.442-.371m-5.39-8.317a1.1,1.1,0,0,1,.713.453,1.04,1.04,0,0,1,.149.749,1.364,1.364,0,0,0-.338-.6.946.946,0,0,0-.577-.238,1.16,1.16,0,0,0-.6.119.905.905,0,0,0-.4.4c-.081.152-.11.243-.181.384-.075-.118-.139-.231-.219-.347a.767.767,0,0,0-.305-.285.8.8,0,0,0-.438-.078.779.779,0,0,0-.435.17.525.525,0,0,0-.179.439.523.523,0,0,1,.037-.558.891.891,0,0,1,.517-.346,1.1,1.1,0,0,1,.658.026.96.96,0,0,1,.3.17,1.158,1.158,0,0,1,.44-.352,1.392,1.392,0,0,1,.865-.106m1.415,8.244a.35.35,0,0,1,.343-.375.359.359,0,0,1,.394.329.35.35,0,0,1-.343.375.359.359,0,0,1-.394-.329m-.034-.844a.414.414,0,0,1-.455-.381.4.4,0,0,1,.4-.433.415.415,0,0,1,.455.38.4.4,0,0,1-.4.433m1.324,1.11a.286.286,0,0,1,.281-.307.294.294,0,0,1,.322.27.286.286,0,0,1-.281.307.294.294,0,0,1-.322-.27m2.026,1.04a.309.309,0,0,1-.339-.285.3.3,0,0,1,.3-.323.309.309,0,0,1,.339.285.3.3,0,0,1-.3.323m-1.372-4.512a1.215,1.215,0,0,1-1.137.284.846.846,0,0,1-.392-.229.93.93,0,0,1-.7.1.722.722,0,0,1-.352-.242.569.569,0,0,1-.084-.352c.019-.012.088.234.173.28a.69.69,0,0,0,.3.118.9.9,0,0,0,.318-.056,1.129,1.129,0,0,0,.251-.173c.06-.044.073-.128.124-.122s.074.09.145.146a.7.7,0,0,0,.314.163.979.979,0,0,0,.385-.028.8.8,0,0,0,.324-.184.4.4,0,0,0,.13-.273c.005-.1,0-.173,0-.27.119.023.143.033.285.058a1.691,1.691,0,0,0,.551.037.791.791,0,0,0,.462-.221.783.783,0,0,0,.218-.486.67.67,0,0,0-.194-.534.675.675,0,0,1,.387.531.918.918,0,0,1-.161.682,1.053,1.053,0,0,1-.631.4,1.552,1.552,0,0,1-.508.027.763.763,0,0,1-.207.341m4.764-1.8a.937.937,0,0,0,.386.421,1.082,1.082,0,0,0,.535.123,1.024,1.024,0,0,0,.492-.148.966.966,0,0,0,.3-.356c.055-.092.038-.152.085-.178s.148.046.2.059a2.581,2.581,0,0,0,.77.143.628.628,0,0,0,.564-.278.806.806,0,0,0,.075-.686.692.692,0,0,0-.551-.5.637.637,0,0,1,.458.066.866.866,0,0,1,.334.347,1.026,1.026,0,0,1,.132.464.946.946,0,0,1-.1.494.848.848,0,0,1-.376.388,1.072,1.072,0,0,1-.533.138,2.5,2.5,0,0,1-.764-.131,1.1,1.1,0,0,1-.4.343,1.236,1.236,0,0,1-.5.129,1.036,1.036,0,0,1-.1.28,1.056,1.056,0,0,1-.3.327,1.025,1.025,0,0,1-.775.14c-.007-.017.267-.042.344-.092a1.049,1.049,0,0,0,.276-.207.763.763,0,0,0,.139-.286.6.6,0,0,0,.007-.212,1.148,1.148,0,0,1-.422-.228.821.821,0,0,1-.283-.56m2.609,10.5a.317.317,0,0,1-.348-.292.311.311,0,0,1,.3-.332.316.316,0,0,1,.348.292.311.311,0,0,1-.3.332M961,604.161a.222.222,0,0,1,.217-.237.227.227,0,0,1,.248.209.222.222,0,0,1-.217.237.227.227,0,0,1-.249-.209m-1.453-2.274a.321.321,0,0,1-.314.344.328.328,0,0,1-.359-.3.321.321,0,0,1,.314-.344.328.328,0,0,1,.359.3m.1,1.236a.331.331,0,0,1,.324-.354.338.338,0,0,1,.371.312.331.331,0,0,1-.324.354.338.338,0,0,1-.37-.312m.9-.291a.56.56,0,0,1,.548-.6.573.573,0,0,1,.628.528.56.56,0,0,1-.548.6.572.572,0,0,1-.627-.528m4.22,3.01a.387.387,0,0,1-.425-.357.38.38,0,0,1,.372-.407.388.388,0,0,1,.425.357.38.38,0,0,1-.372.407m-20.548-13.262a1.205,1.205,0,0,1,.671.388,3.192,3.192,0,0,0-.7-.051,1.678,1.678,0,0,0-.6.132.913.913,0,0,0-.423.356,2.2,2.2,0,0,0-.225.614,1.014,1.014,0,0,1-.1-.749.967.967,0,0,1,.554-.613,1.346,1.346,0,0,1,.821-.076" transform="translate(-898.669 -564.129)" fill="#ead5a7"/>
          <path id="Tracé_10368" data-name="Tracé 10368" d="M1204.955,721.537a1.054,1.054,0,0,0,.631-.4.917.917,0,0,0,.161-.682.675.675,0,0,0-.387-.531.67.67,0,0,1,.194.534.758.758,0,0,1-.68.706,1.691,1.691,0,0,1-.551-.037c-.142-.025-.166-.035-.285-.058,0,.1.008.168,0,.269a.4.4,0,0,1-.13.273.8.8,0,0,1-.324.184.982.982,0,0,1-.385.029.7.7,0,0,1-.314-.163c-.071-.056-.087-.139-.145-.146s-.064.078-.123.122a1.132,1.132,0,0,1-.251.173.9.9,0,0,1-.318.056.687.687,0,0,1-.3-.119c-.085-.045-.154-.291-.173-.279a.569.569,0,0,0,.084.352.722.722,0,0,0,.352.242.932.932,0,0,0,.7-.1.846.846,0,0,0,.392.229,1.215,1.215,0,0,0,1.137-.284.768.768,0,0,0,.207-.341,1.553,1.553,0,0,0,.508-.027" transform="translate(-1146.995 -688.551)" fill="#1b2227"/>
          <path id="Tracé_10369" data-name="Tracé 10369" d="M1364.212,693.667a1.146,1.146,0,0,0,.421.228.592.592,0,0,1-.007.212.759.759,0,0,1-.139.286,1.046,1.046,0,0,1-.276.207c-.077.05-.351.076-.344.092a1.024,1.024,0,0,0,.774-.14.944.944,0,0,0,.4-.607,1.24,1.24,0,0,0,.5-.129,1.1,1.1,0,0,0,.4-.343,2.5,2.5,0,0,0,.764.131,1.073,1.073,0,0,0,.533-.139.848.848,0,0,0,.376-.388.943.943,0,0,0,.1-.494,1.024,1.024,0,0,0-.132-.464.867.867,0,0,0-.334-.347.637.637,0,0,0-.458-.066.692.692,0,0,1,.551.5.806.806,0,0,1-.075.686.629.629,0,0,1-.564.278,2.578,2.578,0,0,1-.77-.143c-.048-.013-.146-.087-.2-.059s-.03.086-.085.178a.968.968,0,0,1-.3.356,1.025,1.025,0,0,1-.492.148,1.082,1.082,0,0,1-.535-.123.936.936,0,0,1-.386-.421.821.821,0,0,0,.283.56" transform="translate(-1301.92 -661.549)" fill="#1b2227"/>
          <path id="Tracé_10370" data-name="Tracé 10370" d="M1435.3,832.337a.787.787,0,0,0-.2-.05c-.039,0-.215-.018-.185.007.123.1.359.271.406.464a.706.706,0,0,1-.042.52.685.685,0,0,1-.385.36,2,2,0,0,1-.676.087,1.05,1.05,0,0,0,.768.241.89.89,0,0,0,.653-1.358.658.658,0,0,0-.153-.162.763.763,0,0,0-.186-.109" transform="translate(-1369.075 -796.013)" fill="#1b2227"/>
          <path id="Tracé_10371" data-name="Tracé 10371" d="M1446.459,940.073a.387.387,0,0,0-.425-.357.38.38,0,0,0-.372.407.387.387,0,0,0,.425.357.38.38,0,0,0,.372-.407" transform="translate(-1379.998 -898.765)" fill="#1b2227"/>
          <path id="Tracé_10372" data-name="Tracé 10372" d="M1362.73,875.525a.56.56,0,0,0,.548-.6.573.573,0,0,0-.627-.528.561.561,0,0,0-.548.6.573.573,0,0,0,.627.528" transform="translate(-1300.233 -836.292)" fill="#1b2227"/>
          <path id="Tracé_10373" data-name="Tracé 10373" d="M1415.3,950.727a.311.311,0,0,0-.3.332.317.317,0,0,0,.348.292.311.311,0,0,0,.3-.332.317.317,0,0,0-.348-.292" transform="translate(-1350.724 -909.297)" fill="#1b2227"/>
          <path id="Tracé_10374" data-name="Tracé 10374" d="M1425.321,982.171a.508.508,0,0,0,.5-.544.518.518,0,0,0-.568-.477.508.508,0,0,0-.5.544.518.518,0,0,0,.569.477" transform="translate(-1360.038 -938.394)" fill="#1b2227"/>
          <path id="Tracé_10375" data-name="Tracé 10375" d="M1448.651,1007.4a.287.287,0,0,0-.281.307.292.292,0,0,0,.321.269.286.286,0,0,0,.28-.307.292.292,0,0,0-.32-.269" transform="translate(-1382.584 -963.503)" fill="#1b2227"/>
          <path id="Tracé_10376" data-name="Tracé 10376" d="M1372.436,913.659a.222.222,0,0,0,.217-.237.227.227,0,0,0-.249-.209.222.222,0,0,0-.217.237.227.227,0,0,0,.248.209" transform="translate(-1309.862 -873.417)" fill="#1b2227"/>
          <path id="Tracé_10377" data-name="Tracé 10377" d="M1342.719,887.39a.331.331,0,0,0,.324-.354.338.338,0,0,0-.37-.312.331.331,0,0,0-.324.354.338.338,0,0,0,.37.312" transform="translate(-1281.378 -848.083)" fill="#1b2227"/>
          <path id="Tracé_10378" data-name="Tracé 10378" d="M1325.359,859.868a.328.328,0,0,0,.359.3.321.321,0,0,0,.314-.344.328.328,0,0,0-.359-.3.321.321,0,0,0-.314.344" transform="translate(-1265.159 -822.069)" fill="#1b2227"/>
          <path id="Tracé_10379" data-name="Tracé 10379" d="M1305.813,831.359a.4.4,0,0,0-.442-.371.394.394,0,0,0-.386.422.4.4,0,0,0,.442.371.393.393,0,0,0,.385-.422" transform="translate(-1245.712 -794.776)" fill="#1b2227"/>
          <path id="Tracé_10380" data-name="Tracé 10380" d="M1283.357,855.018a.3.3,0,0,0-.3.323.309.309,0,0,0,.339.285.3.3,0,0,0,.3-.323.309.309,0,0,0-.338-.285" transform="translate(-1224.783 -817.759)" fill="#1b2227"/>
          <path id="Tracé_10381" data-name="Tracé 10381" d="M1246.5,838.337a.294.294,0,0,0-.322-.27.286.286,0,0,0-.28.307.293.293,0,0,0,.322.27.286.286,0,0,0,.28-.307" transform="translate(-1189.308 -801.547)" fill="#1b2227"/>
          <path id="Tracé_10382" data-name="Tracé 10382" d="M1217.877,831.1a.35.35,0,0,0,.343-.375.359.359,0,0,0-.394-.329.35.35,0,0,0-.343.375.359.359,0,0,0,.394.329" transform="translate(-1162.184 -794.206)" fill="#1b2227"/>
          <path id="Tracé_10383" data-name="Tracé 10383" d="M1207.116,800.959a.4.4,0,0,0-.4.433.415.415,0,0,0,.455.381.4.4,0,0,0,.4-.433.415.415,0,0,0-.456-.381" transform="translate(-1151.909 -766.056)" fill="#1b2227"/>
          <path id="Tracé_10384" data-name="Tracé 10384" d="M1380.016,940.2a.52.52,0,0,0,.509-.557.532.532,0,0,0-.582-.49.52.52,0,0,0-.509.557.532.532,0,0,0,.582.49" transform="translate(-1316.777 -898.224)" fill="#1b2227"/>
          <path id="Tracé_10385" data-name="Tracé 10385" d="M1124.6,649.7a.959.959,0,0,0-.3-.17,1.1,1.1,0,0,0-.658-.026.891.891,0,0,0-.517.346.524.524,0,0,0-.037.558.525.525,0,0,1,.179-.439.779.779,0,0,1,.435-.17.8.8,0,0,1,.438.078.767.767,0,0,1,.306.285c.079.117.144.23.219.347.071-.141.1-.231.18-.384a.907.907,0,0,1,.4-.4,1.162,1.162,0,0,1,.6-.119.946.946,0,0,1,.577.239,1.359,1.359,0,0,1,.338.6,1.039,1.039,0,0,0-.149-.749,1.1,1.1,0,0,0-.713-.453,1.393,1.393,0,0,0-.865.106,1.158,1.158,0,0,0-.44.353" transform="translate(-1072.019 -620.928)" fill="#1b2227"/>
          <path id="Tracé_10386" data-name="Tracé 10386" d="M971.671,652.941a1.016,1.016,0,0,0,.1.749,2.2,2.2,0,0,1,.225-.614.915.915,0,0,1,.423-.356,1.677,1.677,0,0,1,.6-.132,3.188,3.188,0,0,1,.7.05,1.2,1.2,0,0,0-.671-.388,1.347,1.347,0,0,0-.821.076.968.968,0,0,0-.554.613" transform="translate(-927.505 -623.799)" fill="#1b2227"/>
          <path id="Tracé_10387" data-name="Tracé 10387" d="M978.825,611.958Z" transform="translate(-934.366 -585.291)" fill="#fff"/>
          <path id="Tracé_10388" data-name="Tracé 10388" d="M663.708,1202.838a14.71,14.71,0,0,1,1.742-.016c.311.03.647.088.922.093a3.019,3.019,0,0,0,.694-.086c.505-.1.983-.179,1.491-.242a2.463,2.463,0,0,1,.733-.015c.245.044.513.172.736.229a.454.454,0,0,0,.487-.13.9.9,0,0,0,.217-.664,13.864,13.864,0,0,0,.136-1.592,3.29,3.29,0,0,0-.495-1.511,1.083,1.083,0,0,0-.478-.474,6.94,6.94,0,0,0-.782-.342c-.022-.008-.182-.04-.244-.06a.924.924,0,0,0-.187-.019c-.1-.011-.333-.006-.474,0a3.761,3.761,0,0,0-.524.063c-.114.024-.194.206-.109.235.118.04.391-.074.6-.074a2.483,2.483,0,0,1,.735,0,2.646,2.646,0,0,1,.737.432,1.157,1.157,0,0,1,.4.409,2.454,2.454,0,0,1,.229,1.455,5.674,5.674,0,0,1-.187.626,2.245,2.245,0,0,1-.272.611c-.03,0,.131-.443.145-.6a6.679,6.679,0,0,0,.114-.674,1.847,1.847,0,0,0-.1-.64.719.719,0,0,0-.209-.309c-.1-.074-.064-.022-.191-.044s-.465-.12-.581-.151a.276.276,0,0,0-.169-.011c-.085.006-.158.109-.253.076s-.061-.269-.064-.331.01-.454-.074-.386-.063.447-.081.644.012.535.019.771-.02.687.012.878a1.846,1.846,0,0,0,.1.376,1.836,1.836,0,0,1,.1.256c0,.048-.019,0-.022,0-.024,0,.056.1.006.058a1.28,1.28,0,0,1-.343-.679c-.046-.227-.122-.434-.181-.649s-.145-.571-.176-.747a1.243,1.243,0,0,1-.023-.424.438.438,0,0,0-.023-.232,2.959,2.959,0,0,0-.118.513,7.677,7.677,0,0,0-.033.821,4.118,4.118,0,0,0,.08.9c.008.043.141.462.156.522s.108.135.024.144-.233-.187-.309-.291-.177-.2-.281-.331a3.814,3.814,0,0,0-.411-.47,1,1,0,0,0-.5-.169,2.091,2.091,0,0,0-.557-.044c-.579.037-1.166.174-1.739.238-.192.022-.423.011-.587.036a1.094,1.094,0,0,0-.384.144,2.285,2.285,0,0,0-.834.8,3.521,3.521,0,0,1-.221-.748c-.044-.222.012-.511-.02-.668a.135.135,0,0,1,.009-.089l-.008.01a1.049,1.049,0,0,0-.073.448,2.776,2.776,0,0,0,.013.517,7.023,7.023,0,0,0,.229.823c.06.178.275.47-.009.477s-.556-.311-.711-.564a2.058,2.058,0,0,1-.255-.885,1.876,1.876,0,0,1,.117-.913,1.609,1.609,0,0,1,.41-.544,1.43,1.43,0,0,1,.71-.232c.531-.1,1.045-.156,1.57-.263-.069-.051-.1-.112-.179-.157s-.048-.062-.176-.019-.328.088-.5.134c-.384.1-.727.1-1.151.17a1.281,1.281,0,0,0-.942.84,2.445,2.445,0,0,0-.149,1.339,1.7,1.7,0,0,0,.949,1.26,4.188,4.188,0,0,0,1.767.148m6.064-1.025a.1.1,0,0,1-.016.011.122.122,0,0,1,.016-.011" transform="translate(-630.933 -1145.795)" fill="#ead5a7"/>
          <path id="Tracé_10389" data-name="Tracé 10389" d="M700.394,1311.026a1.492,1.492,0,0,1,.816-.12c.261,0,.528.006.8.022s.625.067.882.057a5.863,5.863,0,0,0,.711-.1,1,1,0,0,0,.518-.133c-.22.011-.405.018-.627.04a3.685,3.685,0,0,1-.7.014c-.231-.021-.441-.074-.679-.088s-.453.006-.714.01a7.943,7.943,0,0,0-.98.043.759.759,0,0,0-.422.22c-.136.108-.154.3-.2.439a3.065,3.065,0,0,0-.136,1.079,1.254,1.254,0,0,0,.16.639,5.376,5.376,0,0,0,1.127,1.139.263.263,0,0,1,.059.048l.171.14a1.25,1.25,0,0,0,.522.256l.018,0-.04-.015c.035.008.071.015.106.02l.023,0c.113.01.235.021.35.027.075,0,.149,0,.217,0l.046,0a1.436,1.436,0,0,0,.274-.072.7.7,0,0,1,.078-.018c.049-.009.087-.018.123-.027a.9.9,0,0,1,.236-.039l.067,0c.072,0,.154,0,.242,0,.132,0,.275.014.463.032l.1.009.148.016a10.905,10.905,0,0,0,1.5.1h.008c.1-.014.132-.047.278-.071.053-.029.2-.062.278-.1.108-.049.232-.109.423-.2a2.55,2.55,0,0,0,.737-.482,2.936,2.936,0,0,0,.436-.806.772.772,0,0,0,.075-.514,8.312,8.312,0,0,0-.457-1.556.7.7,0,0,0-.278-.341,1.368,1.368,0,0,0-.589-.21,3.9,3.9,0,0,0-.8-.089,1.5,1.5,0,0,0-.382.129c-.107.029-.355.179-.317.193s.405-.121.566-.129c0,0,0-.012.032-.029a.876.876,0,0,1,.541,0,2.7,2.7,0,0,1,.6.19,1.153,1.153,0,0,1,.481.785,8.64,8.64,0,0,1,.009.883,2.491,2.491,0,0,1-.068.472.942.942,0,0,1-.123.334c-.019.01.053-.172.047-.26a2.2,2.2,0,0,0,.036-.344,5.518,5.518,0,0,0-.15-.712c-.05-.154-.009-.154-.083-.281s-.21-.133-.355-.24-.237-.506-.4-.554c-.033-.009.125.181.128.284s.061.243.078.421.056.6.068.8a1.707,1.707,0,0,1-.06.546,1.653,1.653,0,0,1-.312.5c-.034,0,.148-.249.152-.354a2.187,2.187,0,0,0,.053-.391,3.331,3.331,0,0,0-.145-.694c-.061-.149-.012-.209-.11-.3s-.166-.088-.341-.1a1.007,1.007,0,0,0-.579.211.623.623,0,0,0-.352.457,3.816,3.816,0,0,0,.047.909,2.125,2.125,0,0,0,.148.525c.062.192.481.592.514.674s-.287-.121-.361-.2a5.437,5.437,0,0,1-.4-.38,4.57,4.57,0,0,1-.319-.495,1.126,1.126,0,0,0-.156-.245c-.062-.074-.092-.136-.163-.174s-.088-.025-.163-.07a.885.885,0,0,0-.2-.113,2.479,2.479,0,0,0-.454-.152,3.622,3.622,0,0,0-.905.05c-.25.029-.4-.046-.644.07a3.716,3.716,0,0,0-.737.526,2.394,2.394,0,0,1-.2-.621,1.784,1.784,0,0,1,0-.415,1.515,1.515,0,0,1,.031-.308.443.443,0,0,0,0-.2,1.436,1.436,0,0,0-.086.342,2.6,2.6,0,0,0-.06.571,1.844,1.844,0,0,0,.061.473c.042.165.122.432.171.572a2.266,2.266,0,0,0,.149.3c.049.1.307.318.252.385s-.435-.236-.494-.287a2.381,2.381,0,0,1-.686-.8,2.092,2.092,0,0,1-.062-1.6.925.925,0,0,1,.324-.519" transform="translate(-667.877 -1253.302)" fill="#ead5a7"/>
          <path id="Tracé_10390" data-name="Tracé 10390" d="M748.561,1151.057a1.66,1.66,0,0,0-.106-.712,8.7,8.7,0,0,0-.5-1.377c-.13-.184-.083.087-.175.071s-.145.073-.265.073a1.641,1.641,0,0,1-.435-.034c-.13-.041-.279-.084-.394-.132a3,3,0,0,0-.316-.149c-.1-.027-.092-.011-.144.076a1.272,1.272,0,0,0-.114.34,3.258,3.258,0,0,0-.044.977,2.164,2.164,0,0,0,.135.613,1.153,1.153,0,0,0,.525.576,1.588,1.588,0,0,0,1.373.121.6.6,0,0,0,.463-.445" transform="translate(-712.161 -1098.726)" fill="#ead5a7"/>
          <path id="Tracé_10391" data-name="Tracé 10391" d="M796.451,1087.95c.181-.015.538-.052.784-.06a2.844,2.844,0,0,1,1.4.382,2.246,2.246,0,0,1,.636.747,1.832,1.832,0,0,1,.3.622,4.158,4.158,0,0,1,.1.715,2.262,2.262,0,0,1,.021.429,1.223,1.223,0,0,1-.032.352c-.029.063.021-.1-.035-.058a1.7,1.7,0,0,0-.156.327,1.222,1.222,0,0,1-.148.224,1.031,1.031,0,0,1,.073-.2,1.415,1.415,0,0,0,.065-.229.836.836,0,0,0,.038-.307,3.685,3.685,0,0,0-.159-.6,3.792,3.792,0,0,0-.163-.508,1.637,1.637,0,0,0-.225-.3,1.329,1.329,0,0,0-.48-.428c-.18-.062-.231.143-.267.268s.036.179.033.326a3.322,3.322,0,0,0,.015.543,2.663,2.663,0,0,1,.015.608c-.019.144-.054.27-.071.348s-.088.186-.1.163.043-.027.04-.087a.6.6,0,0,0-.021-.169c-.027-.13-.08-.329-.119-.553a3.353,3.353,0,0,0-.213-.874c-.13-.257-.279-.781-.674-.651-.072.024-.092.122-.148.169s-.062-.022-.121.061a.519.519,0,0,0-.115.318,2.612,2.612,0,0,0,.172.865c.087.241.22.62.318.817a2.4,2.4,0,0,0,.311.442c.089.114.2.14.2.238s-.213.038-.3.052-.221,0-.342.009-.391.038-.5.04-.336-.007-.371.034-.029.208.031.2a2.361,2.361,0,0,1,.628-.047,7.279,7.279,0,0,1,.8.043,10,10,0,0,1,1.267.548c.195.062.339-.123.475-.29a2.2,2.2,0,0,0,.377-.521,2.759,2.759,0,0,0,.32-1.163,3.6,3.6,0,0,0-.222-1.248,6.473,6.473,0,0,0-.65-1.055,2.925,2.925,0,0,0-1.213-.834c-.167-.058-.285.019-.411.017-.327,0-.828-.032-1.081,0a2.561,2.561,0,0,0-.527.148c-.136.04-.176.037-.216.092s-.066.16,0,.193.24-.083.351-.108a1.829,1.829,0,0,1,.321-.041" transform="translate(-759.597 -1040.232)" fill="#ead5a7"/>
          <path id="Tracé_10392" data-name="Tracé 10392" d="M678.78,1200.2a7.069,7.069,0,0,0,1.135-.248c-.092-.1-.1-.156-.267-.109s-.39.086-.571.122a.929.929,0,0,1-.563-.053c-.126-.077-.142-.167-.2-.219s-.185-.284-.188-.241a1.285,1.285,0,0,0,.173.462c.1.144.177.317.487.287" transform="translate(-647.32 -1147.176)" fill="#ead5a7"/>
          <path id="Tracé_10393" data-name="Tracé 10393" d="M763.253,1133.772a.606.606,0,0,0,.43-.065c.108-.061.092-.073.072-.159-.072-.319-.2-.533-.577-.545a.713.713,0,0,0-.334.057.467.467,0,0,0-.12.273c-.028.3.337.406.529.439" transform="translate(-728.08 -1083.631)" fill="#ead5a7"/>
          <path id="Tracé_10394" data-name="Tracé 10394" d="M747.848,968.382c-.039.042-.089.032-.162.134a1.454,1.454,0,0,0-.246.414.818.818,0,0,0,0,.7,6.97,6.97,0,0,1,.373,1.145,4.794,4.794,0,0,1,.1.489c.009.109.019.287.021.3s.045-.484.05-.486c.068-.037.145.052.189.044s.149.049.155.008a2.5,2.5,0,0,0-.217-1.07c-.107-.236-.182-.417-.243-.549s-.147-.356-.059-.343.068.112.133.212.12.223.214.393.258.474.377.694a3.556,3.556,0,0,1,.3.858,3.678,3.678,0,0,0,.052.5c.01.029.01.041.008.045h.007c.024,0,.013-.134.028-.149s.005.06.006.1c.007-.046.024-.117.034-.161.014-.063.012-.2.028-.268s-.031-.078.057-.127a2.635,2.635,0,0,1,.337-.09c.147-.049.481-.23.5-.415a.957.957,0,0,0-.121-.481,4.147,4.147,0,0,0-.911-1.246c-.1-.108-.258-.232-.326-.3s-.094-.069-.1-.1-.089-.093-.01-.078a1.8,1.8,0,0,1,.366.215c.131.083.273.159.453.292a3.284,3.284,0,0,1,.648.6,2.044,2.044,0,0,1,.293.63,2.762,2.762,0,0,1,.168.659,1.682,1.682,0,0,1-.566,1.034,1.414,1.414,0,0,1-.652.28c-.183.043-.557.046-.572.143s.271.04.355.046a.76.76,0,0,0,.265-.032,1.751,1.751,0,0,0,.49-.111,1.619,1.619,0,0,0,.679-.651,2.19,2.19,0,0,0-.188-2,3.575,3.575,0,0,0-.529-.748,2.88,2.88,0,0,0-.744-.6,5.613,5.613,0,0,0-1.716-.7,7.077,7.077,0,0,0-.83-.091c-.187-.014-.359-.031-.535-.039a1.5,1.5,0,0,0-.44.329,3.3,3.3,0,0,1,1.069-.051c.253.03.5.07.626.093s.491.011.358.1-.911.233-1.171.4a9.3,9.3,0,0,0-.795.522c-.018.014-.331.215-.331.255a1.927,1.927,0,0,0,.389-.143c.115-.067.386-.155.571-.236s.551-.176.74-.249a1.142,1.142,0,0,1,.464-.156c.017,0-.057.039.008.012a3.483,3.483,0,0,1,.618-.123c.089.018,0,.042.012.081.006.02-.036.021-.075.062m1.083,3.194v0h0s0,0,0,0c-.008-.028,0-.013,0,0m-.006.039c.009,0,.014.037.008.06s-.016-.063-.008-.06" transform="translate(-711.278 -925.33)" fill="#ead5a7"/>
          <path id="Tracé_10395" data-name="Tracé 10395" d="M828.8,1062.229c.006-.023,0-.057-.008-.06s0,.083.008.06" transform="translate(-791.141 -1015.883)" fill="#1b2227"/>
          <path id="Tracé_10396" data-name="Tracé 10396" d="M854.739,1285.51a.119.119,0,0,0,.016-.011l-.016.011" transform="translate(-815.916 -1229.481)" fill="#1b2227"/>
          <path id="Tracé_10397" data-name="Tracé 10397" d="M828.908,1060.981c0-.01-.008-.025,0,0v0" transform="translate(-791.255 -1014.735)" fill="#1b2227"/>
          <path id="Tracé_10398" data-name="Tracé 10398" d="M828.976,1061.343h0s0,0,0,0" transform="translate(-791.323 -1015.094)" fill="#1b2227"/>
          <path id="Tracé_10399" data-name="Tracé 10399" d="M614.571,1072.68l-.013,0,.013,0" transform="translate(-586.644 -1025.933)" fill="#1b2227"/>
          <path id="Tracé_10400" data-name="Tracé 10400" d="M408.746,1349.411l.034-.019-.034.019" transform="translate(-390.181 -1290.59)" fill="#1b2227"/>
          <path id="Tracé_10401" data-name="Tracé 10401" d="M468.663,1213.746h0" transform="translate(-447.376 -1160.847)" fill="#1b2227"/>
          <path id="Tracé_10402" data-name="Tracé 10402" d="M468.635,1213.955h0v0h0v0h0s0,.007,0,.006v-.007" transform="translate(-447.348 -1161.052)" fill="#1b2227"/>
          <path id="Tracé_10403" data-name="Tracé 10403" d="M469.026,1214.839c.006-.009-.009-.03-.011-.03s0,.038.011.03" transform="translate(-447.711 -1161.873)" fill="#1b2227"/>
          <path id="Tracé_10404" data-name="Tracé 10404" d="M467.944,1212.147v0c0-.014,0-.026,0,0" transform="translate(-446.69 -1159.309)" fill="#1b2227"/>
          <path id="Tracé_10405" data-name="Tracé 10405" d="M467.934,1212.546h0c0,.007,0,0,0,0" transform="translate(-446.68 -1159.707)" fill="#1b2227"/>
          <path id="Tracé_10406" data-name="Tracé 10406" d="M467.246,1210.848v0" transform="translate(-446.023 -1158.077)" fill="#1b2227"/>
          <path id="Tracé_10407" data-name="Tracé 10407" d="M467.266,1210.7v0" transform="translate(-446.042 -1157.934)" fill="#1b2227"/>
          <path id="Tracé_10408" data-name="Tracé 10408" d="M467.287,1210.557h0" transform="translate(-446.063 -1157.799)" fill="#1b2227"/>
          <path id="Tracé_10409" data-name="Tracé 10409" d="M737.664,1055.076a4.083,4.083,0,0,1,1.175-.35,6.034,6.034,0,0,0,.942-.007,1.333,1.333,0,0,0-1.079-.235,1.791,1.791,0,0,0-.532.251,2.712,2.712,0,0,0-.3.189,2.012,2.012,0,0,1-.226.157c-.044.014.008,0,.016-.006" transform="translate(-704.127 -1008.507)" fill="#1b2227"/>
          <path id="Tracé_10410" data-name="Tracé 10410" d="M391.41,1409.011s-.018-.013-.02-.011.02.013.02.011" transform="translate(-373.612 -1347.601)" fill="#1b2227"/>
          <path id="Tracé_10411" data-name="Tracé 10411" d="M778.746,1388.346a3.334,3.334,0,0,1-.157-.616,4.251,4.251,0,0,1-.033-.833,4.812,4.812,0,0,0,.368.712,2.406,2.406,0,0,0,.493.549.971.971,0,0,0,.471.206c.082,0,.165-.007.248-.012a.524.524,0,0,0,.146-.089c-.079-1.618-.227-3.234-.347-4.848a5.445,5.445,0,0,1-.807.862l.023,0a3.176,3.176,0,0,0-.859,1.688,19.981,19.981,0,0,1-2.308-.936,8.373,8.373,0,0,1-1.566-.013,13.5,13.5,0,0,0-1.4.008c-.133.008-.411-.078-.489.036s.1.306.147.4a3.564,3.564,0,0,0,.762,1.047,4.281,4.281,0,0,0,.424.332,11.143,11.143,0,0,0,4.882,1.51" transform="translate(-737.423 -1323.132)" fill="#d89e60"/>
          <path id="Tracé_10412" data-name="Tracé 10412" d="M658.658,887.862a3.715,3.715,0,0,1,.666-.129,4.415,4.415,0,0,1,3,.281q.727-.035,1.454-.066a1.87,1.87,0,0,0,.589,1.522c-.094-.633-.237-1.158.3-1.316q-.078-1.122-.156-2.241a2.231,2.231,0,0,0-.55.986,2.211,2.211,0,0,1-.233-1.3,5.032,5.032,0,0,1-1.922-.057c-.144-.027-.274-.07-.6-.145-3.395-.784-5.545-.357-7.22,2.91a5.04,5.04,0,0,0-.3.881,13.4,13.4,0,0,0,1.781.424,4.746,4.746,0,0,1,.434-.956,3.825,3.825,0,0,1,3.733-2.016,6.66,6.66,0,0,1,2.121.545,10.466,10.466,0,0,0-2.116-.179,4.768,4.768,0,0,0-1.01.161,2.506,2.506,0,0,0-.241.073c-.09.032-.123.042-.241.091a3,3,0,0,0-.428.225,4.219,4.219,0,0,0-1.311,1.394,4.151,4.151,0,0,0-.351.742c.162.019.556.033.652.144l.071.014c.406-.851.728-1.657,1.868-1.988" transform="translate(-624.005 -846.49)" fill="#d89e60"/>
          <path id="Tracé_10413" data-name="Tracé 10413" d="M125.2,1287.891l.027-.006-.027.006" transform="translate(-119.51 -1231.764)" fill="#1b2227"/>
          <path id="Tracé_10414" data-name="Tracé 10414" d="M128.877,1367.7c.39-.128.761-.3,1.175-.437.052-.017.62-.247.564-.226s-1.105.233-1.188.246c-.86.133-1.481.252-2.258.44s-1.572.488-2.343.7-1.507.407-2.279.589c-.336.079-.664.14-1.007.234a1.047,1.047,0,0,0-.294.153c-.005.03.1-.023.132-.031a16.147,16.147,0,0,1,1.931-.309c.72-.109,1.554-.28,2.315-.451,1.083-.244,2.187-.555,3.253-.906" transform="translate(-115.739 -1307.465)" fill="#1b2227"/>
          <path id="Tracé_10415" data-name="Tracé 10415" d="M150.864,1514.848a3.606,3.606,0,0,0,.75-.387c.032-.084-.009-.036-.032-.03a10.4,10.4,0,0,1-1.078.25,13.309,13.309,0,0,0-1.368.3c-.489.139-1.15.327-1.655.525a15.2,15.2,0,0,1-1.552.533c-.217.058-.51.114-.673.15s-.284.056-.366.078-.243.014-.209.054c0,0,0,.007,0,.009l.092.008a7.339,7.339,0,0,0,1.736-.177c.5-.132,1.1-.232,1.652-.42s1.221-.334,1.812-.527c.295-.1.555-.227.895-.371" transform="translate(-138.106 -1448.419)" fill="#1b2227"/>
          <path id="Tracé_10416" data-name="Tracé 10416" d="M112.066,1559.718c-.116-.008-.025.007,0,0" transform="translate(-106.921 -1491.749)" fill="#1b2227"/>
        </g>
      </g>
      <g id="Ellipse_3" data-name="Ellipse 3" transform="translate(-2179 1804)" fill="none" stroke="#1e2222" stroke-width="2">
        <circle cx="58" cy="58" r="58" stroke="none"/>
        <circle cx="58" cy="58" r="57" fill="none"/>
      </g>
    </g>
  </g>
</svg>
