<svg id="Groupe_241" data-name="Groupe 241" xmlns="http://www.w3.org/2000/svg" xmlns:xlink="http://www.w3.org/1999/xlink" width="117.491" height="93.632" viewBox="0 0 117.491 93.632">
  <defs>
    <clipPath id="clip-path">
      <rect id="Rectangle_20" data-name="Rectangle 20" width="117.492" height="93.632" fill="none"/>
    </clipPath>
  </defs>
  <g id="Groupe_19" data-name="Groupe 19" clip-path="url(#clip-path)">
    <path id="Tracé_520" data-name="Tracé 520" d="M116.116,183.827a3.358,3.358,0,0,0,2.179-1.2,8.237,8.237,0,0,1,.325,1.384A41.307,41.307,0,0,0,139.8,211.648a41.35,41.35,0,0,0,23.187,4.483A41.262,41.262,0,0,0,195.5,194.092a40.6,40.6,0,0,0,4.184-12.9,37.936,37.936,0,0,0,.377-8.275,1.239,1.239,0,0,1,.265-.856,17.785,17.785,0,0,0,2.589-5.363c.091-.315.1-.325.41-.188a5.442,5.442,0,0,1,1.277.746,1.285,1.285,0,0,1,.3,1.93,4.459,4.459,0,0,1-1.2,1.273,2.978,2.978,0,0,0-1.316,3.042,20.93,20.93,0,0,1-.014,3.679,2.465,2.465,0,0,0,.976,2.212,12.308,12.308,0,0,1,.98.882,4.449,4.449,0,0,1,.56.675,1.293,1.293,0,0,1-.307,1.969,6.117,6.117,0,0,1-1.33.765c-.216.1-.439.184-.659.276a2.346,2.346,0,0,0-1.451,1.676q-.5,2-1.184,3.943a2.334,2.334,0,0,0,.3,2.246,9.209,9.209,0,0,1,.936,1.55c.543,1.213.242,1.862-1.023,2.235a9.019,9.019,0,0,1-1.787.285,2.3,2.3,0,0,0-1.887,1.157c-.7,1.164-1.432,2.3-2.218,3.408a2.291,2.291,0,0,0-.293,2.193,8.3,8.3,0,0,1,.5,1.965,2.568,2.568,0,0,1-.016.6,1.065,1.065,0,0,1-.88.931,4.965,4.965,0,0,1-1.91-.044c-.218-.027-.432-.082-.647-.125a2.179,2.179,0,0,0-1.992.533c-1.04.955-2.1,1.887-3.194,2.778a2.236,2.236,0,0,0-.824,2,7.668,7.668,0,0,1-.031,1.809,3.432,3.432,0,0,1-.15.64,1.073,1.073,0,0,1-1.135.77,2.916,2.916,0,0,1-.965-.19,10.816,10.816,0,0,1-1.454-.648,2.285,2.285,0,0,0-2.213,0q-1.8.941-3.684,1.715a2.309,2.309,0,0,0-1.444,1.679,10.181,10.181,0,0,1-.532,1.73c-.546,1.244-1.288,1.471-2.442.744a8.392,8.392,0,0,1-1.325-1.068,2.4,2.4,0,0,0-2.262-.68,35.514,35.514,0,0,1-4.074.6,2.49,2.49,0,0,0-2.114,1.366,7.757,7.757,0,0,1-.842,1.22,3.4,3.4,0,0,1-.631.61,1.284,1.284,0,0,1-1.671-.008,3.776,3.776,0,0,1-.73-.742,13.571,13.571,0,0,1-.855-1.278,2.246,2.246,0,0,0-1.733-1.123c-1.548-.169-3.085-.406-4.618-.681a2.116,2.116,0,0,0-1.822.583,14.929,14.929,0,0,1-1.218,1.028,3.5,3.5,0,0,1-.911.5,1.159,1.159,0,0,1-1.448-.464,3.624,3.624,0,0,1-.449-.878,10.578,10.578,0,0,1-.415-1.422,2.331,2.331,0,0,0-1.471-1.72q-1.857-.76-3.634-1.693a2.347,2.347,0,0,0-2.265-.01c-.392.2-.789.388-1.2.552a4.134,4.134,0,0,1-.894.258,1.212,1.212,0,0,1-1.549-1.079,6.436,6.436,0,0,1-.091-1.971,2.523,2.523,0,0,0-1.077-2.378,28.683,28.683,0,0,1-2.654-2.309,2.464,2.464,0,0,0-2.451-.738,13.044,13.044,0,0,1-1.3.2,2.736,2.736,0,0,1-.875-.027,1.171,1.171,0,0,1-1.111-1.369,5.419,5.419,0,0,1,.252-1.346c.085-.3.192-.592.288-.888a2.254,2.254,0,0,0-.3-2.093q-1.19-1.684-2.248-3.454a2.291,2.291,0,0,0-1.9-1.142c-.492-.04-.98-.126-1.468-.207a2.944,2.944,0,0,1-.832-.273,1.157,1.157,0,0,1-.685-1.492,3.824,3.824,0,0,1,.459-1.054c.22-.359.447-.714.686-1.061a2.269,2.269,0,0,0,.313-2.142c-.475-1.348-.881-2.715-1.231-4.1a2.409,2.409,0,0,0-1.495-1.646c0-.046,0-.092,0-.137l.332.042a.6.6,0,0,0,.651,0" transform="translate(-88.727 -128.264)" fill="#e1dfcb"/>
    <path id="Tracé_521" data-name="Tracé 521" d="M150.793,38.7a2.646,2.646,0,0,0,.567-.424,3.54,3.54,0,0,1,4.341-.148,4.526,4.526,0,0,1,1.915,4.846,16.667,16.667,0,0,1-.9,2.651c-.65,1.5-1.388,2.953-1.963,4.481a11.248,11.248,0,0,0-.457,1.468.914.914,0,0,0-.014.556.984.984,0,0,0,.476-.372,29.376,29.376,0,0,0,2.694-3.333c.631-.9,1.253-1.809,1.908-2.692a1.856,1.856,0,0,0,.394-1.209,9.042,9.042,0,0,1,1.228-4.73,5.553,5.553,0,0,1,1.78-1.919,8.4,8.4,0,0,1,7.714-.986,2.625,2.625,0,0,1,1.676,1.76c.136.4.13.395.557.338a4.7,4.7,0,0,1,.657-.044,1.722,1.722,0,0,1,1.751,1.312c.147.509.241,1.034.358,1.553.032.141.02.3.149.4.186,0,.287-.146.41-.248.664-.549,1.318-1.11,1.987-1.652a.881.881,0,0,0,.337-.594,11.952,11.952,0,0,1,1.924-5.1,7.143,7.143,0,0,1,4.319-3.006,3.214,3.214,0,0,1,3.857,2.808,6.406,6.406,0,0,1-1.533,4.9c-.676.772-1.355,1.542-2.02,2.324a8.8,8.8,0,0,0-1.108,1.636,1.268,1.268,0,0,0-.144.849c.07.365.161.442.52.378a3.542,3.542,0,0,0,1.181-.437,8.771,8.771,0,0,0,2.226-1.771c1.075-1.229,2.067-2.524,3.089-3.8a.951.951,0,0,0,.205-.552,80.741,80.741,0,0,1,5.424-23.03,30.556,30.556,0,0,1,2.829-5.644,3.631,3.631,0,0,1,.5-.656,2.488,2.488,0,0,1,4.241,1.3,13.3,13.3,0,0,1,.05,3.017,38.853,38.853,0,0,1-3.635,14.075,45.926,45.926,0,0,1-2.255,4.341,2.629,2.629,0,0,0-.3.819,70.187,70.187,0,0,0-1.138,7.662,37.464,37.464,0,0,0-.191,4.612c.017.531.072,1.06.114,1.59a.753.753,0,0,0,.127.416c.178-.006.232-.163.319-.271a48.086,48.086,0,0,0,3.784-5.665c1.058-1.759,2.07-3.546,3.241-5.236a3.3,3.3,0,0,1,.518-.638,1.332,1.332,0,0,1,2.228.733,1.956,1.956,0,0,1-.147,1.232c-.559,1.3-1.128,2.588-1.751,3.854q-1.345,2.739-2.629,5.508a20.292,20.292,0,0,1-2.623,4.247c-.15.185-.306.366-.47.538-1.778,1.872-3.9,1.917-5.995.686a3.58,3.58,0,0,1-1.665-2.363,29.863,29.863,0,0,1-.644-3.9c-.011-.106-.031-.212-.046-.32-.205-.01-.258.152-.344.256a16.5,16.5,0,0,1-2.642,2.557,6.865,6.865,0,0,1-4.761,1.509,4.63,4.63,0,0,1-4.29-3.222,1.361,1.361,0,0,0-.205-.5c-.205.058-.294.229-.41.363-.312.36-.6.738-.923,1.092a4.478,4.478,0,0,0-1.053,2.487c-.488,3.5-.9,7.016-1.528,10.5a38.749,38.749,0,0,1-2.872,9.554,16.636,16.636,0,0,1-4.4,5.965,3.846,3.846,0,0,1-4.257.457,5.037,5.037,0,0,1-2.313-2.49,9.3,9.3,0,0,1-.718-4.026,20.657,20.657,0,0,1,1.316-6.214,45.767,45.767,0,0,1,7.067-12.859c1.023-1.341,2.09-2.648,3.176-3.938.123-.147.314-.274.209-.537a2.487,2.487,0,0,0-.534.465A16.131,16.131,0,0,1,167.495,49a8,8,0,0,1-2.707.866,4.34,4.34,0,0,1-2.662-.467c-.449-.243-.441-.219-.678.242a25.887,25.887,0,0,1-2.9,4.532,14.34,14.34,0,0,1-1.791,1.859,5.148,5.148,0,0,1-2.163,1.153,4.338,4.338,0,0,1-4.632-2.207,7.012,7.012,0,0,1-.738-3.128,12.855,12.855,0,0,1,.447-3.863c.245-.94.527-1.869.832-2.792a.707.707,0,0,0,.084-.511c-.229.094-.284.314-.375.488a22.255,22.255,0,0,0-1.472,3.727c-.393,1.259-.7,2.546-1.211,3.766a2.2,2.2,0,0,1-.369.669,1.6,1.6,0,0,1-2.722-.381,9.516,9.516,0,0,1-.637-2.438,12.926,12.926,0,0,1,.11-4.753,30.1,30.1,0,0,1,1.962-6.683c.1-.236.212-.468.333-.694a2.188,2.188,0,0,1,2.64-1.14,3.058,3.058,0,0,1,1.622,1.072c.1.126.16.292.321.375m40.83,2.974.124.047c0,.345,0,.69,0,1.035a26.061,26.061,0,0,0,.686,5.994,2.855,2.855,0,0,0,1.61,2.035,4.989,4.989,0,0,0,1.471.433,2.632,2.632,0,0,0,1.552-.233,4.767,4.767,0,0,0,1.645-1.346,19.2,19.2,0,0,0,2.521-4.051c.833-1.8,1.679-3.585,2.555-5.36.633-1.282,1.22-2.585,1.779-3.9a1.279,1.279,0,0,0,.166-.575.4.4,0,0,0-.243-.4c-.169-.067-.283.047-.376.158a6.023,6.023,0,0,0-.36.485c-1.307,1.907-2.425,3.93-3.628,5.9a43.054,43.054,0,0,1-3.54,5.167,3.125,3.125,0,0,1-.443.486c-.625.487-1.318.351-1.5-.49a11.339,11.339,0,0,1-.255-1.9,43.386,43.386,0,0,1,.3-6.8c.249-2.131.574-4.248,1.005-6.349a4.136,4.136,0,0,1,.487-1.273,44.623,44.623,0,0,0,3.541-7.556,34.518,34.518,0,0,0,2.181-11.555,12.175,12.175,0,0,0-.049-1.427,1.447,1.447,0,0,0-2.559-.76,3.247,3.247,0,0,0-.288.4,31.266,31.266,0,0,0-2.736,5.445,77.855,77.855,0,0,0-3.4,10.734,67.649,67.649,0,0,0-1.91,11.424,3.248,3.248,0,0,1-.945,2.3,3.894,3.894,0,0,0-.344.428,38.3,38.3,0,0,1-2.915,3.437,8.271,8.271,0,0,1-2.557,1.682,2.989,2.989,0,0,1-1.337.267,1.091,1.091,0,0,1-1.19-.987,2.531,2.531,0,0,1,.242-1.862,11.766,11.766,0,0,1,1.249-1.806c.644-.752,1.3-1.5,1.953-2.236a5.457,5.457,0,0,0,1.33-3.911,2.187,2.187,0,0,0-2.775-2.083,5.621,5.621,0,0,0-1.981.923,7.542,7.542,0,0,0-2.159,2.6,11.566,11.566,0,0,0-1.188,3.925,1.188,1.188,0,0,1-.49.86,45.932,45.932,0,0,0-3.624,3.121c-.076.073-.139.175-.3.153-.111-.489-.229-.987-.337-1.487-.147-.68-.273-1.365-.435-2.042-.15-.627-.435-.807-1.077-.736a3.9,3.9,0,0,0-.96.23,7.358,7.358,0,0,0-2.28,1.407c-.976.865-1.819,1.861-2.735,2.784a17.528,17.528,0,0,1-1.6,1.507,2.979,2.979,0,0,1-.549.361c-.389.183-.58.09-.689-.32a3.143,3.143,0,0,1-.115-.815,6.029,6.029,0,0,1,1.44-4,4.129,4.129,0,0,1,2.52-1.445,15.569,15.569,0,0,1,2.08-.168,3.158,3.158,0,0,0,.6-.054.409.409,0,0,0,.32-.619,1.584,1.584,0,0,0-.967-.982,7.152,7.152,0,0,0-5-.044,5.762,5.762,0,0,0-3.047,2.148,8.075,8.075,0,0,0-1.307,5.071,1.08,1.08,0,0,1-.209.758c-.8,1.117-1.591,2.243-2.387,3.364a29.512,29.512,0,0,1-3.4,4.033,3.15,3.15,0,0,1-.826.632c-.525.251-.868.058-.914-.512a2.42,2.42,0,0,1,0-.385,11.166,11.166,0,0,1,.656-3.052c.622-1.649,1.416-3.221,2.111-4.836A12.635,12.635,0,0,0,156.6,42.7a3.473,3.473,0,0,0-1.738-3.872,2.4,2.4,0,0,0-2.648.108,5.358,5.358,0,0,0-1.071.942c-.429.477-.842.968-1.268,1.448a.985.985,0,0,1-.477.386c.152-.435.27-.8.407-1.156a1.568,1.568,0,0,0-.69-2.072,1.329,1.329,0,0,0-2.094.567,28.321,28.321,0,0,0-1.16,3.084,27.664,27.664,0,0,0-1.148,5.366,12.557,12.557,0,0,0,.45,4.46,2.45,2.45,0,0,0,.222.562.564.564,0,0,0,1.045.04,1.634,1.634,0,0,0,.136-.3,19.508,19.508,0,0,0,.757-2.238c.288-1.043.611-2.074.984-3.089a17.305,17.305,0,0,1,1.15-2.554,4.078,4.078,0,0,1,1.931-1.811c.218-.1.454-.2.677-.037a.671.671,0,0,1,.18.708,4.221,4.221,0,0,1-.255.9c-.369.958-.682,1.935-.984,2.916a13.818,13.818,0,0,0-.716,5.2,5.086,5.086,0,0,0,.638,2.309,3.164,3.164,0,0,0,4.647,1.069,7.162,7.162,0,0,0,.893-.73,16.483,16.483,0,0,0,2.065-2.424,29.339,29.339,0,0,0,2.634-4.629c.071-.153.083-.359.308-.434.088.107.169.2.248.3a2.945,2.945,0,0,0,2.446,1.145,5.72,5.72,0,0,0,2.338-.542,13.43,13.43,0,0,0,2.845-1.76,27.955,27.955,0,0,0,2.823-2.692c.089-.093.169-.194.263-.28.17-.154.309-.1.378.1a1.949,1.949,0,0,1,.121.533,8.329,8.329,0,0,1-.066,1.864,1.68,1.68,0,0,1-.389.831q-1.115,1.325-2.206,2.671a48.316,48.316,0,0,0-6.614,10.545,28.32,28.32,0,0,0-2.535,8.328,8.776,8.776,0,0,0,.518,4.376,3.786,3.786,0,0,0,1.914,2.109,2.672,2.672,0,0,0,3.076-.312,14.883,14.883,0,0,0,3.577-4.484,35.306,35.306,0,0,0,3.178-9.45c.424-2.047.687-4.12.978-6.187.243-1.723.51-3.444.71-5.172a6.012,6.012,0,0,1,1.536-3.393c.825-.933,1.658-1.863,2.4-2.863a.14.14,0,0,1,.2-.061c.035.259.07.531.109.8a9.347,9.347,0,0,0,.443,1.98,3.35,3.35,0,0,0,2.272,2.141,5.15,5.15,0,0,0,3.447-.153,7.831,7.831,0,0,0,2.135-1.336,18.275,18.275,0,0,0,3.323-3.793q.338-.495.675-.991m-26.338,3.062c1.477-1.321,2.632-2.809,4.07-4.071a3.911,3.911,0,0,0-4.07,4.071" transform="translate(-110.691 -6.044)" fill="#b87d02"/>
    <path id="Tracé_522" data-name="Tracé 522" d="M150.046,10.043a5.9,5.9,0,0,1,.094-1.532,1.242,1.242,0,0,1,1.688-1.081,6.263,6.263,0,0,1,1.734.678,2.6,2.6,0,0,0,2.712-.01,24.252,24.252,0,0,1,3.186-1.482,2.594,2.594,0,0,0,1.761-2.063,6.9,6.9,0,0,1,.462-1.464c.54-1.225,1.27-1.454,2.4-.753a7.467,7.467,0,0,1,1.287,1.027,2.518,2.518,0,0,0,2.459.722,32.621,32.621,0,0,1,4.02-.588,2.385,2.385,0,0,0,1.962-1.233,8.9,8.9,0,0,1,.9-1.314,4.7,4.7,0,0,1,.495-.514,1.335,1.335,0,0,1,1.97,0A6.662,6.662,0,0,1,178.4,1.977a7.835,7.835,0,0,0,.457.685,2.291,2.291,0,0,0,1.674.833,38.95,38.95,0,0,1,4.184.612,2.324,2.324,0,0,0,2.13-.595,12.251,12.251,0,0,1,1.268-1.053c1.281-.883,2.057-.65,2.653.774.292.7.378,1.453.663,2.149.066.161-.044.28-.1.408q-.415.928-.839,1.852c-.209.455-.125.427-.589.264a40.352,40.352,0,0,0-4.054-1.2,41.639,41.639,0,0,0-8.922-1.123,40.161,40.161,0,0,0-17.664,3.625,40.991,40.991,0,0,0-20.6,20.484c-.039.083-.076.167-.114.25-.192.416-.439.486-.845.254-.172-.1-.124-.25-.115-.388.048-.75.1-1.5.157-2.248.044-.548.112-1.094.153-1.642a.671.671,0,0,1,.238-.525,2.571,2.571,0,0,0,.566-.737,34.611,34.611,0,0,1,1.981-3.038,2.486,2.486,0,0,0,.362-2.535,6.951,6.951,0,0,1-.421-1.59,3.4,3.4,0,0,1-.041-.6,1.123,1.123,0,0,1,1.074-1.175,6.312,6.312,0,0,1,2.237.165,2.426,2.426,0,0,0,2.363-.686A31.4,31.4,0,0,1,149,12.817a2.447,2.447,0,0,0,1.051-2.334,4.257,4.257,0,0,1,0-.44" transform="translate(-106.028 0)" fill="#e1dfcb"/>
    <path id="Tracé_523" data-name="Tracé 523" d="M9.556,85.241c-.1-.143-.263-.111-.4-.12-1.7-.1-3.394-.3-5.1-.393a12.6,12.6,0,0,1-2.917-.512,1.6,1.6,0,0,1-.89-.606,1.169,1.169,0,0,1,.463-1.8,4.925,4.925,0,0,1,.623-.212,65.389,65.389,0,0,1,7.135-1.55c1.887-.373,3.771-.762,5.674-1.043a1.246,1.246,0,0,0,.833-.557,67.383,67.383,0,0,0,5.272-8.039c1.858-3.248,3.449-6.632,5.136-9.968a4.907,4.907,0,0,1,.6-.985,2.644,2.644,0,0,1,4.706,1.6c.02.439.044.879.059,1.318a49.764,49.764,0,0,1-.238,6.862c-.235,2.279-.408,4.562-.561,6.848-.032.484-.014.5.45.547.291.033.583.062.871.114a2.831,2.831,0,0,1,2.112,1.592,2.185,2.185,0,0,1-.728,2.906,7.8,7.8,0,0,1-2.242,1.02c-.846.255-.828.267-.935,1.145-.313,2.569-.412,5.149-.469,7.733-.044,2.015-.13,4.03-.281,6.041a2.964,2.964,0,0,1-.213.9,1.549,1.549,0,0,1-2.642.476,2.4,2.4,0,0,1-.481-.794,36.618,36.618,0,0,1-2.119-8.345,35.73,35.73,0,0,1-.225-4.885c0-.018,0-.037,0-.055.017-.613-.014-.649-.593-.561-.743.113-1.483.238-2.224.361-.759.127-1.514.282-2.276.379a2.228,2.228,0,0,0-1.3.64,31.433,31.433,0,0,0-2.923,3.208,52.241,52.241,0,0,1-5.118,5.813A14.97,14.97,0,0,1,3.639,97.5a2.4,2.4,0,0,1-2.3-.269A1.412,1.412,0,0,1,.8,95.351a3.617,3.617,0,0,1,.8-1.106,102.972,102.972,0,0,0,7.709-8.588c.1-.123.246-.228.241-.416m2.283-1.1a1.268,1.268,0,0,1-.1.225,130.891,130.891,0,0,1-9.4,10.615,2.763,2.763,0,0,0-.538.692c-.2.378-.148.539.23.76a1.365,1.365,0,0,0,1.263.08A13.318,13.318,0,0,0,7.027,94.33a28.41,28.41,0,0,0,3.546-3.6c1.2-1.454,2.394-2.918,3.6-4.368a21.539,21.539,0,0,1,1.8-1.852,2.946,2.946,0,0,1,1.734-.86c.945-.108,1.878-.313,2.817-.473,1.048-.177,2.1-.355,3.155-.439.436-.034.506.036.475.437a35.048,35.048,0,0,0,.013,4.5,33.735,33.735,0,0,0,2.168,9.668,1.354,1.354,0,0,0,.308.515.5.5,0,0,0,.885-.141,1.929,1.929,0,0,0,.18-.743c.09-1.922.212-3.842.25-5.767a71.486,71.486,0,0,1,.621-8.986.693.693,0,0,1,.589-.668c.461-.117.91-.279,1.364-.425a5.534,5.534,0,0,0,1.524-.748,1.146,1.146,0,0,0,.384-1.59,1.88,1.88,0,0,0-1.457-1.048,8.882,8.882,0,0,0-1.751-.132c-.285.011-.4-.1-.384-.385.03-.439.054-.878.078-1.317.1-1.775.241-3.546.409-5.315s.367-3.536.378-5.316c.009-1.411.043-2.823-.081-4.23a1.666,1.666,0,0,0-1.194-1.486,1.706,1.706,0,0,0-1.838.807c-.162.265-.294.549-.435.827-1.458,2.876-2.833,5.795-4.4,8.616a71.373,71.373,0,0,1-6.045,9.368,2.074,2.074,0,0,1-1.46.86c-.8.1-1.592.247-2.385.393-2.107.387-4.2.874-6.315,1.2-1.382.212-2.7.66-4.053.989a1.536,1.536,0,0,0-.209.068c-.1.041-.214.079-.206.219a.276.276,0,0,0,.2.243,4.443,4.443,0,0,0,.628.194,22.241,22.241,0,0,0,3.595.436c.347.015.694.048,1.041.075,1.351.106,2.7.287,4.056.285h1.225" transform="translate(0 -45.068)" fill="#b77c02"/>
    <path id="Tracé_524" data-name="Tracé 524" d="M449.509,86.24l.819-.4a14.262,14.262,0,0,1,2.329-.971,2.132,2.132,0,0,1,1.189-.077,1.342,1.342,0,0,1,.856,2.036,4.637,4.637,0,0,1-1.217,1.331c-.718.569-1.451,1.118-2.207,1.636-.453.311-.9.63-1.334.968-.645.5-.574.406-.234,1.044a6.94,6.94,0,0,1,.873,3.8,13.044,13.044,0,0,1-.312,2.007,14.675,14.675,0,0,1-2.97,6.061,6.434,6.434,0,0,1-4.182,2.415,3.954,3.954,0,0,1-3.685-1.235,5.875,5.875,0,0,1-1.577-3.6,8.2,8.2,0,0,1,.589-3.926,17.529,17.529,0,0,1,2.773-4.591c.187-.226.362-.463.56-.678a.319.319,0,0,0-.016-.514c-.384-.393-.752-.8-1.129-1.2a6.6,6.6,0,0,1-1.458-7.178,9.34,9.34,0,0,1,3.054-4.351,3,3,0,0,1,2.825-.633c.42.12.87.113,1.292.25a1.876,1.876,0,0,1,1.422,1.688,11.853,11.853,0,0,0,1.266,4.24,3.562,3.562,0,0,1,.475,1.881m-10.661,14.178a5.748,5.748,0,0,0,.123,1.305,4.492,4.492,0,0,0,1.888,2.984,1.852,1.852,0,0,0,.909.356,4.953,4.953,0,0,0,3.439-.865,6.637,6.637,0,0,0,1.771-1.786,14.869,14.869,0,0,0,2.411-5.61,6.628,6.628,0,0,0-.845-4.962c-.137-.216-.254-.446-.391-.662a.263.263,0,0,1,.072-.418c.871-.607,1.664-1.319,2.558-1.9.708-.458,1.372-.979,2.032-1.5a4.107,4.107,0,0,0,.916-.942c.088-.133.21-.27.084-.447a.439.439,0,0,0-.432-.186,3.176,3.176,0,0,0-.483.1,8.723,8.723,0,0,0-1.379.542,42.9,42.9,0,0,0-4.622,2.536c-.521.329-.582.331-1.069-.046-.929-.717-1.793-1.511-2.671-2.289a2.124,2.124,0,0,1-.693-1.341,3.4,3.4,0,0,1,.818-2.758,1.9,1.9,0,0,1,.589-.487c.331-.165.426-.141.618.182a11.208,11.208,0,0,1,.617,1.165,10.714,10.714,0,0,0,1.1,1.96,2.386,2.386,0,0,0,1.636,1.014c.459.066.609-.081.595-.536a2.381,2.381,0,0,0-.357-1.03,12.753,12.753,0,0,1-1.325-4.452.971.971,0,0,0-.832-.942c-.393-.083-.8-.109-1.185-.223a1.793,1.793,0,0,0-1.658.312,6.156,6.156,0,0,0-.81.657,8.992,8.992,0,0,0-2.2,3.574,5.558,5.558,0,0,0,1.306,5.9c.6.622,1.176,1.259,1.774,1.877.189.2.209.335.014.548-.594.649-1.137,1.342-1.678,2.035a14.931,14.931,0,0,0-2.164,3.871,6.418,6.418,0,0,0-.478,2.471m8.543-13.046a2.186,2.186,0,0,0-.238-.114,3.7,3.7,0,0,1-2.031-1.668,15.931,15.931,0,0,1-.963-1.783c-.057-.124-.07-.286-.23-.344a1.8,1.8,0,0,0,.216,2.66c.5.433.989.868,1.49,1.294.821.7.823.7,1.755-.045" transform="translate(-337.417 -60.157)" fill="#b87d02"/>
    <path id="Tracé_525" data-name="Tracé 525" d="M346.7,239.423c0-1.228,0-2.456,0-3.684,0-.543-.021-.554-.554-.566-.238-.005-.478.008-.714-.018a.5.5,0,0,1-.517-.53c-.021-.586-.021-1.173,0-1.759.012-.359.188-.515.554-.561a3.069,3.069,0,0,1,.385-.01q2.447,0,4.894,0a2.875,2.875,0,0,1,.438.022.505.505,0,0,1,.477.516c.012.6.02,1.21-.006,1.814-.015.338-.18.471-.536.51-.181.02-.366.013-.549.015-.615.008-.616.007-.62.6,0,.348,0,.7,0,1.045q0,2.639,0,5.279a5.542,5.542,0,0,0,.247,1.789,1.94,1.94,0,0,0,1.665,1.4,3.465,3.465,0,0,0,1.147-.016,1.977,1.977,0,0,0,1.609-1.4,5,5,0,0,0,.239-1.624q.01-3.244,0-6.489c0-.559-.025-.575-.6-.585-.183,0-.368.006-.549-.014-.369-.041-.533-.2-.545-.563-.018-.568-.018-1.137,0-1.7.012-.39.186-.547.584-.589a3.644,3.644,0,0,1,.385-.008h4.784a3.263,3.263,0,0,1,.439.013c.364.05.522.2.534.576.018.568.02,1.137,0,1.7-.014.4-.168.542-.589.572-.292.021-.586.014-.879.015-.224,0-.341.1-.335.33,0,.147,0,.293,0,.44q0,3.189,0,6.379a7.994,7.994,0,0,1-.225,1.961,4.671,4.671,0,0,1-3.675,3.673,7.9,7.9,0,0,1-3.758-.03A4.506,4.506,0,0,1,347,244.565a8.673,8.673,0,0,1-.3-2.337c-.006-.935,0-1.87,0-2.8m8.667-.382c0,1.063,0,2.127,0,3.19a6.8,6.8,0,0,1-.109,1.312,2.66,2.66,0,0,1-2.933,2.321,2.607,2.607,0,0,1-2.772-2.308,6.732,6.732,0,0,1-.142-1.364c.007-2.236,0-4.473,0-6.71,0-.891-.059-.813.846-.818l.55-.005a.3.3,0,0,0,.337-.339c0-.312.006-.624,0-.935-.005-.552-.007-.559-.547-.56-1.54,0-3.08,0-4.619,0-.092,0-.183,0-.275.008a.249.249,0,0,0-.263.282q0,.632,0,1.265c0,.214.136.281.325.282l.715,0c.736,0,.736,0,.737.763q0,.66,0,1.32c0,1.815-.007,3.63,0,5.445a8.147,8.147,0,0,0,.319,2.334,3.946,3.946,0,0,0,2.763,2.813,7.075,7.075,0,0,0,4.011.036,4.113,4.113,0,0,0,3-3.074,7.2,7.2,0,0,0,.241-1.958c-.007-2.291,0-4.583,0-6.874,0-.147.006-.294,0-.44-.008-.254.111-.366.364-.363.367.005.733-.005,1.1,0,.248,0,.374-.11.373-.363,0-.293.005-.587,0-.88-.007-.574-.021-.593-.583-.594q-2.172-.006-4.345,0c-.831,0-.774-.057-.776.773,0,1.06,0,1.06,1.033,1.068h.055c.577.008.587.012.589.582,0,1.265,0,2.53,0,3.795" transform="translate(-265.805 -179.023)" fill="#b67a03"/>
    <path id="Tracé_526" data-name="Tracé 526" d="M295.314,232.289a26.415,26.415,0,0,1,4.167.188,6.817,6.817,0,0,1,1.583.441,3.678,3.678,0,0,1,2.261,2.587,6.753,6.753,0,0,1,.114,2.943,4.444,4.444,0,0,1-3.847,3.7,14.3,14.3,0,0,1-2.407.186c-.2,0-.4.006-.6,0-.222,0-.34.089-.339.325q.007,1.044,0,2.089c0,.211.106.3.305.3.311,0,.623-.007.934.007.471.021.625.171.635.635.011.513.009,1.026,0,1.539-.008.544-.132.668-.7.67-1.832.005-3.664,0-5.5,0-.055,0-.11,0-.165,0-.392-.034-.561-.188-.574-.588-.017-.549-.018-1.1,0-1.649.014-.419.192-.581.622-.606.274-.015.549-.011.824-.006.255,0,.37-.114.361-.366,0-.11,0-.22,0-.33q0-4.232,0-8.465c0-.055,0-.11,0-.165-.013-.525-.034-.546-.571-.556-.2,0-.4.006-.6-.007-.46-.031-.624-.191-.637-.649-.014-.513-.013-1.026,0-1.539.012-.485.182-.652.668-.678.256-.014.513,0,.769,0h2.693m-.053.528h-1.486c-.55,0-1.1-.007-1.649,0-.374.008-.4.038-.41.418q-.015.494,0,.989c.012.4.032.415.458.428.238.008.476,0,.715,0,.608.005.608.006.614.612,0,.037,0,.073,0,.11q0,4.727,0,9.455c0,.128-.006.257,0,.385.008.258-.123.36-.371.355-.33-.006-.66-.007-.989,0-.383.012-.409.038-.423.406-.01.274-.006.55,0,.825.008.531.02.549.565.551,1.264,0,2.529,0,3.793,0,.385,0,.77-.007,1.154,0,.266.005.419-.087.412-.378-.008-.348,0-.7,0-1.045,0-.251-.121-.365-.372-.362-.385,0-.77-.009-1.154,0-.27.007-.409-.088-.407-.377.006-1.008,0-2.016,0-3.023,0-.251.107-.366.364-.363.495.007.99.015,1.484,0a9.668,9.668,0,0,0,2.762-.4,3.73,3.73,0,0,0,2.432-2.432,5.721,5.721,0,0,0,.114-3.142,3.239,3.239,0,0,0-2.01-2.437,7.515,7.515,0,0,0-2.077-.489,33.249,33.249,0,0,0-3.512-.1" transform="translate(-224.4 -179.017)" fill="#b77b03"/>
    <path id="Tracé_527" data-name="Tracé 527" d="M415.177,232.282c1.044,0,2.088-.023,3.13.079a7.108,7.108,0,0,1,1.975.45,3.639,3.639,0,0,1,2.446,3.451,3.884,3.884,0,0,1-.966,3c-.205.22-.125.324.073.467a3.769,3.769,0,0,1,1.593,2.6,4.29,4.29,0,0,1-2.759,4.983,7.577,7.577,0,0,1-2.677.555c-2,.036-3.993.029-5.99.03-.51,0-.652-.146-.665-.656-.013-.494-.011-.989,0-1.484.013-.553.167-.7.741-.709.238-.006.476-.01.714,0,.264.01.362-.119.347-.368-.007-.11,0-.22,0-.329v-8.464c0-.055,0-.11,0-.165-.008-.544-.009-.545-.557-.554-.2,0-.4.006-.6-.008-.482-.032-.626-.167-.639-.639-.015-.531-.015-1.063,0-1.594.014-.456.178-.615.649-.633s.916-.006,1.374-.006h1.814m5.41,7.3c.048-.161.2-.2.32-.28a2.844,2.844,0,0,0,1.144-1.63,4.333,4.333,0,0,0,.026-2.174,2.9,2.9,0,0,0-1.486-1.947,5.28,5.28,0,0,0-2.091-.627c-2.064-.215-4.136-.076-6.2-.111-.273,0-.409.105-.4.387.006.33.009.66,0,.989a.381.381,0,0,0,.427.445c.311.006.622,0,.933,0,.365,0,.4.028.419.4.007.128,0,.256,0,.385q0,4.671,0,9.343c0,.092,0,.183,0,.275-.011.514-.022.528-.52.536-.311.005-.623,0-.934.007-.2,0-.315.094-.318.3q-.007.577,0,1.154a.287.287,0,0,0,.3.317c.128.006.256.01.384.01,1.484,0,2.967,0,4.451,0a11.78,11.78,0,0,0,1.861-.123,7.276,7.276,0,0,0,1.536-.408,3.663,3.663,0,0,0,2.517-3.785,3.44,3.44,0,0,0-2-3.22c-.126-.065-.284-.089-.36-.236" transform="translate(-317.001 -179.012)" fill="#b57904"/>
    <path id="Tracé_528" data-name="Tracé 528" d="M430.657,61.489a8.487,8.487,0,0,0-4.094,3.5c-.173,0-.222-.117-.291-.2a41.429,41.429,0,0,0-4.331-4.292c-.4-.34-.31-.3-.041-.632.379-.469.745-.947,1.138-1.447.74.6,1.426,1.225,2.1,1.866a2.333,2.333,0,0,0,2.224.633c.232-.051.466-.1.7-.132a5.711,5.711,0,0,1,1.643-.04,1.071,1.071,0,0,1,.948.742" transform="translate(-324.971 -45.022)" fill="#e0deca"/>
    <path id="Tracé_529" data-name="Tracé 529" d="M410.129,35.649a3.644,3.644,0,0,1-.494,1.834,16.314,16.314,0,0,1-2.544,3.3A1.1,1.1,0,0,1,405.14,40a5.166,5.166,0,0,1,.142-1.252q.32-1.335.647-2.667a4.241,4.241,0,0,1,.963-1.768,1.612,1.612,0,0,1,1.919-.539,1.848,1.848,0,0,1,1.317,1.714c0,.055,0,.11,0,.165m-3.891,4.5a13.76,13.76,0,0,0,2.634-3.458,2.444,2.444,0,0,0,.225-1.066.822.822,0,0,0-.576-.844c-.366-.145-.607-.07-.9.289a3.237,3.237,0,0,0-.69,1.3c-.2.835-.43,1.664-.611,2.5a2.468,2.468,0,0,0-.079,1.28" transform="translate(-312.232 -25.933)" fill="#b77c02"/>
    <path id="Tracé_530" data-name="Tracé 530" d="M106.521,234.619l0,.137a5.8,5.8,0,0,1-2.02-1.063,1.193,1.193,0,0,1-.5-1.284c.09-.052.11.015.126.052a3.667,3.667,0,0,0,2.4,2.158" transform="translate(-80.115 -179.098)" fill="#b5b5b5"/>
    <path id="Tracé_531" data-name="Tracé 531" d="M117.245,242.2a.6.6,0,0,1-.651,0,2,2,0,0,1,.651,0" transform="translate(-89.856 -186.64)" fill="#b5b5b5"/>
    <path id="Tracé_532" data-name="Tracé 532" d="M195.1,45.18l-.675.991a18.275,18.275,0,0,1-3.323,3.793,7.834,7.834,0,0,1-2.135,1.337,5.152,5.152,0,0,1-3.447.153,3.35,3.35,0,0,1-2.272-2.141,9.351,9.351,0,0,1-.443-1.98c-.039-.271-.074-.543-.109-.8a.14.14,0,0,0-.2.061c-.746,1-1.578,1.93-2.4,2.863a6.012,6.012,0,0,0-1.536,3.393c-.2,1.728-.467,3.449-.71,5.172-.291,2.068-.555,4.14-.979,6.187a35.306,35.306,0,0,1-3.177,9.45,14.888,14.888,0,0,1-3.577,4.485,2.673,2.673,0,0,1-3.076.312,3.786,3.786,0,0,1-1.914-2.109,8.778,8.778,0,0,1-.518-4.376,28.323,28.323,0,0,1,2.535-8.328,48.32,48.32,0,0,1,6.614-10.545q1.088-1.348,2.206-2.671a1.678,1.678,0,0,0,.389-.831,8.331,8.331,0,0,0,.066-1.864,1.952,1.952,0,0,0-.121-.533c-.07-.2-.209-.252-.379-.1-.094.086-.175.187-.263.28a27.928,27.928,0,0,1-2.823,2.692,13.424,13.424,0,0,1-2.845,1.76,5.723,5.723,0,0,1-2.338.542,2.945,2.945,0,0,1-2.446-1.145c-.079-.1-.16-.2-.248-.3-.224.076-.236.281-.308.434a29.315,29.315,0,0,1-2.634,4.629,16.477,16.477,0,0,1-2.065,2.424,7.179,7.179,0,0,1-.893.73,3.164,3.164,0,0,1-4.647-1.069,5.088,5.088,0,0,1-.639-2.308,13.819,13.819,0,0,1,.717-5.2c.3-.981.615-1.958.984-2.916a4.213,4.213,0,0,0,.255-.9.671.671,0,0,0-.18-.708c-.224-.167-.46-.058-.678.037a4.078,4.078,0,0,0-1.931,1.81,17.352,17.352,0,0,0-1.15,2.554c-.372,1.016-.7,2.047-.983,3.089a19.555,19.555,0,0,1-.757,2.238,1.64,1.64,0,0,1-.136.3.564.564,0,0,1-1.045-.04,2.465,2.465,0,0,1-.222-.561,12.566,12.566,0,0,1-.45-4.46,27.677,27.677,0,0,1,1.148-5.366,28.33,28.33,0,0,1,1.16-3.084A1.329,1.329,0,0,1,152.6,42a1.568,1.568,0,0,1,.69,2.072c-.136.357-.255.722-.407,1.156a.985.985,0,0,0,.477-.385c.426-.48.839-.971,1.268-1.448a5.359,5.359,0,0,1,1.071-.942,2.4,2.4,0,0,1,2.648-.108,3.474,3.474,0,0,1,1.738,3.872,12.659,12.659,0,0,1-.772,2.345c-.7,1.616-1.489,3.188-2.111,4.836a11.157,11.157,0,0,0-.656,3.052,2.4,2.4,0,0,0,0,.385c.047.569.389.763.914.512a3.158,3.158,0,0,0,.826-.632,29.545,29.545,0,0,0,3.4-4.033c.8-1.121,1.584-2.247,2.387-3.364a1.082,1.082,0,0,0,.209-.758,8.075,8.075,0,0,1,1.306-5.07,5.762,5.762,0,0,1,3.047-2.148,7.154,7.154,0,0,1,5,.044,1.585,1.585,0,0,1,.967.982.409.409,0,0,1-.32.619,3.181,3.181,0,0,1-.6.054,15.53,15.53,0,0,0-2.08.168,4.129,4.129,0,0,0-2.52,1.445,6.029,6.029,0,0,0-1.44,4,3.133,3.133,0,0,0,.116.815c.11.41.3.5.689.32a2.978,2.978,0,0,0,.549-.361,17.525,17.525,0,0,0,1.6-1.507c.917-.923,1.759-1.92,2.735-2.785a7.359,7.359,0,0,1,2.28-1.407,3.9,3.9,0,0,1,.959-.23c.642-.071.927.109,1.077.736.162.677.288,1.362.435,2.042.108.5.226,1,.337,1.487.16.023.223-.079.3-.152a45.922,45.922,0,0,1,3.623-3.121,1.188,1.188,0,0,0,.491-.861,11.565,11.565,0,0,1,1.188-3.925,7.539,7.539,0,0,1,2.159-2.6,5.624,5.624,0,0,1,1.982-.923,2.187,2.187,0,0,1,2.775,2.083,5.457,5.457,0,0,1-1.33,3.911c-.656.741-1.31,1.484-1.953,2.236a11.8,11.8,0,0,0-1.25,1.806,2.532,2.532,0,0,0-.242,1.862,1.091,1.091,0,0,0,1.19.987,2.985,2.985,0,0,0,1.337-.267,8.269,8.269,0,0,0,2.557-1.682,38.3,38.3,0,0,0,2.915-3.437,3.889,3.889,0,0,1,.344-.428,3.248,3.248,0,0,0,.945-2.3,67.673,67.673,0,0,1,1.91-11.424,77.892,77.892,0,0,1,3.4-10.734,31.255,31.255,0,0,1,2.736-5.445,3.3,3.3,0,0,1,.288-.4,1.447,1.447,0,0,1,2.559.76,12.083,12.083,0,0,1,.049,1.427,34.512,34.512,0,0,1-2.181,11.556,44.626,44.626,0,0,1-3.541,7.556,4.124,4.124,0,0,0-.487,1.274c-.432,2.1-.756,4.218-1.005,6.349a43.378,43.378,0,0,0-.3,6.8,11.3,11.3,0,0,0,.255,1.9c.179.841.872.977,1.5.49a3.138,3.138,0,0,0,.443-.487,43.051,43.051,0,0,0,3.54-5.167c1.2-1.971,2.321-3.994,3.628-5.9a5.967,5.967,0,0,1,.36-.485c.094-.111.207-.225.376-.158a.4.4,0,0,1,.243.4,1.277,1.277,0,0,1-.166.575c-.559,1.316-1.146,2.619-1.779,3.9-.876,1.775-1.722,3.564-2.555,5.36a19.2,19.2,0,0,1-2.521,4.051,4.769,4.769,0,0,1-1.646,1.346,2.628,2.628,0,0,1-1.551.233,4.987,4.987,0,0,1-1.471-.432,2.854,2.854,0,0,1-1.61-2.035,26.061,26.061,0,0,1-.686-5.994c0-.345,0-.69,0-1.035l-.124-.047m-20.32,10-.111-.041-.691,1.025a67.969,67.969,0,0,0-4.3,6.9,23.846,23.846,0,0,0-2.652,7.761,10.091,10.091,0,0,0-.056,2.9,4.861,4.861,0,0,0,.491,1.658,1.092,1.092,0,0,0,.508-.359,6.439,6.439,0,0,0,1.062-1.4,21.054,21.054,0,0,0,1.555-3.273c1.012-2.675,1.837-5.411,2.65-8.151a57.8,57.8,0,0,0,1.491-6.025,3.511,3.511,0,0,0,.052-1.006m30.951-38.708a106.524,106.524,0,0,0-4.509,14.533c1.2-1.337,4.253-11.14,4.509-14.533M186.595,41.89c1.114-.925,2.554-2.738,2.331-3.635a3.878,3.878,0,0,0-2.331,3.635" transform="translate(-114.173 -9.553)" fill="#0c4538"/>
    <path id="Tracé_533" data-name="Tracé 533" d="M15.527,87.662H14.3c-1.359,0-2.7-.179-4.056-.286-.347-.027-.694-.06-1.041-.075a22.287,22.287,0,0,1-3.595-.436,4.445,4.445,0,0,1-.628-.194.276.276,0,0,1-.2-.243c-.008-.14.1-.178.206-.219a1.558,1.558,0,0,1,.209-.068c1.351-.329,2.671-.776,4.053-.989,2.118-.325,4.207-.812,6.315-1.2.792-.145,1.586-.3,2.385-.393a2.073,2.073,0,0,0,1.46-.86,71.338,71.338,0,0,0,6.045-9.368c1.565-2.822,2.939-5.74,4.4-8.616.141-.278.272-.562.434-.827a1.706,1.706,0,0,1,1.838-.807,1.665,1.665,0,0,1,1.193,1.486c.124,1.407.09,2.819.081,4.23-.011,1.78-.211,3.547-.378,5.316s-.311,3.541-.409,5.315c-.024.439-.048.878-.078,1.317-.019.281.1.4.384.385a8.881,8.881,0,0,1,1.751.132,1.881,1.881,0,0,1,1.457,1.048,1.146,1.146,0,0,1-.385,1.59,5.524,5.524,0,0,1-1.524.748c-.453.147-.9.309-1.364.425a.693.693,0,0,0-.589.668,71.527,71.527,0,0,0-.621,8.986c-.038,1.924-.16,3.845-.25,5.767a1.932,1.932,0,0,1-.179.743.5.5,0,0,1-.885.141,1.353,1.353,0,0,1-.307-.515A33.731,33.731,0,0,1,27.859,91.2a35.044,35.044,0,0,1-.013-4.5c.031-.4-.039-.472-.475-.437-1.06.084-2.108.261-3.155.439-.939.159-1.872.365-2.817.472a2.946,2.946,0,0,0-1.734.86,21.544,21.544,0,0,0-1.8,1.852c-1.209,1.449-2.4,2.914-3.6,4.367a28.366,28.366,0,0,1-3.546,3.6,13.311,13.311,0,0,1-3.729,2.187,1.365,1.365,0,0,1-1.263-.08c-.378-.22-.43-.382-.23-.76A2.763,2.763,0,0,1,6.03,98.5a130.81,130.81,0,0,0,9.4-10.615,1.278,1.278,0,0,0,.1-.225m8.185-5.1a.218.218,0,0,0,.241.091c1.223-.232,2.446-.471,3.671-.694a.46.46,0,0,0,.43-.419c.054-.362.118-.723.164-1.087.184-1.456.161-2.927.324-4.384.007-.06.041-.152-.1-.183-1.536,2.249-3.293,4.359-4.725,6.677" transform="translate(-3.689 -48.585)" fill="#0c4438"/>
    <path id="Tracé_534" data-name="Tracé 534" d="M442.28,103.89a6.42,6.42,0,0,1,.478-2.471,14.932,14.932,0,0,1,2.165-3.871c.541-.693,1.084-1.386,1.678-2.035.195-.213.175-.353-.014-.549-.6-.619-1.179-1.255-1.774-1.877a5.557,5.557,0,0,1-1.306-5.9,8.988,8.988,0,0,1,2.2-3.574,6.158,6.158,0,0,1,.81-.657,1.792,1.792,0,0,1,1.657-.312c.383.114.792.14,1.185.223a.971.971,0,0,1,.833.942,12.749,12.749,0,0,0,1.325,4.452,2.389,2.389,0,0,1,.357,1.03c.014.456-.136.6-.6.536a2.386,2.386,0,0,1-1.636-1.014,10.725,10.725,0,0,1-1.1-1.96,11.182,11.182,0,0,0-.617-1.165c-.192-.323-.286-.347-.618-.182a1.893,1.893,0,0,0-.589.488,3.4,3.4,0,0,0-.818,2.758,2.125,2.125,0,0,0,.694,1.341c.878.777,1.742,1.571,2.671,2.289.487.376.548.375,1.069.046a42.865,42.865,0,0,1,4.622-2.536,8.734,8.734,0,0,1,1.379-.542,3.176,3.176,0,0,1,.483-.1.438.438,0,0,1,.432.186c.126.177,0,.314-.084.447a4.121,4.121,0,0,1-.916.942c-.66.525-1.324,1.045-2.032,1.5-.894.578-1.687,1.29-2.558,1.9a.263.263,0,0,0-.072.417c.138.216.254.446.392.662a6.629,6.629,0,0,1,.845,4.962,14.867,14.867,0,0,1-2.411,5.61,6.641,6.641,0,0,1-1.771,1.786,4.953,4.953,0,0,1-3.439.865,1.848,1.848,0,0,1-.91-.356,4.493,4.493,0,0,1-1.888-2.984,5.768,5.768,0,0,1-.123-1.305m6.471-6.718a.424.424,0,0,0-.273.223c-.52.731-1.044,1.459-1.5,2.229a15.859,15.859,0,0,0-1.679,3.746,3.746,3.746,0,0,0-.172,1.245c.013.238-.019.555.185.655.229.112.419-.164.584-.319a10.741,10.741,0,0,0,3.094-5.215,5.115,5.115,0,0,0,.158-1.029,2.152,2.152,0,0,0-.392-1.536" transform="translate(-340.849 -63.629)" fill="#0c4538"/>
    <path id="Tracé_535" data-name="Tracé 535" d="M357.2,240.819c0-1.265,0-2.53,0-3.795,0-.57-.011-.574-.589-.582h-.055c-1.034-.008-1.035-.008-1.033-1.068,0-.83-.055-.773.776-.773q2.172,0,4.344,0c.563,0,.577.02.583.594,0,.293,0,.587,0,.88,0,.253-.125.364-.373.363-.366,0-.733.008-1.1,0-.254,0-.372.109-.364.363,0,.146,0,.293,0,.44,0,2.291,0,4.583,0,6.874a7.2,7.2,0,0,1-.241,1.958,4.113,4.113,0,0,1-3,3.074,7.074,7.074,0,0,1-4.011-.036,3.946,3.946,0,0,1-2.763-2.813,8.137,8.137,0,0,1-.319-2.334c-.01-1.815,0-3.63,0-5.445q0-.66,0-1.32c0-.761,0-.761-.737-.763l-.715,0c-.189,0-.324-.068-.325-.282q0-.632,0-1.265a.249.249,0,0,1,.263-.282c.091,0,.183-.008.275-.008,1.54,0,3.08,0,4.619,0,.54,0,.541.008.547.56,0,.311,0,.623,0,.935a.3.3,0,0,1-.337.339l-.55.005c-.906,0-.846-.074-.846.818,0,2.237,0,4.473,0,6.71a6.73,6.73,0,0,0,.141,1.365,2.607,2.607,0,0,0,2.772,2.308,2.66,2.66,0,0,0,2.933-2.321,6.815,6.815,0,0,0,.109-1.312c0-1.063,0-2.126,0-3.19" transform="translate(-267.637 -180.801)" fill="#602c2a"/>
    <path id="Tracé_536" data-name="Tracé 536" d="M297.065,234.595a33.251,33.251,0,0,1,3.512.1,7.517,7.517,0,0,1,2.077.489,3.24,3.24,0,0,1,2.009,2.437,5.722,5.722,0,0,1-.114,3.142,3.729,3.729,0,0,1-2.432,2.432,9.666,9.666,0,0,1-2.762.4c-.494.019-.989.01-1.484,0-.257,0-.365.112-.364.363,0,1.008.005,2.016,0,3.023,0,.289.137.384.407.377.385-.009.77,0,1.154,0,.251,0,.373.111.372.362,0,.348,0,.7,0,1.044.006.29-.146.383-.412.378-.385-.007-.769,0-1.154,0-1.264,0-2.529,0-3.793,0-.545,0-.557-.02-.565-.551,0-.275-.009-.55,0-.825.014-.368.04-.393.423-.406.329-.01.66-.009.989,0,.248,0,.379-.1.371-.355,0-.128,0-.256,0-.385q0-4.728,0-9.455c0-.037,0-.073,0-.11-.006-.606-.006-.607-.614-.612-.238,0-.477.005-.715,0-.426-.014-.446-.03-.458-.429q-.014-.494,0-.989c.012-.38.036-.41.41-.418.549-.011,1.1,0,1.649,0h1.486m.441,4.521c0,.769-.007,1.537,0,2.306.005.374.043.416.412.415a16.345,16.345,0,0,0,2.3-.081c1.643-.237,2.248-.848,2.389-2.474a.99.99,0,0,0,.008-.109c-.039-1.339-.4-2.329-2.074-2.638a15.3,15.3,0,0,0-2.573-.094c-.428-.006-.459.034-.464.479-.008.732,0,1.464,0,2.2" transform="translate(-226.204 -180.795)" fill="#602c2a"/>
    <path id="Tracé_537" data-name="Tracé 537" d="M422.475,241.337c.076.147.234.171.36.236a3.439,3.439,0,0,1,2,3.219,3.663,3.663,0,0,1-2.517,3.785,7.278,7.278,0,0,1-1.536.408,11.718,11.718,0,0,1-1.861.123c-1.484.006-2.968,0-4.451,0-.128,0-.256,0-.384-.01a.287.287,0,0,1-.3-.317q-.007-.577,0-1.154c0-.2.123-.294.318-.3.312,0,.623,0,.934-.007.5-.009.509-.022.52-.536,0-.091,0-.183,0-.275q0-4.671,0-9.343c0-.128,0-.257,0-.385-.019-.373-.054-.4-.419-.4-.311,0-.622.008-.933,0a.381.381,0,0,1-.427-.445c.011-.329.007-.66,0-.989-.005-.281.132-.391.4-.387,2.068.035,4.14-.1,6.2.111a5.28,5.28,0,0,1,2.091.627,2.9,2.9,0,0,1,1.486,1.947,4.335,4.335,0,0,1-.026,2.174,2.844,2.844,0,0,1-1.145,1.63c-.116.079-.272.119-.32.28m-4.784,3.538c0,.677-.008,1.353,0,2.03.006.377.043.416.409.419a13.189,13.189,0,0,0,2.515-.124,2.723,2.723,0,0,0,1.212-.477,2.4,2.4,0,0,0,.724-2.588,2.066,2.066,0,0,0-1.513-1.449,10.475,10.475,0,0,0-2.991-.268c-.3,0-.364.174-.361.429.006.677,0,1.353,0,2.03m0-6.341h0c0,.567,0,1.134,0,1.7,0,.229.059.395.332.394a14.539,14.539,0,0,0,2.028-.042,2.06,2.06,0,0,0,.346-4.06,2.28,2.28,0,0,0-.538-.1c-.585-.017-1.17-.025-1.755-.018-.365,0-.4.044-.41.421-.011.567,0,1.134,0,1.7" transform="translate(-318.889 -180.768)" fill="#602b2b"/>
    <path id="Tracé_538" data-name="Tracé 538" d="M409.729,43.7a2.468,2.468,0,0,1,.079-1.28c.181-.839.408-1.669.611-2.5a3.238,3.238,0,0,1,.69-1.3c.3-.359.538-.434.9-.289a.822.822,0,0,1,.576.844,2.443,2.443,0,0,1-.225,1.066,13.757,13.757,0,0,1-2.634,3.458" transform="translate(-315.724 -29.484)" fill="#0c4538"/>
    <path id="Tracé_539" data-name="Tracé 539" d="M237.784,198.84a3.519,3.519,0,0,1-.052,1.006,57.806,57.806,0,0,1-1.491,6.025c-.813,2.739-1.638,5.476-2.65,8.151a21.1,21.1,0,0,1-1.555,3.273,6.454,6.454,0,0,1-1.062,1.4,1.094,1.094,0,0,1-.508.359,4.859,4.859,0,0,1-.491-1.658,10.089,10.089,0,0,1,.056-2.9,23.836,23.836,0,0,1,2.652-7.761,67.978,67.978,0,0,1,4.3-6.9l.69-1.025.112.041m-6.8,17.988a.3.3,0,0,0,.229-.188,15.133,15.133,0,0,0,.964-1.91,102.423,102.423,0,0,0,3.49-10.628c.022-.076.063-.173-.049-.247-.181.076-.24.261-.332.41a38.751,38.751,0,0,0-1.965,3.49,21.783,21.783,0,0,0-2.307,7.172,8.281,8.281,0,0,0-.03,1.9" transform="translate(-177.172 -153.21)" fill="#b87d02"/>
    <path id="Tracé_540" data-name="Tracé 540" d="M384.118,30.187c-.256,3.393-3.314,13.2-4.51,14.533a106.545,106.545,0,0,1,4.51-14.533" transform="translate(-292.555 -23.264)" fill="#b57904"/>
    <path id="Tracé_541" data-name="Tracé 541" d="M315.791,128.8a3.878,3.878,0,0,1,2.331-3.635c.222.9-1.217,2.71-2.331,3.635" transform="translate(-243.369 -96.46)" fill="#b67a03"/>
    <path id="Tracé_542" data-name="Tracé 542" d="M87.313,125.709c1.432-2.318,3.189-4.427,4.725-6.677.146.031.111.124.1.183-.163,1.457-.14,2.929-.324,4.384-.046.363-.11.724-.164,1.086a.46.46,0,0,1-.43.419c-1.225.223-2.447.462-3.671.694a.218.218,0,0,1-.241-.091m2.2-1.4a3.613,3.613,0,0,0,.945-.116.3.3,0,0,0,.277-.286,8.757,8.757,0,0,0,.135-1.437,22.49,22.49,0,0,0-1.358,1.839" transform="translate(-67.29 -91.735)" fill="#b77c02"/>
    <path id="Tracé_543" data-name="Tracé 543" d="M458.31,146.264a2.152,2.152,0,0,1,.392,1.536,5.119,5.119,0,0,1-.158,1.029,10.742,10.742,0,0,1-3.094,5.215c-.165.155-.355.431-.584.319-.2-.1-.172-.417-.185-.655a3.749,3.749,0,0,1,.172-1.245,15.855,15.855,0,0,1,1.679-3.746c.46-.771.984-1.5,1.5-2.229a.423.423,0,0,1,.273-.223" transform="translate(-350.409 -112.722)" fill="#b87d02"/>
    <path id="Tracé_544" data-name="Tracé 544" d="M310.915,245.3c0-.732-.006-1.464,0-2.2.005-.445.036-.486.464-.479a15.3,15.3,0,0,1,2.573.094c1.677.309,2.035,1.3,2.074,2.638a.962.962,0,0,1-.008.109c-.141,1.626-.746,2.238-2.389,2.474a16.392,16.392,0,0,1-2.3.081c-.369,0-.407-.041-.412-.415-.01-.769,0-1.537,0-2.306m.539-.026h0q0,.933,0,1.866c0,.173.014.34.248.343a7.814,7.814,0,0,0,2.714-.265,1.4,1.4,0,0,0,.944-.992,3.592,3.592,0,0,0,.1-1.467,1.625,1.625,0,0,0-1.348-1.464,8.627,8.627,0,0,0-2.234-.182c-.4.009-.413.031-.419.46-.007.567,0,1.134,0,1.7" transform="translate(-239.613 -186.98)" fill="#b57904"/>
    <path id="Tracé_545" data-name="Tracé 545" d="M430.829,271.29c0-.676,0-1.353,0-2.03,0-.255.066-.433.362-.429a10.477,10.477,0,0,1,2.991.268,2.065,2.065,0,0,1,1.513,1.449,2.4,2.4,0,0,1-.724,2.588,2.724,2.724,0,0,1-1.212.478,13.19,13.19,0,0,1-2.515.124c-.366,0-.4-.042-.409-.419-.011-.676,0-1.353,0-2.03m.54,0c0,.512,0,1.024,0,1.536,0,.236.057.387.332.384a9.933,9.933,0,0,0,2.235-.177,1.616,1.616,0,0,0,1.13-.8,1.808,1.808,0,0,0-1.141-2.662,8.652,8.652,0,0,0-2.176-.214c-.285-.005-.388.118-.382.395.012.512,0,1.024,0,1.536" transform="translate(-332.028 -207.182)" fill="#b57904"/>
    <path id="Tracé_546" data-name="Tracé 546" d="M430.832,244.765c0-.567-.008-1.134,0-1.7.008-.377.045-.417.411-.421.585-.007,1.17,0,1.755.019a2.276,2.276,0,0,1,.537.1,2.06,2.06,0,0,1-.346,4.06,14.546,14.546,0,0,1-2.027.042c-.274,0-.333-.165-.332-.394,0-.567,0-1.134,0-1.7Zm.538-.006c0,.42,0,.841,0,1.261,0,.216.062.348.305.352a6.155,6.155,0,0,0,1.742-.141,1.4,1.4,0,0,0,1.142-1.525,1.326,1.326,0,0,0-1.107-1.426,5.831,5.831,0,0,0-1.795-.15c-.21,0-.288.113-.287.312,0,.439,0,.877,0,1.316" transform="translate(-332.03 -186.997)" fill="#b67a03"/>
  </g>
</svg>
