<svg xmlns="http://www.w3.org/2000/svg" xmlns:xlink="http://www.w3.org/1999/xlink" width="44.385" height="49.704" viewBox="0 0 44.385 49.704">
  <defs>
    <clipPath id="clip-path">
      <rect id="Rectangle_2210" data-name="Rectangle 2210" width="44.385" height="49.704" fill="#c3c2b1"/>
    </clipPath>
  </defs>
  <g id="Groupe_261" data-name="Groupe 261" transform="translate(0 0)">
    <g id="Groupe_260" data-name="Groupe 260" transform="translate(0 0)" clip-path="url(#clip-path)">
      <path id="Tracé_10319" data-name="Tracé 10319" d="M43.552,7.166c-.84-.455-3.016-1.494-4.021-1.051a1.319,1.319,0,0,0-.5.42c-.465-.966-1.714-.845-2.88-.948L35.6,5.541c.3-.969.583-2.266-.572-2.673a14.415,14.415,0,0,0-2.809-.279,25.218,25.218,0,0,0-2.942-.514.59.59,0,0,0-.516.3,4.569,4.569,0,0,0-.329,1.571,8.024,8.024,0,0,0-1.606-.186C26.589,2.595,26.444,0,24.923,0a17.916,17.916,0,0,0-5.95.795.619.619,0,0,0-.439.577,10.8,10.8,0,0,0,.144,1.581,18.359,18.359,0,0,0-2.427.554c-.277.055-.7.081-1.112.145a1.637,1.637,0,0,0-.249-1.383,1.371,1.371,0,0,0-.873-.232c-.7-.048-1.4-.054-2.1-.081-.859-.032-2.219-.379-2.86.377-.692.815-.5,2.619-.47,3.625-.106.025-.207.05-.3.078a.587.587,0,0,0-.417.418,33.26,33.26,0,0,0-.245,4.122c-.259-1.042-.513-2.086-.789-3.124C6.307,5.439,5.4,5.763,3.467,6.088,1.591,6.4.054,6.274.306,8.4a46.077,46.077,0,0,0,1.853,8.3c-.3.01-.608.015-.912.026-.017,0-.027.009-.043.01a.487.487,0,0,0-.081.02.608.608,0,0,0-.142.041c-.012.005-.024,0-.037.01-1.1.577-.929,1.232-.942,2.386A67.247,67.247,0,0,0,.549,26.26a121.954,121.954,0,0,0,2,13.629c.568,2.68.841,8.136,3.926,9.161,1.723.572,4.3.437,6.135.555,2.49.161,4.981.1,7.471.013,4.1-.141,8.242.222,12.329-.038,2.672-.169,5.224-.6,6.5-3.2,1.848-3.764,2.317-8.745,2.879-12.844.706-5.141,1.049-10.321,1.389-15.5a.608.608,0,0,0-.6-.6c-.2-.013-.4-.023-.6-.035.75-2.391,1.438-4.8,2.033-7.231.31-1.272.839-2.314-.46-3.014M38,7.261c.308.443.074,2.144,0,3.04l-.01.044a.635.635,0,0,0-.009.261c0,.021,0,.05,0,.069q-.021,3.249-.043,6.5c-1.218-.067-2.438-.125-3.658-.183q-.055-2.948.037-5.9c.032-1.018,0-2.082.137-3.091.186-1.414.293-1.352,1.705-1.222.744.068,1.562.073,1.845.478m-4.922,9.672c-.2-.009-.393-.021-.59-.029.208-.737.391-1.482.559-2.231,0,.755.016,1.508.031,2.26M32.822,3.857c.47.049,1.474-.071,1.7.321.216.373-.051.971-.172,1.351,0,.014,0,.024,0,.038-.621.135-.953.562-1.053,1.7-.064.714-.107,1.432-.144,2.15-.008.018-.021.028-.027.047-.814,2.414-1.148,4.955-1.864,7.4-.844-.034-1.688-.064-2.532-.095A73.947,73.947,0,0,0,30,5.891a1.792,1.792,0,0,0-.44-1.358.48.48,0,0,0,.016-.05c.044-.339.037-.8.116-1.177,1.029.09,2.115.445,3.134.55m-4.406,4.73a67.133,67.133,0,0,1-.866,8,.614.614,0,0,0,0,.132c-1.237-.041-2.474-.072-3.711-.1L24.889,11.5c.278-1.358,1.046-3.263.943-4.662a1.194,1.194,0,0,0-.578-1c.042-1.072,2.269-1.076,2.957-.547.83.637.267,2.429.206,3.3m-8.443,2.169c.126-.8.234-1.608.339-2.414.052-.4-.006-1.385.227-1.69.179-.234.114-.031.573-.127a7.647,7.647,0,0,1,2.444.238c1.341.442.742,1.661.513,2.781q-.713,3.479-1.424,6.959a.539.539,0,0,0,0,.083c-1.268-.026-2.535-.044-3.8-.06.434-1.911.827-3.832,1.13-5.77m4.914-9.566A10.472,10.472,0,0,1,25.6,3.722c-.28-.01-.548-.026-.793-.057a.594.594,0,0,0-.577.438,11.122,11.122,0,0,0-.162,1.42c-.632-.05-1.313-.008-1.829-.058a9.442,9.442,0,0,0-1.772-.138,4.424,4.424,0,0,0-.507-1.789.58.58,0,0,0,0-.162,9.343,9.343,0,0,1-.2-1.568,12.868,12.868,0,0,1,3.183-.442c.628-.027,1.3-.167,1.948-.177M19.381,6.074a.551.551,0,0,0,.059.148,3.219,3.219,0,0,0-.124.417c-.719,3.208-.931,6.544-1.67,9.771a.574.574,0,0,0,0,.1c-.444,0-.889-.009-1.333-.012-.252-2.9-.621-5.792-1.082-8.671a9.144,9.144,0,0,1-.382-2.52c.214-.527.673-.44,1.29-.561C17.993,4.38,19,3.908,19.381,6.074m-9.5-2.438c.081-.653.243-.515.769-.533.42-.015.853.032,1.273.049.646.025,1.345.116,1.993.084,0,.03,0,.06-.006.09a7.4,7.4,0,0,0-.1,1.063v0c-.4.817-.008,2.075.118,2.833.506,3.079.919,6.166,1.189,9.275q-1.129,0-2.258,0c.088-1.712.154-3.425.174-5.14.015-1.312.4-3.334-.114-4.524-.4-.922-1.863-1.129-3.129-1.048a15.447,15.447,0,0,1,.09-2.15M8.663,14.208c.147-1.39.148-2.781.171-4.178.021-1.374-.266-3.472,1.75-2.9,1.1.311,1.1.637,1.255,1.76a16.659,16.659,0,0,1,0,2.469c-.02,1.715-.085,3.428-.173,5.14-.853.006-1.705.023-2.558.034q-.259-1.046-.512-2.093a.641.641,0,0,0,.072-.231M2,11.344A12.233,12.233,0,0,1,1.59,9.015c.038-1.573.875-1.73,2.2-1.774,1.857-.061,1.938.671,2.294,2.1q.293,1.18.588,2.361.6,2.423,1.206,4.847-2.238.038-4.478.107A49.99,49.99,0,0,1,2,11.344M41.232,27.971c-.531,5.552-.872,12.371-3.255,17.515-2.021,4.362-8.958,2.822-12.9,2.817-5.078-.006-10.1.434-15.167-.15-1.615-.185-3.287-.011-4.4-1.619-.649-.941-.831-2.826-1.109-3.931-.638-2.532-1.143-5.1-1.562-7.671-.468-2.878-.819-5.771-1.1-8.673C1.638,25.136.455,18.8,1.469,17.909q16.544-.592,33.076.269,2.273.114,4.545.249c2.048.12,2.538-.223,2.746,1.823.249,2.438-.371,5.277-.6,7.721m.736-14.7c-.38,1.365-.79,2.72-1.217,4.072q-.813-.05-1.623-.1.015-2.672.034-5.343c0-.555.038-1.151.07-1.751a6.275,6.275,0,0,1,.685-2.619c.426-.414,1.316.025,1.771.246.817.4,1.265.649,1.261,1.7a16.372,16.372,0,0,1-.981,3.787" transform="translate(0 0)" fill="#c3c2b1"/>
      <path id="Tracé_10320" data-name="Tracé 10320" d="M23.377,27.453c-3.031.114-6.175.034-8.692,1.992a9.318,9.318,0,0,0-3.541,7.169c-.009,7.576,9.981,7.812,15.332,7.692,2.878-.063,5.775-.575,7.671-2.931,1.458-1.81,2.825-4.876,2.3-7.222-1.213-5.443-8.486-6.863-13.072-6.7M33.943,39.546c-1.626,2.871-4.385,3.5-7.467,3.564-4.571.1-12.427.4-13.813-5.191A7.269,7.269,0,0,1,15.5,30.374c2.314-1.743,5.121-1.622,7.878-1.725,3.793-.135,7.193.438,10.088,3.132,2.352,2.188,1.957,5.151.478,7.765" transform="translate(-1.623 -3.996)" fill="#c3c2b1"/>
      <path id="Tracé_10321" data-name="Tracé 10321" d="M16.137,36.1c.1-.761-1.1-.754-1.2,0a6.409,6.409,0,0,0,1.3,5.235c.5.584,1.348-.267.846-.845a5.383,5.383,0,0,1-.948-4.39" transform="translate(-2.164 -5.174)" fill="#c3c2b1"/>
      <path id="Tracé_10322" data-name="Tracé 10322" d="M16.227,34.017a.6.6,0,0,0,0-1.2.6.6,0,0,0,0,1.2" transform="translate(-2.279 -4.78)" fill="#c3c2b1"/>
    </g>
  </g>
</svg>
