<svg xmlns="http://www.w3.org/2000/svg" xmlns:xlink="http://www.w3.org/1999/xlink" width="49.628" height="64.365" viewBox="0 0 49.628 64.365">
  <defs>
    <clipPath id="clip-path">
      <rect id="Rectangle_100" data-name="Rectangle 100" width="49.628" height="64.365" transform="translate(0 0)" fill="#e1dfcb" stroke="#e1dfcb" stroke-width="0.6"/>
    </clipPath>
  </defs>
  <g id="Groupe_243" data-name="Groupe 243" transform="translate(0 -0.005)">
    <g id="Groupe_121" data-name="Groupe 121" transform="translate(0 0.005)" clip-path="url(#clip-path)">
      <path id="Tracé_867" data-name="Tracé 867" d="M340.083,549.95a2.071,2.071,0,0,1-1.989-1.856,1.976,1.976,0,1,1,3.908-.511,2.186,2.186,0,0,1-.369,1.544,1.869,1.869,0,0,1-1.55.823m-.07-3.45a1.1,1.1,0,0,0-.139.009,1.349,1.349,0,0,0,.348,2.659,1.125,1.125,0,0,0,.778-.485,1.409,1.409,0,0,0,.235-1,1.3,1.3,0,0,0-1.222-1.184m8.051,3.046a2.261,2.261,0,1,1,2.262-2.262,2.265,2.265,0,0,1-2.262,2.262m0-3.749a1.488,1.488,0,1,0,1.488,1.487,1.49,1.49,0,0,0-1.488-1.487m7.4,1.381a1.965,1.965,0,0,1-1.723-2.014,2.428,2.428,0,0,1,.371-1.478,1.468,1.468,0,0,1,2.447-.143,2.543,2.543,0,0,1,.17,2.9,1.548,1.548,0,0,1-1.185.73c-.026,0-.053,0-.08,0m-.088-3.452h-.035a.775.775,0,0,0-.584.385,1.679,1.679,0,0,0-.245,1.006,1.242,1.242,0,0,0,.986,1.285.774.774,0,0,0,.585-.387,1.765,1.765,0,0,0-.116-1.975.793.793,0,0,0-.591-.316m-.057-.385h0Zm-11.378-19.876a.814.814,0,0,1-.738-.367,4.143,4.143,0,0,1-.553-2.629,1.018,1.018,0,0,1,.537-.654.947.947,0,0,1,.788-.023c.707.292,1.172,1.387,1.5,2.307l.047.133c.137.343-.116.7-.695.994a2.04,2.04,0,0,1-.887.239m-.42-2.953a.254.254,0,0,0-.129.179,3.485,3.485,0,0,0,.473,2.006,1.5,1.5,0,0,0,.886-.328l0-.011c-.484-1.366-.847-1.76-1.065-1.851a.178.178,0,0,0-.16.005M344.8,522.5a.1.1,0,0,0,.006.016Zm3.5-1.368a.813.813,0,0,1-.737-.367,4.143,4.143,0,0,1-.553-2.628,1.023,1.023,0,0,1,.537-.655.942.942,0,0,1,.789-.023c.707.292,1.172,1.386,1.5,2.307l.047.133c.137.343-.116.7-.695.994a2.041,2.041,0,0,1-.887.239m-.333-2.975a.194.194,0,0,0-.086.023.251.251,0,0,0-.13.178,3.489,3.489,0,0,0,.472,2.006,1.505,1.505,0,0,0,.886-.328l0-.011c-.484-1.367-.847-1.761-1.066-1.852a.19.19,0,0,0-.073-.017m1.191,2.013.006.016Zm-1.444-2.339h0Zm21.588-7.112a.387.387,0,0,1-.276-.658l1.917-1.946a.387.387,0,0,1,.552.543l-1.917,1.946a.387.387,0,0,1-.276.115" transform="translate(-323.154 -485.585)" fill="#e1dfcb" stroke="#e1dfcb" stroke-width="0.6"/>
      <path id="Tracé_868" data-name="Tracé 868" d="M14.763,458.016a.155.155,0,0,1-.144-.1c-.3-.741-.638-1.5-1.044-2.327a55.683,55.683,0,0,1-5.1-13.791c-.164-.633-.34-1.312-.534-2.051a48.855,48.855,0,0,0-3.447-7.269A88.581,88.581,0,0,1,.46,424.217c-.758-1.948-.571-3.442.5-4s2.616.13,3.584,1.6c.361.547.925,1.392,1.58,2.373,1.788,2.681,4.164,6.243,5.073,7.7a25.085,25.085,0,0,1,.587-4.72,2.5,2.5,0,0,1,1.732-1.7,3.161,3.161,0,0,1,2.682.222c.943.745,6.144,9.367,7.007,11.855a1.926,1.926,0,0,1-.687,2.42,3.038,3.038,0,0,1-3.582-.446c-1.726-1.619-5.885-7.649-5.973-9.672a.155.155,0,0,1,.309-.013c.085,1.962,4.177,7.867,5.875,9.46a2.721,2.721,0,0,0,3.2.412,1.619,1.619,0,0,0,.563-2.059C22,435.028,16.772,426.534,16,425.927a2.87,2.87,0,0,0-2.393-.171,2.2,2.2,0,0,0-1.53,1.493,27.984,27.984,0,0,0-.594,5.164.155.155,0,0,1-.116.147.158.158,0,0,1-.172-.072c-.564-.977-3.321-5.11-5.333-8.127-.655-.981-1.218-1.827-1.58-2.374-1-1.518-2.388-1.9-3.184-1.49-.707.366-1.171,1.506-.353,3.609a88.518,88.518,0,0,0,4.019,8.23,48.786,48.786,0,0,1,3.472,7.335c.194.739.37,1.419.534,2.052a55.469,55.469,0,0,0,5.08,13.732c.409.832.754,1.6,1.053,2.35a.155.155,0,0,1-.086.2.161.161,0,0,1-.057.011" transform="translate(0 -401.493)" fill="#e1dfcb" stroke="#e1dfcb" stroke-width="0.6"/>
      <path id="Tracé_869" data-name="Tracé 869" d="M398.467,488.282a2.442,2.442,0,0,1-1.319-.426.154.154,0,1,1,.167-.26,1.739,1.739,0,0,0,2.1.042,2.591,2.591,0,0,0,.451-2.978l-.069-.185c-3.416-9.09-4.7-11.128-5.167-11.533a1.918,1.918,0,0,0-1.659-.36,3.89,3.89,0,0,0-2.534,1.772.155.155,0,1,1-.275-.142,4.228,4.228,0,0,1,2.751-1.935,2.191,2.191,0,0,1,1.92.432c1.075.939,3.45,6.857,5.254,11.656l.069.186a2.888,2.888,0,0,1-.547,3.327,1.792,1.792,0,0,1-1.142.4" transform="translate(-372.925 -451.383)" fill="#e1dfcb" stroke="#e1dfcb" stroke-width="0.6"/>
      <path id="Tracé_870" data-name="Tracé 870" d="M494.035,53.46h-.01a.153.153,0,0,1-.144-.164,10.886,10.886,0,0,1,1.757-5.412,21.246,21.246,0,0,0,2.424-6.274,33.01,33.01,0,0,1,1.421-4.42c1.6-3.755,5.618-8.767,7.412-10.615l.473-.485c1.437-1.47,3.067-3.136,2.964-4.072a.634.634,0,0,0-.315-.477c-2.5-1.625-7.148-.246-11.9,6.5-1.261,1.789-2.42,2-3.166,1.861-1.351-.248-2.559-1.833-3.151-4.139-.389-1.515-1.167-5.172-1.99-9.043-1.114-5.237-2.376-11.171-3.037-13.525C486.152.98,484.9.162,484,.336c-.774.15-1.592,1.112-1.349,3.331.637,5.816,1.558,11.325,2.3,15.752.228,1.361.435,2.6.608,3.7a.154.154,0,0,1-.129.177.156.156,0,0,1-.177-.128c-.172-1.094-.381-2.336-.607-3.7-.742-4.431-1.665-9.945-2.3-15.77-.266-2.427.694-3.492,1.6-3.668,1.042-.2,2.453.677,3.128,3.075.664,2.363,1.927,8.3,3.041,13.544.823,3.868,1.6,7.521,1.988,9.031.561,2.187,1.675,3.686,2.907,3.911.945.174,1.935-.426,2.856-1.735,4.869-6.909,9.7-8.283,12.321-6.577a.938.938,0,0,1,.453.7c.12,1.082-1.492,2.73-3.05,4.323l-.472.484a44.74,44.74,0,0,0-7.349,10.52,32.692,32.692,0,0,0-1.406,4.38,21.817,21.817,0,0,1-2.463,6.36,10.6,10.6,0,0,0-1.709,5.265.155.155,0,0,1-.154.145" transform="translate(-461.018 -0.005)" fill="#e1dfcb" stroke="#e1dfcb" stroke-width="0.6"/>
      <path id="Tracé_871" data-name="Tracé 871" d="M567.132,908.524h0a6.34,6.34,0,0,1-5.4-2.863c-.9-1.536-1.444-4.333,1.106-8.928a.155.155,0,1,1,.27.151c-2.479,4.467-1.972,7.154-1.11,8.621a6.026,6.026,0,0,0,5.134,2.709.155.155,0,1,1,0,.31" transform="translate(-536.223 -857.082)" fill="#e1dfcb" stroke="#e1dfcb" stroke-width="0.6"/>
      <path id="Tracé_872" data-name="Tracé 872" d="M198.405,726.28a.154.154,0,0,1-.153-.136c-.009-.074-.18-1.819,2.918-3.267a.154.154,0,1,1,.131.28c-2.877,1.345-2.744,2.936-2.742,2.952a.155.155,0,0,1-.136.17h-.018" transform="translate(-189.498 -690.96)" fill="#e1dfcb" stroke="#e1dfcb" stroke-width="0.6"/>
      <path id="Tracé_873" data-name="Tracé 873" d="M569.387,550.76a.155.155,0,0,1-.05-.3c.1-.033,2.472-.832,3.71-.324a.154.154,0,0,1,.085.2.152.152,0,0,1-.2.085c-1.134-.462-3.469.323-3.492.331a.162.162,0,0,1-.05.008" transform="translate(-544.11 -525.695)" fill="#e1dfcb" stroke="#e1dfcb" stroke-width="0.6"/>
    </g>
  </g>
</svg>
