<svg xmlns="http://www.w3.org/2000/svg" width="491.094" height="17.823" viewBox="0 0 491.094 17.823">
  <g id="Groupe_245" data-name="Groupe 245" transform="translate(0 0.001)">
    <rect id="Rectangle_1955" data-name="Rectangle 1955" width="17.82" height="17.82" transform="translate(0 -0.001)" fill="#044029"/>
    <path id="Tracé_8341" data-name="Tracé 8341" d="M64.517,17.625l.192.192h1.685l-1.035-1.036Z" fill="#9d4d4d"/>
    <path id="Tracé_8342" data-name="Tracé 8342" d="M68.735,13.408l-.073-.073,4.484,4.485h1.687l-5.254-5.255Z" fill="#9d4d4d"/>
    <path id="Tracé_8343" data-name="Tracé 8343" d="M73.725,8.272l.073.073-.843.843,3.98,3.98V11.482Z" fill="#9d4d4d"/>
    <path id="Tracé_8344" data-name="Tracé 8344" d="M67.468,14.674l-.842.842,2.3,2.3h1.688L67.395,14.6Z" fill="#9d4d4d"/>
    <path id="Tracé_8345" data-name="Tracé 8345" d="M70.845,11.3l-.072-.072Zm.843-.842-.843.842,6.092,6.092V15.7l-5.322-5.32Z" fill="#9d4d4d"/>
    <path id="Tracé_8346" data-name="Tracé 8346" d="M75.065,7.078l1.871,1.871V7.262L75.909,6.235Z" fill="#9d4d4d"/>
    <rect id="Rectangle_1956" data-name="Rectangle 1956" width="1.193" height="0.104" transform="matrix(0.702, -0.712, 0.712, 0.702, 64.445, 17.557)" fill="#fff"/>
    <rect id="Rectangle_1957" data-name="Rectangle 1957" width="1.193" height="0.104" transform="translate(68.662 13.335) rotate(-44.999)" fill="#fff"/>
    <rect id="Rectangle_1958" data-name="Rectangle 1958" width="1.193" height="0.104" transform="translate(72.882 9.116) rotate(-44.999)" fill="#fff"/>
    <rect id="Rectangle_1959" data-name="Rectangle 1959" width="1.193" height="0.105" transform="translate(66.552 15.445) rotate(-44.999)" fill="#fff"/>
    <rect id="Rectangle_1960" data-name="Rectangle 1960" width="1.193" height="0.103" transform="translate(70.772 11.225) rotate(-44.999)" fill="#fff"/>
    <rect id="Rectangle_1961" data-name="Rectangle 1961" width="1.193" height="0.104" transform="translate(74.992 7.006) rotate(-44.999)" fill="#fff"/>
    <path id="Tracé_8347" data-name="Tracé 8347" d="M65.259,16.683l-.046-.046Z" fill="#1e2222"/>
    <path id="Tracé_8348" data-name="Tracé 8348" d="M68.662,13.335l-.023-.024Z" fill="#1e2222"/>
    <path id="Tracé_8349" data-name="Tracé 8349" d="M73.725,8.272l-.065-.065Z" fill="#1e2222"/>
    <path id="Tracé_8350" data-name="Tracé 8350" d="M67.4,14.6l-.073-.074Z" fill="#1e2222"/>
    <path id="Tracé_8351" data-name="Tracé 8351" d="M71.616,10.382l-.074-.074Z" fill="#1e2222"/>
    <path id="Tracé_8352" data-name="Tracé 8352" d="M70.772,11.226l-.075-.075Z" fill="#1e2222"/>
    <path id="Tracé_8353" data-name="Tracé 8353" d="M39.946,0,39.2.751,56.267,17.82h1.687L40.134,0Z" fill="#9d4d4d"/>
    <path id="Tracé_8354" data-name="Tracé 8354" d="M46.888,0,64.443,17.554l.844-.843-.027-.027-.047-.047L48.575,0Z" fill="#9d4d4d"/>
    <path id="Tracé_8355" data-name="Tracé 8355" d="M55.327,0,68.638,13.311l.023.024.845-.843L57.014,0Z" fill="#9d4d4d"/>
    <path id="Tracé_8356" data-name="Tracé 8356" d="M63.766,0l9.116,9.116.843-.844-.064-.065L65.453,0Z" fill="#9d4d4d"/>
    <path id="Tracé_8357" data-name="Tracé 8357" d="M72.206,0l4.731,4.731V3.044L73.892,0Z" fill="#9d4d4d"/>
    <path id="Tracé_8358" data-name="Tracé 8358" d="M42.668,0l17.82,17.82h1.687L44.358,0Z" fill="#9d4d4d"/>
    <path id="Tracé_8359" data-name="Tracé 8359" d="M51.107,0,66.551,15.445l.843-.844-.073-.074L52.794,0Z" fill="#9d4d4d"/>
    <path id="Tracé_8360" data-name="Tracé 8360" d="M59.546,0,70.7,11.151l.075.075.842-.844-.074-.073L61.233,0Z" fill="#9d4d4d"/>
    <path id="Tracé_8361" data-name="Tracé 8361" d="M67.982,0l6.932,6.933L74.987,7l.848-.843L69.672,0Z" fill="#9d4d4d"/>
    <path id="Tracé_8362" data-name="Tracé 8362" d="M76.425,0l.511.511V0Z" fill="#9d4d4d"/>
    <path id="Tracé_8363" data-name="Tracé 8363" d="M39.8,0l-.676.678L39.2.751,39.947,0Z" fill="#fff"/>
    <path id="Tracé_8364" data-name="Tracé 8364" d="M23.163,16.787l-.074-.074Z" fill="#1e2222"/>
    <path id="Tracé_8365" data-name="Tracé 8365" d="M22.319,17.625l.192.192H24.2l-1.036-1.036Z" fill="#9d4d4d"/>
    <path id="Tracé_8366" data-name="Tracé 8366" d="M26.539,13.408l4.412,4.412h1.687l-5.255-5.255Z" fill="#9d4d4d"/>
    <path id="Tracé_8367" data-name="Tracé 8367" d="M26.539,13.409l-.073-.073Z" fill="#1e2222"/>
    <path id="Tracé_8368" data-name="Tracé 8368" d="M30.757,9.189l8.632,8.631h1.686L31.6,8.347Z" fill="#9d4d4d"/>
    <path id="Tracé_8369" data-name="Tracé 8369" d="M35.822,4.126l-.843.843,12.849,12.85h1.688L35.748,4.052Z" fill="#9d4d4d"/>
    <path id="Tracé_8370" data-name="Tracé 8370" d="M24.428,15.518h0l-.072-.072Zm0,0,2.3,2.3h1.686l-3.144-3.145Z" fill="#9d4d4d"/>
    <path id="Tracé_8371" data-name="Tracé 8371" d="M28.648,11.3l-.047-.046,6.568,6.568h1.687l-7.364-7.364Z" fill="#9d4d4d"/>
    <path id="Tracé_8372" data-name="Tracé 8372" d="M32.868,7.078,43.606,17.819h1.687L33.712,6.235Z" fill="#9d4d4d"/>
    <path id="Tracé_8373" data-name="Tracé 8373" d="M37.088,2.86l14.96,14.96h1.686l-15.8-15.8Z" fill="#9d4d4d"/>
    <rect id="Rectangle_1962" data-name="Rectangle 1962" width="1.193" height="0.103" transform="translate(22.246 17.555) rotate(-45)" fill="#fff"/>
    <rect id="Rectangle_1963" data-name="Rectangle 1963" width="1.193" height="0.103" transform="matrix(0.707, -0.707, 0.707, 0.707, 26.465, 13.335)" fill="#fff"/>
    <rect id="Rectangle_1964" data-name="Rectangle 1964" width="1.193" height="0.104" transform="translate(30.683 9.113) rotate(-44.61)" fill="#fff"/>
    <path id="Tracé_8374" data-name="Tracé 8374" d="M34.9,4.9l.075.074.843-.844-.074-.073Z" fill="#fff"/>
    <rect id="Rectangle_1965" data-name="Rectangle 1965" width="1.193" height="0.104" transform="matrix(0.712, -0.702, 0.702, 0.712, 24.353, 15.443)" fill="#fff"/>
    <path id="Tracé_8375" data-name="Tracé 8375" d="M28.571,11.23l.027.026.047.047.843-.843-.072-.072Z" fill="#fff"/>
    <path id="Tracé_8376" data-name="Tracé 8376" d="M32.8,7.006l.074.073.843-.843-.074-.073Z" fill="#fff"/>
    <path id="Tracé_8377" data-name="Tracé 8377" d="M37.014,2.785l.073.074.846-.842-.073-.074Z" fill="#fff"/>
    <path id="Tracé_8378" data-name="Tracé 8378" d="M38.448,0l.676.678L39.8,0Z" fill="#9d4d4d"/>
    <path id="Tracé_8379" data-name="Tracé 8379" d="M23.089,16.711l-.072-.073Z" fill="#1e2222"/>
    <path id="Tracé_8380" data-name="Tracé 8380" d="M26.466,13.334l-.074-.074Z" fill="#1e2222"/>
    <path id="Tracé_8381" data-name="Tracé 8381" d="M30.656,9.086l-.044-.044Z" fill="#1e2222"/>
    <path id="Tracé_8382" data-name="Tracé 8382" d="M35.749,4.052l-.073-.074Z" fill="#1e2222"/>
    <path id="Tracé_8383" data-name="Tracé 8383" d="M24.355,15.446l-.073-.074Z" fill="#1e2222"/>
    <path id="Tracé_8384" data-name="Tracé 8384" d="M.063,3.811,14.071,17.819h1.693L.063,2.123Z" fill="#9d4d4d"/>
    <path id="Tracé_8385" data-name="Tracé 8385" d="M4.691,0,22.247,17.555l.843-.844-.072-.073L6.379,0Z" fill="#9d4d4d"/>
    <path id="Tracé_8386" data-name="Tracé 8386" d="M13.13,0,26.392,13.262l.072.073.845-.844L14.817,0Z" fill="#9d4d4d"/>
    <path id="Tracé_8387" data-name="Tracé 8387" d="M21.572,0l9.041,9.043.043.044.029.029.844-.844L23.257,0Z" fill="#9d4d4d"/>
    <path id="Tracé_8388" data-name="Tracé 8388" d="M30.008,0l4.9,4.9.84-.846-.073-.074L31.7,0Z" fill="#9d4d4d"/>
    <path id="Tracé_8389" data-name="Tracé 8389" d="M.472,0,18.291,17.82h1.688L2.159,0Z" fill="#9d4d4d"/>
    <path id="Tracé_8390" data-name="Tracé 8390" d="M8.91,0,24.283,15.372l.073.074L25.2,14.6,10.6,0Z" fill="#9d4d4d"/>
    <path id="Tracé_8391" data-name="Tracé 8391" d="M17.35,0,28.576,11.226l.843-.844L19.035,0Z" fill="#9d4d4d"/>
    <path id="Tracé_8392" data-name="Tracé 8392" d="M25.789,0l6.933,6.934.073.072.844-.844L27.476,0Z" fill="#9d4d4d"/>
    <path id="Tracé_8393" data-name="Tracé 8393" d="M34.229,0l2.786,2.786.844-.843L35.916,0Z" fill="#9d4d4d"/>
    <path id="Tracé_8394" data-name="Tracé 8394" d="M.063,12.251,5.632,17.82H7.319L.063,10.564Z" fill="#9d4d4d"/>
    <path id="Tracé_8395" data-name="Tracé 8395" d="M.063,16.472l1.35,1.348H3.1L.063,14.784Z" fill="#9d4d4d"/>
    <path id="Tracé_8396" data-name="Tracé 8396" d="M.063,8.036,9.851,17.82h1.687L.063,6.344Z" fill="#9d4d4d"/>
    <path id="Tracé_8397" data-name="Tracé 8397" d="M140.337,17.625l.192.192h1.686l-1.036-1.036Z" fill="#9d4d4d"/>
    <path id="Tracé_8398" data-name="Tracé 8398" d="M144.555,13.408h0l-.072-.072Zm0,0,4.411,4.412h1.687L145.4,12.565Z" fill="#9d4d4d"/>
    <path id="Tracé_8399" data-name="Tracé 8399" d="M149.545,8.272l.073.073-.843.843,3.98,3.98V11.482Z" fill="#9d4d4d"/>
    <path id="Tracé_8400" data-name="Tracé 8400" d="M143.287,14.674l-.842.842,2.3,2.3h1.688L143.215,14.6Z" fill="#9d4d4d"/>
    <path id="Tracé_8401" data-name="Tracé 8401" d="M146.665,11.3l-.073-.072,6.164,6.164V15.7l-5.248-5.247Zm.843-.842h0l-.073-.073Z" fill="#9d4d4d"/>
    <path id="Tracé_8402" data-name="Tracé 8402" d="M150.885,7.078l1.871,1.871V7.262l-1.027-1.027Z" fill="#9d4d4d"/>
    <rect id="Rectangle_1966" data-name="Rectangle 1966" width="1.193" height="0.104" transform="matrix(0.702, -0.712, 0.712, 0.702, 140.265, 17.557)" fill="#fff"/>
    <path id="Tracé_8403" data-name="Tracé 8403" d="M144.482,13.335l.073.074.843-.844-.074-.073Z" fill="#fff"/>
    <rect id="Rectangle_1967" data-name="Rectangle 1967" width="1.193" height="0.104" transform="matrix(0.707, -0.707, 0.707, 0.707, 148.702, 9.116)" fill="#fff"/>
    <rect id="Rectangle_1968" data-name="Rectangle 1968" width="1.192" height="0.105" transform="translate(142.372 15.445) rotate(-44.996)" fill="#fff"/>
    <rect id="Rectangle_1969" data-name="Rectangle 1969" width="1.193" height="0.103" transform="matrix(0.702, -0.712, 0.712, 0.702, 146.595, 11.228)" fill="#fff"/>
    <path id="Tracé_8404" data-name="Tracé 8404" d="M150.811,7.006l.074.073.844-.843-.074-.073Z" fill="#fff"/>
    <path id="Tracé_8405" data-name="Tracé 8405" d="M141.079,16.683l-.046-.046Z" fill="#1e2222"/>
    <path id="Tracé_8406" data-name="Tracé 8406" d="M144.482,13.335l-.025-.024Z" fill="#1e2222"/>
    <path id="Tracé_8407" data-name="Tracé 8407" d="M149.545,8.272l-.066-.065Z" fill="#1e2222"/>
    <path id="Tracé_8408" data-name="Tracé 8408" d="M143.216,14.6l-.074-.074Z" fill="#1e2222"/>
    <path id="Tracé_8409" data-name="Tracé 8409" d="M147.435,10.382l-.074-.074Z" fill="#1e2222"/>
    <path id="Tracé_8410" data-name="Tracé 8410" d="M146.592,11.226l-.075-.075Z" fill="#1e2222"/>
    <path id="Tracé_8411" data-name="Tracé 8411" d="M115.767,0l-.751.751L132.087,17.82h1.687L115.954,0Z" fill="#9d4d4d"/>
    <path id="Tracé_8412" data-name="Tracé 8412" d="M122.708,0l17.556,17.554.844-.843-.028-.027-.047-.047L124.395,0Z" fill="#9d4d4d"/>
    <path id="Tracé_8413" data-name="Tracé 8413" d="M131.147,0l13.31,13.311.025.024.844-.843L132.834,0Z" fill="#9d4d4d"/>
    <path id="Tracé_8414" data-name="Tracé 8414" d="M139.586,0,148.7,9.116l.843-.844-.065-.065L141.273,0Z" fill="#9d4d4d"/>
    <path id="Tracé_8415" data-name="Tracé 8415" d="M148.026,0l4.731,4.731V3.044L149.713,0Z" fill="#9d4d4d"/>
    <path id="Tracé_8416" data-name="Tracé 8416" d="M118.488,0l17.82,17.82h1.687L120.178,0Z" fill="#9d4d4d"/>
    <path id="Tracé_8417" data-name="Tracé 8417" d="M126.927,0l15.445,15.445.843-.844-.074-.074L128.614,0Z" fill="#9d4d4d"/>
    <path id="Tracé_8418" data-name="Tracé 8418" d="M135.365,0l11.152,11.151.075.075.842-.844-.074-.073L137.052,0Z" fill="#9d4d4d"/>
    <path id="Tracé_8419" data-name="Tracé 8419" d="M143.8,0l6.932,6.933.073.072.848-.843L145.493,0Z" fill="#9d4d4d"/>
    <path id="Tracé_8420" data-name="Tracé 8420" d="M152.245,0l.511.511V0Z" fill="#9d4d4d"/>
    <path id="Tracé_8421" data-name="Tracé 8421" d="M115.619,0l-.676.678.073.073L115.767,0Z" fill="#fff"/>
    <path id="Tracé_8422" data-name="Tracé 8422" d="M98.983,16.787l-.073-.074Z" fill="#1e2222"/>
    <path id="Tracé_8423" data-name="Tracé 8423" d="M98.139,17.625l.192.192h1.688l-1.036-1.036Z" fill="#9d4d4d"/>
    <path id="Tracé_8424" data-name="Tracé 8424" d="M102.359,13.408l4.412,4.412h1.686L103.2,12.565Z" fill="#9d4d4d"/>
    <path id="Tracé_8425" data-name="Tracé 8425" d="M102.359,13.409l-.073-.073Z" fill="#1e2222"/>
    <path id="Tracé_8426" data-name="Tracé 8426" d="M106.577,9.189l8.63,8.631H116.9l-9.474-9.473Z" fill="#9d4d4d"/>
    <path id="Tracé_8427" data-name="Tracé 8427" d="M111.641,4.126l-.843.843,12.85,12.85h1.687L111.567,4.052Z" fill="#9d4d4d"/>
    <path id="Tracé_8428" data-name="Tracé 8428" d="M100.248,15.518h0l-.072-.072Zm0,0,2.3,2.3h1.687l-3.145-3.145Z" fill="#9d4d4d"/>
    <path id="Tracé_8429" data-name="Tracé 8429" d="M104.467,11.3l-.047-.046,6.568,6.568h1.687l-7.364-7.364Z" fill="#9d4d4d"/>
    <path id="Tracé_8430" data-name="Tracé 8430" d="M108.688,7.078l10.738,10.741h1.687L109.532,6.235Z" fill="#9d4d4d"/>
    <path id="Tracé_8431" data-name="Tracé 8431" d="M112.908,2.86l14.96,14.96h1.687l-15.8-15.8Z" fill="#9d4d4d"/>
    <rect id="Rectangle_1970" data-name="Rectangle 1970" width="1.193" height="0.103" transform="translate(98.066 17.555) rotate(-44.999)" fill="#fff"/>
    <rect id="Rectangle_1971" data-name="Rectangle 1971" width="1.192" height="0.103" transform="translate(102.285 13.335) rotate(-44.999)" fill="#fff"/>
    <path id="Tracé_8432" data-name="Tracé 8432" d="M106.505,9.116l.073.074.844-.844-.074-.073Z" fill="#fff"/>
    <path id="Tracé_8433" data-name="Tracé 8433" d="M110.723,4.9l.075.074.843-.844-.074-.073Z" fill="#fff"/>
    <rect id="Rectangle_1972" data-name="Rectangle 1972" width="1.193" height="0.104" transform="matrix(0.712, -0.702, 0.702, 0.712, 100.173, 15.443)" fill="#fff"/>
    <path id="Tracé_8434" data-name="Tracé 8434" d="M104.392,11.23l.026.026.047.047.844-.843-.073-.072Z" fill="#fff"/>
    <rect id="Rectangle_1973" data-name="Rectangle 1973" width="1.193" height="0.104" transform="translate(108.618 7.009) rotate(-45.388)" fill="#fff"/>
    <path id="Tracé_8435" data-name="Tracé 8435" d="M112.834,2.785l.074.074.845-.842-.073-.074Z" fill="#fff"/>
    <path id="Tracé_8436" data-name="Tracé 8436" d="M114.268,0l.676.678L115.621,0Z" fill="#9d4d4d"/>
    <path id="Tracé_8437" data-name="Tracé 8437" d="M98.909,16.711l-.073-.073Z" fill="#1e2222"/>
    <path id="Tracé_8438" data-name="Tracé 8438" d="M102.286,13.334l-.074-.074Z" fill="#1e2222"/>
    <path id="Tracé_8439" data-name="Tracé 8439" d="M106.475,9.086l-.044-.044Z" fill="#1e2222"/>
    <path id="Tracé_8440" data-name="Tracé 8440" d="M111.568,4.052l-.073-.074Z" fill="#1e2222"/>
    <path id="Tracé_8441" data-name="Tracé 8441" d="M100.174,15.446l-.073-.074Z" fill="#1e2222"/>
    <path id="Tracé_8442" data-name="Tracé 8442" d="M80.51,0,98.066,17.555l.844-.844-.073-.073L82.2,0Z" fill="#9d4d4d"/>
    <path id="Tracé_8443" data-name="Tracé 8443" d="M88.95,0l13.261,13.262.074.073.844-.844L90.637,0Z" fill="#9d4d4d"/>
    <path id="Tracé_8444" data-name="Tracé 8444" d="M97.392,0l9.042,9.043.042.044.029.029.844-.844L99.077,0Z" fill="#9d4d4d"/>
    <path id="Tracé_8445" data-name="Tracé 8445" d="M105.827,0l4.9,4.9.84-.846-.073-.074L107.515,0Z" fill="#9d4d4d"/>
    <path id="Tracé_8446" data-name="Tracé 8446" d="M76.29,0,94.111,17.82H95.8L77.978,0Z" fill="#9d4d4d"/>
    <path id="Tracé_8447" data-name="Tracé 8447" d="M84.73,0,100.1,15.372l.073.074.844-.844L86.418,0Z" fill="#9d4d4d"/>
    <path id="Tracé_8448" data-name="Tracé 8448" d="M93.17,0,104.4,11.226l.843-.844L94.855,0Z" fill="#9d4d4d"/>
    <path id="Tracé_8449" data-name="Tracé 8449" d="M101.609,0l6.933,6.934.073.072.844-.844L103.3,0Z" fill="#9d4d4d"/>
    <path id="Tracé_8450" data-name="Tracé 8450" d="M110.049,0l2.786,2.786.844-.843L111.736,0Z" fill="#9d4d4d"/>
    <rect id="Rectangle_1974" data-name="Rectangle 1974" width="17.819" height="17.82" transform="translate(76.937 -0.001)" fill="#044029"/>
    <rect id="Rectangle_1975" data-name="Rectangle 1975" width="17.82" height="17.82" transform="translate(152.757 -0.001)" fill="#044029"/>
    <path id="Tracé_8451" data-name="Tracé 8451" d="M216.275,17.625l.192.192h1.686l-1.036-1.036Z" fill="#9d4d4d"/>
    <path id="Tracé_8452" data-name="Tracé 8452" d="M220.492,13.408h0l-.072-.072Zm0,0L224.9,17.82h1.687l-5.254-5.255Z" fill="#9d4d4d"/>
    <path id="Tracé_8453" data-name="Tracé 8453" d="M225.482,8.272l.073.073-.843.843,3.98,3.98V11.482Z" fill="#9d4d4d"/>
    <path id="Tracé_8454" data-name="Tracé 8454" d="M219.225,14.674l-.842.842,2.3,2.3h1.688L219.153,14.6Z" fill="#9d4d4d"/>
    <path id="Tracé_8455" data-name="Tracé 8455" d="M222.6,11.3l-.073-.072,6.164,6.164V15.7l-5.248-5.247Zm.843-.842h0l-.073-.073Z" fill="#9d4d4d"/>
    <path id="Tracé_8456" data-name="Tracé 8456" d="M226.822,7.078l1.871,1.871V7.262l-1.027-1.027Z" fill="#9d4d4d"/>
    <rect id="Rectangle_1976" data-name="Rectangle 1976" width="1.193" height="0.104" transform="matrix(0.702, -0.712, 0.712, 0.702, 216.202, 17.557)" fill="#fff"/>
    <path id="Tracé_8457" data-name="Tracé 8457" d="M220.42,13.335l.073.074.843-.844-.074-.073Z" fill="#fff"/>
    <rect id="Rectangle_1977" data-name="Rectangle 1977" width="1.193" height="0.104" transform="matrix(0.707, -0.707, 0.707, 0.707, 224.639, 9.116)" fill="#fff"/>
    <rect id="Rectangle_1978" data-name="Rectangle 1978" width="1.192" height="0.105" transform="translate(218.309 15.445) rotate(-44.996)" fill="#fff"/>
    <rect id="Rectangle_1979" data-name="Rectangle 1979" width="1.193" height="0.103" transform="matrix(0.702, -0.712, 0.712, 0.702, 222.532, 11.228)" fill="#fff"/>
    <path id="Tracé_8458" data-name="Tracé 8458" d="M226.749,7.006l.074.073.844-.843-.074-.073Z" fill="#fff"/>
    <path id="Tracé_8459" data-name="Tracé 8459" d="M217.016,16.683l-.046-.046Z" fill="#1e2222"/>
    <path id="Tracé_8460" data-name="Tracé 8460" d="M220.42,13.335l-.025-.024Z" fill="#1e2222"/>
    <path id="Tracé_8461" data-name="Tracé 8461" d="M225.482,8.272l-.066-.065Z" fill="#1e2222"/>
    <path id="Tracé_8462" data-name="Tracé 8462" d="M219.154,14.6l-.074-.074Z" fill="#1e2222"/>
    <path id="Tracé_8463" data-name="Tracé 8463" d="M223.373,10.382l-.074-.074Z" fill="#1e2222"/>
    <path id="Tracé_8464" data-name="Tracé 8464" d="M222.529,11.226l-.075-.075Z" fill="#1e2222"/>
    <path id="Tracé_8465" data-name="Tracé 8465" d="M191.7,0l-.751.751L208.024,17.82h1.687L191.891,0Z" fill="#9d4d4d"/>
    <path id="Tracé_8466" data-name="Tracé 8466" d="M198.645,0,216.2,17.554l.844-.843-.028-.027-.047-.047L200.332,0Z" fill="#9d4d4d"/>
    <path id="Tracé_8467" data-name="Tracé 8467" d="M207.085,0l13.31,13.311.025.024.844-.843L208.772,0Z" fill="#9d4d4d"/>
    <path id="Tracé_8468" data-name="Tracé 8468" d="M215.524,0l9.115,9.116.843-.844-.065-.065L217.211,0Z" fill="#9d4d4d"/>
    <path id="Tracé_8469" data-name="Tracé 8469" d="M223.963,0l4.731,4.731V3.044L225.65,0Z" fill="#9d4d4d"/>
    <path id="Tracé_8470" data-name="Tracé 8470" d="M194.425,0l17.82,17.82h1.687L196.115,0Z" fill="#9d4d4d"/>
    <path id="Tracé_8471" data-name="Tracé 8471" d="M202.865,0l15.445,15.445.843-.844-.074-.074L204.551,0Z" fill="#9d4d4d"/>
    <path id="Tracé_8472" data-name="Tracé 8472" d="M211.3,0l11.152,11.151.075.075.842-.844-.074-.073L212.99,0Z" fill="#9d4d4d"/>
    <path id="Tracé_8473" data-name="Tracé 8473" d="M219.74,0l6.932,6.933.073.072.848-.843L221.43,0Z" fill="#9d4d4d"/>
    <path id="Tracé_8474" data-name="Tracé 8474" d="M228.182,0l.511.511V0Z" fill="#9d4d4d"/>
    <path id="Tracé_8475" data-name="Tracé 8475" d="M191.557,0l-.676.678.073.073L191.7,0Z" fill="#fff"/>
    <path id="Tracé_8476" data-name="Tracé 8476" d="M174.92,16.787l-.073-.074Z" fill="#1e2222"/>
    <path id="Tracé_8477" data-name="Tracé 8477" d="M174.076,17.625l.192.192h1.688l-1.036-1.036Z" fill="#9d4d4d"/>
    <path id="Tracé_8478" data-name="Tracé 8478" d="M178.3,13.408l4.412,4.412h1.686l-5.253-5.255Z" fill="#9d4d4d"/>
    <path id="Tracé_8479" data-name="Tracé 8479" d="M178.3,13.409l-.073-.073Z" fill="#1e2222"/>
    <path id="Tracé_8480" data-name="Tracé 8480" d="M182.515,9.189l8.63,8.631h1.688l-9.474-9.473Z" fill="#9d4d4d"/>
    <path id="Tracé_8481" data-name="Tracé 8481" d="M187.579,4.126l-.843.843,12.85,12.85h1.687L187.5,4.052Z" fill="#9d4d4d"/>
    <path id="Tracé_8482" data-name="Tracé 8482" d="M176.185,15.518h0l-.072-.072Zm0,0,2.3,2.3h1.687l-3.145-3.145Z" fill="#9d4d4d"/>
    <path id="Tracé_8483" data-name="Tracé 8483" d="M180.4,11.3l-.047-.046,6.568,6.568h1.687l-7.364-7.364Z" fill="#9d4d4d"/>
    <path id="Tracé_8484" data-name="Tracé 8484" d="M184.625,7.078l10.738,10.741h1.687L185.469,6.235Z" fill="#9d4d4d"/>
    <path id="Tracé_8485" data-name="Tracé 8485" d="M188.845,2.86l14.96,14.96h1.687l-15.8-15.8Z" fill="#9d4d4d"/>
    <rect id="Rectangle_1980" data-name="Rectangle 1980" width="1.193" height="0.103" transform="translate(174.003 17.555) rotate(-44.999)" fill="#fff"/>
    <rect id="Rectangle_1981" data-name="Rectangle 1981" width="1.192" height="0.103" transform="translate(178.222 13.335) rotate(-44.999)" fill="#fff"/>
    <path id="Tracé_8486" data-name="Tracé 8486" d="M182.443,9.116l.073.074.844-.844-.074-.073Z" fill="#fff"/>
    <path id="Tracé_8487" data-name="Tracé 8487" d="M186.661,4.9l.075.074.843-.844-.074-.073Z" fill="#fff"/>
    <rect id="Rectangle_1982" data-name="Rectangle 1982" width="1.193" height="0.104" transform="matrix(0.712, -0.702, 0.702, 0.712, 176.11, 15.443)" fill="#fff"/>
    <path id="Tracé_8488" data-name="Tracé 8488" d="M180.329,11.23l.026.026.047.047.844-.843-.073-.072Z" fill="#fff"/>
    <rect id="Rectangle_1983" data-name="Rectangle 1983" width="1.193" height="0.104" transform="translate(184.555 7.009) rotate(-45.385)" fill="#fff"/>
    <path id="Tracé_8489" data-name="Tracé 8489" d="M188.771,2.785l.074.074.845-.842-.073-.074Z" fill="#fff"/>
    <path id="Tracé_8490" data-name="Tracé 8490" d="M190.205,0l.676.678L191.558,0Z" fill="#9d4d4d"/>
    <path id="Tracé_8491" data-name="Tracé 8491" d="M174.847,16.711l-.073-.073Z" fill="#1e2222"/>
    <path id="Tracé_8492" data-name="Tracé 8492" d="M178.223,13.334l-.074-.074Z" fill="#1e2222"/>
    <path id="Tracé_8493" data-name="Tracé 8493" d="M182.413,9.086l-.044-.044Z" fill="#1e2222"/>
    <path id="Tracé_8494" data-name="Tracé 8494" d="M187.506,4.052l-.073-.074Z" fill="#1e2222"/>
    <path id="Tracé_8495" data-name="Tracé 8495" d="M176.112,15.446l-.073-.074Z" fill="#1e2222"/>
    <path id="Tracé_8496" data-name="Tracé 8496" d="M151.82,3.811l14.008,14.008h1.692l-15.7-15.7Z" fill="#9d4d4d"/>
    <path id="Tracé_8497" data-name="Tracé 8497" d="M156.448,0,174,17.555l.844-.844-.073-.073L158.136,0Z" fill="#9d4d4d"/>
    <path id="Tracé_8498" data-name="Tracé 8498" d="M164.887,0l13.262,13.262.073.073.845-.844L166.574,0Z" fill="#9d4d4d"/>
    <path id="Tracé_8499" data-name="Tracé 8499" d="M173.329,0l9.042,9.043.042.044.029.029.844-.844L175.014,0Z" fill="#9d4d4d"/>
    <path id="Tracé_8500" data-name="Tracé 8500" d="M181.765,0l4.9,4.9.84-.846-.073-.074L183.453,0Z" fill="#9d4d4d"/>
    <path id="Tracé_8501" data-name="Tracé 8501" d="M152.228,0l17.821,17.82h1.686L153.916,0Z" fill="#9d4d4d"/>
    <path id="Tracé_8502" data-name="Tracé 8502" d="M160.667,0,176.04,15.372l.073.074.844-.844L162.355,0Z" fill="#9d4d4d"/>
    <path id="Tracé_8503" data-name="Tracé 8503" d="M169.107,0l11.226,11.226.843-.844L170.792,0Z" fill="#9d4d4d"/>
    <path id="Tracé_8504" data-name="Tracé 8504" d="M177.547,0l6.933,6.934.073.072.844-.844L179.234,0Z" fill="#9d4d4d"/>
    <path id="Tracé_8505" data-name="Tracé 8505" d="M185.987,0l2.785,2.786.845-.843L187.674,0Z" fill="#9d4d4d"/>
    <path id="Tracé_8506" data-name="Tracé 8506" d="M151.82,12.251l5.569,5.569h1.687l-7.256-7.256Z" fill="#9d4d4d"/>
    <path id="Tracé_8507" data-name="Tracé 8507" d="M151.82,16.472l1.35,1.348h1.687l-3.037-3.036Z" fill="#9d4d4d"/>
    <path id="Tracé_8508" data-name="Tracé 8508" d="M151.82,8.036l9.788,9.784H163.3L151.82,6.344Z" fill="#9d4d4d"/>
    <path id="Tracé_8509" data-name="Tracé 8509" d="M292.094,17.625l.192.192h1.686l-1.035-1.036Z" fill="#9d4d4d"/>
    <path id="Tracé_8510" data-name="Tracé 8510" d="M296.312,13.408l-.074-.073,4.485,4.485h1.687l-5.255-5.255Z" fill="#9d4d4d"/>
    <path id="Tracé_8511" data-name="Tracé 8511" d="M301.3,8.272l.073.073-.843.843,3.98,3.98V11.482Z" fill="#9d4d4d"/>
    <path id="Tracé_8512" data-name="Tracé 8512" d="M295.045,14.674l-.843.842,2.3,2.3h1.687L294.972,14.6Z" fill="#9d4d4d"/>
    <path id="Tracé_8513" data-name="Tracé 8513" d="M298.422,11.3l-.073-.072,6.164,6.164V15.7l-5.248-5.247Zm.843-.842h0l-.073-.073Z" fill="#9d4d4d"/>
    <path id="Tracé_8514" data-name="Tracé 8514" d="M302.642,7.078l1.871,1.871V7.262l-1.027-1.027Z" fill="#9d4d4d"/>
    <rect id="Rectangle_1984" data-name="Rectangle 1984" width="1.193" height="0.104" transform="matrix(0.702, -0.712, 0.712, 0.702, 292.023, 17.557)" fill="#fff"/>
    <rect id="Rectangle_1985" data-name="Rectangle 1985" width="1.193" height="0.104" transform="matrix(0.707, -0.707, 0.707, 0.707, 296.239, 13.335)" fill="#fff"/>
    <rect id="Rectangle_1986" data-name="Rectangle 1986" width="1.193" height="0.104" transform="matrix(0.707, -0.707, 0.707, 0.707, 300.459, 9.116)" fill="#fff"/>
    <rect id="Rectangle_1987" data-name="Rectangle 1987" width="1.192" height="0.105" transform="matrix(0.707, -0.707, 0.707, 0.707, 294.129, 15.445)" fill="#fff"/>
    <rect id="Rectangle_1988" data-name="Rectangle 1988" width="1.193" height="0.103" transform="matrix(0.702, -0.712, 0.712, 0.702, 298.352, 11.228)" fill="#fff"/>
    <path id="Tracé_8515" data-name="Tracé 8515" d="M302.569,7.006l.074.073.843-.843-.074-.073Z" fill="#fff"/>
    <path id="Tracé_8516" data-name="Tracé 8516" d="M292.836,16.683l-.046-.046Z" fill="#1e2222"/>
    <path id="Tracé_8517" data-name="Tracé 8517" d="M296.24,13.335l-.025-.024Z" fill="#1e2222"/>
    <path id="Tracé_8518" data-name="Tracé 8518" d="M301.3,8.272l-.065-.065Z" fill="#1e2222"/>
    <path id="Tracé_8519" data-name="Tracé 8519" d="M294.973,14.6l-.073-.074Z" fill="#1e2222"/>
    <path id="Tracé_8520" data-name="Tracé 8520" d="M299.193,10.382l-.074-.074Z" fill="#1e2222"/>
    <path id="Tracé_8521" data-name="Tracé 8521" d="M298.349,11.226l-.074-.075Z" fill="#1e2222"/>
    <path id="Tracé_8522" data-name="Tracé 8522" d="M267.524,0l-.75.751L283.845,17.82h1.686L267.712,0Z" fill="#9d4d4d"/>
    <path id="Tracé_8523" data-name="Tracé 8523" d="M274.465,0l17.556,17.554.844-.843-.028-.027-.047-.047L276.152,0Z" fill="#9d4d4d"/>
    <path id="Tracé_8524" data-name="Tracé 8524" d="M282.9,0l13.311,13.311.024.024.844-.843L284.591,0Z" fill="#9d4d4d"/>
    <path id="Tracé_8525" data-name="Tracé 8525" d="M291.344,0l9.115,9.116.843-.844-.064-.065L293.03,0Z" fill="#9d4d4d"/>
    <path id="Tracé_8526" data-name="Tracé 8526" d="M299.784,0l4.73,4.731V3.044L301.47,0Z" fill="#9d4d4d"/>
    <path id="Tracé_8527" data-name="Tracé 8527" d="M270.245,0l17.82,17.82h1.688L271.935,0Z" fill="#9d4d4d"/>
    <path id="Tracé_8528" data-name="Tracé 8528" d="M278.684,0l15.445,15.445.843-.844-.073-.074L280.371,0Z" fill="#9d4d4d"/>
    <path id="Tracé_8529" data-name="Tracé 8529" d="M287.123,0l11.152,11.151.074.075.842-.844-.073-.073L288.81,0Z" fill="#9d4d4d"/>
    <path id="Tracé_8530" data-name="Tracé 8530" d="M295.559,0l6.932,6.933.073.072.849-.843L297.25,0Z" fill="#9d4d4d"/>
    <path id="Tracé_8531" data-name="Tracé 8531" d="M304,0l.511.511V0Z" fill="#9d4d4d"/>
    <path id="Tracé_8532" data-name="Tracé 8532" d="M267.377,0,266.7.678l.073.073.75-.751Z" fill="#fff"/>
    <path id="Tracé_8533" data-name="Tracé 8533" d="M250.74,16.787l-.073-.074Z" fill="#1e2222"/>
    <path id="Tracé_8534" data-name="Tracé 8534" d="M249.9,17.625l.192.192h1.688l-1.036-1.036Z" fill="#9d4d4d"/>
    <path id="Tracé_8535" data-name="Tracé 8535" d="M254.116,13.408l4.412,4.412h1.687l-5.254-5.255Z" fill="#9d4d4d"/>
    <path id="Tracé_8536" data-name="Tracé 8536" d="M254.116,13.409l-.073-.073Z" fill="#1e2222"/>
    <path id="Tracé_8537" data-name="Tracé 8537" d="M258.334,9.189l8.631,8.631h1.687l-9.474-9.473Z" fill="#9d4d4d"/>
    <path id="Tracé_8538" data-name="Tracé 8538" d="M263.4,4.126l-.844.843L275.4,17.819h1.689L263.325,4.052Z" fill="#9d4d4d"/>
    <path id="Tracé_8539" data-name="Tracé 8539" d="M252,15.519h0l-.072-.072Zm0,0,2.3,2.3h1.687l-3.145-3.144Z" fill="#9d4d4d"/>
    <path id="Tracé_8540" data-name="Tracé 8540" d="M256.225,11.3l-.047-.046,6.568,6.568h1.687l-7.365-7.364Z" fill="#9d4d4d"/>
    <path id="Tracé_8541" data-name="Tracé 8541" d="M260.445,7.078l10.739,10.741h1.686L261.289,6.235Z" fill="#9d4d4d"/>
    <path id="Tracé_8542" data-name="Tracé 8542" d="M264.665,2.86l14.961,14.96h1.686l-15.8-15.8Z" fill="#9d4d4d"/>
    <rect id="Rectangle_1989" data-name="Rectangle 1989" width="1.193" height="0.103" transform="translate(249.823 17.555) rotate(-44.999)" fill="#fff"/>
    <rect id="Rectangle_1990" data-name="Rectangle 1990" width="1.192" height="0.103" transform="translate(254.042 13.335) rotate(-44.999)" fill="#fff"/>
    <path id="Tracé_8543" data-name="Tracé 8543" d="M258.262,9.116l.073.074.844-.844-.074-.073Z" fill="#fff"/>
    <rect id="Rectangle_1991" data-name="Rectangle 1991" width="1.193" height="0.104" transform="matrix(0.707, -0.707, 0.707, 0.707, 262.482, 4.896)" fill="#fff"/>
    <rect id="Rectangle_1992" data-name="Rectangle 1992" width="1.193" height="0.104" transform="matrix(0.712, -0.702, 0.702, 0.712, 251.931, 15.443)" fill="#fff"/>
    <path id="Tracé_8544" data-name="Tracé 8544" d="M256.149,11.23l.026.026.047.047.844-.843-.073-.072Z" fill="#fff"/>
    <rect id="Rectangle_1993" data-name="Rectangle 1993" width="1.193" height="0.104" transform="translate(260.375 7.009) rotate(-45.38)" fill="#fff"/>
    <path id="Tracé_8545" data-name="Tracé 8545" d="M264.591,2.785l.074.074.845-.842-.073-.074Z" fill="#fff"/>
    <path id="Tracé_8546" data-name="Tracé 8546" d="M266.025,0l.677.678L267.379,0Z" fill="#9d4d4d"/>
    <path id="Tracé_8547" data-name="Tracé 8547" d="M250.666,16.711l-.074-.073Z" fill="#1e2222"/>
    <path id="Tracé_8548" data-name="Tracé 8548" d="M254.043,13.334l-.074-.074Z" fill="#1e2222"/>
    <path id="Tracé_8549" data-name="Tracé 8549" d="M258.233,9.086l-.044-.044Z" fill="#1e2222"/>
    <path id="Tracé_8550" data-name="Tracé 8550" d="M263.327,4.052l-.074-.074Z" fill="#1e2222"/>
    <path id="Tracé_8551" data-name="Tracé 8551" d="M251.932,15.446l-.074-.074Z" fill="#1e2222"/>
    <path id="Tracé_8552" data-name="Tracé 8552" d="M232.268,0l17.556,17.555.843-.844-.073-.073L233.955,0Z" fill="#9d4d4d"/>
    <path id="Tracé_8553" data-name="Tracé 8553" d="M240.707,0l13.261,13.262.074.073.844-.844L242.394,0Z" fill="#9d4d4d"/>
    <path id="Tracé_8554" data-name="Tracé 8554" d="M249.149,0l9.042,9.043.043.044.028.029.845-.844L250.834,0Z" fill="#9d4d4d"/>
    <path id="Tracé_8555" data-name="Tracé 8555" d="M257.585,0l4.9,4.9.84-.846-.074-.074L259.272,0Z" fill="#9d4d4d"/>
    <path id="Tracé_8556" data-name="Tracé 8556" d="M228.048,0l17.82,17.82h1.687L229.735,0Z" fill="#9d4d4d"/>
    <path id="Tracé_8557" data-name="Tracé 8557" d="M236.487,0,251.86,15.372l.074.074.843-.844L238.175,0Z" fill="#9d4d4d"/>
    <path id="Tracé_8558" data-name="Tracé 8558" d="M244.927,0l11.226,11.226.843-.844L246.612,0Z" fill="#9d4d4d"/>
    <path id="Tracé_8559" data-name="Tracé 8559" d="M253.366,0,260.3,6.934l.073.072.844-.844L255.054,0Z" fill="#9d4d4d"/>
    <path id="Tracé_8560" data-name="Tracé 8560" d="M261.806,0l2.785,2.786.845-.843L263.493,0Z" fill="#9d4d4d"/>
    <rect id="Rectangle_1994" data-name="Rectangle 1994" width="17.82" height="17.82" transform="translate(228.694 -0.001)" fill="#044029"/>
    <rect id="Rectangle_1995" data-name="Rectangle 1995" width="17.82" height="17.82" transform="translate(304.514 -0.001)" fill="#044029"/>
    <path id="Tracé_8561" data-name="Tracé 8561" d="M368.032,17.625l.192.192h1.686l-1.035-1.036Z" fill="#9d4d4d"/>
    <path id="Tracé_8562" data-name="Tracé 8562" d="M372.25,13.408l-.074-.073,4.485,4.485h1.686l-5.254-5.255Z" fill="#9d4d4d"/>
    <path id="Tracé_8563" data-name="Tracé 8563" d="M377.239,8.272l.073.073-.843.843,3.98,3.98V11.482Z" fill="#9d4d4d"/>
    <path id="Tracé_8564" data-name="Tracé 8564" d="M370.983,14.674l-.843.842,2.3,2.3h1.687L370.91,14.6Z" fill="#9d4d4d"/>
    <path id="Tracé_8565" data-name="Tracé 8565" d="M374.359,11.3l-.073-.072,6.163,6.164V15.7L375.2,10.455Zm.843-.842h0l-.073-.073Z" fill="#9d4d4d"/>
    <path id="Tracé_8566" data-name="Tracé 8566" d="M378.579,7.078l1.871,1.871V7.262l-1.026-1.027Z" fill="#9d4d4d"/>
    <rect id="Rectangle_1996" data-name="Rectangle 1996" width="1.193" height="0.104" transform="matrix(0.702, -0.712, 0.712, 0.702, 367.96, 17.557)" fill="#fff"/>
    <rect id="Rectangle_1997" data-name="Rectangle 1997" width="1.193" height="0.104" transform="matrix(0.707, -0.707, 0.707, 0.707, 372.176, 13.335)" fill="#fff"/>
    <rect id="Rectangle_1998" data-name="Rectangle 1998" width="1.193" height="0.104" transform="matrix(0.707, -0.707, 0.707, 0.707, 376.396, 9.116)" fill="#fff"/>
    <rect id="Rectangle_1999" data-name="Rectangle 1999" width="1.192" height="0.105" transform="matrix(0.707, -0.707, 0.707, 0.707, 370.066, 15.445)" fill="#fff"/>
    <rect id="Rectangle_2000" data-name="Rectangle 2000" width="1.193" height="0.103" transform="matrix(0.702, -0.712, 0.712, 0.702, 374.289, 11.228)" fill="#fff"/>
    <path id="Tracé_8567" data-name="Tracé 8567" d="M378.507,7.006l.074.073.843-.843-.074-.073Z" fill="#fff"/>
    <path id="Tracé_8568" data-name="Tracé 8568" d="M368.773,16.683l-.046-.046Z" fill="#1e2222"/>
    <path id="Tracé_8569" data-name="Tracé 8569" d="M372.176,13.335l-.023-.024Z" fill="#1e2222"/>
    <path id="Tracé_8570" data-name="Tracé 8570" d="M377.24,8.272l-.066-.065Z" fill="#1e2222"/>
    <path id="Tracé_8571" data-name="Tracé 8571" d="M370.911,14.6l-.073-.074Z" fill="#1e2222"/>
    <path id="Tracé_8572" data-name="Tracé 8572" d="M375.131,10.382l-.074-.074Z" fill="#1e2222"/>
    <path id="Tracé_8573" data-name="Tracé 8573" d="M374.287,11.226l-.074-.075Z" fill="#1e2222"/>
    <path id="Tracé_8574" data-name="Tracé 8574" d="M343.462,0l-.75.751L359.783,17.82h1.685L343.65,0Z" fill="#9d4d4d"/>
    <path id="Tracé_8575" data-name="Tracé 8575" d="M350.4,0l17.556,17.554.843-.843-.027-.027-.047-.047L352.089,0Z" fill="#9d4d4d"/>
    <path id="Tracé_8576" data-name="Tracé 8576" d="M358.842,0l13.311,13.311.024.024.844-.843L360.529,0Z" fill="#9d4d4d"/>
    <path id="Tracé_8577" data-name="Tracé 8577" d="M367.28,0,376.4,9.116l.843-.844-.064-.065L368.967,0Z" fill="#9d4d4d"/>
    <path id="Tracé_8578" data-name="Tracé 8578" d="M375.721,0l4.73,4.731V3.044L377.407,0Z" fill="#9d4d4d"/>
    <path id="Tracé_8579" data-name="Tracé 8579" d="M346.182,0,364,17.82h1.688L347.872,0Z" fill="#9d4d4d"/>
    <path id="Tracé_8580" data-name="Tracé 8580" d="M354.622,0l15.445,15.445.843-.844-.073-.074L356.309,0Z" fill="#9d4d4d"/>
    <path id="Tracé_8581" data-name="Tracé 8581" d="M363.061,0l11.152,11.151.074.075.842-.844-.073-.073L364.748,0Z" fill="#9d4d4d"/>
    <path id="Tracé_8582" data-name="Tracé 8582" d="M371.5,0l6.932,6.933L378.5,7l.848-.843L373.188,0Z" fill="#9d4d4d"/>
    <path id="Tracé_8583" data-name="Tracé 8583" d="M379.94,0l.51.511V0Z" fill="#9d4d4d"/>
    <path id="Tracé_8584" data-name="Tracé 8584" d="M343.315,0l-.676.678.073.073.75-.751Z" fill="#fff"/>
    <path id="Tracé_8585" data-name="Tracé 8585" d="M326.677,16.787l-.073-.074Z" fill="#1e2222"/>
    <path id="Tracé_8586" data-name="Tracé 8586" d="M325.833,17.625l.192.192h1.688l-1.036-1.036Z" fill="#9d4d4d"/>
    <path id="Tracé_8587" data-name="Tracé 8587" d="M330.053,13.408l4.412,4.412h1.687L330.9,12.565Z" fill="#9d4d4d"/>
    <path id="Tracé_8588" data-name="Tracé 8588" d="M330.053,13.409l-.073-.073Z" fill="#1e2222"/>
    <path id="Tracé_8589" data-name="Tracé 8589" d="M334.272,9.189,342.9,17.82h1.687l-9.474-9.473Z" fill="#9d4d4d"/>
    <path id="Tracé_8590" data-name="Tracé 8590" d="M339.337,4.126l-.844.843,12.849,12.85h1.689L339.263,4.052Z" fill="#9d4d4d"/>
    <path id="Tracé_8591" data-name="Tracé 8591" d="M327.942,15.519h0l-.072-.072Zm0,0,2.3,2.3h1.687l-3.145-3.144Z" fill="#9d4d4d"/>
    <path id="Tracé_8592" data-name="Tracé 8592" d="M332.163,11.3l-.047-.046,6.568,6.568h1.687l-7.365-7.364Z" fill="#9d4d4d"/>
    <path id="Tracé_8593" data-name="Tracé 8593" d="M336.382,7.078l10.739,10.741h1.686L337.226,6.235Z" fill="#9d4d4d"/>
    <path id="Tracé_8594" data-name="Tracé 8594" d="M340.6,2.86l14.961,14.96h1.686l-15.8-15.8Z" fill="#9d4d4d"/>
    <rect id="Rectangle_2001" data-name="Rectangle 2001" width="1.193" height="0.103" transform="translate(325.76 17.555) rotate(-44.999)" fill="#fff"/>
    <rect id="Rectangle_2002" data-name="Rectangle 2002" width="1.192" height="0.103" transform="translate(329.98 13.335) rotate(-44.999)" fill="#fff"/>
    <path id="Tracé_8595" data-name="Tracé 8595" d="M334.2,9.116l.073.074.844-.844-.074-.073Z" fill="#fff"/>
    <rect id="Rectangle_2003" data-name="Rectangle 2003" width="1.193" height="0.104" transform="matrix(0.707, -0.707, 0.707, 0.707, 338.419, 4.896)" fill="#fff"/>
    <rect id="Rectangle_2004" data-name="Rectangle 2004" width="1.193" height="0.104" transform="matrix(0.712, -0.702, 0.702, 0.712, 327.868, 15.443)" fill="#fff"/>
    <path id="Tracé_8596" data-name="Tracé 8596" d="M332.086,11.23l.026.026.047.047L333,10.46l-.073-.072Z" fill="#fff"/>
    <rect id="Rectangle_2005" data-name="Rectangle 2005" width="1.193" height="0.104" transform="translate(336.312 7.009) rotate(-45.38)" fill="#fff"/>
    <path id="Tracé_8597" data-name="Tracé 8597" d="M340.529,2.785l.074.074.845-.842-.073-.074Z" fill="#fff"/>
    <path id="Tracé_8598" data-name="Tracé 8598" d="M341.962,0l.677.678L343.316,0Z" fill="#9d4d4d"/>
    <path id="Tracé_8599" data-name="Tracé 8599" d="M326.6,16.711l-.074-.073Z" fill="#1e2222"/>
    <path id="Tracé_8600" data-name="Tracé 8600" d="M329.98,13.334l-.074-.074Z" fill="#1e2222"/>
    <path id="Tracé_8601" data-name="Tracé 8601" d="M334.171,9.086l-.044-.044Z" fill="#1e2222"/>
    <path id="Tracé_8602" data-name="Tracé 8602" d="M339.264,4.052l-.074-.074Z" fill="#1e2222"/>
    <path id="Tracé_8603" data-name="Tracé 8603" d="M327.87,15.446l-.074-.074Z" fill="#1e2222"/>
    <path id="Tracé_8604" data-name="Tracé 8604" d="M303.578,3.811l14.008,14.008h1.692l-15.7-15.7Z" fill="#9d4d4d"/>
    <path id="Tracé_8605" data-name="Tracé 8605" d="M308.206,0l17.556,17.555.843-.844-.073-.073L309.893,0Z" fill="#9d4d4d"/>
    <path id="Tracé_8606" data-name="Tracé 8606" d="M316.644,0l13.261,13.262.074.073.845-.844L318.331,0Z" fill="#9d4d4d"/>
    <path id="Tracé_8607" data-name="Tracé 8607" d="M325.086,0l9.042,9.043.043.044.028.029.845-.844L326.771,0Z" fill="#9d4d4d"/>
    <path id="Tracé_8608" data-name="Tracé 8608" d="M333.523,0l4.9,4.9.84-.846-.074-.074L335.21,0Z" fill="#9d4d4d"/>
    <path id="Tracé_8609" data-name="Tracé 8609" d="M303.986,0l17.82,17.82h1.687L305.673,0Z" fill="#9d4d4d"/>
    <path id="Tracé_8610" data-name="Tracé 8610" d="M312.424,0,327.8,15.372l.074.074.843-.844L314.112,0Z" fill="#9d4d4d"/>
    <path id="Tracé_8611" data-name="Tracé 8611" d="M320.864,0,332.09,11.226l.843-.844L322.549,0Z" fill="#9d4d4d"/>
    <path id="Tracé_8612" data-name="Tracé 8612" d="M329.3,0l6.933,6.934.073.072.844-.844L330.992,0Z" fill="#9d4d4d"/>
    <path id="Tracé_8613" data-name="Tracé 8613" d="M337.744,0l2.785,2.786.845-.843L339.431,0Z" fill="#9d4d4d"/>
    <path id="Tracé_8614" data-name="Tracé 8614" d="M303.578,12.251l5.568,5.569h1.688l-7.256-7.256Z" fill="#9d4d4d"/>
    <path id="Tracé_8615" data-name="Tracé 8615" d="M303.578,16.472l1.35,1.348h1.687l-3.037-3.036Z" fill="#9d4d4d"/>
    <path id="Tracé_8616" data-name="Tracé 8616" d="M303.578,8.036l9.788,9.784h1.687L303.578,6.344Z" fill="#9d4d4d"/>
    <path id="Tracé_8617" data-name="Tracé 8617" d="M443.851,17.625l.192.192h1.686l-1.035-1.036Z" fill="#9d4d4d"/>
    <path id="Tracé_8618" data-name="Tracé 8618" d="M445.959,15.517l2.3,2.3h1.686L446.8,14.675Zm.844-.842h0l-.073-.073Z" fill="#9d4d4d"/>
    <rect id="Rectangle_2006" data-name="Rectangle 2006" width="1.193" height="0.104" transform="translate(443.777 17.554) rotate(-44.999)" fill="#fff"/>
    <rect id="Rectangle_2007" data-name="Rectangle 2007" width="1.193" height="0.104" transform="matrix(0.707, -0.707, 0.707, 0.707, 447.996, 13.335)" fill="#fff"/>
    <path id="Tracé_8619" data-name="Tracé 8619" d="M452.216,9.116l.075.074.843-.844-.074-.073Z" fill="#fff"/>
    <path id="Tracé_8620" data-name="Tracé 8620" d="M445.887,15.445l.073.074.844-.843-.075-.074Z" fill="#fff"/>
    <path id="Tracé_8621" data-name="Tracé 8621" d="M450.106,11.225l.073.072.843-.843-.072-.073Z" fill="#fff"/>
    <path id="Tracé_8622" data-name="Tracé 8622" d="M444.594,16.683l-.047-.046Z" fill="#1e2222"/>
    <path id="Tracé_8623" data-name="Tracé 8623" d="M448,13.335l-.023-.024Z" fill="#1e2222"/>
    <path id="Tracé_8624" data-name="Tracé 8624" d="M453.06,8.272l-.066-.065Z" fill="#1e2222"/>
    <path id="Tracé_8625" data-name="Tracé 8625" d="M446.73,14.6l-.073-.074Z" fill="#1e2222"/>
    <path id="Tracé_8626" data-name="Tracé 8626" d="M450.95,10.382l-.075-.074Z" fill="#1e2222"/>
    <path id="Tracé_8627" data-name="Tracé 8627" d="M450.106,11.226l-.074-.075Z" fill="#1e2222"/>
    <path id="Tracé_8628" data-name="Tracé 8628" d="M419.281,0l-.75.751L435.6,17.82h1.686L419.47,0Z" fill="#9d4d4d"/>
    <path id="Tracé_8629" data-name="Tracé 8629" d="M426.223,0l17.555,17.554.843-.843-.026-.027-.048-.047L427.91,0Z" fill="#9d4d4d"/>
    <path id="Tracé_8630" data-name="Tracé 8630" d="M434.661,0l13.311,13.311.023.024.845-.843L436.348,0Z" fill="#9d4d4d"/>
    <path id="Tracé_8631" data-name="Tracé 8631" d="M443.1,0l9.115,9.116.844-.844-.065-.065L444.788,0Z" fill="#9d4d4d"/>
    <path id="Tracé_8632" data-name="Tracé 8632" d="M422,0l17.82,17.82h1.688L423.692,0Z" fill="#9d4d4d"/>
    <path id="Tracé_8633" data-name="Tracé 8633" d="M430.441,0l15.446,15.445.842-.844-.073-.074L432.128,0Z" fill="#9d4d4d"/>
    <path id="Tracé_8634" data-name="Tracé 8634" d="M438.88,0l11.153,11.151.074.075.843-.844-.075-.073L440.567,0Z" fill="#9d4d4d"/>
    <path id="Tracé_8635" data-name="Tracé 8635" d="M419.134,0l-.677.678.074.073.75-.751Z" fill="#fff"/>
    <path id="Tracé_8636" data-name="Tracé 8636" d="M402.5,16.787l-.073-.074Z" fill="#1e2222"/>
    <path id="Tracé_8637" data-name="Tracé 8637" d="M401.654,17.625l.192.192h1.687L402.5,16.782Z" fill="#9d4d4d"/>
    <path id="Tracé_8638" data-name="Tracé 8638" d="M405.873,13.408l4.412,4.412h1.687l-5.253-5.255Z" fill="#9d4d4d"/>
    <path id="Tracé_8639" data-name="Tracé 8639" d="M405.873,13.409l-.073-.073Z" fill="#1e2222"/>
    <path id="Tracé_8640" data-name="Tracé 8640" d="M410.091,9.189l8.631,8.631h1.687l-9.474-9.473Z" fill="#9d4d4d"/>
    <path id="Tracé_8641" data-name="Tracé 8641" d="M414.312,4.97l12.85,12.849h1.689l-13.7-13.693Zm.844-.843h0l-.074-.074Z" fill="#9d4d4d"/>
    <path id="Tracé_8642" data-name="Tracé 8642" d="M403.763,15.518h0l-.072-.072Zm0,0,2.3,2.3h1.686l-3.144-3.145Z" fill="#9d4d4d"/>
    <path id="Tracé_8643" data-name="Tracé 8643" d="M407.983,11.3l-.047-.046,6.567,6.568h1.688l-7.365-7.364Z" fill="#9d4d4d"/>
    <path id="Tracé_8644" data-name="Tracé 8644" d="M412.2,7.078l10.739,10.741h1.686L413.046,6.235Z" fill="#9d4d4d"/>
    <path id="Tracé_8645" data-name="Tracé 8645" d="M416.422,2.86l14.96,14.96h1.687l-15.8-15.8Z" fill="#9d4d4d"/>
    <path id="Tracé_8646" data-name="Tracé 8646" d="M401.58,17.555l.074.073.843-.844-.073-.072Z" fill="#fff"/>
    <rect id="Rectangle_2008" data-name="Rectangle 2008" width="1.193" height="0.104" transform="translate(405.799 13.335) rotate(-44.999)" fill="#fff"/>
    <rect id="Rectangle_2009" data-name="Rectangle 2009" width="1.193" height="0.104" transform="matrix(0.707, -0.707, 0.707, 0.707, 410.019, 9.116)" fill="#fff"/>
    <rect id="Rectangle_2010" data-name="Rectangle 2010" width="1.193" height="0.105" transform="matrix(0.707, -0.707, 0.707, 0.707, 414.238, 4.896)" fill="#fff"/>
    <rect id="Rectangle_2011" data-name="Rectangle 2011" width="1.193" height="0.103" transform="translate(403.685 15.44) rotate(-44.212)" fill="#fff"/>
    <path id="Tracé_8647" data-name="Tracé 8647" d="M407.906,11.23l.027.026.047.047.843-.843-.073-.072Z" fill="#fff"/>
    <path id="Tracé_8648" data-name="Tracé 8648" d="M412.129,7.006l.075.073.843-.843-.074-.073Z" fill="#fff"/>
    <path id="Tracé_8649" data-name="Tracé 8649" d="M416.349,2.785l.073.074.846-.842-.074-.074Z" fill="#fff"/>
    <path id="Tracé_8650" data-name="Tracé 8650" d="M417.783,0l.675.678L419.136,0Z" fill="#9d4d4d"/>
    <path id="Tracé_8651" data-name="Tracé 8651" d="M402.423,16.711l-.073-.073Z" fill="#1e2222"/>
    <path id="Tracé_8652" data-name="Tracé 8652" d="M405.8,13.334l-.074-.074Z" fill="#1e2222"/>
    <path id="Tracé_8653" data-name="Tracé 8653" d="M409.991,9.086l-.044-.044Z" fill="#1e2222"/>
    <path id="Tracé_8654" data-name="Tracé 8654" d="M415.083,4.052l-.072-.074Z" fill="#1e2222"/>
    <path id="Tracé_8655" data-name="Tracé 8655" d="M403.69,15.446l-.073-.074Z" fill="#1e2222"/>
    <path id="Tracé_8656" data-name="Tracé 8656" d="M384.026,0l17.555,17.555.844-.844-.073-.073L385.712,0Z" fill="#9d4d4d"/>
    <path id="Tracé_8657" data-name="Tracé 8657" d="M392.464,0l13.262,13.262.073.073.845-.844L394.151,0Z" fill="#9d4d4d"/>
    <path id="Tracé_8658" data-name="Tracé 8658" d="M400.906,0l9.042,9.043.043.044.028.029.845-.844L402.591,0Z" fill="#9d4d4d"/>
    <path id="Tracé_8659" data-name="Tracé 8659" d="M409.342,0l4.9,4.9.839-.846-.072-.074L411.029,0Z" fill="#9d4d4d"/>
    <path id="Tracé_8660" data-name="Tracé 8660" d="M379.805,0l17.82,17.82h1.688L381.492,0Z" fill="#9d4d4d"/>
    <path id="Tracé_8661" data-name="Tracé 8661" d="M388.244,0l15.374,15.372.073.074.843-.844L389.933,0Z" fill="#9d4d4d"/>
    <path id="Tracé_8662" data-name="Tracé 8662" d="M396.685,0l11.226,11.226.842-.844L398.369,0Z" fill="#9d4d4d"/>
    <path id="Tracé_8663" data-name="Tracé 8663" d="M405.123,0l6.934,6.934.072.072.845-.844L406.811,0Z" fill="#9d4d4d"/>
    <path id="Tracé_8664" data-name="Tracé 8664" d="M413.564,0l2.786,2.786.844-.843L415.25,0Z" fill="#9d4d4d"/>
    <rect id="Rectangle_2012" data-name="Rectangle 2012" width="17.821" height="17.82" transform="translate(380.45 -0.001)" fill="#044029"/>
    <rect id="Rectangle_2013" data-name="Rectangle 2013" width="1.193" height="0.105" transform="matrix(0.707, -0.707, 0.707, 0.707, 490.176, 4.896)" fill="#fff"/>
    <path id="Tracé_8665" data-name="Tracé 8665" d="M488.066,7.006l.075.073.843-.843-.074-.073Z" fill="#fff"/>
    <path id="Tracé_8666" data-name="Tracé 8666" d="M491.02,4.052l-.072-.074Z" fill="#1e2222"/>
    <path id="Tracé_8667" data-name="Tracé 8667" d="M448.069,13.408,448,13.335l4.485,4.485h1.687l-5.255-5.255Z" fill="#9d4d4d"/>
    <path id="Tracé_8668" data-name="Tracé 8668" d="M453.06,8.272l.072.073-.843.843,3.981,3.98V11.482Z" fill="#9d4d4d"/>
    <path id="Tracé_8669" data-name="Tracé 8669" d="M451.022,10.455l-.842.842-.074-.072,6.164,6.164V15.7l-5.321-5.32Z" fill="#9d4d4d"/>
    <path id="Tracé_8670" data-name="Tracé 8670" d="M454.4,7.078l1.871,1.871V7.262l-1.027-1.027Z" fill="#9d4d4d"/>
    <rect id="Rectangle_2014" data-name="Rectangle 2014" width="1.193" height="0.104" transform="translate(454.326 7.006) rotate(-44.999)" fill="#fff"/>
    <path id="Tracé_8671" data-name="Tracé 8671" d="M451.54,0l4.731,4.731V3.044L453.227,0Z" fill="#9d4d4d"/>
    <path id="Tracé_8672" data-name="Tracé 8672" d="M447.316,0l6.932,6.933.073.072.848-.843L449.007,0Z" fill="#9d4d4d"/>
    <path id="Tracé_8673" data-name="Tracé 8673" d="M455.76,0l.51.511V0Z" fill="#9d4d4d"/>
    <rect id="Rectangle_2015" data-name="Rectangle 2015" width="17.821" height="17.82" transform="translate(456.271 0.002)" fill="#044029"/>
    <path id="Tracé_8674" data-name="Tracé 8674" d="M455.335,3.811l14.008,14.008h1.692l-15.7-15.7Z" fill="#9d4d4d"/>
    <path id="Tracé_8675" data-name="Tracé 8675" d="M459.962,0l14.13,14.12v-1.68L461.651,0Z" fill="#9d4d4d"/>
    <path id="Tracé_8676" data-name="Tracé 8676" d="M468.4,0l5.691,5.69V4l-4-4Z" fill="#9d4d4d"/>
    <path id="Tracé_8677" data-name="Tracé 8677" d="M455.742,0l.529.53,17.291,17.29h.53v-1.16L457.431,0Z" fill="#9d4d4d"/>
    <path id="Tracé_8678" data-name="Tracé 8678" d="M464.181,0l9.911,9.91V8.223L465.872,0Z" fill="#9d4d4d"/>
    <path id="Tracé_8679" data-name="Tracé 8679" d="M472.622,0l1.47,1.471V0Z" fill="#9d4d4d"/>
    <path id="Tracé_8680" data-name="Tracé 8680" d="M455.335,12.251,460.9,17.82h1.688l-7.256-7.256Z" fill="#9d4d4d"/>
    <path id="Tracé_8681" data-name="Tracé 8681" d="M455.335,16.472l1.349,1.348h1.688l-3.037-3.036Z" fill="#9d4d4d"/>
    <path id="Tracé_8682" data-name="Tracé 8682" d="M455.335,8.036l9.788,9.784h1.686L455.335,6.344Z" fill="#9d4d4d"/>
  </g>
</svg>
