<svg xmlns="http://www.w3.org/2000/svg" xmlns:xlink="http://www.w3.org/1999/xlink" width="59" height="44.343" viewBox="0 0 59 44.343">
  <defs>
    <clipPath id="clip-path">
      <rect id="Rectangle_2228" data-name="Rectangle 2228" width="59" height="44.343" fill="#c3c2b1"/>
    </clipPath>
  </defs>
  <g id="Groupe_309" data-name="Groupe 309" transform="translate(0 0)">
    <g id="Groupe_308" data-name="Groupe 308" transform="translate(0 0)" clip-path="url(#clip-path)">
      <path id="Tracé_10421" data-name="Tracé 10421" d="M58.713,9.7a.729.729,0,0,0-.085-.288c-.513-3.565-3.48-6.275-6.729-7.6C46.1-.552,39.141-.2,33.066.608a77.048,77.048,0,0,0-18.033,4.28C6.532,8.237-1.648,16.482.287,25.854a.592.592,0,0,0-.023.157c.343,6.492,1.5,13.692,8.2,16.558,7.3,3.125,14.458,1.786,21.486-1.42a32.725,32.725,0,0,0,9.522-6.214c3.1-3.108,5.081-7.157,8.311-10.185,2.341-2.2,4.725-2.956,7.5-4.361a6.287,6.287,0,0,0,2.128-1.477c2.175-2.48,1.574-6.216,1.3-9.212M6.358,11.928c4.1-4.239,9.981-6.3,15.56-7.717A74.885,74.885,0,0,1,41.346,1.485,28.786,28.786,0,0,1,51,2.964c2.864,1.088,5.923,3.688,6.3,6.812h0a5.565,5.565,0,0,1-.619,3.26c-2.065,4.028-7.953,5-11.367,7.583-4.2,3.173-7.1,7.686-10.955,11.221-9.578,8.781-26,11.373-31.577-2.978a.7.7,0,0,0-.047-.074.891.891,0,0,0-.024-.1c-2.771-5.76-.625-12.352,3.641-16.765m47.776,7.414c-2.657,1.408-5.125,2.276-7.352,4.407a51.941,51.941,0,0,0-5.623,6.813,27.958,27.958,0,0,1-8.622,7.654c-5.742,3.412-13.152,5.947-19.8,4.286-4.314-1.078-7.468-2.907-9.315-7.08a17.9,17.9,0,0,1-1.327-4.587c1.7,3.737,4.142,6.834,8.136,8.467a20.849,20.849,0,0,0,14.63.064c11.2-3.933,16.112-15.481,26.494-20.542,2.251-1.1,4.675-2.42,6.1-4.417a5.835,5.835,0,0,1-3.323,4.935" transform="translate(0 0)" fill="#c3c2b1"/>
      <path id="Tracé_10422" data-name="Tracé 10422" d="M4.348,24.89a.7.7,0,0,0,0,.1c1.69,8.733,9.911,11.333,17.981,9.81,4.468-.843,8.036-3.785,11.118-6.973,4.048-4.188,7.877-8.2,12.765-11.454,2.373-1.579,5.961-3.03,5.978-6.491C52.2,8.18,50.478,6.077,49.032,5.33c-2.813-1.456-6.882-1.294-9.96-1.185A64.227,64.227,0,0,0,25.687,6.358C16.3,8.7,3.1,12.417,4.322,24.806a.554.554,0,0,0,.026.085M29.38,6.923c4.168-.983,20-4.294,21.049,2.657.449,2.989-2.523,4.041-4.585,5.355-1.7,1.084-3.287,2.365-4.9,3.572-3.541,2.652-6.236,6.113-9.362,9.2-3.869,3.824-7.993,5.941-13.5,6.136-6.248.221-11.134-3.039-12.353-9.15C4.555,11.87,20.023,9.129,29.38,6.923" transform="translate(0.047 0.045)" fill="#c3c2b1"/>
      <path id="Tracé_10423" data-name="Tracé 10423" d="M16.445,24.72a7.055,7.055,0,0,0,6.926-3.351,3.407,3.407,0,0,0-.26-3.562,4.011,4.011,0,0,0-2.844-1.187.649.649,0,0,0-.09,0,.645.645,0,0,0-.1-.029c-2.493-.222-6.584.974-7.5,3.607-.886,2.543,1.628,4.247,3.866,4.518M15.7,19a7.636,7.636,0,0,1,4.38-.995l.013,0a3.967,3.967,0,0,1,1.3.253c1.749.922.624,2.832-.313,3.7a5.83,5.83,0,0,1-4.084,1.393C14.4,23.243,12.435,20.988,15.7,19" transform="translate(0.136 0.182)" fill="#c3c2b1"/>
      <path id="Tracé_10424" data-name="Tracé 10424" d="M34.318,9.828a.708.708,0,0,0,0-1.415.708.708,0,0,0,0,1.415" transform="translate(0.37 0.093)" fill="#c3c2b1"/>
      <path id="Tracé_10425" data-name="Tracé 10425" d="M36.757,8.865c2.484-.686,5.086-1.259,7.4.211.771.489,1.483-.735.715-1.222-2.641-1.673-5.645-1.141-8.5-.354a.708.708,0,0,0,.376,1.365" transform="translate(0.395 0.074)" fill="#c3c2b1"/>
    </g>
  </g>
</svg>
