<svg xmlns="http://www.w3.org/2000/svg" xmlns:xlink="http://www.w3.org/1999/xlink" width="65.704" height="80.338" viewBox="0 0 65.704 80.338">
  <defs>
    <clipPath id="clip-path">
      <rect id="Rectangle_2229" data-name="Rectangle 2229" width="51.121" height="70.649" fill="none"/>
    </clipPath>
  </defs>
  <g id="Groupe_311" data-name="Groupe 311" transform="translate(15.893) rotate(13)">
    <g id="Groupe_310" data-name="Groupe 310" clip-path="url(#clip-path)">
      <path id="Tracé_10426" data-name="Tracé 10426" d="M24.97,250.369a70.892,70.892,0,0,1-2.36-10.481,62.437,62.437,0,0,1-.384-11.021c0-.048-.077-.072-.082-.018a51.1,51.1,0,0,0,.134,10.9,47.313,47.313,0,0,0,2.361,10.673c.062.168.388.149.331-.054" transform="translate(-20.219 -211.104)" fill="#fff"/>
      <path id="Tracé_10427" data-name="Tracé 10427" d="M66.6,162.256c-.953-1.591-3.019-1.658-4.671-1.541-2.85.2-5.7.568-8.525.982q-4.094.6-8.146,1.447a81.472,81.472,0,0,0-8.414,2.073c-.175.056-.043.293.111.259,2.582-.563,5.136-1.25,7.725-1.787q3.926-.815,7.893-1.407,3.84-.577,7.708-.941c1.92-.181,4.682-.7,6.006,1.12a.187.187,0,1,0,.313-.2" transform="translate(-33.912 -148.24)" fill="#fff"/>
      <path id="Tracé_10428" data-name="Tracé 10428" d="M434.249,238.092q-.163-2.975-.343-5.95c-.23-3.915-.475-7.829-.772-11.74,0-.009-.018-.012-.018,0,.085,3.815.219,7.628.37,11.441.076,1.932.15,3.865.234,5.8.085,1.975.073,3.986.276,5.952.028.27.536.371.537.05.01-1.844-.183-3.707-.285-5.548" transform="translate(-399.588 -203.333)" fill="#fff"/>
      <path id="Tracé_10429" data-name="Tracé 10429" d="M108.453,523.487c-1.767,1.347-4.153,1.026-6.248,1.006q-3.647-.035-7.291-.21t-7.275-.49c-2.457-.213-4.915-.566-7.381-.652-.04,0-.03.055,0,.063a60.978,60.978,0,0,0,7.7,1.06q3.825.38,7.663.608,3.884.23,7.776.3c1.755.033,4.271.353,5.527-1.189.22-.27-.194-.708-.473-.495" transform="translate(-74.02 -482.643)" fill="#fff"/>
      <path id="Tracé_10430" data-name="Tracé 10430" d="M124.386,213.819c-5.431.4-10.845,1.315-16.234,2.073-.023,0-.016.036.006.034,5.435-.421,10.93-.7,16.33-1.476.425-.061.289-.661-.1-.632" transform="translate(-99.767 -197.266)" fill="#fff"/>
      <path id="Tracé_10431" data-name="Tracé 10431" d="M163.9,120.663c-2.745-2.179-6.837-2.805-10.214-2.243a13.878,13.878,0,0,0-8.771,5.3c-.062.082.072.193.138.114a14.275,14.275,0,0,1,8.537-4.959,13.422,13.422,0,0,1,5.208.205,18.025,18.025,0,0,1,4.792,2.1c.342.193.6-.289.309-.52" transform="translate(-133.682 -109.073)" fill="#fff"/>
      <path id="Tracé_10432" data-name="Tracé 10432" d="M430.176,162.12a22.693,22.693,0,0,0-5.415-2.309,34.7,34.7,0,0,0-6.171-1.368c-.115-.015-.122.146-.017.163a34.961,34.961,0,0,1,5.751,1.42c1.962.67,3.732,1.666,5.626,2.475.249.106.469-.223.227-.381" transform="translate(-386.102 -146.176)" fill="#fff"/>
      <path id="Tracé_10433" data-name="Tracé 10433" d="M567.281,220.494a51.963,51.963,0,0,0-1.133-10.019c-.007-.031-.068-.034-.065,0,.258,3.441.621,6.86.607,10.312a97.088,97.088,0,0,1-.711,9.954c-.046.43.839.639.905.16a60.652,60.652,0,0,0,.4-10.409" transform="translate(-522.164 -194.159)" fill="#fff"/>
      <path id="Tracé_10434" data-name="Tracé 10434" d="M106.107,524.86c-.035-.083-.188-.08-.168.027a4.74,4.74,0,0,0,.319,1.16c.051.108.244.11.224-.037a4.723,4.723,0,0,0-.375-1.151" transform="translate(-97.737 -484.175)" fill="#fff"/>
      <path id="Tracé_10435" data-name="Tracé 10435" d="M152.749,526a12.512,12.512,0,0,0-1.781,1.254,17.856,17.856,0,0,1-2.169,1.261,33.277,33.277,0,0,1-4.207,1.593.324.324,0,0,0-.147-.084,22.366,22.366,0,0,0-3.119-.363q-1.562-.159-3.124-.318-3.2-.32-6.405-.636c-4.1-.407-8.254-.914-12.376-1.005-.057,0-.045.082,0,.091,4.155.758,8.424,1.113,12.623,1.556q3.122.33,6.245.659,1.561.163,3.123.322a21.028,21.028,0,0,0,3.048.267.225.225,0,0,0,.241-.222,12.825,12.825,0,0,0,4.309-1.231,17.883,17.883,0,0,0,2.041-1.117,6.5,6.5,0,0,0,2.018-1.6c.124-.193-.075-.534-.321-.425" transform="translate(-110.141 -485.259)" fill="#fff"/>
      <path id="Tracé_10436" data-name="Tracé 10436" d="M444.492,474.149c-1.709.7-3.35,1.625-5.006,2.44-1.731.853-3.452,1.719-5.144,2.645-.044.024,0,.095.045.078,1.8-.721,3.576-1.5,5.346-2.3,1.687-.759,3.454-1.433,5.082-2.31.311-.168-.026-.679-.324-.557" transform="translate(-400.703 -437.427)" fill="#fff"/>
      <path id="Tracé_10437" data-name="Tracé 10437" d="M549.93,486.08c0-.034-.061-.072-.074-.026a10.948,10.948,0,0,0-.486,2.8c0,.155.28.325.336.117a11.156,11.156,0,0,0,.224-2.9" transform="translate(-506.842 -448.408)" fill="#fff"/>
      <path id="Tracé_10438" data-name="Tracé 10438" d="M437.662,538.583c-.008-.03-.049-.056-.074-.026a2.833,2.833,0,0,0-.432,1.222c-.135.557-.289,1.119-.37,1.686-.045.314.447.443.528.115.128-.519.194-1.06.273-1.59a3.371,3.371,0,0,0,.076-1.407" transform="translate(-402.971 -496.854)" fill="#fff"/>
      <path id="Tracé_10439" data-name="Tracé 10439" d="M68.779,258.311c-.261-.734-.758-1.406-1.081-2.122a18.479,18.479,0,0,1-.8-2.112,19.267,19.267,0,0,1-.84-4.861,21.476,21.476,0,0,1,1.9-9.548c.013-.03-.038-.066-.057-.036a17.341,17.341,0,0,0-2.426,9.53,19.609,19.609,0,0,0,.736,4.9,18.974,18.974,0,0,0,.774,2.213,8.247,8.247,0,0,0,1.222,2.3c.238.263.713.138.57-.265" transform="translate(-60.403 -221.071)" fill="#fff"/>
      <path id="Tracé_10440" data-name="Tracé 10440" d="M139.545,484.894a12.527,12.527,0,0,0-2.437-.2c-.936-.052-1.872-.107-2.808-.153q-2.728-.135-5.456-.271c-3.613-.175-7.257-.4-10.875-.308-.088,0-.073.132,0,.142,3.533.474,7.12.648,10.675.875,1.769.113,3.54.213,5.309.32q1.4.085,2.809.158a13.9,13.9,0,0,0,2.8.087c.4-.062.333-.555-.02-.647" transform="translate(-108.781 -446.475)" fill="#fff"/>
      <path id="Tracé_10441" data-name="Tracé 10441" d="M326.014,228.872l-.229-2.679q-.235-2.758-.452-5.517c-.289-3.622-.484-7.278-1.034-10.872-.008-.054-.11-.078-.111-.01,0,.006,0,.012,0,.018a.314.314,0,0,0-.243-.158,8.468,8.468,0,0,0-3.3.2.037.037,0,0,0-.021.017,3.411,3.411,0,0,0-1.189.254c-.055.023-.024.095.028.1a4.864,4.864,0,0,1,3.925,1.921,9.426,9.426,0,0,1,.811,3.462.309.309,0,0,0,.19.258c.094,1.509.2,3.016.3,4.52.113,1.788.225,3.575.328,5.363l.1,1.81a4.334,4.334,0,0,1-.923,2.272,4.878,4.878,0,0,1-2.662,1.541c-.367.106-.145.634.18.614a3.723,3.723,0,0,0,1.095-.236.344.344,0,0,0,.333.148l1.143-.155a.34.34,0,0,0,.426.128.311.311,0,0,0,.432.044q.077-.068.146-.139c.191.2.59.246.606-.107,0-.014,0-.029,0-.043a.283.283,0,0,0,.264-.285,12.645,12.645,0,0,0-.144-2.462m-1.917-18.6a.259.259,0,0,0,.09-.081c0,.142,0,.284,0,.426l-.093-.345m1.092,18.681c0,.114.006.228.009.343a.352.352,0,0,0-.106-.022c.036-.105.069-.212.1-.32" transform="translate(-294.679 -193.359)" fill="#fff"/>
      <path id="Tracé_10442" data-name="Tracé 10442" d="M62.705,238.69a1.592,1.592,0,0,0-1.869.4h0s0,0,0,.006a2.406,2.406,0,0,0-.567.986A5.24,5.24,0,0,0,60.1,241.6a23.821,23.821,0,0,0-.231,4.663,27.194,27.194,0,0,0,.278,3.04,22.182,22.182,0,0,0,.126,2.746,15.129,15.129,0,0,0,1.3,5.342c.122.226.565.286.6.027a.306.306,0,0,0,.254-.427c-.352-1.192-.746-2.36-1.076-3.549.131.02.269-.051.235-.217a46.378,46.378,0,0,1-1.044-6.688q-.026-.424-.046-.847c0-.019,0-.039,0-.058l0-.006c.3-1.091.49-2.2.723-3.307a.277.277,0,0,0,0-.115c.008-.054.014-.108.024-.162a.343.343,0,0,0,.028-.045c.326-.726.643-1.457.98-2.178a.271.271,0,0,0-.053-.31c0-.005,0-.01,0-.016q.06-.114.117-.229a1.407,1.407,0,0,0,.144-.028c.034,0,.068.01.1.017.366.073.448-.419.139-.562" transform="translate(-55.21 -220.073)" fill="#fff"/>
      <path id="Tracé_10443" data-name="Tracé 10443" d="M78.779,410.446a16.657,16.657,0,0,0-2.339-.164c-.309-.011-.722.019-1.137.011a1.343,1.343,0,0,0-.356-.8,7.692,7.692,0,0,0-1.06-1.265,30.038,30.038,0,0,0-.475-3.595c-.048-.235-.51-.361-.5-.047.022,1.174.04,2.348.069,3.522a3.841,3.841,0,0,0,.381,2.19,1.377,1.377,0,0,0,.146.169.381.381,0,0,0,.264.233l.1.026a2.965,2.965,0,0,0,1.085.246c.161.028.323.052.484.07a.4.4,0,0,0,.185-.019,19.284,19.284,0,0,0,3.18.1c.411-.036.348-.6-.02-.67" transform="translate(-67.262 -373.09)" fill="#fff"/>
      <path id="Tracé_10444" data-name="Tracé 10444" d="M311.03.205l.03-.025c.079-.073-.046-.208-.132-.175a19.756,19.756,0,0,0-3.75,2.313q-1.868,1.27-3.676,2.625a83.094,83.094,0,0,0-6.841,5.729c-.1.094.084.283.186.194,2.27-1.977,4.607-3.88,7.018-5.682q1.751-1.309,3.56-2.538c.632-.43,1.323-.827,1.991-1.251-1.717,1.377-3.409,2.79-5.14,4.148-2.121,1.664-4.378,3.249-6.334,5.108-.017.016.012.042.03.031,2.323-1.465,4.452-3.3,6.625-4.972s4.443-3.286,6.619-4.98c.223-.174.035-.5-.185-.525" transform="translate(-273.669 0)" fill="#fff"/>
      <path id="Tracé_10445" data-name="Tracé 10445" d="M109.332,68.762a40.8,40.8,0,0,1-3.48-3.237c-1.025-1.122-1.914-2.34-2.863-3.524-.008-.009-.027,0-.02.009a21.706,21.706,0,0,0,6.124,7.042.188.188,0,1,0,.239-.29" transform="translate(-94.997 -57.197)" fill="#fff"/>
      <path id="Tracé_10446" data-name="Tracé 10446" d="M98.532,43.651a37.7,37.7,0,0,1-7.9-8.274.016.016,0,1,0-.028.018,33.127,33.127,0,0,0,7.514,8.763.33.33,0,1,0,.419-.508" transform="translate(-83.583 -32.631)" fill="#fff"/>
      <path id="Tracé_10447" data-name="Tracé 10447" d="M530.153,548.383c-.1-.6-1.249-1.292-1.8-.9a.047.047,0,0,0,.013.08c.269.128.573.147.837.3a4.73,4.73,0,0,1,.68.649c.107.092.3.028.274-.129" transform="translate(-487.433 -504.995)" fill="#fff"/>
      <path id="Tracé_10448" data-name="Tracé 10448" d="M223.095,599.332a20.64,20.64,0,0,0-2.992-.258,25.653,25.653,0,0,0-3.239-.138c-.047,0-.037.065,0,.074a26.859,26.859,0,0,0,3.247.4,20.087,20.087,0,0,0,2.991.237c.2-.011.155-.276-.01-.312" transform="translate(-200.048 -552.555)" fill="#fff"/>
      <path id="Tracé_10449" data-name="Tracé 10449" d="M258.281,609.037a6.048,6.048,0,0,1-3.143,3.544c-.246.126.02.5.248.427a4.454,4.454,0,0,0,2.923-3.962c0-.014-.022-.027-.029-.01" transform="translate(-235.297 -561.883)" fill="#fff"/>
      <path id="Tracé_10450" data-name="Tracé 10450" d="M220.936,607.3a1.781,1.781,0,0,1-.4-2.527c.017-.019-.016-.044-.033-.028a1.761,1.761,0,0,0,.258,2.852.173.173,0,0,0,.177-.3" transform="translate(-202.873 -557.93)" fill="#fff"/>
      <path id="Tracé_10451" data-name="Tracé 10451" d="M239.615,640.977a7.875,7.875,0,0,0-2.127-1.033c-.018-.007-.034.015-.017.028a7.892,7.892,0,0,0,2.014,1.223c.144.051.265-.114.13-.218" transform="translate(-219.081 -590.404)" fill="#fff"/>
      <path id="Tracé_10452" data-name="Tracé 10452" d="M204.5,667.766q.334-5.418,1.021-10.807c.4-3.1.984-6.183,1.346-9.29,0-.023-.038-.042-.046-.016a68.377,68.377,0,0,0-1.49,7.853q-.614,4.1-1.014,8.234-.193,1.993-.337,3.991l.519.034" transform="translate(-188.191 -597.505)" fill="#fff"/>
      <path id="Tracé_10453" data-name="Tracé 10453" d="M246.527,644.1a5.185,5.185,0,0,0,1.4.67.2.2,0,0,0,.241-.134,101.855,101.855,0,0,1,2.729,18.684l.646.01a103.586,103.586,0,0,0-1.159-11.567q-.711-4.525-1.843-8.967c-.122-.483-.974-.513-.832.027s.271,1.052.4,1.58a.223.223,0,0,0-.021-.023,5.278,5.278,0,0,0-1.4-.662,8.841,8.841,0,0,0-1.419-.463.016.016,0,0,0-.012.029,9.345,9.345,0,0,0,1.275.817" transform="translate(-226.26 -592.689)" fill="#fff"/>
      <path id="Tracé_10454" data-name="Tracé 10454" d="M242.464,660.061a12.008,12.008,0,0,0-3.016-1.531.014.014,0,0,0-.014.023c.472.35.926.717,1.414,1.048a6.567,6.567,0,0,0,1.383.849.227.227,0,0,0,.232-.39" transform="translate(-220.894 -607.551)" fill="#fff"/>
      <path id="Tracé_10455" data-name="Tracé 10455" d="M27.054,554.307a22.2,22.2,0,0,0-3.161,5.4,38.875,38.875,0,0,0-3.442,18.669c0,.025.042.026.041,0A37.815,37.815,0,0,1,24.5,560c.929-1.849,2.135-3.52,3.124-5.328.168-.308-.347-.623-.571-.367" transform="translate(-18.792 -511.31)" fill="#fff"/>
      <path id="Tracé_10456" data-name="Tracé 10456" d="M535.32,546.477a10.55,10.55,0,0,1,2.707,1.774,10.391,10.391,0,0,1,2.056,2.884,26.211,26.211,0,0,1,2.019,7.634c.656,4.222,1.376,11.057,1.666,15.32l.46-.106c-.123-1.536-.495-5.5-.589-6.616q-.375-4.474-.992-8.924a24.521,24.521,0,0,0-1.969-7.739c-1.042-2.07-2.854-4.281-5.194-4.891-.439-.114-.509.488-.164.663" transform="translate(-493.678 -503.547)" fill="#fff"/>
      <path id="Tracé_10457" data-name="Tracé 10457" d="M226.528,569.588a16.734,16.734,0,0,0-3.942-6.12.291.291,0,0,0-.409.013,23.393,23.393,0,0,1-1.566,2.025c-.13-.311-.335-.61-.484-.893-.164-.312-.323-.625-.5-.927.194-.357-.361-.721-.572-.338-.329.6-.66,1.2-.979,1.8a2.931,2.931,0,0,0-.576,1.47.013.013,0,0,0,.016.011c.48-.206.722-.779,1-1.2.33-.5.65-1.011.971-1.519.093.27.2.536.3.8a5.56,5.56,0,0,0,.5,1.192l0,0c-.019.023.013.049.036.038.022.029.043.059.067.086.119.133.372.114.349-.107a1.379,1.379,0,0,0-.07-.3c.562-.529,1.121-1.067,1.725-1.545a31.44,31.44,0,0,1,3.508,5.695c.182.384.8.255.637-.193" transform="translate(-200.657 -519.587)" fill="#fff"/>
      <path id="Tracé_10458" data-name="Tracé 10458" d="M499.606,799.152l.527-.069-.126-1.343c-.227-2.421-.379-4.865-.774-7.27-.01-.064-.146-.091-.146-.012,0,2.338.236,4.683.4,7.016Z" transform="translate(-460.452 -729.222)" fill="#fff"/>
      <path id="Tracé_10459" data-name="Tracé 10459" d="M68.166,709c.006.188.011.376.019.564q.139,3.52.577,7.015l.09.008a55.1,55.1,0,0,1-.3-6.989c0-.173.011-.346.016-.52a.231.231,0,0,0,.113-.346l-.1-.177q.057-1.452.18-2.9a27.039,27.039,0,0,0,.325-4.039c-.02-.275-.522-.451-.618-.136a15.349,15.349,0,0,0-.332,4.038q-.02,1.091,0,2.181a16.125,16.125,0,0,1-1.557-4.547c0-.014-.029-.021-.029,0a10.063,10.063,0,0,0,1.6,5.829c.005.008.012.014.018.021" transform="translate(-61.394 -647.023)" fill="#fff"/>
      <path id="Tracé_10460" data-name="Tracé 10460" d="M456.2,715.384c-.32-1.078-.927-2.093-1.288-3.17a23.8,23.8,0,0,1-.909-3.571c0-.018-.03-.019-.029,0a16.7,16.7,0,0,0,.534,3.778,10.107,10.107,0,0,0,1.208,3.078,4.865,4.865,0,0,1-3.34-3.779c0-.021-.036-.022-.035,0a4.831,4.831,0,0,0,3.475,4.446c.328.1.417-.271.255-.486a.232.232,0,0,0,.129-.3" transform="translate(-417.326 -653.773)" fill="#fff"/>
      <path id="Tracé_10461" data-name="Tracé 10461" d="M182.134,559.157a15.553,15.553,0,0,0-1.468,2.317c-.408.685-.868,1.379-1.207,2.106-.048-.99-.262-1.972-.3-2.966-.049-1.235.233-2.455.2-3.672-.006-.22-.359-.444-.467-.162a8.668,8.668,0,0,0-.249,3.419,9.139,9.139,0,0,0,.749,3.536c-.018.042-.038.083-.055.125h0c-.035.1.1.209.182.118a19.709,19.709,0,0,0,1.641-2.328,15.046,15.046,0,0,0,1.388-2.225c.1-.231-.248-.46-.417-.268" transform="translate(-164.765 -513.556)" fill="#fff"/>
      <path id="Tracé_10462" data-name="Tracé 10462" d="M338.669,577.4c-.529.963-.811,2.014-1.421,2.956-.512.79-1.228,1.467-1.68,2.287-.006.01.009.025.02.02a5.849,5.849,0,0,0,2.22-2.178,7.479,7.479,0,0,0,1.373-2.907.279.279,0,0,0-.512-.178" transform="translate(-309.59 -532.585)" fill="#fff"/>
      <path id="Tracé_10463" data-name="Tracé 10463" d="M488.277,561.116a6.611,6.611,0,0,0-5.835,6.442c0,.014.023.02.023.005a6.216,6.216,0,0,1,5.856-6.172c.19-.008.123-.3-.044-.276" transform="translate(-445.095 -517.677)" fill="#fff"/>
      <path id="Tracé_10464" data-name="Tracé 10464" d="M100.5,545.332a6.622,6.622,0,0,0-1.22,5.718c.006.014.032.018.034,0a14.657,14.657,0,0,1,.318-2.919,6.358,6.358,0,0,1,.471-1.169c.243-.452.618-.809.83-1.272.1-.222-.232-.527-.432-.356" transform="translate(-91.358 -503.071)" fill="#fff"/>
      <path id="Tracé_10465" data-name="Tracé 10465" d="M357.074,778.148c-2.05-.136-4.153-.006-6.206.035-.02,0-.012.028,0,.029,2.064.09,4.177.273,6.242.183.175-.008.1-.238-.04-.247" transform="translate(-323.695 -717.854)" fill="#fff"/>
      <path id="Tracé_10466" data-name="Tracé 10466" d="M350.183,786.513a28.5,28.5,0,0,0-.345-4.529c0-.011-.022-.017-.023,0a25.463,25.463,0,0,0,.148,4.225,38.407,38.407,0,0,0,.3,4.53c.01.053.106.079.111.01a34.632,34.632,0,0,0-.194-4.235" transform="translate(-322.687 -721.439)" fill="#fff"/>
      <path id="Tracé_10467" data-name="Tracé 10467" d="M357.563,897.688l.354-.007a11.978,11.978,0,0,0-1.809-1.221c-.023-.012-.035.017-.019.033a10.33,10.33,0,0,0,1.474,1.2" transform="translate(-328.517 -827.061)" fill="#fff"/>
      <path id="Tracé_10468" data-name="Tracé 10468" d="M442.215,903.88a1.245,1.245,0,0,0,.136-.242.138.138,0,0,0-.166-.172,1.915,1.915,0,0,0-.676.465l.706-.051" transform="translate(-407.331 -833.521)" fill="#fff"/>
      <path id="Tracé_10469" data-name="Tracé 10469" d="M357.637,773.839c1.121.055,2.247.126,3.374.175,0,0,0,0,0,0,.049,1.729.154,3.454.255,5.181.073,1.244.075,2.526.162,3.787l.438-.018c-.086-1.158-.245-2.322-.336-3.463-.147-1.83-.288-3.66-.49-5.484,0,0,0,0,0,0,1.2.052,2.4.078,3.6.033.027.154.052.307.072.46.1.8.189,1.6.237,2.407a38.451,38.451,0,0,1-.093,5.112c0,.021.031.03.035.008a24.751,24.751,0,0,0,.448-5.083,13.844,13.844,0,0,0-.5-4.6c-.064-.169-.41-.221-.411.013a6.561,6.561,0,0,0,.119,1.139c-2.3-.057-4.615.152-6.907.3-.028,0-.017.039.006.04" transform="translate(-329.93 -712.428)" fill="#fff"/>
      <path id="Tracé_10470" data-name="Tracé 10470" d="M50.85,900.591a47.51,47.51,0,0,0-5.027-.057H40.8q-4.92,0-9.841.013c-6.559.022-13.117.033-19.676.077-3.741.025-7.487-.013-11.225.221-.1.006-.062.219.023.224,6.626.41,13.28.239,19.911.261q9.845.033,19.689.05h5.624a52,52,0,0,0,5.618-.057c.331-.036.2-.707-.076-.736" transform="translate(0 -830.785)" fill="#fff"/>
      <path id="Tracé_10471" data-name="Tracé 10471" d="M21.372,877.423a10.194,10.194,0,0,0-.254-1.508c0-.008-.017-.013-.018,0a7.17,7.17,0,0,0,.012,1.234,2.617,2.617,0,0,1-.027.837.613.613,0,0,0-.011.4c.056.25.533.394.543.051.012-.378-.2-.625-.247-1.008" transform="translate(-19.418 -808.1)" fill="#fff"/>
      <path id="Tracé_10472" data-name="Tracé 10472" d="M101.327,232.45s-.741-3.708-3.429-3.615-16.776,1.576-16.776,1.576-.927.649-.927,1.112c0,0-2.132,5.561-1.483,8.713a47.416,47.416,0,0,0,2.317,7.137l1.02.371,16.777.742s3.429-.371,3.429-3.059-.927-12.976-.927-12.976M81.146,244.223c-2.217-2.684-1.474-6.94-.521-9.975a.812.812,0,0,1,1.55.482c-.8,2.512-1.442,6.074.22,8.377.618.855-.549,1.964-1.249,1.117M82,233.3c-1.095,0-1.2-1.705-.1-1.705s1.2,1.705.1,1.705" transform="translate(-72.505 -211.118)" fill="#fff"/>
    </g>
  </g>
</svg>
