<svg id="Groupe_58" data-name="Groupe 58" xmlns="http://www.w3.org/2000/svg" xmlns:xlink="http://www.w3.org/1999/xlink" width="61.605" height="60.096" viewBox="0 0 61.605 60.096">
  <defs>
    <clipPath id="clip-path">
      <rect id="Rectangle_60" data-name="Rectangle 60" width="61.605" height="60.096" fill="#e1dfcb"/>
    </clipPath>
  </defs>
  <g id="Groupe_57" data-name="Groupe 57" clip-path="url(#clip-path)">
    <path id="Tracé_579" data-name="Tracé 579" d="M313.5.294c1.62,0,3.24-.016,4.86,0a4.062,4.062,0,0,1,3.9,4.13q.016,2.855,0,5.709a4.1,4.1,0,0,1-3.991,4.149q-4.731,0-9.463,0a4.005,4.005,0,0,1-4.069-3.943,60.6,60.6,0,0,1,.016-6.348A3.979,3.979,0,0,1,308.507.3c1.663-.026,3.326-.005,4.989-.006m-.03,10.62h4.664c.458,0,.616-.162.617-.648q0-2.988,0-5.976c0-.468-.156-.635-.6-.635q-4.664,0-9.329,0c-.441,0-.6.174-.6.636q0,2.988,0,5.976c0,.483.156.647.614.647h4.632" transform="translate(-285.041 -0.267)" fill="#e1dfcb"/>
    <path id="Tracé_580" data-name="Tracé 580" d="M620.876,14.848v-.326q0-6.991-.01-13.982c0-.3.069-.363.348-.362,4.376.01,8.752.031,13.127,0a4.1,4.1,0,0,1,4,3.144,3.853,3.853,0,0,1,.121,1,19.083,19.083,0,0,1-.072,2.864,4.04,4.04,0,0,1-3.919,3.408q-4.875,0-9.749-.005c-.255,0-.356.043-.339.34.027.482,0,.968.009,1.452a.315.315,0,0,1-.134.312q-1.651,1.074-3.3,2.157c-.014.009-.039,0-.087,0m8.653-7.479h4.762c.527,0,.673-.149.673-.692q0-1.216,0-2.432c0-.539-.151-.7-.676-.7q-4.811,0-9.621-.006c-.225,0-.288.06-.285.3q.02,1.621,0,3.242c0,.242.063.294.284.292,1.62-.01,3.239-.006,4.859-.006" transform="translate(-580.889 -0.162)" fill="#e1dfcb"/>
    <path id="Tracé_581" data-name="Tracé 581" d="M54.664.031c-.905.915-1.8,1.757-2.618,2.668a1.813,1.813,0,0,1-1.626.684c-.757-.064-1.522,0-2.283-.022-.275-.007-.358.054-.357.363.013,3.31,0,6.619.016,9.929,0,.321-.091.378-.37.374-.954-.015-1.909-.01-2.863.007-.229,0-.278-.065-.278-.3q.011-4.965,0-9.929c0-.5.067-.437-.433-.438-1.92,0-3.84-.007-5.759.006-.259,0-.315-.077-.311-.334.015-.923.01-1.846,0-2.769,0-.19.022-.273.238-.272Q46.263.011,54.5.007c.031,0,.062.009.164.024" transform="translate(-35.353 0)" fill="#e1dfcb"/>
    <path id="Tracé_582" data-name="Tracé 582" d="M103.991,521.9l3.483-3.293c0,.13.1.195.172.273q3.025,3.177,6.052,6.353c.081.085.148.2.289.187a1.6,1.6,0,0,1,.024.2q0,3.348,0,6.695a1.827,1.827,0,0,1-.021.2c-.2.042-.288-.116-.4-.232q-2.956-3.1-5.911-6.2c-.1-.1-.168-.24-.327-.253,0-.559-.018-1.118-.007-1.676,0-.221-.058-.287-.268-.281-.447.012-.894,0-1.341-.008-.007-.155-.13-.226-.217-.321-.5-.553-1.051-1.058-1.525-1.64" transform="translate(-97.295 -483.554)" fill="#e1dfcb"/>
    <path id="Tracé_583" data-name="Tracé 583" d="M357.586,622.99a22.8,22.8,0,0,1-4.357-.135,6.878,6.878,0,0,1-5.284-6.5c-.044-1.325,0-2.653,0-3.979.151-.021.243.082.322.187.506.67,1.117,1.237,1.668,1.864.8.915,1.632,1.811,2.449,2.714s1.642,1.8,2.451,2.713c.693.781,1.426,1.523,2.115,2.308a2.986,2.986,0,0,1,.638.825" transform="translate(-325.522 -570.989)" fill="#e1dfcb"/>
    <path id="Tracé_584" data-name="Tracé 584" d="M693.224,681.708q.008,2.4.017,4.794c0,.142-.039.211-.182.2-.106-.01-.214-.01-.32-.015a.388.388,0,0,0-.113-.334c-.19-.181-.338-.406-.515-.6-.851-.914-1.679-1.852-2.518-2.778-.795-.878-1.592-1.752-2.38-2.637-1-1.122-2.025-2.22-3.037-3.33-.377-.413-.748-.831-1.123-1.245a.3.3,0,0,1-.1-.2c1.025-.005,2.05-.021,3.075-.008.261,0,.331-.08.314-.339s.008-.536.014-.8c.137,0,.208.107.287.195.3.334.593.678.9,1.007.771.827,1.523,1.672,2.275,2.518,1.023,1.149,2.072,2.273,3.11,3.408.081.089.158.19.3.173" transform="translate(-638.977 -628.827)" fill="#e1dfcb"/>
    <path id="Tracé_585" data-name="Tracé 585" d="M357.85,568.942a2.985,2.985,0,0,0-.638-.825c-.689-.785-1.422-1.527-2.115-2.308-.809-.912-1.634-1.809-2.451-2.713s-1.645-1.8-2.449-2.714c-.551-.627-1.162-1.194-1.668-1.864-.079-.1-.171-.207-.322-.187q0-1.96,0-3.919c.375-.02.469.336.671.549.869.914,1.707,1.859,2.546,2.8.686.772,1.4,1.519,2.1,2.277a1.867,1.867,0,0,1,.126.152c.357.481.807.867,1.2,1.309a.245.245,0,0,0,.206.072c0,.515.011,1.031.014,1.546,0,.537,0,.535.5.538.224,0,.448.01.672.015a.328.328,0,0,0,.122.227q1.292,1.423,2.584,2.846c.538.592,1.082,1.178,1.619,1.771a.866.866,0,0,1,.245.423c-.987.031-1.975.024-2.962,0" transform="translate(-325.786 -516.94)" fill="#e1dfcb"/>
    <path id="Tracé_586" data-name="Tracé 586" d="M162.759,689.082a5.051,5.051,0,0,1,.026.773.267.267,0,0,1-.143.242l-4.4,3.264c-.6-.729-1.28-1.367-1.916-2.054a.269.269,0,0,0-.208-.063q0-4.426,0-8.852a1.214,1.214,0,0,1,.516.38q2.895,3.039,5.791,6.076c.095.1.167.244.334.234" transform="translate(-146.065 -636.272)" fill="#e1dfcb"/>
    <path id="Tracé_587" data-name="Tracé 587" d="M635.22,691.444a.3.3,0,0,0,.1.2c.375.415.747.832,1.123,1.245,1.012,1.11,2.037,2.208,3.037,3.33.788.885,1.585,1.759,2.38,2.637.839.926,1.667,1.864,2.518,2.778.178.191.325.416.515.6a.389.389,0,0,1,.113.334c-1.4,0-2.8,0-4.205.017-.2,0-.216-.131-.263-.267-.6-1.76-1.213-3.518-1.805-5.282-.081-.242-.185-.322-.429-.316-.62.016-1.241,0-1.861-.008a.349.349,0,0,0-.1-.206c-.442-.624-1.018-1.116-1.507-1.7-.672-.8-1.416-1.529-2.108-2.309-.232-.262-.455-.535-.7-.787a.33.33,0,0,1-.1-.272h3.283" transform="translate(-591.245 -644.711)" fill="#e1dfcb"/>
    <path id="Tracé_588" data-name="Tracé 588" d="M742.837,522.219a27.3,27.3,0,0,0,3.337-3.419.344.344,0,0,0,.042.09q1.392,1.538,2.786,3.074a.3.3,0,0,0,.25.126q0,3.446,0,6.891c-.153.018-.229-.1-.318-.2-.827-.862-1.612-1.765-2.41-2.656-1.12-1.251-2.266-2.477-3.4-3.713-.081-.087-.152-.195-.287-.2" transform="translate(-695.006 -483.736)" fill="#e1dfcb"/>
    <path id="Tracé_589" data-name="Tracé 589" d="M554.285,691.443a.331.331,0,0,0,.1.272c.242.253.465.525.7.787.692.78,1.436,1.511,2.108,2.309.488.58,1.064,1.072,1.507,1.7a.349.349,0,0,1,.1.205c-1.173.005-2.346.014-3.52.015-.608,0-1.216-.01-1.824-.015a.366.366,0,0,0-.12-.3q-1.378-1.508-2.752-3.021-.755-.828-1.513-1.654a.36.36,0,0,1-.122-.3h5.343" transform="translate(-513.594 -644.711)" fill="#e1dfcb"/>
    <path id="Tracé_590" data-name="Tracé 590" d="M354.858,522.563a.245.245,0,0,1-.206-.072c-.4-.442-.846-.828-1.2-1.309a1.843,1.843,0,0,0-.126-.152c-.7-.758-1.413-1.505-2.1-2.277-.839-.944-1.677-1.889-2.546-2.8-.2-.213-.3-.569-.671-.549,0-.873,0-1.746-.014-2.619,0-.162.05-.215.2-.209.34.014.681.013,1.022.018a.323.323,0,0,0,.116.264c.8.84,1.568,1.72,2.344,2.589.688.771,1.4,1.519,2.1,2.279.059.064.1.15.158.21.3.29.5.7.924.846q0,1.892,0,3.784" transform="translate(-325.584 -477.929)" fill="#e1dfcb"/>
    <path id="Tracé_591" data-name="Tracé 591" d="M477.879,691.449a.36.36,0,0,0,.122.3q.759.824,1.513,1.654,1.376,1.51,2.752,3.021a.366.366,0,0,1,.12.3c-1.609.029-3.219.024-4.828,0a.868.868,0,0,0-.245-.423c-.537-.593-1.081-1.179-1.619-1.771q-1.294-1.422-2.584-2.846a.329.329,0,0,1-.122-.227h4.893" transform="translate(-442.531 -644.716)" fill="#e1dfcb"/>
    <path id="Tracé_592" data-name="Tracé 592" d="M162.768,635.951c-.167.011-.239-.134-.334-.233q-2.9-3.036-5.791-6.076a1.214,1.214,0,0,0-.516-.38q0-1.926,0-3.851c.159.013.232.153.327.253q2.957,3.1,5.911,6.2c.111.116.2.275.4.232.061.793.016,1.587.023,2.38,0,.492-.013.983-.021,1.475" transform="translate(-146.074 -583.141)" fill="#e1dfcb"/>
    <path id="Tracé_593" data-name="Tracé 593" d="M363.02,341.671l5.987,0q0,1.792,0,3.584c-.106.009-.211.025-.317.025q-2.675,0-5.349-.005c-.106,0-.212-.015-.317-.023q0-1.79,0-3.579" transform="translate(-339.645 -318.577)" fill="#e1dfcb"/>
    <path id="Tracé_594" data-name="Tracé 594" d="M666.888,242.957a10.443,10.443,0,0,1,3.5-1.545,6.346,6.346,0,0,1,2.835-.1A4.036,4.036,0,0,1,676,243.655a10.389,10.389,0,0,1,1.062,4.2,5.277,5.277,0,0,1,.006,1.538,2.379,2.379,0,0,1-.484-.318c-.141-.12-.262-.305-.481-.295-.024-.314-.041-.629-.074-.942a8.563,8.563,0,0,0-.884-3.32,1.288,1.288,0,0,0-1.665-.77,7.864,7.864,0,0,0-2.592,1.228,3.74,3.74,0,0,0-1.088-.942c.1-.13.2-.26.307-.389a10.046,10.046,0,0,0,.9-1.187c.172-.3.127-.389-.191-.447a2.992,2.992,0,0,0-1.3.12,10.233,10.233,0,0,0-2.352,1.051c-.1-.063-.231-.088-.278-.225" transform="translate(-623.947 -224.892)" fill="#e1dfcb"/>
    <path id="Tracé_595" data-name="Tracé 595" d="M742.343,644.412c-.138.017-.214-.084-.3-.173-1.038-1.134-2.088-2.258-3.11-3.408-.753-.845-1.5-1.691-2.275-2.518-.307-.329-.6-.673-.9-1.007-.079-.088-.15-.2-.287-.195-.036-.9-.028-1.8,0-2.7.137,0,.208.107.288.194.355.39.713.776,1.066,1.168.853.947,1.714,1.886,2.563,2.837.681.763,1.385,1.5,2.077,2.255.059.064.094.152.157.211.232.221.38.549.719.636q0,1.351,0,2.7" transform="translate(-688.096 -591.531)" fill="#e1dfcb"/>
    <path id="Tracé_596" data-name="Tracé 596" d="M372.629,518.763c-.421-.146-.623-.557-.924-.846-.062-.059-.1-.146-.158-.21-.7-.76-1.411-1.508-2.1-2.279-.776-.869-1.54-1.749-2.344-2.589a.323.323,0,0,1-.116-.265q2.728-.009,5.456-.02c.152,0,.2.05.2.212q-.014,3-.018,6" transform="translate(-343.356 -477.913)" fill="#e1dfcb"/>
    <path id="Tracé_597" data-name="Tracé 597" d="M164.593,521.448c-.14.013-.207-.1-.289-.187q-3.027-3.175-6.053-6.353c-.074-.078-.172-.142-.172-.273a.627.627,0,0,1,.6-.287c.722.021,1.445.013,2.168.016,0,.115.083.177.15.248l3.332,3.5c.075.078.141.174.265.164.039,1.058.034,2.116,0,3.174" transform="translate(-147.901 -479.585)" fill="#e1dfcb"/>
    <path id="Tracé_598" data-name="Tracé 598" d="M736.026,569.391c.135,0,.207.109.287.2,1.136,1.236,2.282,2.462,3.4,3.713.8.891,1.583,1.794,2.41,2.656.09.093.166.214.318.2v2.5c-.138.018-.215-.082-.3-.171-.317-.35-.635-.7-.951-1.049-.848-.937-1.7-1.868-2.541-2.813-.687-.773-1.4-1.519-2.1-2.28-.059-.064-.1-.15-.158-.211-.268-.266-.462-.62-.825-.775-.006-.491-.022-.982-.013-1.472.005-.3.3-.337.466-.49" transform="translate(-688.195 -530.908)" fill="#e1dfcb"/>
    <path id="Tracé_599" data-name="Tracé 599" d="M735.446,598.429c.363.155.557.509.825.775.061.061.1.147.157.211.7.76,1.413,1.507,2.1,2.28.84.945,1.693,1.876,2.541,2.813l.952,1.049c.081.089.158.189.3.171.023.812.028,1.624,0,2.436-.339-.087-.487-.415-.719-.636-.062-.059-.1-.148-.156-.211-.692-.752-1.4-1.492-2.077-2.255-.849-.951-1.71-1.891-2.563-2.837-.353-.391-.711-.778-1.066-1.167-.08-.087-.15-.2-.288-.194-.036-.811-.031-1.621,0-2.432" transform="translate(-688.068 -557.983)" fill="#e1dfcb"/>
    <path id="Tracé_600" data-name="Tracé 600" d="M126.6,345.23a2.9,2.9,0,0,1-.315.034q-1.951,0-3.9,0c-.1,0-.191-.014-.286-.022q0-1.8-.006-3.6l4.506,0q0,1.793,0,3.586" transform="translate(-114.232 -318.552)" fill="#e1dfcb"/>
    <path id="Tracé_601" data-name="Tracé 601" d="M303.138,341.692q0,1.79,0,3.579a13.3,13.3,0,0,1-1.628.023c-.831,0-1.663.036-2.493-.025q0-1.788,0-3.576h4.121" transform="translate(-279.763 -318.598)" fill="#e1dfcb"/>
    <path id="Tracé_602" data-name="Tracé 602" d="M192.081,345.254q0-1.793,0-3.586l4.12,0q0,1.79,0,3.579a1.125,1.125,0,0,1-.474.033c-1.215-.007-2.43-.018-3.646-.028" transform="translate(-179.71 -318.576)" fill="#e1dfcb"/>
    <path id="Tracé_603" data-name="Tracé 603" d="M4.186,345.039c-1.306,0-2.613-.007-3.919,0-.221,0-.268-.09-.266-.3q.011-1.5,0-3c0-.19.036-.287.246-.285,1.338.01,2.677.009,4.015.012a1.334,1.334,0,0,0-.073.491c0,1.027,0,2.054,0,3.082" transform="translate(0 -318.377)" fill="#e1dfcb"/>
    <path id="Tracé_604" data-name="Tracé 604" d="M65.005,345.2c0-1.027.005-2.054,0-3.082a1.333,1.333,0,0,1,.073-.491h3.6q0,1.8.006,3.6a8.491,8.491,0,0,1-1.376.025,21.036,21.036,0,0,1-2.306-.049" transform="translate(-60.819 -318.541)" fill="#e1dfcb"/>
    <path id="Tracé_605" data-name="Tracé 605" d="M910.008,345.24c-1.069,0-2.138.055-3.206-.017q0-1.8,0-3.591l3.213,0q-.005,1.805-.01,3.611" transform="translate(-848.414 -318.54)" fill="#e1dfcb"/>
    <path id="Tracé_606" data-name="Tracé 606" d="M256.072,345.272l0-3.579h2.765q0,1.788,0,3.576c-.922.051-1.844.036-2.766,0" transform="translate(-239.581 -318.599)" fill="#e1dfcb"/>
    <path id="Tracé_607" data-name="Tracé 607" d="M560.908,526.749c-2.268.458-4.062-.168-5.157-2.349a7.2,7.2,0,0,1-.7-1.969c.25,0,.366.246.56.345.123.063.21.3.4.125l.184.3c.092.148.178.307.39.236.011.178.143.271.256.364.439.363.89.709,1.327,1.075a.43.43,0,0,0,.345.123c.141.553.213.623.723.677.254.027.509.042.764.063.03.211.2.3.332.42.2.187.491.278.571.592" transform="translate(-519.315 -487.122)" fill="#e1dfcb"/>
    <path id="Tracé_608" data-name="Tracé 608" d="M204.777,518.309c-.125.009-.191-.086-.265-.164l-3.332-3.5c-.067-.07-.149-.133-.15-.248q1.779-.006,3.558-.014c.134,0,.219.011.217.192-.014,1.244-.019,2.488-.028,3.732" transform="translate(-188.086 -479.619)" fill="#e1dfcb"/>
    <path id="Tracé_609" data-name="Tracé 609" d="M783.577,353.436c.219-.01.34.175.481.3a2.384,2.384,0,0,0,.484.318,16.3,16.3,0,0,1-1.26,5.884,11.051,11.051,0,0,1-1,2.02c-.173-.168-.4-.274-.529-.493a16.278,16.278,0,0,0,1.37-3.651,18.524,18.524,0,0,0,.453-4.374" transform="translate(-731.417 -329.548)" fill="#e1dfcb"/>
    <path id="Tracé_610" data-name="Tracé 610" d="M797.743,515.977a.3.3,0,0,1-.25-.126q-1.393-1.537-2.786-3.074a.349.349,0,0,1-.042-.09.729.729,0,0,1,.775-.441c.695.038,1.393.015,2.089.01.15,0,.235.017.233.214-.013,1.169-.014,2.338-.019,3.507" transform="translate(-743.496 -477.623)" fill="#e1dfcb"/>
    <path id="Tracé_611" data-name="Tracé 611" d="M850.632,345.062c-.575.052-1.152.026-1.728.021-.167,0-.228-.063-.2-.241a17.6,17.6,0,0,0,.147-3.186c-.008-.187.092-.192.22-.19.523.007,1.047.01,1.57.015q0,1.791-.006,3.582" transform="translate(-794.049 -318.386)" fill="#e1dfcb"/>
    <path id="Tracé_612" data-name="Tracé 612" d="M878.768,345.242q0-1.791.006-3.582l1.8,0q0,1.8,0,3.591a10.788,10.788,0,0,1-1.805-.008" transform="translate(-822.185 -318.567)" fill="#e1dfcb"/>
    <path id="Tracé_613" data-name="Tracé 613" d="M510.988,341.641l2.446,0,.045.055a24.17,24.17,0,0,0-1.48,3.513l-1.008-.019q0-1.773,0-3.546" transform="translate(-478.086 -318.548)" fill="#e1dfcb"/>
    <path id="Tracé_614" data-name="Tracé 614" d="M632.846,546.927c-.08-.314-.372-.4-.571-.592-.132-.124-.3-.209-.332-.42a1.157,1.157,0,0,1,.187-.043,8.922,8.922,0,0,0,2.9-.791,19.645,19.645,0,0,0,1.919-1.009.7.7,0,0,0,.335.428c.113.085.235.159.257.322a12.142,12.142,0,0,1-2.28,1.345,8.34,8.34,0,0,1-2.415.76" transform="translate(-591.253 -507.299)" fill="#e1dfcb"/>
    <path id="Tracé_615" data-name="Tracé 615" d="M710.28,477.777c-.022-.163-.144-.237-.257-.322a.7.7,0,0,1-.335-.428,1.231,1.231,0,0,1,.125-.1,13.976,13.976,0,0,0,2.828-2.426,16.841,16.841,0,0,0,1.687-2.33c.13.219.356.324.529.493a15.277,15.277,0,0,1-2.644,3.484,12.113,12.113,0,0,1-1.935,1.634" transform="translate(-663.993 -440.255)" fill="#e1dfcb"/>
    <path id="Tracé_616" data-name="Tracé 616" d="M517.9,826.266a1.452,1.452,0,0,1,.374,1.947.9.9,0,0,1-.76.436c-.4.016-.794.005-1.19.009-.119,0-.208-.01-.208-.175,0-.143.014-.248.186-.225.144.019.15-.078.15-.19q0-1.571,0-3.141c0-.117-.021-.2-.156-.188-.178.018-.175-.1-.18-.237-.006-.178.1-.163.213-.163a7.785,7.785,0,0,1,1.3.055c.587.1.88,1.1.482,1.638-.058.079-.131.147-.211.234m-.685,1.986a.632.632,0,0,0,.746-.361c.345-.8-.061-1.432-.889-1.391-.153.008-.2.051-.2.211.009.393.021.788,0,1.179-.019.309.06.451.345.362m-.065-3.506c-.229-.061-.3.065-.278.324.02.3,0,.6.005.907,0,.087-.016.182.118.186a.742.742,0,0,0,.8-1.087c-.1-.287-.35-.331-.643-.331" transform="translate(-482.881 -768.623)" fill="#e1dfcb"/>
    <path id="Tracé_617" data-name="Tracé 617" d="M456,345.253v-3.584h1.287q0,1.792,0,3.584a7.419,7.419,0,0,1-1.285,0" transform="translate(-426.637 -318.577)" fill="#e1dfcb"/>
    <path id="Tracé_618" data-name="Tracé 618" d="M550.333,429.68c-.192.173-.279-.063-.4-.125-.194-.1-.31-.341-.56-.345a10.078,10.078,0,0,1-.375-2.548,15.54,15.54,0,0,1,.385-4.2c.168-.036.268.176.438.134-.005.1,0,.2-.017.3a13.755,13.755,0,0,0,.532,6.788" transform="translate(-513.631 -393.901)" fill="#e1dfcb"/>
    <path id="Tracé_619" data-name="Tracé 619" d="M347.972,826.4c0-.63.01-1.261-.006-1.891-.006-.229.066-.291.27-.273a3.083,3.083,0,0,0,.578,0c.933-.095,1.356.732,1.121,1.629a.961.961,0,0,1-.477.648c-.159.08-.137.153-.076.282q.329.693.642,1.394c.053.118.174.236-.045.349-.2.1-.255.014-.327-.147-.232-.518-.486-1.025-.7-1.55-.1-.243-.266-.235-.444-.207-.2.031-.111.215-.114.329-.011.45-.009.9,0,1.35,0,.161-.025.245-.208.244s-.215-.064-.213-.235c.008-.641,0-1.283,0-1.924m.415-.97q0,.32,0,.641c0,.1.013.16.132.183.714.143,1.136-.261,1.045-1.009-.061-.5-.333-.684-.99-.6-.376.047-.11.392-.184.586a.594.594,0,0,0,0,.2" transform="translate(-325.561 -768.527)" fill="#e1dfcb"/>
    <path id="Tracé_620" data-name="Tracé 620" d="M460.506,826.56a3.7,3.7,0,0,0,.005.573c.054.34-.127.486-.381.6a1.076,1.076,0,0,1-1.589-.628,4.083,4.083,0,0,1,.032-2.962,1,1,0,0,1,1.831-.2c.054.076.192.17.016.261-.106.055-.206.237-.343.024a.642.642,0,0,0-.7-.356c-.319.073-.432.358-.5.643a4.755,4.755,0,0,0-.012,2.271c.138.567.525.787.987.61a.31.31,0,0,0,.238-.343,7.018,7.018,0,0,1,0-.844c.014-.223-.078-.273-.263-.255-.117.012-.236,0-.354,0-.135.006-.158-.074-.158-.192s.016-.2.155-.192c.289.007.579.009.869,0,.149,0,.179.068.175.2-.007.259,0,.518,0,.777" transform="translate(-428.77 -767.784)" fill="#e1dfcb"/>
    <path id="Tracé_621" data-name="Tracé 621" d="M156.117,813.371a.269.269,0,0,1,.208.063c.636.687,1.321,1.325,1.916,2.054l-2.124,1.622Z" transform="translate(-146.065 -758.398)" fill="#e1dfcb"/>
    <path id="Tracé_622" data-name="Tracé 622" d="M494.067,341.672q0,1.773,0,3.546c-.289,0-.579-.005-.866.019-.251.021-.3-.087-.3-.33.012-1.078.006-2.157.007-3.236h1.158" transform="translate(-461.165 -318.579)" fill="#e1dfcb"/>
    <path id="Tracé_623" data-name="Tracé 623" d="M477.059,341.669c0,1.079.005,2.157-.007,3.236,0,.243.05.351.3.33.287-.024.577-.014.866-.019l1.008.019a.33.33,0,0,1-.111.044q-1.577-.01-3.155-.026,0-1.792,0-3.584h1.1" transform="translate(-445.315 -318.577)" fill="#e1dfcb"/>
    <path id="Tracé_624" data-name="Tracé 624" d="M74.094,567.332c.475.581,1.023,1.086,1.525,1.64.086.095.21.165.217.321h-3.8l2.058-1.96" transform="translate(-67.398 -528.988)" fill="#e1dfcb"/>
    <path id="Tracé_625" data-name="Tracé 625" d="M555.647,319.223c-.17.041-.269-.17-.438-.134a16.513,16.513,0,0,1,2.648-6.122,10.9,10.9,0,0,1,1.087-1.375l.328.141c-.065.088-.126.179-.2.263a15.591,15.591,0,0,0-2.7,4.548,19.319,19.319,0,0,0-.73,2.679" transform="translate(-519.459 -290.533)" fill="#e1dfcb"/>
    <path id="Tracé_626" data-name="Tracé 626" d="M572.712,825.951c.281-.689.535-1.3.784-1.923.061-.15.093-.279.309-.181s.119.216.067.342c-.111.267-.212.541-.341.8a4.968,4.968,0,0,0-.612,2.9c.018.148.022.28-.2.284s-.24-.132-.221-.3a4.845,4.845,0,0,0-.591-2.838c-.142-.275-.242-.574-.363-.861-.056-.132-.142-.244.076-.33.18-.071.235-.022.3.148.245.633.507,1.26.791,1.96" transform="translate(-534.682 -768.134)" fill="#e1dfcb"/>
    <path id="Tracé_627" data-name="Tracé 627" d="M404.126,828.656a.928.928,0,0,1-1.15-.952c-.027-1.066-.005-2.134-.014-3.2,0-.193.1-.177.219-.185.152-.009.2.043.2.207-.007.876,0,1.752,0,2.628,0,.135,0,.27.006.4.039.6.159.723.731.727q0,.185.009.371" transform="translate(-377.015 -768.605)" fill="#e1dfcb"/>
    <path id="Tracé_628" data-name="Tracé 628" d="M420.914,828.566q0-.185-.009-.371c.372-.13.449-.444.45-.8,0-.956,0-1.913,0-2.87,0-.149-.051-.307.207-.3s.2.168.2.312c0,1,.009,2,0,3a.92.92,0,0,1-.845,1.029" transform="translate(-393.803 -768.515)" fill="#e1dfcb"/>
    <path id="Tracé_629" data-name="Tracé 629" d="M613.54,270.417l-.328-.141a12.914,12.914,0,0,1,2.228-2.153,7.438,7.438,0,0,1,1.228-.841c.047.137.177.162.278.225a17.65,17.65,0,0,0-3.406,2.911" transform="translate(-573.728 -249.216)" fill="#e1dfcb"/>
    <path id="Tracé_630" data-name="Tracé 630" d="M549.027,341.671l-.045-.055c.041,0,.074,0,.045.055" transform="translate(-513.633 -318.526)" fill="#e1dfcb"/>
    <path id="Tracé_631" data-name="Tracé 631" d="M618.953,291.173a16.838,16.838,0,0,1-1.687,2.33,13.971,13.971,0,0,1-2.828,2.426,1.237,1.237,0,0,0-.125.1,19.7,19.7,0,0,1-1.919,1.009,8.922,8.922,0,0,1-2.9.791,1.159,1.159,0,0,0-.187.043c-.255-.021-.51-.036-.764-.063-.51-.054-.582-.124-.723-.677-.1-.143-.036-.3-.049-.458a15.182,15.182,0,0,1,.08-2.281c.03-.48.153-.966.22-1.452a30.694,30.694,0,0,1,1.629-5.82,23.308,23.308,0,0,1,1.866-3.636,16.777,16.777,0,0,1,4-4.147,7.862,7.862,0,0,1,2.592-1.228,1.289,1.289,0,0,1,1.665.77,8.564,8.564,0,0,1,.884,3.32c.033.313.05.628.074.942a18.521,18.521,0,0,1-.453,4.374,16.279,16.279,0,0,1-1.37,3.651" transform="translate(-568.616 -259.261)" fill="#e1dfcb"/>
    <path id="Tracé_632" data-name="Tracé 632" d="M562.626,256.927a17.652,17.652,0,0,1,3.406-2.911,10.231,10.231,0,0,1,2.352-1.051,2.994,2.994,0,0,1,1.3-.12c.318.059.363.152.191.447a10.035,10.035,0,0,1-.9,1.187c-.1.129-.2.259-.307.389-.5.553-.962,1.138-1.416,1.731a30.78,30.78,0,0,0-2.093,3.013,22.06,22.06,0,0,0-2.063,3.976,50.227,50.227,0,0,0-1.786,5.218,13.733,13.733,0,0,0-.444,1.326,7.752,7.752,0,0,1-.781,1.908c-.212.071-.3-.088-.39-.236l-.184-.3a13.754,13.754,0,0,1-.532-6.788c.014-.1.012-.2.017-.3a19.3,19.3,0,0,1,.73-2.679,15.587,15.587,0,0,1,2.7-4.548c.07-.083.131-.175.2-.263" transform="translate(-522.813 -235.727)" fill="#e1dfcb"/>
    <path id="Tracé_633" data-name="Tracé 633" d="M657.7,287.953a30.782,30.782,0,0,1,2.093-3.013c.454-.593.917-1.178,1.416-1.731a3.744,3.744,0,0,1,1.088.942,16.778,16.778,0,0,0-4,4.147c-.265.009-.4-.236-.6-.345" transform="translate(-615.352 -264.068)" fill="#e1dfcb"/>
    <path id="Tracé_634" data-name="Tracé 634" d="M578.907,492.679a7.745,7.745,0,0,0,.781-1.908,13.74,13.74,0,0,1,.444-1.326.761.761,0,0,1,.334.171c.213.136.35.391.62.435-.067.486-.189.972-.219,1.452a15.183,15.183,0,0,0-.08,2.281c.013.153-.046.314.049.458a.43.43,0,0,1-.345-.123c-.437-.365-.888-.712-1.327-1.075-.113-.093-.245-.186-.256-.364" transform="translate(-541.631 -456.365)" fill="#e1dfcb"/>
    <path id="Tracé_635" data-name="Tracé 635" d="M598.88,363.2c-.27-.044-.408-.3-.62-.435a.76.76,0,0,0-.334-.171,50.168,50.168,0,0,1,1.786-5.218,22.073,22.073,0,0,1,2.062-3.976c.2.109.336.353.6.345a23.293,23.293,0,0,0-1.866,3.636,30.684,30.684,0,0,0-1.629,5.82" transform="translate(-559.426 -329.519)" fill="#e1dfcb"/>
  </g>
</svg>
