<svg xmlns="http://www.w3.org/2000/svg" xmlns:xlink="http://www.w3.org/1999/xlink" width="58.993" height="65.232" viewBox="0 0 58.993 65.232">
  <defs>
    <clipPath id="clip-path">
      <rect id="Rectangle_2200" data-name="Rectangle 2200" width="50.881" height="50.144" fill="none"/>
    </clipPath>
    <clipPath id="clip-path-2">
      <rect id="Rectangle_2201" data-name="Rectangle 2201" width="10.093" height="11.963" fill="#b1771a"/>
    </clipPath>
  </defs>
  <g id="Groupe_235" data-name="Groupe 235" transform="translate(-160 -2716.092)">
    <g id="Groupe_227" data-name="Groupe 227" transform="translate(160 2731.18)">
      <g id="Groupe_226" data-name="Groupe 226" clip-path="url(#clip-path)">
        <path id="Tracé_9712" data-name="Tracé 9712" d="M47.891,13.5c-.272-.522-.573-1.051-.9-1.578a25.046,25.046,0,0,0-2.323-3.241A25.154,25.154,0,0,0,33.015,1.246c-.569-.18-1.163-.345-1.772-.492A25.7,25.7,0,0,0,27.281.083,25.424,25.424,0,0,0,13.7,2.946c-.53.269-1.067.565-1.6.885A25.363,25.363,0,0,0,8.812,6.119,24.719,24.719,0,0,0,1.265,17.607c-.181.557-.347,1.138-.5,1.734a24.652,24.652,0,0,0-.685,3.918A24.454,24.454,0,0,0,2.989,36.64c.273.523.574,1.051.9,1.579a25,25,0,0,0,2.322,3.24A25.154,25.154,0,0,0,17.866,48.9c.566.179,1.158.343,1.764.49a25.672,25.672,0,0,0,3.97.673A25.42,25.42,0,0,0,37.179,47.2c.529-.267,1.063-.563,1.6-.881a25.442,25.442,0,0,0,3.293-2.292,24.721,24.721,0,0,0,7.547-11.488c.182-.559.348-1.143.5-1.741a24.694,24.694,0,0,0,.683-3.91A24.447,24.447,0,0,0,47.891,13.5M42.763,41.718a26.508,26.508,0,0,1-5.648,4.308,23.493,23.493,0,0,1-2.851,1.325,26.674,26.674,0,0,1-8.518,1.562,26.921,26.921,0,0,1-7.085-.89,23.58,23.58,0,0,1-2.967-1.049,26.361,26.361,0,0,1-7.144-4.832,26.222,26.222,0,0,1-4.372-5.566,22.923,22.923,0,0,1-1.345-2.809,25.637,25.637,0,0,1-1.585-8.4,25.8,25.8,0,0,1,.9-6.983,22.79,22.79,0,0,1,1.064-2.923,25.956,25.956,0,0,1,4.9-7.041,26.5,26.5,0,0,1,5.649-4.308,23.458,23.458,0,0,1,2.85-1.325,26.692,26.692,0,0,1,8.519-1.563,26.929,26.929,0,0,1,7.084.89,23.633,23.633,0,0,1,2.966,1.049A26.361,26.361,0,0,1,42.332,8,26.2,26.2,0,0,1,46.7,13.567a22.816,22.816,0,0,1,1.345,2.809,25.619,25.619,0,0,1,1.585,8.395,25.811,25.811,0,0,1-.9,6.983,22.9,22.9,0,0,1-1.064,2.923,25.955,25.955,0,0,1-4.9,7.041" transform="translate(0 0)" fill="#e1dfcb"/>
        <path id="Tracé_9713" data-name="Tracé 9713" d="M61.829,47.983c-.109-.21-.231-.423-.361-.635a9.528,9.528,0,0,0-5.629-4.3c-.229-.073-.468-.139-.714-.2a9.7,9.7,0,0,0-7.063.882c-.214.108-.43.228-.645.356a10.282,10.282,0,0,0-1.324.921,9.956,9.956,0,0,0-3.039,4.626c-.073.224-.14.458-.2.7A9.307,9.307,0,0,0,43.75,57.3c.109.211.231.424.361.636a9.526,9.526,0,0,0,5.629,4.3c.228.072.466.138.71.2a9.7,9.7,0,0,0,7.066-.881c.213-.108.428-.227.643-.355a10.244,10.244,0,0,0,1.326-.923,9.953,9.953,0,0,0,3.039-4.625c.073-.225.14-.46.2-.7A9.945,9.945,0,0,0,63,53.371a9.842,9.842,0,0,0-1.17-5.388M59.765,59.344a10.679,10.679,0,0,1-2.275,1.735,9.428,9.428,0,0,1-1.148.534,10.433,10.433,0,0,1-6.283.271,9.529,9.529,0,0,1-1.195-.422,10.229,10.229,0,0,1-4.637-4.187,9.143,9.143,0,0,1-.542-1.131,10,10,0,0,1-.275-6.192,9.15,9.15,0,0,1,.429-1.177,10.449,10.449,0,0,1,1.974-2.835A10.677,10.677,0,0,1,48.089,44.2a9.406,9.406,0,0,1,1.148-.534A10.419,10.419,0,0,1,55.52,43.4a9.469,9.469,0,0,1,1.194.422,10.225,10.225,0,0,1,4.637,4.187,9.147,9.147,0,0,1,.541,1.131,10,10,0,0,1,.275,6.192,9.245,9.245,0,0,1-.429,1.177,10.448,10.448,0,0,1-1.974,2.835" transform="translate(-27.349 -27.569)" fill="#e1dfcb"/>
        <path id="Tracé_9714" data-name="Tracé 9714" d="M63.712,53.477a7.877,7.877,0,0,0-.571-2.22,9.572,9.572,0,0,0-1.959-3.185,8.312,8.312,0,0,0-6.474-2.5c-.07,0-.141-.013-.21-.015a8.3,8.3,0,0,0-6.243,2.6l-.034.029a7.918,7.918,0,0,0-2.237,3.668,9.323,9.323,0,0,0-.565,2.816,8.1,8.1,0,0,0,3.518,6.848,8.241,8.241,0,0,0,3.508,1.742,9.526,9.526,0,0,0,2.224.358,8.264,8.264,0,0,0,5.441-1.861,9.139,9.139,0,0,0,1.192-.917,8.06,8.06,0,0,0,2.41-7.368m-9.584,9.03a9.015,9.015,0,0,1-5.08-2.24,7.9,7.9,0,0,1-2.393-6.374,8.765,8.765,0,0,1,2.273-5.006c.16-.171.326-.327.495-.476A9,9,0,0,1,54.5,46.543a8.133,8.133,0,0,1,6.265,2.84,8.749,8.749,0,0,1,1.985,5.124,7.919,7.919,0,0,1-2.881,6.174,9.5,9.5,0,0,1-2.961,1.564,11.036,11.036,0,0,1-2.778.262" transform="translate(-29.192 -29.519)" fill="#e1dfcb"/>
        <path id="Tracé_9715" data-name="Tracé 9715" d="M70.225,68.7a1.166,1.166,0,0,0-.95-.568,1.06,1.06,0,0,0-.972.518.916.916,0,0,0-.091.21,1.049,1.049,0,0,0-.032.63,1.158,1.158,0,0,0,.838.784A1.106,1.106,0,0,0,70.225,68.7" transform="translate(-43.804 -44.148)" fill="#e1dfcb"/>
        <path id="Tracé_9716" data-name="Tracé 9716" d="M31.852,72.682c-7.868-.641-13.975-4.9-17.851-11.6-3.71-6.408-4.061-14.351.1-20.631.048-.073-.065-.161-.123-.093C3.806,52.308,16,74.825,31.852,72.908a.113.113,0,0,0,0-.226" transform="translate(-6.589 -26.138)" fill="#e1dfcb"/>
        <path id="Tracé_9717" data-name="Tracé 9717" d="M38.063,74.317c-4.346-1.7-8.012-3.9-10.494-7.943a16.337,16.337,0,0,1-2.21-7.5c-.165-2.609.618-4.923,1.234-7.4a.053.053,0,0,0-.1-.04c-2.916,4.227-2.181,10.611.046,14.932,2.141,4.154,6.682,7.806,11.48,8.251.183.017.185-.235.04-.291" transform="translate(-15.801 -33.307)" fill="#e1dfcb"/>
        <path id="Tracé_9718" data-name="Tracé 9718" d="M46.925,78.227a31.628,31.628,0,0,0-2.749-1.579,10.8,10.8,0,0,1-3.3-3.13c-1.837-2.573-1.981-5.379-1.906-8.4,0-.03-.04-.031-.049-.006-1.144,2.849-.326,6.282,1.261,8.8,1.317,2.091,4.083,4.5,6.731,4.365a.031.031,0,0,0,.016-.056" transform="translate(-24.673 -42.183)" fill="#e1dfcb"/>
        <path id="Tracé_9719" data-name="Tracé 9719" d="M71.524,9.6c7.868.641,13.975,4.9,17.851,11.6,3.71,6.408,4.061,14.351-.1,20.631-.049.073.065.161.123.093C99.57,29.974,87.379,7.457,71.524,9.374a.113.113,0,0,0,0,.226" transform="translate(-45.905 -6)" fill="#e1dfcb"/>
        <path id="Tracé_9720" data-name="Tracé 9720" d="M79.936,25.41c4.346,1.7,8.012,3.9,10.493,7.943a16.335,16.335,0,0,1,2.21,7.5c.165,2.609-.618,4.922-1.234,7.4a.053.053,0,0,0,.1.04c2.916-4.227,2.181-10.611-.046-14.932-2.142-4.154-6.682-7.805-11.48-8.251-.183-.017-.185.235-.04.292" transform="translate(-51.317 -16.276)" fill="#e1dfcb"/>
        <path id="Tracé_9721" data-name="Tracé 9721" d="M80.125,39.943a31.681,31.681,0,0,0,2.749,1.579,10.8,10.8,0,0,1,3.3,3.13c1.837,2.573,1.981,5.379,1.906,8.4,0,.03.04.031.05.006,1.144-2.849.325-6.282-1.261-8.8-1.318-2.092-4.083-4.5-6.731-4.365a.03.03,0,0,0-.015.056" transform="translate(-51.496 -25.842)" fill="#e1dfcb"/>
      </g>
    </g>
    <g id="Groupe_229" data-name="Groupe 229" transform="translate(208.901 2727.987)">
      <g id="Groupe_228" data-name="Groupe 228" transform="translate(0 0)" clip-path="url(#clip-path-2)">
        <path id="Tracé_9722" data-name="Tracé 9722" d="M10.058,3.155a.171.171,0,0,0-.215-.173c-.632.253-2.386,1.838-2.324-.051.026-.8.285-1.441-.224-2.153C6.3-.609,4.371.157,3.209.8a.242.242,0,0,0-.123.3,17.582,17.582,0,0,0,.138,4.441q.08,1.306.161,2.611c.021.331.025.675.043,1.017a.161.161,0,0,0-.085-.082c-.044-.019-.09-.037-.136-.055a.94.94,0,0,0-.236-.081,2.347,2.347,0,0,0-2.747.69,1.521,1.521,0,0,0,1.122,2.271c.915.225,2.568-.3,2.794-1.32a.866.866,0,0,0-.013-.379,10.4,10.4,0,0,0-.051-1.734Q4,7.173,3.918,5.868q-.062-1.013-.125-2.027c.388-.349,1.081-.671,1.253.09a1.742,1.742,0,0,0,.36.792,2.066,2.066,0,0,0,1.455.738A3.563,3.563,0,0,0,10.082,3.3a.133.133,0,0,0-.024-.142" transform="translate(0 0)" fill="#b1771a"/>
      </g>
    </g>
    <g id="Groupe_230" data-name="Groupe 230" transform="translate(195.684 2716.092)">
      <g id="Groupe_228-2" data-name="Groupe 228" transform="translate(0 0)" clip-path="url(#clip-path-2)">
        <path id="Tracé_9722-2" data-name="Tracé 9722" d="M10.058,3.155a.171.171,0,0,0-.215-.173c-.632.253-2.386,1.838-2.324-.051.026-.8.285-1.441-.224-2.153C6.3-.609,4.371.157,3.209.8a.242.242,0,0,0-.123.3,17.582,17.582,0,0,0,.138,4.441q.08,1.306.161,2.611c.021.331.025.675.043,1.017a.161.161,0,0,0-.085-.082c-.044-.019-.09-.037-.136-.055a.94.94,0,0,0-.236-.081,2.347,2.347,0,0,0-2.747.69,1.521,1.521,0,0,0,1.122,2.271c.915.225,2.568-.3,2.794-1.32a.866.866,0,0,0-.013-.379,10.4,10.4,0,0,0-.051-1.734Q4,7.173,3.918,5.868q-.062-1.013-.125-2.027c.388-.349,1.081-.671,1.253.09a1.742,1.742,0,0,0,.36.792,2.066,2.066,0,0,0,1.455.738A3.563,3.563,0,0,0,10.082,3.3a.133.133,0,0,0-.024-.142" transform="translate(0 0)" fill="#b1771a"/>
      </g>
    </g>
  </g>
</svg>
