<svg id="Groupe_252" data-name="Groupe 252" xmlns="http://www.w3.org/2000/svg" xmlns:xlink="http://www.w3.org/1999/xlink" width="26.444" height="47.137" viewBox="0 0 26.444 47.137">
  <defs>
    <clipPath id="clip-path">
      <rect id="Rectangle_1932" data-name="Rectangle 1932" width="26.444" height="47.137" fill="#c3c2b1"/>
    </clipPath>
  </defs>
  <g id="Groupe_211" data-name="Groupe 211" transform="translate(0 0)" clip-path="url(#clip-path)">
    <path id="Tracé_8220" data-name="Tracé 8220" d="M5.667,10.661q.393-2.375.744-4.756c.113-.758-1.2-.75-1.315,0q-.328,2.222-.7,4.438c-.124.751,1.143,1.075,1.268.318" transform="translate(-0.268 -0.792)" fill="#c3c2b1"/>
    <path id="Tracé_8221" data-name="Tracé 8221" d="M6.207,3.91a.6.6,0,1,0,0-1.192.6.6,0,1,0,0,1.192" transform="translate(-0.339 -0.403)" fill="#c3c2b1"/>
    <path id="Tracé_8222" data-name="Tracé 8222" d="M15.114,40.559c.063-3.562.075-7.121-.008-10.684v0c15.3-1.32,11.825-20.095,8.081-29.417A.542.542,0,0,0,22.573,0c-6.193.348-12.4.283-18.6.067a.675.675,0,0,0-.1.015A.622.622,0,0,0,3.707.11L3.7.112a.508.508,0,0,0-.381.4c-1.456,6.514-4.354,14-2.478,20.683,1.3,4.632,5.508,7.83,10.481,8.583a.552.552,0,0,0-.02.1c.084,3.588.071,7.171.006,10.758-2.112.024-11.81,0-11.283,3.563.412,2.793,8.763,2.777,10.871,2.882a50,50,0,0,0,10-.531c1.335-.2,5.045-.777,5.481-2.325.975-3.457-8.91-3.631-11.262-3.663M4.477,1.276c5.87.2,11.748.248,17.614-.062A45.963,45.963,0,0,1,25,13.356a.731.731,0,0,0-.217.049c-4.827,2.06-8.591,1.656-13.62.754a21.3,21.3,0,0,0-9.412.558C2.1,10.185,3.462,5.7,4.477,1.276m-2.8,16.576c-.029-.625-.022-1.249,0-1.874a20.932,20.932,0,0,1,7.3-.929c2.117.164,4.134.839,6.226,1.131a18.522,18.522,0,0,0,9.878-1.6c.329,7.178-1.981,13.829-10.955,14.17-7.2.273-12.154-4.627-12.447-10.9M22.309,45.083a37.891,37.891,0,0,1-11.417.8c-2.337-.117-6.189-.034-8.284-1.158-2.207-1.185.761-2.017,2.153-2.308a33.877,33.877,0,0,1,6.525-.594c-.01.445-.008.89-.02,1.335-.022.767,1.293.767,1.315,0q.182-6.628.032-13.247.586.038,1.179.031.154,6.613-.033,13.217c-.021.767,1.294.767,1.316,0,.013-.47.01-.938.021-1.407a34.572,34.572,0,0,1,6.579.622c.548.116,2.2.316,2.551.765,1.04,1.319-1.063,1.708-1.917,1.942" transform="translate(0 0)" fill="#c3c2b1"/>
  </g>
</svg>
